%TF.GenerationSoftware,KiCad,Pcbnew,7.0.10-7.0.10~ubuntu22.04.1*%
%TF.CreationDate,2024-03-14T13:40:30-04:00*%
%TF.ProjectId,dioBreakOutBoard,64696f42-7265-4616-9b4f-7574426f6172,rev?*%
%TF.SameCoordinates,Original*%
%TF.FileFunction,Paste,Top*%
%TF.FilePolarity,Positive*%
%FSLAX46Y46*%
G04 Gerber Fmt 4.6, Leading zero omitted, Abs format (unit mm)*
G04 Created by KiCad (PCBNEW 7.0.10-7.0.10~ubuntu22.04.1) date 2024-03-14 13:40:30*
%MOMM*%
%LPD*%
G01*
G04 APERTURE LIST*
%ADD10C,0.640000*%
%ADD11C,1.270000*%
G04 APERTURE END LIST*
D10*
%TO.C,J2*%
X238115000Y-79035000D03*
X238115000Y-77765000D03*
X238115000Y-76495000D03*
X238115000Y-75225000D03*
X238115000Y-73955000D03*
X238115000Y-72685000D03*
X238115000Y-71415000D03*
X238115000Y-70145000D03*
X238115000Y-68875000D03*
X238115000Y-67605000D03*
X238115000Y-66335000D03*
X238115000Y-65065000D03*
X238115000Y-63795000D03*
X238115000Y-62525000D03*
X238115000Y-61255000D03*
X238115000Y-59985000D03*
X238115000Y-58715000D03*
X238115000Y-57445000D03*
X238115000Y-56175000D03*
X238115000Y-54910000D03*
X238115000Y-53630000D03*
X238115000Y-52365000D03*
X238115000Y-51095000D03*
X238115000Y-49825000D03*
X238115000Y-48555000D03*
X238115000Y-47285000D03*
X238115000Y-46015000D03*
X238115000Y-44745000D03*
X238115000Y-43475000D03*
X238115000Y-42205000D03*
X238115000Y-40935000D03*
X238115000Y-39665000D03*
X238115000Y-38395000D03*
X238115000Y-37125000D03*
X238115000Y-35855000D03*
X238115000Y-34585000D03*
X238115000Y-33315000D03*
X238115000Y-32045000D03*
X238115000Y-30775000D03*
X238115000Y-29505000D03*
X236845000Y-79035000D03*
X236845000Y-77765000D03*
X236845000Y-76495000D03*
X236845000Y-75225000D03*
X236845000Y-73955000D03*
X236845000Y-72685000D03*
X236845000Y-71415000D03*
X236845000Y-70145000D03*
X236845000Y-68875000D03*
X236845000Y-67605000D03*
X236845000Y-66335000D03*
X236845000Y-65065000D03*
X236845000Y-63795000D03*
X236845000Y-62525000D03*
X236845000Y-61255000D03*
X236845000Y-59985000D03*
X236845000Y-58715000D03*
X236845000Y-57445000D03*
X236845000Y-56175000D03*
X236845000Y-54910000D03*
X236845000Y-53630000D03*
X236845000Y-52365000D03*
X236845000Y-51095000D03*
X236845000Y-49825000D03*
X236845000Y-48555000D03*
X236845000Y-47285000D03*
X236845000Y-46015000D03*
X236845000Y-44745000D03*
X236845000Y-43475000D03*
X236845000Y-42205000D03*
X236845000Y-40935000D03*
X236845000Y-39665000D03*
X236845000Y-38395000D03*
X236845000Y-37125000D03*
X236845000Y-35855000D03*
X236845000Y-34585000D03*
X236845000Y-33315000D03*
X236845000Y-32045000D03*
X236845000Y-30775000D03*
X236845000Y-29505000D03*
X235575000Y-79035000D03*
X235575000Y-77765000D03*
X235575000Y-76495000D03*
X235575000Y-75225000D03*
X235575000Y-73955000D03*
X235575000Y-72685000D03*
X235575000Y-71415000D03*
X235575000Y-70145000D03*
X235575000Y-68875000D03*
X235575000Y-67605000D03*
X235575000Y-66335000D03*
X235575000Y-65065000D03*
X235575000Y-63795000D03*
X235575000Y-62525000D03*
X235575000Y-61255000D03*
X235575000Y-59985000D03*
X235575000Y-58715000D03*
X235575000Y-57445000D03*
X235575000Y-56175000D03*
X235575000Y-54910000D03*
X235575000Y-53630000D03*
X235575000Y-52365000D03*
X235575000Y-51095000D03*
X235575000Y-49825000D03*
X235575000Y-48555000D03*
X235575000Y-47285000D03*
X235575000Y-46015000D03*
X235575000Y-44745000D03*
X235575000Y-43475000D03*
X235575000Y-42205000D03*
X235575000Y-40935000D03*
X235575000Y-39665000D03*
X235575000Y-38395000D03*
X235575000Y-37125000D03*
X235575000Y-35855000D03*
X235575000Y-34585000D03*
X235575000Y-33315000D03*
X235575000Y-32045000D03*
X235575000Y-30775000D03*
X235575000Y-29505000D03*
X234305000Y-79035000D03*
X234305000Y-77765000D03*
X234305000Y-76495000D03*
X234305000Y-75225000D03*
X234305000Y-73955000D03*
X234305000Y-72685000D03*
X234305000Y-71415000D03*
X234305000Y-70145000D03*
X234305000Y-68875000D03*
X234305000Y-67605000D03*
X234305000Y-66335000D03*
X234305000Y-65065000D03*
X234305000Y-63795000D03*
X234305000Y-62525000D03*
X234305000Y-61255000D03*
X234305000Y-59985000D03*
X234305000Y-58715000D03*
X234305000Y-57445000D03*
X234305000Y-56175000D03*
X234305000Y-54910000D03*
X234305000Y-53630000D03*
X234305000Y-52365000D03*
X234305000Y-51095000D03*
X234305000Y-49825000D03*
X234305000Y-48555000D03*
X234305000Y-47285000D03*
X234305000Y-46015000D03*
X234305000Y-44745000D03*
X234305000Y-43475000D03*
X234305000Y-42205000D03*
X234305000Y-40935000D03*
X234305000Y-39665000D03*
X234305000Y-38395000D03*
X234305000Y-37125000D03*
X234305000Y-35855000D03*
X234305000Y-34585000D03*
X234305000Y-33315000D03*
X234305000Y-32045000D03*
X234305000Y-30775000D03*
X234305000Y-29505000D03*
X233040000Y-79035000D03*
X233040000Y-77765000D03*
X233040000Y-76495000D03*
X233040000Y-75225000D03*
X233040000Y-73955000D03*
X233040000Y-72685000D03*
X233040000Y-71415000D03*
X233040000Y-70145000D03*
X233040000Y-68875000D03*
X233040000Y-67605000D03*
X233040000Y-66335000D03*
X233040000Y-65065000D03*
X233040000Y-63795000D03*
X233040000Y-62525000D03*
X233040000Y-61255000D03*
X233040000Y-59985000D03*
X233040000Y-58715000D03*
X233040000Y-57445000D03*
X233040000Y-56175000D03*
X233040000Y-54910000D03*
X233040000Y-53630000D03*
X233040000Y-52365000D03*
X233040000Y-51095000D03*
X233040000Y-49825000D03*
X233040000Y-48555000D03*
X233040000Y-47285000D03*
X233040000Y-46015000D03*
X233040000Y-44745000D03*
X233040000Y-43475000D03*
X233040000Y-42205000D03*
X233040000Y-40935000D03*
X233040000Y-39665000D03*
X233040000Y-38395000D03*
X233040000Y-37125000D03*
X233040000Y-35855000D03*
X233040000Y-34585000D03*
X233040000Y-33315000D03*
X233040000Y-32045000D03*
X233040000Y-30775000D03*
X233040000Y-29505000D03*
X231760000Y-79035000D03*
X231760000Y-77765000D03*
X231760000Y-76495000D03*
X231760000Y-75225000D03*
X231760000Y-73955000D03*
X231760000Y-72685000D03*
X231760000Y-71415000D03*
X231760000Y-70145000D03*
X231760000Y-68875000D03*
X231760000Y-67605000D03*
X231760000Y-66335000D03*
X231760000Y-65065000D03*
X231760000Y-63795000D03*
X231760000Y-62525000D03*
X231760000Y-61255000D03*
X231760000Y-59985000D03*
X231760000Y-58715000D03*
X231760000Y-57445000D03*
X231760000Y-56175000D03*
X231760000Y-54910000D03*
X231760000Y-53630000D03*
X231760000Y-52365000D03*
X231760000Y-51095000D03*
X231760000Y-49825000D03*
X231760000Y-48555000D03*
X231760000Y-47285000D03*
X231760000Y-46015000D03*
X231760000Y-44745000D03*
X231760000Y-43475000D03*
X231760000Y-42205000D03*
X231760000Y-40935000D03*
X231760000Y-39665000D03*
X231760000Y-38395000D03*
X231760000Y-37125000D03*
X231760000Y-35855000D03*
X231760000Y-34585000D03*
X231760000Y-33315000D03*
X231760000Y-32045000D03*
X231760000Y-30775000D03*
X231760000Y-29505000D03*
X230495000Y-79035000D03*
X230495000Y-77765000D03*
X230495000Y-76495000D03*
X230495000Y-75225000D03*
X230495000Y-73955000D03*
X230495000Y-72685000D03*
X230495000Y-71415000D03*
X230495000Y-70145000D03*
X230495000Y-68875000D03*
X230495000Y-67605000D03*
X230495000Y-66335000D03*
X230495000Y-65065000D03*
X230495000Y-63795000D03*
X230495000Y-62525000D03*
X230495000Y-61255000D03*
X230495000Y-59985000D03*
X230495000Y-58715000D03*
X230495000Y-57445000D03*
X230495000Y-56175000D03*
X230495000Y-54910000D03*
X230495000Y-53630000D03*
X230495000Y-52365000D03*
X230495000Y-51095000D03*
X230495000Y-49825000D03*
X230495000Y-48555000D03*
X230495000Y-47285000D03*
X230495000Y-46015000D03*
X230495000Y-44745000D03*
X230495000Y-43475000D03*
X230495000Y-42205000D03*
X230495000Y-40935000D03*
X230495000Y-39665000D03*
X230495000Y-38395000D03*
X230495000Y-37125000D03*
X230495000Y-35855000D03*
X230495000Y-34585000D03*
X230495000Y-33315000D03*
X230495000Y-32045000D03*
X230495000Y-30775000D03*
X230495000Y-29505000D03*
X229225000Y-79035000D03*
X229225000Y-77765000D03*
X229225000Y-76495000D03*
X229225000Y-75225000D03*
X229225000Y-73955000D03*
X229225000Y-72685000D03*
X229225000Y-71415000D03*
X229225000Y-70145000D03*
X229225000Y-68875000D03*
X229225000Y-67605000D03*
X229225000Y-66335000D03*
X229225000Y-65065000D03*
X229225000Y-63795000D03*
X229225000Y-62525000D03*
X229225000Y-61255000D03*
X229225000Y-59985000D03*
X229225000Y-58715000D03*
X229225000Y-57445000D03*
X229225000Y-56175000D03*
X229225000Y-54910000D03*
X229225000Y-53630000D03*
X229225000Y-52365000D03*
X229225000Y-51095000D03*
X229225000Y-49825000D03*
X229225000Y-48555000D03*
X229225000Y-47285000D03*
X229225000Y-46015000D03*
X229225000Y-44745000D03*
X229225000Y-43475000D03*
X229225000Y-42205000D03*
X229225000Y-40935000D03*
X229225000Y-39665000D03*
X229225000Y-38395000D03*
X229225000Y-37125000D03*
X229225000Y-35855000D03*
X229225000Y-34585000D03*
X229225000Y-33315000D03*
X229225000Y-32045000D03*
X229225000Y-30775000D03*
X229225000Y-29505000D03*
X227955000Y-79035000D03*
X227955000Y-77765000D03*
X227955000Y-76495000D03*
X227955000Y-75225000D03*
X227955000Y-73955000D03*
X227955000Y-72685000D03*
X227955000Y-71415000D03*
X227955000Y-70145000D03*
X227955000Y-68875000D03*
X227955000Y-67605000D03*
X227955000Y-66335000D03*
X227955000Y-65065000D03*
X227955000Y-63795000D03*
X227955000Y-62525000D03*
X227955000Y-61255000D03*
X227955000Y-59985000D03*
X227955000Y-58715000D03*
X227955000Y-57445000D03*
X227955000Y-56175000D03*
X227955000Y-54910000D03*
X227955000Y-53630000D03*
X227955000Y-52365000D03*
X227955000Y-51095000D03*
X227955000Y-49825000D03*
X227955000Y-48555000D03*
X227955000Y-47285000D03*
X227955000Y-46015000D03*
X227955000Y-44745000D03*
X227955000Y-43475000D03*
X227955000Y-42205000D03*
X227955000Y-40935000D03*
X227955000Y-39665000D03*
X227955000Y-38395000D03*
X227955000Y-37125000D03*
X227955000Y-35855000D03*
X227955000Y-34585000D03*
X227955000Y-33315000D03*
X227955000Y-32045000D03*
X227955000Y-30775000D03*
X227955000Y-29505000D03*
X226685000Y-79035000D03*
X226685000Y-77765000D03*
X226685000Y-76495000D03*
X226685000Y-75225000D03*
X226685000Y-73955000D03*
X226685000Y-72685000D03*
X226685000Y-71415000D03*
X226685000Y-70145000D03*
X226685000Y-68875000D03*
X226685000Y-67605000D03*
X226685000Y-66335000D03*
X226685000Y-65065000D03*
X226685000Y-63795000D03*
X226685000Y-62525000D03*
X226685000Y-61255000D03*
X226685000Y-59985000D03*
X226685000Y-58715000D03*
X226685000Y-57445000D03*
X226685000Y-56175000D03*
X226685000Y-54910000D03*
X226685000Y-53630000D03*
X226685000Y-52365000D03*
X226685000Y-51095000D03*
X226685000Y-49825000D03*
X226685000Y-48555000D03*
X226685000Y-47285000D03*
X226685000Y-46015000D03*
X226685000Y-44745000D03*
X226685000Y-43475000D03*
X226685000Y-42205000D03*
X226685000Y-40935000D03*
X226685000Y-39665000D03*
X226685000Y-38395000D03*
X226685000Y-37125000D03*
X226685000Y-35855000D03*
X226685000Y-34585000D03*
X226685000Y-33315000D03*
X226685000Y-32045000D03*
X226685000Y-30775000D03*
X226685000Y-29505000D03*
%TD*%
D11*
%TO.C,P1*%
X232400000Y-151450000D03*
X229350000Y-97070000D03*
D10*
X235575000Y-149025000D03*
X235575000Y-147755000D03*
X235575000Y-146485000D03*
X235575000Y-145215000D03*
X235575000Y-143945000D03*
X235575000Y-142675000D03*
X235575000Y-141405000D03*
X235575000Y-140135000D03*
X235575000Y-138865000D03*
X235575000Y-137595000D03*
X235575000Y-136325000D03*
X235575000Y-135055000D03*
X235575000Y-133785000D03*
X235575000Y-132515000D03*
X235575000Y-131245000D03*
X235575000Y-129975000D03*
X235575000Y-128705000D03*
X235575000Y-127435000D03*
X235575000Y-126165000D03*
X235575000Y-124900000D03*
X235575000Y-123620000D03*
X235575000Y-122355000D03*
X235575000Y-121085000D03*
X235575000Y-119815000D03*
X235575000Y-118545000D03*
X235575000Y-117275000D03*
X235575000Y-116005000D03*
X235575000Y-114735000D03*
X235575000Y-113465000D03*
X235575000Y-112195000D03*
X235575000Y-110925000D03*
X235575000Y-109655000D03*
X235575000Y-108385000D03*
X235575000Y-107115000D03*
X235575000Y-105845000D03*
X235575000Y-104575000D03*
X235575000Y-103305000D03*
X235575000Y-102035000D03*
X235575000Y-100765000D03*
X235575000Y-99495000D03*
X234305000Y-149025000D03*
X234305000Y-147755000D03*
X234305000Y-146485000D03*
X234305000Y-145215000D03*
X234305000Y-143945000D03*
X234305000Y-142675000D03*
X234305000Y-141405000D03*
X234305000Y-140135000D03*
X234305000Y-138865000D03*
X234305000Y-137595000D03*
X234305000Y-136325000D03*
X234305000Y-135055000D03*
X234305000Y-133785000D03*
X234305000Y-132515000D03*
X234305000Y-131245000D03*
X234305000Y-129975000D03*
X234305000Y-128705000D03*
X234305000Y-127435000D03*
X234305000Y-126165000D03*
X234305000Y-124900000D03*
X234305000Y-123620000D03*
X234305000Y-122355000D03*
X234305000Y-121085000D03*
X234305000Y-119815000D03*
X234305000Y-118545000D03*
X234305000Y-117275000D03*
X234305000Y-116005000D03*
X234305000Y-114735000D03*
X234305000Y-113465000D03*
X234305000Y-112195000D03*
X234305000Y-110925000D03*
X234305000Y-109655000D03*
X234305000Y-108385000D03*
X234305000Y-107115000D03*
X234305000Y-105845000D03*
X234305000Y-104575000D03*
X234305000Y-103305000D03*
X234305000Y-102035000D03*
X234305000Y-100765000D03*
X234305000Y-99495000D03*
X230495000Y-149025000D03*
X230495000Y-147755000D03*
X230495000Y-146485000D03*
X230495000Y-145215000D03*
X230495000Y-143945000D03*
X230495000Y-142675000D03*
X230495000Y-141405000D03*
X230495000Y-140135000D03*
X230495000Y-138865000D03*
X230495000Y-137595000D03*
X230495000Y-136325000D03*
X230495000Y-135055000D03*
X230495000Y-133785000D03*
X230495000Y-132515000D03*
X230495000Y-131245000D03*
X230495000Y-129975000D03*
X230495000Y-128705000D03*
X230495000Y-127435000D03*
X230495000Y-126165000D03*
X230495000Y-124900000D03*
X230495000Y-123620000D03*
X230495000Y-122355000D03*
X230495000Y-121085000D03*
X230495000Y-119815000D03*
X230495000Y-118545000D03*
X230495000Y-117275000D03*
X230495000Y-116005000D03*
X230495000Y-114735000D03*
X230495000Y-113465000D03*
X230495000Y-112195000D03*
X230495000Y-110925000D03*
X230495000Y-109655000D03*
X230495000Y-108385000D03*
X230495000Y-107115000D03*
X230495000Y-105845000D03*
X230495000Y-104575000D03*
X230495000Y-103305000D03*
X230495000Y-102035000D03*
X230495000Y-100765000D03*
X230495000Y-99495000D03*
X229225000Y-149025000D03*
X229225000Y-147755000D03*
X229225000Y-146485000D03*
X229225000Y-145215000D03*
X229225000Y-143945000D03*
X229225000Y-142675000D03*
X229225000Y-141405000D03*
X229225000Y-140135000D03*
X229225000Y-138865000D03*
X229225000Y-137595000D03*
X229225000Y-136325000D03*
X229225000Y-135055000D03*
X229225000Y-133785000D03*
X229225000Y-132515000D03*
X229225000Y-131245000D03*
X229225000Y-129975000D03*
X229225000Y-128705000D03*
X229225000Y-127435000D03*
X229225000Y-126165000D03*
X229225000Y-124900000D03*
X229225000Y-123620000D03*
X229225000Y-122355000D03*
X229225000Y-121085000D03*
X229225000Y-119815000D03*
X229225000Y-118545000D03*
X229225000Y-117275000D03*
X229225000Y-116005000D03*
X229225000Y-114735000D03*
X229225000Y-113465000D03*
X229225000Y-112195000D03*
X229225000Y-110925000D03*
X229225000Y-109655000D03*
X229225000Y-108385000D03*
X229225000Y-107115000D03*
X229225000Y-105845000D03*
X229225000Y-104575000D03*
X229225000Y-103305000D03*
X229225000Y-102035000D03*
X229225000Y-100765000D03*
X229225000Y-99495000D03*
%TD*%
M02*
