M48
; DRILL file {KiCad 7.0.10-7.0.10~ubuntu22.04.1} date Thu 14 Mar 2024 01:40:21 PM EDT
; FORMAT={-:-/ absolute / inch / decimal}
; #@! TF.CreationDate,2024-03-14T13:40:21-04:00
; #@! TF.GenerationSoftware,Kicad,Pcbnew,7.0.10-7.0.10~ubuntu22.04.1
; #@! TF.FileFunction,Plated,1,6,PTH
FMAT,2
INCH
; #@! TA.AperFunction,Plated,PTH,ViaDrill
T1C0.0120
; #@! TA.AperFunction,Plated,PTH,ComponentDrill
T2C0.0350
; #@! TA.AperFunction,Plated,PTH,ComponentDrill
T3C0.0394
; #@! TA.AperFunction,Plated,PTH,ComponentDrill
T4C0.0429
; #@! TA.AperFunction,Plated,PTH,ComponentDrill
T5C0.0433
; #@! TA.AperFunction,Plated,PTH,ComponentDrill
T6C0.0551
; #@! TA.AperFunction,Plated,PTH,ComponentDrill
T7C0.0591
; #@! TA.AperFunction,Plated,PTH,ComponentDrill
T8C0.0630
; #@! TA.AperFunction,Plated,PTH,ComponentDrill
T9C0.0669
; #@! TA.AperFunction,Plated,PTH,ComponentDrill
T10C0.0709
; #@! TA.AperFunction,Plated,PTH,ComponentDrill
T11C0.0748
; #@! TA.AperFunction,Plated,PTH,ComponentDrill
T12C0.1063
%
G90
G05
T1
X5.138Y-5.492
X5.14Y-4.75
X5.1409Y-5.9567
X5.15Y-1.0
X5.15Y-1.8
X5.15Y-2.55
X5.25Y-5.39
X5.35Y-1.0
X5.4207Y-4.376
X5.4409Y-5.9567
X5.45Y-1.5
X5.45Y-1.8
X5.45Y-2.55
X5.47Y-4.32
X5.47Y-4.59
X5.55Y-5.55
X5.563Y-6.0433
X5.5988Y-4.9855
X5.6Y-1.35
X5.6Y-1.5
X5.6Y-1.95
X5.6Y-2.15
X5.6Y-2.7
X5.6Y-2.9
X5.6Y-3.3
X5.61Y-4.32
X5.61Y-4.59
X5.6299Y-4.2075
X5.6378Y-4.5071
X5.7488Y-5.1355
X5.75Y-1.8
X5.75Y-2.55
X5.75Y-5.9
X5.85Y-5.55
X5.8988Y-4.9855
X5.9Y-1.5
X5.9Y-1.95
X5.9Y-2.15
X5.9Y-2.7
X5.9Y-2.9
X5.9Y-3.3
X5.9906Y-3.6181
X5.9937Y-3.4717
X6.0094Y-1.2051
X6.0488Y-5.1355
X6.0846Y-5.9016
X6.0894Y-5.798
X6.15Y-5.55
X6.1543Y-5.7291
X6.1988Y-4.9855
X6.2Y-1.5
X6.2Y-1.95
X6.2Y-2.15
X6.2Y-2.7
X6.2Y-2.9
X6.2Y-3.3
X6.2Y-3.45
X6.2Y-3.65
X6.3098Y-6.072
X6.3132Y-6.1969
X6.3488Y-5.1355
X6.3583Y-1.2417
X6.5Y-1.3
X6.5Y-1.5
X6.5Y-3.45
X6.5Y-3.65
X6.539Y-5.8094
X6.5394Y-5.874
X6.55Y-6.0677
X6.5559Y-1.7386
X6.5559Y-1.7886
X6.6Y-4.1
X6.6Y-4.2
X6.6118Y-2.415
X6.6122Y-2.4795
X6.6138Y-4.943
X6.6138Y-5.0473
X6.6146Y-5.3446
X6.6157Y-5.4052
X6.6287Y-3.1244
X6.6291Y-3.072
X6.66Y-4.7198
X6.6606Y-4.7702
X6.6791Y-5.8927
X6.6938Y-2.973
X6.7449Y-4.8055
X6.7457Y-5.111
X6.7458Y-1.1965
X6.747Y-2.25
X6.75Y-2.0
X6.75Y-5.5
X6.8Y-3.45
X6.9748Y-3.024
X7.0157Y-3.0236
X7.0448Y-1.5
X7.0457Y-1.2008
X7.0461Y-4.8138
X7.0469Y-5.1039
X7.0478Y-2.0
X7.0488Y-2.763
X7.0488Y-3.063
X7.05Y-2.25
X7.05Y-4.3
X7.2234Y-0.8878
X7.3297Y-1.0423
X7.3337Y-0.8228
X7.3358Y-1.0914
X7.3433Y-5.0972
X7.3458Y-1.4965
X7.347Y-2.25
X7.3478Y-2.0
X7.348Y-4.8146
X7.3488Y-2.763
X7.3488Y-3.063
X7.35Y-4.3
X7.35Y-5.55
X7.35Y-5.85
X7.35Y-6.2
X7.6437Y-5.0827
X7.6445Y-4.8236
X7.6458Y-1.4965
X7.6488Y-2.763
X7.6488Y-3.063
X7.65Y-2.0
X7.65Y-2.25
X7.65Y-4.3
X7.65Y-5.5508
X7.652Y-6.2008
X7.6882Y-4.0035
X7.75Y-1.1
X7.9Y-0.9
X7.9Y-6.2
X7.9177Y-3.8528
X7.9425Y-5.8744
X7.9449Y-4.8303
X7.9449Y-5.0843
X7.9458Y-1.4965
X7.9478Y-2.0
X7.9488Y-2.763
X7.9488Y-3.063
X7.95Y-2.25
X7.95Y-4.3
X7.95Y-5.55
X7.9661Y-0.9776
X7.9689Y-0.9028
X8.2Y-0.9
X8.202Y-6.2008
X8.2441Y-4.8291
X8.2445Y-5.085
X8.2445Y-5.8752
X8.2458Y-1.4965
X8.2472Y-4.0248
X8.2488Y-2.763
X8.25Y-2.0
X8.25Y-2.25
X8.25Y-4.3
X8.252Y-5.5508
X8.45Y-6.2
X8.5457Y-4.3079
X8.5457Y-5.0843
X8.5458Y-1.5
X8.546Y-2.0
X8.5465Y-4.0287
X8.5488Y-2.763
X8.55Y-2.25
X8.6228Y-0.963
X8.624Y-1.0031
X8.6458Y-1.5
X8.6465Y-4.0268
X8.6469Y-4.3118
X8.6469Y-5.0883
X8.6488Y-2.763
X8.65Y-2.0
X8.65Y-2.25
X8.7256Y-1.289
X8.75Y-5.65
X8.752Y-6.2008
X8.7807Y-3.1665
X8.7807Y-3.2051
X8.7835Y-2.2417
X8.8209Y-1.7362
X8.8224Y-1.7744
X8.8335Y-2.2417
X8.8378Y-2.6547
X8.8569Y-2.6916
X8.8992Y-1.1862
X8.8992Y-1.3362
X8.8992Y-1.6362
X8.8992Y-2.7362
X8.8992Y-2.7862
X8.9492Y-1.1362
X8.9492Y-1.2362
X8.9492Y-1.5362
X8.9492Y-1.8362
X8.9492Y-2.6362
X8.9492Y-2.6862
X8.9492Y-2.7862
X8.9492Y-2.8362
X8.9492Y-3.0862
X8.9992Y-1.1362
X8.9992Y-1.1862
X8.9992Y-1.3362
X8.9992Y-1.3858
X8.9992Y-1.4362
X8.9992Y-1.5362
X8.9992Y-1.5862
X8.9992Y-1.6862
X8.9992Y-1.7362
X8.9992Y-1.8362
X8.9992Y-1.8862
X8.9992Y-1.9862
X8.9992Y-2.0362
X8.9992Y-2.1362
X8.9992Y-2.1862
X8.9992Y-2.2862
X8.9992Y-2.3362
X8.9992Y-2.4362
X8.9992Y-2.4862
X8.9992Y-2.5862
X8.9992Y-2.6362
X8.9992Y-2.6862
X8.9992Y-2.7362
X8.9992Y-2.7862
X8.9992Y-2.8862
X8.9992Y-2.9362
X8.9992Y-3.0362
X8.9994Y-3.8917
X8.9994Y-3.9417
X8.9994Y-4.1417
X8.9994Y-4.1917
X8.9994Y-4.2917
X8.9994Y-4.3417
X8.9994Y-4.4417
X8.9994Y-4.4917
X8.9994Y-4.5917
X8.9994Y-4.6417
X8.9994Y-4.7417
X8.9994Y-4.7917
X8.9994Y-4.8917
X8.9994Y-4.9417
X8.9994Y-5.0417
X8.9994Y-5.0917
X8.9994Y-5.1917
X8.9994Y-5.2417
X8.9994Y-5.3417
X8.9994Y-5.3917
X8.9994Y-5.4917
X8.9994Y-5.5417
X8.9994Y-5.7411
X9.0Y-4.0917
X9.0486Y-4.6417
X9.0486Y-5.0917
X9.0486Y-5.2917
X9.0486Y-5.4417
X9.0488Y-4.4917
X9.0488Y-4.6917
X9.0488Y-3.9917
X9.0488Y-4.3409
X9.0492Y-1.1862
X9.0492Y-1.2362
X9.0492Y-1.4362
X9.0492Y-1.4862
X9.0492Y-1.5862
X9.0492Y-1.6362
X9.0492Y-1.6862
X9.0492Y-1.7362
X9.0492Y-1.7862
X9.0492Y-1.8862
X9.0492Y-1.9362
X9.0492Y-2.0362
X9.0492Y-2.0862
X9.0492Y-2.1862
X9.0492Y-2.2362
X9.0492Y-2.3362
X9.0492Y-2.3862
X9.0492Y-2.4862
X9.0492Y-2.5362
X9.0492Y-2.6362
X9.0492Y-2.6862
X9.0492Y-2.7862
X9.0492Y-2.8362
X9.0492Y-2.9862
X9.0492Y-3.0362
X9.0496Y-5.2417
X9.0496Y-5.3917
X9.0496Y-5.5917
X9.0496Y-5.6915
X9.0496Y-5.7915
X9.0496Y-5.8415
X9.0496Y-4.7917
X9.0496Y-4.8417
X9.0496Y-4.9417
X9.0496Y-4.9917
X9.0496Y-5.1417
X9.0498Y-4.1917
X9.0498Y-4.2417
X9.0498Y-4.3917
X9.0498Y-4.5417
X9.05Y-4.1417
X9.05Y-4.2917
X9.0506Y-5.5417
X9.0506Y-5.7411
X9.0512Y-3.8917
X9.0512Y-3.9417
X9.0992Y-1.1362
X9.0992Y-1.3362
X9.0992Y-1.4862
X9.0992Y-1.6362
X9.0992Y-1.7862
X9.0992Y-2.0862
X9.0992Y-2.5362
X9.0992Y-2.6862
X9.0992Y-2.7362
X9.0992Y-2.7862
X9.0992Y-2.9862
X9.0992Y-3.0862
X9.1Y-4.4917
X9.1Y-5.2417
X9.1Y-5.5417
X9.1Y-5.6917
X9.1028Y-4.6417
X9.1492Y-1.1862
X9.1492Y-1.2362
X9.1492Y-2.2862
X9.1492Y-2.4362
X9.1492Y-2.7862
X9.1492Y-2.8362
X9.1492Y-3.0862
X9.1815Y-1.0676
X9.1988Y-5.6909
X9.199Y-5.1921
X9.1992Y-1.1866
X9.1992Y-1.2362
X9.1992Y-1.3362
X9.1992Y-1.3858
X9.1992Y-1.5362
X9.1992Y-1.7862
X9.1992Y-1.8362
X9.1992Y-1.9362
X9.1992Y-1.9862
X9.1992Y-2.0862
X9.1992Y-2.1362
X9.1992Y-2.2362
X9.1992Y-2.2862
X9.1992Y-2.3362
X9.1992Y-2.3862
X9.1992Y-2.4362
X9.1992Y-2.5362
X9.1992Y-2.5862
X9.1992Y-2.6862
X9.1992Y-2.7362
X9.1992Y-2.8862
X9.1992Y-2.9362
X9.1992Y-3.0362
X9.1992Y-3.0862
X9.1994Y-3.8917
X9.1994Y-3.9417
X9.1994Y-4.1417
X9.1994Y-4.2917
X9.1994Y-4.5417
X9.1994Y-4.5917
X9.1994Y-4.6417
X9.1994Y-4.6917
X9.1994Y-4.7417
X9.1994Y-4.8417
X9.1994Y-4.8917
X9.1994Y-4.9917
X9.1994Y-5.0417
X9.1994Y-5.1417
X9.1994Y-5.2917
X9.1994Y-5.3417
X9.1994Y-5.4417
X9.1994Y-5.4917
X9.1994Y-5.5417
X9.1994Y-5.5917
X9.1994Y-5.6415
X9.1998Y-1.2864
X9.2217Y-1.0701
X9.249Y-1.6362
X9.249Y-1.6862
X9.249Y-1.7362
X9.2492Y-1.1862
X9.2492Y-1.2362
X9.2492Y-1.4362
X9.2492Y-1.5862
X9.2492Y-1.7862
X9.2492Y-1.8362
X9.2492Y-1.9862
X9.2492Y-2.0362
X9.2492Y-2.1862
X9.2492Y-2.2362
X9.2492Y-2.2862
X9.2492Y-2.3362
X9.2492Y-2.3862
X9.2492Y-2.4362
X9.2492Y-2.5362
X9.2492Y-2.5862
X9.2492Y-2.6362
X9.2492Y-2.6862
X9.2492Y-2.7362
X9.2492Y-2.7862
X9.2492Y-2.8362
X9.2492Y-2.9862
X9.2492Y-3.0362
X9.2492Y-3.0862
X9.2492Y-4.5927
X9.2494Y-3.8917
X9.2494Y-3.9417
X9.2494Y-4.5417
X9.2494Y-4.6417
X9.2494Y-4.6917
X9.2494Y-4.7417
X9.2494Y-4.7917
X9.2494Y-4.8417
X9.2494Y-4.8917
X9.2494Y-4.9417
X9.2494Y-4.9917
X9.2494Y-5.0417
X9.2494Y-5.0917
X9.2494Y-5.1417
X9.2494Y-5.1917
X9.2494Y-5.2917
X9.2494Y-5.3417
X9.2494Y-5.3917
X9.2494Y-5.4417
X9.2494Y-5.4917
X9.2494Y-5.5417
X9.2494Y-5.5917
X9.2494Y-5.6411
X9.2494Y-5.7411
X9.2494Y-5.7915
X9.2494Y-5.8415
X9.25Y-1.1362
X9.25Y-4.0917
X9.25Y-4.2417
X9.25Y-4.2917
X9.25Y-4.4417
X9.25Y-4.4913
X9.25Y-5.2417
X9.2992Y-1.3858
X9.2992Y-2.0862
X9.2994Y-3.0362
X9.3Y-4.0417
X9.3Y-5.7411
X9.3492Y-1.1362
X9.3492Y-1.2864
X9.3492Y-1.3362
X9.3492Y-1.4862
X9.3492Y-1.5362
X9.3492Y-1.6862
X9.3492Y-1.7362
X9.3492Y-1.7862
X9.3492Y-1.8362
X9.3492Y-1.9862
X9.3492Y-2.0362
X9.3492Y-2.1362
X9.3492Y-2.2862
X9.3492Y-2.3362
X9.3492Y-2.4862
X9.3492Y-2.5862
X9.3492Y-2.6362
X9.3492Y-2.6862
X9.3492Y-2.7362
X9.3492Y-2.7862
X9.3492Y-2.8362
X9.3492Y-2.8862
X9.3492Y-2.9862
X9.3492Y-3.0362
X9.3492Y-3.0862
X9.3494Y-1.937
X9.3504Y-1.8868
X9.3663Y-3.1803
X9.3992Y-2.3862
X9.4069Y-2.5356
X9.4094Y-2.4419
X9.4125Y-2.5681
X9.4167Y-3.1803
T2
X5.1807Y-6.0559
X5.1807Y-6.1559
T3
X6.746Y-1.297
X6.746Y-1.397
X6.746Y-2.0608
X6.746Y-2.1608
X6.746Y-2.868
X6.746Y-2.968
X6.746Y-4.12
X6.746Y-4.22
X6.746Y-4.91
X6.746Y-5.01
X6.746Y-5.65
X6.746Y-5.75
X6.846Y-1.297
X6.846Y-1.397
X6.846Y-2.0608
X6.846Y-2.1608
X6.846Y-2.868
X6.846Y-2.968
X6.846Y-4.12
X6.846Y-4.22
X6.846Y-4.91
X6.846Y-5.01
X6.846Y-5.65
X6.846Y-5.75
X6.946Y-1.297
X6.946Y-1.397
X6.946Y-2.0608
X6.946Y-2.1608
X6.946Y-2.868
X6.946Y-2.968
X6.946Y-4.12
X6.946Y-4.22
X6.946Y-4.91
X6.946Y-5.01
X6.946Y-5.65
X6.946Y-5.75
X7.046Y-1.297
X7.046Y-1.397
X7.046Y-2.0608
X7.046Y-2.1608
X7.046Y-2.868
X7.046Y-2.968
X7.046Y-4.12
X7.046Y-4.22
X7.046Y-4.91
X7.046Y-5.01
X7.046Y-5.65
X7.046Y-5.75
X7.146Y-1.297
X7.146Y-1.397
X7.146Y-2.0608
X7.146Y-2.1608
X7.146Y-2.868
X7.146Y-2.968
X7.146Y-4.12
X7.146Y-4.22
X7.146Y-4.91
X7.146Y-5.01
X7.146Y-5.65
X7.146Y-5.75
X7.246Y-1.297
X7.246Y-1.397
X7.246Y-2.0608
X7.246Y-2.1608
X7.246Y-2.868
X7.246Y-2.968
X7.246Y-4.12
X7.246Y-4.22
X7.246Y-4.91
X7.246Y-5.01
X7.246Y-5.65
X7.246Y-5.75
X7.346Y-1.297
X7.346Y-1.397
X7.346Y-2.0608
X7.346Y-2.1608
X7.346Y-2.868
X7.346Y-2.968
X7.346Y-4.12
X7.346Y-4.22
X7.346Y-4.91
X7.346Y-5.01
X7.346Y-5.65
X7.346Y-5.75
X7.446Y-1.297
X7.446Y-1.397
X7.446Y-2.0608
X7.446Y-2.1608
X7.446Y-2.868
X7.446Y-2.968
X7.446Y-4.12
X7.446Y-4.22
X7.446Y-4.91
X7.446Y-5.01
X7.446Y-5.65
X7.446Y-5.75
X7.546Y-1.297
X7.546Y-1.397
X7.546Y-2.0608
X7.546Y-2.1608
X7.546Y-2.868
X7.546Y-2.968
X7.546Y-4.12
X7.546Y-4.22
X7.546Y-4.91
X7.546Y-5.01
X7.546Y-5.65
X7.546Y-5.75
X7.646Y-1.297
X7.646Y-1.397
X7.646Y-2.0608
X7.646Y-2.1608
X7.646Y-2.868
X7.646Y-2.968
X7.646Y-4.12
X7.646Y-4.22
X7.646Y-4.91
X7.646Y-5.01
X7.646Y-5.65
X7.646Y-5.75
X7.746Y-1.297
X7.746Y-1.397
X7.746Y-2.0608
X7.746Y-2.1608
X7.746Y-2.868
X7.746Y-2.968
X7.746Y-4.12
X7.746Y-4.22
X7.746Y-4.91
X7.746Y-5.01
X7.746Y-5.65
X7.746Y-5.75
X7.846Y-1.297
X7.846Y-1.397
X7.846Y-2.0608
X7.846Y-2.1608
X7.846Y-2.868
X7.846Y-2.968
X7.846Y-4.12
X7.846Y-4.22
X7.846Y-4.91
X7.846Y-5.01
X7.846Y-5.65
X7.846Y-5.75
X7.946Y-1.297
X7.946Y-1.397
X7.946Y-2.0608
X7.946Y-2.1608
X7.946Y-2.868
X7.946Y-2.968
X7.946Y-4.12
X7.946Y-4.22
X7.946Y-4.91
X7.946Y-5.01
X7.946Y-5.65
X7.946Y-5.75
X8.046Y-1.297
X8.046Y-1.397
X8.046Y-2.0608
X8.046Y-2.1608
X8.046Y-2.868
X8.046Y-2.968
X8.046Y-4.12
X8.046Y-4.22
X8.046Y-4.91
X8.046Y-5.01
X8.046Y-5.65
X8.046Y-5.75
X8.146Y-1.297
X8.146Y-1.397
X8.146Y-2.0608
X8.146Y-2.1608
X8.146Y-2.868
X8.146Y-2.968
X8.146Y-4.12
X8.146Y-4.22
X8.146Y-4.91
X8.146Y-5.01
X8.146Y-5.65
X8.146Y-5.75
X8.246Y-1.297
X8.246Y-1.397
X8.246Y-2.0608
X8.246Y-2.1608
X8.246Y-2.868
X8.246Y-2.968
X8.246Y-4.12
X8.246Y-4.22
X8.246Y-4.91
X8.246Y-5.01
X8.246Y-5.65
X8.246Y-5.75
X8.346Y-1.297
X8.346Y-1.397
X8.346Y-2.0608
X8.346Y-2.1608
X8.346Y-2.868
X8.346Y-2.968
X8.346Y-4.12
X8.346Y-4.22
X8.346Y-4.91
X8.346Y-5.01
X8.346Y-5.65
X8.346Y-5.75
X8.446Y-1.297
X8.446Y-1.397
X8.446Y-2.0608
X8.446Y-2.1608
X8.446Y-2.868
X8.446Y-2.968
X8.446Y-4.12
X8.446Y-4.22
X8.446Y-4.91
X8.446Y-5.01
X8.446Y-5.65
X8.446Y-5.75
X8.546Y-1.297
X8.546Y-1.397
X8.546Y-2.0608
X8.546Y-2.1608
X8.546Y-2.868
X8.546Y-2.968
X8.546Y-4.12
X8.546Y-4.22
X8.546Y-4.91
X8.546Y-5.01
X8.546Y-5.65
X8.546Y-5.75
X8.646Y-1.297
X8.646Y-1.397
X8.646Y-2.0608
X8.646Y-2.1608
X8.646Y-2.868
X8.646Y-2.968
X8.646Y-4.12
X8.646Y-4.22
X8.646Y-4.91
X8.646Y-5.01
X8.646Y-5.65
X8.646Y-5.75
T4
X5.1709Y-4.3307
X5.1709Y-4.4307
T5
X5.15Y-3.2252
X5.15Y-3.4252
X5.35Y-3.2252
X5.35Y-3.4252
T6
X5.8575Y-1.0213
X6.0134Y-1.0213
X6.1693Y-1.0213
T7
X5.168Y-1.25
X5.168Y-2.0
X5.168Y-2.75
X5.168Y-5.0
X5.168Y-5.75
T8
X7.8504Y-3.5866
X8.0965Y-3.5846
X8.3583Y-3.5866
X8.6043Y-3.5866
T9
X5.068Y-1.15
X5.068Y-1.35
X5.068Y-1.9
X5.068Y-2.1
X5.068Y-2.65
X5.068Y-2.85
X5.068Y-4.9
X5.068Y-5.1
X5.068Y-5.65
X5.068Y-5.85
X5.268Y-1.15
X5.268Y-1.35
X5.268Y-1.9
X5.268Y-2.1
X5.268Y-2.65
X5.268Y-2.85
X5.268Y-4.9
X5.268Y-5.1
X5.268Y-5.65
X5.268Y-5.85
T10
X5.0846Y-3.7647
X5.0846Y-3.9647
T11
X5.5846Y-3.6797
X5.5846Y-3.8647
X5.5846Y-4.0497
T12
X6.9213Y-1.0512
X6.9213Y-3.2776
X6.9213Y-3.8071
X6.9213Y-6.0335
X9.0709Y-0.8957
X9.0709Y-3.376
X9.0709Y-6.1319
M30
