%TF.GenerationSoftware,KiCad,Pcbnew,7.0.10-7.0.10~ubuntu22.04.1*%
%TF.CreationDate,2024-03-14T13:40:30-04:00*%
%TF.ProjectId,dioBreakOutBoard,64696f42-7265-4616-9b4f-7574426f6172,rev?*%
%TF.SameCoordinates,Original*%
%TF.FileFunction,Soldermask,Top*%
%TF.FilePolarity,Negative*%
%FSLAX46Y46*%
G04 Gerber Fmt 4.6, Leading zero omitted, Abs format (unit mm)*
G04 Created by KiCad (PCBNEW 7.0.10-7.0.10~ubuntu22.04.1) date 2024-03-14 13:40:30*
%MOMM*%
%LPD*%
G01*
G04 APERTURE LIST*
G04 Aperture macros list*
%AMRoundRect*
0 Rectangle with rounded corners*
0 $1 Rounding radius*
0 $2 $3 $4 $5 $6 $7 $8 $9 X,Y pos of 4 corners*
0 Add a 4 corners polygon primitive as box body*
4,1,4,$2,$3,$4,$5,$6,$7,$8,$9,$2,$3,0*
0 Add four circle primitives for the rounded corners*
1,1,$1+$1,$2,$3*
1,1,$1+$1,$4,$5*
1,1,$1+$1,$6,$7*
1,1,$1+$1,$8,$9*
0 Add four rect primitives between the rounded corners*
20,1,$1+$1,$2,$3,$4,$5,0*
20,1,$1+$1,$4,$5,$6,$7,0*
20,1,$1+$1,$6,$7,$8,$9,0*
20,1,$1+$1,$8,$9,$2,$3,0*%
G04 Aperture macros list end*
%ADD10C,3.000000*%
%ADD11C,3.100000*%
%ADD12C,4.500000*%
%ADD13C,1.270000*%
%ADD14C,0.640000*%
%ADD15R,1.700000X1.700000*%
%ADD16O,1.700000X1.700000*%
%ADD17C,2.250000*%
%ADD18C,2.550000*%
%ADD19R,1.397000X1.397000*%
%ADD20C,1.397000*%
%ADD21C,1.440000*%
%ADD22C,2.000000*%
%ADD23RoundRect,0.250001X0.949999X0.949999X-0.949999X0.949999X-0.949999X-0.949999X0.949999X-0.949999X0*%
%ADD24C,2.400000*%
%ADD25RoundRect,0.750000X-0.750000X-0.750000X0.750000X-0.750000X0.750000X0.750000X-0.750000X0.750000X0*%
G04 APERTURE END LIST*
D10*
%TO.C,TP4*%
X199400000Y-91100000D03*
%TD*%
D11*
%TO.C,H2*%
X230400000Y-22750000D03*
D12*
X230400000Y-22750000D03*
%TD*%
D11*
%TO.C,H1*%
X175800000Y-26700000D03*
D12*
X175800000Y-26700000D03*
%TD*%
D10*
%TO.C,TP2*%
X205650000Y-91050000D03*
%TD*%
D13*
%TO.C,J2*%
X232400000Y-81460000D03*
X229350000Y-27080000D03*
D14*
X238115000Y-79035000D03*
X238115000Y-77765000D03*
X238115000Y-76495000D03*
X238115000Y-75225000D03*
X238115000Y-73955000D03*
X238115000Y-72685000D03*
X238115000Y-71415000D03*
X238115000Y-70145000D03*
X238115000Y-68875000D03*
X238115000Y-67605000D03*
X238115000Y-66335000D03*
X238115000Y-65065000D03*
X238115000Y-63795000D03*
X238115000Y-62525000D03*
X238115000Y-61255000D03*
X238115000Y-59985000D03*
X238115000Y-58715000D03*
X238115000Y-57445000D03*
X238115000Y-56175000D03*
X238115000Y-54910000D03*
X238115000Y-53630000D03*
X238115000Y-52365000D03*
X238115000Y-51095000D03*
X238115000Y-49825000D03*
X238115000Y-48555000D03*
X238115000Y-47285000D03*
X238115000Y-46015000D03*
X238115000Y-44745000D03*
X238115000Y-43475000D03*
X238115000Y-42205000D03*
X238115000Y-40935000D03*
X238115000Y-39665000D03*
X238115000Y-38395000D03*
X238115000Y-37125000D03*
X238115000Y-35855000D03*
X238115000Y-34585000D03*
X238115000Y-33315000D03*
X238115000Y-32045000D03*
X238115000Y-30775000D03*
X238115000Y-29505000D03*
X236845000Y-79035000D03*
X236845000Y-77765000D03*
X236845000Y-76495000D03*
X236845000Y-75225000D03*
X236845000Y-73955000D03*
X236845000Y-72685000D03*
X236845000Y-71415000D03*
X236845000Y-70145000D03*
X236845000Y-68875000D03*
X236845000Y-67605000D03*
X236845000Y-66335000D03*
X236845000Y-65065000D03*
X236845000Y-63795000D03*
X236845000Y-62525000D03*
X236845000Y-61255000D03*
X236845000Y-59985000D03*
X236845000Y-58715000D03*
X236845000Y-57445000D03*
X236845000Y-56175000D03*
X236845000Y-54910000D03*
X236845000Y-53630000D03*
X236845000Y-52365000D03*
X236845000Y-51095000D03*
X236845000Y-49825000D03*
X236845000Y-48555000D03*
X236845000Y-47285000D03*
X236845000Y-46015000D03*
X236845000Y-44745000D03*
X236845000Y-43475000D03*
X236845000Y-42205000D03*
X236845000Y-40935000D03*
X236845000Y-39665000D03*
X236845000Y-38395000D03*
X236845000Y-37125000D03*
X236845000Y-35855000D03*
X236845000Y-34585000D03*
X236845000Y-33315000D03*
X236845000Y-32045000D03*
X236845000Y-30775000D03*
X236845000Y-29505000D03*
X235575000Y-79035000D03*
X235575000Y-77765000D03*
X235575000Y-76495000D03*
X235575000Y-75225000D03*
X235575000Y-73955000D03*
X235575000Y-72685000D03*
X235575000Y-71415000D03*
X235575000Y-70145000D03*
X235575000Y-68875000D03*
X235575000Y-67605000D03*
X235575000Y-66335000D03*
X235575000Y-65065000D03*
X235575000Y-63795000D03*
X235575000Y-62525000D03*
X235575000Y-61255000D03*
X235575000Y-59985000D03*
X235575000Y-58715000D03*
X235575000Y-57445000D03*
X235575000Y-56175000D03*
X235575000Y-54910000D03*
X235575000Y-53630000D03*
X235575000Y-52365000D03*
X235575000Y-51095000D03*
X235575000Y-49825000D03*
X235575000Y-48555000D03*
X235575000Y-47285000D03*
X235575000Y-46015000D03*
X235575000Y-44745000D03*
X235575000Y-43475000D03*
X235575000Y-42205000D03*
X235575000Y-40935000D03*
X235575000Y-39665000D03*
X235575000Y-38395000D03*
X235575000Y-37125000D03*
X235575000Y-35855000D03*
X235575000Y-34585000D03*
X235575000Y-33315000D03*
X235575000Y-32045000D03*
X235575000Y-30775000D03*
X235575000Y-29505000D03*
X234305000Y-79035000D03*
X234305000Y-77765000D03*
X234305000Y-76495000D03*
X234305000Y-75225000D03*
X234305000Y-73955000D03*
X234305000Y-72685000D03*
X234305000Y-71415000D03*
X234305000Y-70145000D03*
X234305000Y-68875000D03*
X234305000Y-67605000D03*
X234305000Y-66335000D03*
X234305000Y-65065000D03*
X234305000Y-63795000D03*
X234305000Y-62525000D03*
X234305000Y-61255000D03*
X234305000Y-59985000D03*
X234305000Y-58715000D03*
X234305000Y-57445000D03*
X234305000Y-56175000D03*
X234305000Y-54910000D03*
X234305000Y-53630000D03*
X234305000Y-52365000D03*
X234305000Y-51095000D03*
X234305000Y-49825000D03*
X234305000Y-48555000D03*
X234305000Y-47285000D03*
X234305000Y-46015000D03*
X234305000Y-44745000D03*
X234305000Y-43475000D03*
X234305000Y-42205000D03*
X234305000Y-40935000D03*
X234305000Y-39665000D03*
X234305000Y-38395000D03*
X234305000Y-37125000D03*
X234305000Y-35855000D03*
X234305000Y-34585000D03*
X234305000Y-33315000D03*
X234305000Y-32045000D03*
X234305000Y-30775000D03*
X234305000Y-29505000D03*
X233040000Y-79035000D03*
X233040000Y-77765000D03*
X233040000Y-76495000D03*
X233040000Y-75225000D03*
X233040000Y-73955000D03*
X233040000Y-72685000D03*
X233040000Y-71415000D03*
X233040000Y-70145000D03*
X233040000Y-68875000D03*
X233040000Y-67605000D03*
X233040000Y-66335000D03*
X233040000Y-65065000D03*
X233040000Y-63795000D03*
X233040000Y-62525000D03*
X233040000Y-61255000D03*
X233040000Y-59985000D03*
X233040000Y-58715000D03*
X233040000Y-57445000D03*
X233040000Y-56175000D03*
X233040000Y-54910000D03*
X233040000Y-53630000D03*
X233040000Y-52365000D03*
X233040000Y-51095000D03*
X233040000Y-49825000D03*
X233040000Y-48555000D03*
X233040000Y-47285000D03*
X233040000Y-46015000D03*
X233040000Y-44745000D03*
X233040000Y-43475000D03*
X233040000Y-42205000D03*
X233040000Y-40935000D03*
X233040000Y-39665000D03*
X233040000Y-38395000D03*
X233040000Y-37125000D03*
X233040000Y-35855000D03*
X233040000Y-34585000D03*
X233040000Y-33315000D03*
X233040000Y-32045000D03*
X233040000Y-30775000D03*
X233040000Y-29505000D03*
X231760000Y-79035000D03*
X231760000Y-77765000D03*
X231760000Y-76495000D03*
X231760000Y-75225000D03*
X231760000Y-73955000D03*
X231760000Y-72685000D03*
X231760000Y-71415000D03*
X231760000Y-70145000D03*
X231760000Y-68875000D03*
X231760000Y-67605000D03*
X231760000Y-66335000D03*
X231760000Y-65065000D03*
X231760000Y-63795000D03*
X231760000Y-62525000D03*
X231760000Y-61255000D03*
X231760000Y-59985000D03*
X231760000Y-58715000D03*
X231760000Y-57445000D03*
X231760000Y-56175000D03*
X231760000Y-54910000D03*
X231760000Y-53630000D03*
X231760000Y-52365000D03*
X231760000Y-51095000D03*
X231760000Y-49825000D03*
X231760000Y-48555000D03*
X231760000Y-47285000D03*
X231760000Y-46015000D03*
X231760000Y-44745000D03*
X231760000Y-43475000D03*
X231760000Y-42205000D03*
X231760000Y-40935000D03*
X231760000Y-39665000D03*
X231760000Y-38395000D03*
X231760000Y-37125000D03*
X231760000Y-35855000D03*
X231760000Y-34585000D03*
X231760000Y-33315000D03*
X231760000Y-32045000D03*
X231760000Y-30775000D03*
X231760000Y-29505000D03*
X230495000Y-79035000D03*
X230495000Y-77765000D03*
X230495000Y-76495000D03*
X230495000Y-75225000D03*
X230495000Y-73955000D03*
X230495000Y-72685000D03*
X230495000Y-71415000D03*
X230495000Y-70145000D03*
X230495000Y-68875000D03*
X230495000Y-67605000D03*
X230495000Y-66335000D03*
X230495000Y-65065000D03*
X230495000Y-63795000D03*
X230495000Y-62525000D03*
X230495000Y-61255000D03*
X230495000Y-59985000D03*
X230495000Y-58715000D03*
X230495000Y-57445000D03*
X230495000Y-56175000D03*
X230495000Y-54910000D03*
X230495000Y-53630000D03*
X230495000Y-52365000D03*
X230495000Y-51095000D03*
X230495000Y-49825000D03*
X230495000Y-48555000D03*
X230495000Y-47285000D03*
X230495000Y-46015000D03*
X230495000Y-44745000D03*
X230495000Y-43475000D03*
X230495000Y-42205000D03*
X230495000Y-40935000D03*
X230495000Y-39665000D03*
X230495000Y-38395000D03*
X230495000Y-37125000D03*
X230495000Y-35855000D03*
X230495000Y-34585000D03*
X230495000Y-33315000D03*
X230495000Y-32045000D03*
X230495000Y-30775000D03*
X230495000Y-29505000D03*
X229225000Y-79035000D03*
X229225000Y-77765000D03*
X229225000Y-76495000D03*
X229225000Y-75225000D03*
X229225000Y-73955000D03*
X229225000Y-72685000D03*
X229225000Y-71415000D03*
X229225000Y-70145000D03*
X229225000Y-68875000D03*
X229225000Y-67605000D03*
X229225000Y-66335000D03*
X229225000Y-65065000D03*
X229225000Y-63795000D03*
X229225000Y-62525000D03*
X229225000Y-61255000D03*
X229225000Y-59985000D03*
X229225000Y-58715000D03*
X229225000Y-57445000D03*
X229225000Y-56175000D03*
X229225000Y-54910000D03*
X229225000Y-53630000D03*
X229225000Y-52365000D03*
X229225000Y-51095000D03*
X229225000Y-49825000D03*
X229225000Y-48555000D03*
X229225000Y-47285000D03*
X229225000Y-46015000D03*
X229225000Y-44745000D03*
X229225000Y-43475000D03*
X229225000Y-42205000D03*
X229225000Y-40935000D03*
X229225000Y-39665000D03*
X229225000Y-38395000D03*
X229225000Y-37125000D03*
X229225000Y-35855000D03*
X229225000Y-34585000D03*
X229225000Y-33315000D03*
X229225000Y-32045000D03*
X229225000Y-30775000D03*
X229225000Y-29505000D03*
X227955000Y-79035000D03*
X227955000Y-77765000D03*
X227955000Y-76495000D03*
X227955000Y-75225000D03*
X227955000Y-73955000D03*
X227955000Y-72685000D03*
X227955000Y-71415000D03*
X227955000Y-70145000D03*
X227955000Y-68875000D03*
X227955000Y-67605000D03*
X227955000Y-66335000D03*
X227955000Y-65065000D03*
X227955000Y-63795000D03*
X227955000Y-62525000D03*
X227955000Y-61255000D03*
X227955000Y-59985000D03*
X227955000Y-58715000D03*
X227955000Y-57445000D03*
X227955000Y-56175000D03*
X227955000Y-54910000D03*
X227955000Y-53630000D03*
X227955000Y-52365000D03*
X227955000Y-51095000D03*
X227955000Y-49825000D03*
X227955000Y-48555000D03*
X227955000Y-47285000D03*
X227955000Y-46015000D03*
X227955000Y-44745000D03*
X227955000Y-43475000D03*
X227955000Y-42205000D03*
X227955000Y-40935000D03*
X227955000Y-39665000D03*
X227955000Y-38395000D03*
X227955000Y-37125000D03*
X227955000Y-35855000D03*
X227955000Y-34585000D03*
X227955000Y-33315000D03*
X227955000Y-32045000D03*
X227955000Y-30775000D03*
X227955000Y-29505000D03*
X226685000Y-79035000D03*
X226685000Y-77765000D03*
X226685000Y-76495000D03*
X226685000Y-75225000D03*
X226685000Y-73955000D03*
X226685000Y-72685000D03*
X226685000Y-71415000D03*
X226685000Y-70145000D03*
X226685000Y-68875000D03*
X226685000Y-67605000D03*
X226685000Y-66335000D03*
X226685000Y-65065000D03*
X226685000Y-63795000D03*
X226685000Y-62525000D03*
X226685000Y-61255000D03*
X226685000Y-59985000D03*
X226685000Y-58715000D03*
X226685000Y-57445000D03*
X226685000Y-56175000D03*
X226685000Y-54910000D03*
X226685000Y-53630000D03*
X226685000Y-52365000D03*
X226685000Y-51095000D03*
X226685000Y-49825000D03*
X226685000Y-48555000D03*
X226685000Y-47285000D03*
X226685000Y-46015000D03*
X226685000Y-44745000D03*
X226685000Y-43475000D03*
X226685000Y-42205000D03*
X226685000Y-40935000D03*
X226685000Y-39665000D03*
X226685000Y-38395000D03*
X226685000Y-37125000D03*
X226685000Y-35855000D03*
X226685000Y-34585000D03*
X226685000Y-33315000D03*
X226685000Y-32045000D03*
X226685000Y-30775000D03*
X226685000Y-29505000D03*
%TD*%
D11*
%TO.C,H5*%
X175800000Y-153250000D03*
D12*
X175800000Y-153250000D03*
%TD*%
D11*
%TO.C,H4*%
X230400000Y-85750000D03*
D12*
X230400000Y-85750000D03*
%TD*%
D10*
%TO.C,TP3*%
X218550000Y-91100000D03*
%TD*%
D11*
%TO.C,H7*%
X175800000Y-96700000D03*
D12*
X175800000Y-96700000D03*
%TD*%
D11*
%TO.C,H6*%
X230400000Y-155750000D03*
D12*
X230400000Y-155750000D03*
%TD*%
D13*
%TO.C,P1*%
X232400000Y-151450000D03*
X229350000Y-97070000D03*
D14*
X235575000Y-149025000D03*
X235575000Y-147755000D03*
X235575000Y-146485000D03*
X235575000Y-145215000D03*
X235575000Y-143945000D03*
X235575000Y-142675000D03*
X235575000Y-141405000D03*
X235575000Y-140135000D03*
X235575000Y-138865000D03*
X235575000Y-137595000D03*
X235575000Y-136325000D03*
X235575000Y-135055000D03*
X235575000Y-133785000D03*
X235575000Y-132515000D03*
X235575000Y-131245000D03*
X235575000Y-129975000D03*
X235575000Y-128705000D03*
X235575000Y-127435000D03*
X235575000Y-126165000D03*
X235575000Y-124900000D03*
X235575000Y-123620000D03*
X235575000Y-122355000D03*
X235575000Y-121085000D03*
X235575000Y-119815000D03*
X235575000Y-118545000D03*
X235575000Y-117275000D03*
X235575000Y-116005000D03*
X235575000Y-114735000D03*
X235575000Y-113465000D03*
X235575000Y-112195000D03*
X235575000Y-110925000D03*
X235575000Y-109655000D03*
X235575000Y-108385000D03*
X235575000Y-107115000D03*
X235575000Y-105845000D03*
X235575000Y-104575000D03*
X235575000Y-103305000D03*
X235575000Y-102035000D03*
X235575000Y-100765000D03*
X235575000Y-99495000D03*
X234305000Y-149025000D03*
X234305000Y-147755000D03*
X234305000Y-146485000D03*
X234305000Y-145215000D03*
X234305000Y-143945000D03*
X234305000Y-142675000D03*
X234305000Y-141405000D03*
X234305000Y-140135000D03*
X234305000Y-138865000D03*
X234305000Y-137595000D03*
X234305000Y-136325000D03*
X234305000Y-135055000D03*
X234305000Y-133785000D03*
X234305000Y-132515000D03*
X234305000Y-131245000D03*
X234305000Y-129975000D03*
X234305000Y-128705000D03*
X234305000Y-127435000D03*
X234305000Y-126165000D03*
X234305000Y-124900000D03*
X234305000Y-123620000D03*
X234305000Y-122355000D03*
X234305000Y-121085000D03*
X234305000Y-119815000D03*
X234305000Y-118545000D03*
X234305000Y-117275000D03*
X234305000Y-116005000D03*
X234305000Y-114735000D03*
X234305000Y-113465000D03*
X234305000Y-112195000D03*
X234305000Y-110925000D03*
X234305000Y-109655000D03*
X234305000Y-108385000D03*
X234305000Y-107115000D03*
X234305000Y-105845000D03*
X234305000Y-104575000D03*
X234305000Y-103305000D03*
X234305000Y-102035000D03*
X234305000Y-100765000D03*
X234305000Y-99495000D03*
X230495000Y-149025000D03*
X230495000Y-147755000D03*
X230495000Y-146485000D03*
X230495000Y-145215000D03*
X230495000Y-143945000D03*
X230495000Y-142675000D03*
X230495000Y-141405000D03*
X230495000Y-140135000D03*
X230495000Y-138865000D03*
X230495000Y-137595000D03*
X230495000Y-136325000D03*
X230495000Y-135055000D03*
X230495000Y-133785000D03*
X230495000Y-132515000D03*
X230495000Y-131245000D03*
X230495000Y-129975000D03*
X230495000Y-128705000D03*
X230495000Y-127435000D03*
X230495000Y-126165000D03*
X230495000Y-124900000D03*
X230495000Y-123620000D03*
X230495000Y-122355000D03*
X230495000Y-121085000D03*
X230495000Y-119815000D03*
X230495000Y-118545000D03*
X230495000Y-117275000D03*
X230495000Y-116005000D03*
X230495000Y-114735000D03*
X230495000Y-113465000D03*
X230495000Y-112195000D03*
X230495000Y-110925000D03*
X230495000Y-109655000D03*
X230495000Y-108385000D03*
X230495000Y-107115000D03*
X230495000Y-105845000D03*
X230495000Y-104575000D03*
X230495000Y-103305000D03*
X230495000Y-102035000D03*
X230495000Y-100765000D03*
X230495000Y-99495000D03*
X229225000Y-149025000D03*
X229225000Y-147755000D03*
X229225000Y-146485000D03*
X229225000Y-145215000D03*
X229225000Y-143945000D03*
X229225000Y-142675000D03*
X229225000Y-141405000D03*
X229225000Y-140135000D03*
X229225000Y-138865000D03*
X229225000Y-137595000D03*
X229225000Y-136325000D03*
X229225000Y-135055000D03*
X229225000Y-133785000D03*
X229225000Y-132515000D03*
X229225000Y-131245000D03*
X229225000Y-129975000D03*
X229225000Y-128705000D03*
X229225000Y-127435000D03*
X229225000Y-126165000D03*
X229225000Y-124900000D03*
X229225000Y-123620000D03*
X229225000Y-122355000D03*
X229225000Y-121085000D03*
X229225000Y-119815000D03*
X229225000Y-118545000D03*
X229225000Y-117275000D03*
X229225000Y-116005000D03*
X229225000Y-114735000D03*
X229225000Y-113465000D03*
X229225000Y-112195000D03*
X229225000Y-110925000D03*
X229225000Y-109655000D03*
X229225000Y-108385000D03*
X229225000Y-107115000D03*
X229225000Y-105845000D03*
X229225000Y-104575000D03*
X229225000Y-103305000D03*
X229225000Y-102035000D03*
X229225000Y-100765000D03*
X229225000Y-99495000D03*
%TD*%
D11*
%TO.C,H3*%
X175800000Y-83250000D03*
D12*
X175800000Y-83250000D03*
%TD*%
D10*
%TO.C,TP1*%
X212300000Y-91100000D03*
%TD*%
D15*
%TO.C,J6*%
X171348400Y-143510000D03*
D16*
X171348400Y-146050000D03*
X173888400Y-143510000D03*
X173888400Y-146050000D03*
X176428400Y-143510000D03*
X176428400Y-146050000D03*
X178968400Y-143510000D03*
X178968400Y-146050000D03*
X181508400Y-143510000D03*
X181508400Y-146050000D03*
X184048400Y-143510000D03*
X184048400Y-146050000D03*
X186588400Y-143510000D03*
X186588400Y-146050000D03*
X189128400Y-143510000D03*
X189128400Y-146050000D03*
X191668400Y-143510000D03*
X191668400Y-146050000D03*
X194208400Y-143510000D03*
X194208400Y-146050000D03*
X196748400Y-143510000D03*
X196748400Y-146050000D03*
X199288400Y-143510000D03*
X199288400Y-146050000D03*
X201828400Y-143510000D03*
X201828400Y-146050000D03*
X204368400Y-143510000D03*
X204368400Y-146050000D03*
X206908400Y-143510000D03*
X206908400Y-146050000D03*
X209448400Y-143510000D03*
X209448400Y-146050000D03*
X211988400Y-143510000D03*
X211988400Y-146050000D03*
X214528400Y-143510000D03*
X214528400Y-146050000D03*
X217068400Y-143510000D03*
X217068400Y-146050000D03*
X219608400Y-143510000D03*
X219608400Y-146050000D03*
%TD*%
D17*
%TO.C,J12*%
X131267200Y-69850000D03*
D18*
X128727200Y-72390000D03*
X128727200Y-67310000D03*
X133807200Y-67310000D03*
X133807200Y-72390000D03*
%TD*%
D19*
%TO.C,D2*%
X131591050Y-153820000D03*
D20*
X131591050Y-156360000D03*
%TD*%
D17*
%TO.C,J11*%
X131267200Y-50800000D03*
D18*
X128727200Y-53340000D03*
X128727200Y-48260000D03*
X133807200Y-48260000D03*
X133807200Y-53340000D03*
%TD*%
D17*
%TO.C,J9*%
X131267200Y-127000000D03*
D18*
X128727200Y-129540000D03*
X128727200Y-124460000D03*
X133807200Y-124460000D03*
X133807200Y-129540000D03*
%TD*%
D21*
%TO.C,D4*%
X131340000Y-110000000D03*
X131340000Y-112540000D03*
%TD*%
D15*
%TO.C,J7*%
X171348400Y-124714000D03*
D16*
X171348400Y-127254000D03*
X173888400Y-124714000D03*
X173888400Y-127254000D03*
X176428400Y-124714000D03*
X176428400Y-127254000D03*
X178968400Y-124714000D03*
X178968400Y-127254000D03*
X181508400Y-124714000D03*
X181508400Y-127254000D03*
X184048400Y-124714000D03*
X184048400Y-127254000D03*
X186588400Y-124714000D03*
X186588400Y-127254000D03*
X189128400Y-124714000D03*
X189128400Y-127254000D03*
X191668400Y-124714000D03*
X191668400Y-127254000D03*
X194208400Y-124714000D03*
X194208400Y-127254000D03*
X196748400Y-124714000D03*
X196748400Y-127254000D03*
X199288400Y-124714000D03*
X199288400Y-127254000D03*
X201828400Y-124714000D03*
X201828400Y-127254000D03*
X204368400Y-124714000D03*
X204368400Y-127254000D03*
X206908400Y-124714000D03*
X206908400Y-127254000D03*
X209448400Y-124714000D03*
X209448400Y-127254000D03*
X211988400Y-124714000D03*
X211988400Y-127254000D03*
X214528400Y-124714000D03*
X214528400Y-127254000D03*
X217068400Y-124714000D03*
X217068400Y-127254000D03*
X219608400Y-124714000D03*
X219608400Y-127254000D03*
%TD*%
D17*
%TO.C,J13*%
X131267200Y-31750000D03*
D18*
X128727200Y-34290000D03*
X128727200Y-29210000D03*
X133807200Y-29210000D03*
X133807200Y-34290000D03*
%TD*%
D15*
%TO.C,J4*%
X171348400Y-52344400D03*
D16*
X171348400Y-54884400D03*
X173888400Y-52344400D03*
X173888400Y-54884400D03*
X176428400Y-52344400D03*
X176428400Y-54884400D03*
X178968400Y-52344400D03*
X178968400Y-54884400D03*
X181508400Y-52344400D03*
X181508400Y-54884400D03*
X184048400Y-52344400D03*
X184048400Y-54884400D03*
X186588400Y-52344400D03*
X186588400Y-54884400D03*
X189128400Y-52344400D03*
X189128400Y-54884400D03*
X191668400Y-52344400D03*
X191668400Y-54884400D03*
X194208400Y-52344400D03*
X194208400Y-54884400D03*
X196748400Y-52344400D03*
X196748400Y-54884400D03*
X199288400Y-52344400D03*
X199288400Y-54884400D03*
X201828400Y-52344400D03*
X201828400Y-54884400D03*
X204368400Y-52344400D03*
X204368400Y-54884400D03*
X206908400Y-52344400D03*
X206908400Y-54884400D03*
X209448400Y-52344400D03*
X209448400Y-54884400D03*
X211988400Y-52344400D03*
X211988400Y-54884400D03*
X214528400Y-52344400D03*
X214528400Y-54884400D03*
X217068400Y-52344400D03*
X217068400Y-54884400D03*
X219608400Y-52344400D03*
X219608400Y-54884400D03*
%TD*%
D15*
%TO.C,J3*%
X171348400Y-72847200D03*
D16*
X171348400Y-75387200D03*
X173888400Y-72847200D03*
X173888400Y-75387200D03*
X176428400Y-72847200D03*
X176428400Y-75387200D03*
X178968400Y-72847200D03*
X178968400Y-75387200D03*
X181508400Y-72847200D03*
X181508400Y-75387200D03*
X184048400Y-72847200D03*
X184048400Y-75387200D03*
X186588400Y-72847200D03*
X186588400Y-75387200D03*
X189128400Y-72847200D03*
X189128400Y-75387200D03*
X191668400Y-72847200D03*
X191668400Y-75387200D03*
X194208400Y-72847200D03*
X194208400Y-75387200D03*
X196748400Y-72847200D03*
X196748400Y-75387200D03*
X199288400Y-72847200D03*
X199288400Y-75387200D03*
X201828400Y-72847200D03*
X201828400Y-75387200D03*
X204368400Y-72847200D03*
X204368400Y-75387200D03*
X206908400Y-72847200D03*
X206908400Y-75387200D03*
X209448400Y-72847200D03*
X209448400Y-75387200D03*
X211988400Y-72847200D03*
X211988400Y-75387200D03*
X214528400Y-72847200D03*
X214528400Y-75387200D03*
X217068400Y-72847200D03*
X217068400Y-75387200D03*
X219608400Y-72847200D03*
X219608400Y-75387200D03*
%TD*%
D15*
%TO.C,J5*%
X171348400Y-32943800D03*
D16*
X171348400Y-35483800D03*
X173888400Y-32943800D03*
X173888400Y-35483800D03*
X176428400Y-32943800D03*
X176428400Y-35483800D03*
X178968400Y-32943800D03*
X178968400Y-35483800D03*
X181508400Y-32943800D03*
X181508400Y-35483800D03*
X184048400Y-32943800D03*
X184048400Y-35483800D03*
X186588400Y-32943800D03*
X186588400Y-35483800D03*
X189128400Y-32943800D03*
X189128400Y-35483800D03*
X191668400Y-32943800D03*
X191668400Y-35483800D03*
X194208400Y-32943800D03*
X194208400Y-35483800D03*
X196748400Y-32943800D03*
X196748400Y-35483800D03*
X199288400Y-32943800D03*
X199288400Y-35483800D03*
X201828400Y-32943800D03*
X201828400Y-35483800D03*
X204368400Y-32943800D03*
X204368400Y-35483800D03*
X206908400Y-32943800D03*
X206908400Y-35483800D03*
X209448400Y-32943800D03*
X209448400Y-35483800D03*
X211988400Y-32943800D03*
X211988400Y-35483800D03*
X214528400Y-32943800D03*
X214528400Y-35483800D03*
X217068400Y-32943800D03*
X217068400Y-35483800D03*
X219608400Y-32943800D03*
X219608400Y-35483800D03*
%TD*%
D15*
%TO.C,J8*%
X171348400Y-104648000D03*
D16*
X171348400Y-107188000D03*
X173888400Y-104648000D03*
X173888400Y-107188000D03*
X176428400Y-104648000D03*
X176428400Y-107188000D03*
X178968400Y-104648000D03*
X178968400Y-107188000D03*
X181508400Y-104648000D03*
X181508400Y-107188000D03*
X184048400Y-104648000D03*
X184048400Y-107188000D03*
X186588400Y-104648000D03*
X186588400Y-107188000D03*
X189128400Y-104648000D03*
X189128400Y-107188000D03*
X191668400Y-104648000D03*
X191668400Y-107188000D03*
X194208400Y-104648000D03*
X194208400Y-107188000D03*
X196748400Y-104648000D03*
X196748400Y-107188000D03*
X199288400Y-104648000D03*
X199288400Y-107188000D03*
X201828400Y-104648000D03*
X201828400Y-107188000D03*
X204368400Y-104648000D03*
X204368400Y-107188000D03*
X206908400Y-104648000D03*
X206908400Y-107188000D03*
X209448400Y-104648000D03*
X209448400Y-107188000D03*
X211988400Y-104648000D03*
X211988400Y-107188000D03*
X214528400Y-104648000D03*
X214528400Y-107188000D03*
X217068400Y-104648000D03*
X217068400Y-107188000D03*
X219608400Y-104648000D03*
X219608400Y-107188000D03*
%TD*%
D22*
%TO.C,SW2*%
X135890000Y-81920000D03*
X130810000Y-81920000D03*
X135890000Y-87000000D03*
X130810000Y-87000000D03*
%TD*%
D23*
%TO.C,J1*%
X156700000Y-25940000D03*
D24*
X152740000Y-25940000D03*
X148780000Y-25940000D03*
%TD*%
D17*
%TO.C,J10*%
X131267200Y-146050000D03*
D18*
X128727200Y-148590000D03*
X128727200Y-143510000D03*
X133807200Y-143510000D03*
X133807200Y-148590000D03*
%TD*%
D10*
%TO.C,SW1*%
X129150000Y-100704000D03*
X129150000Y-95624000D03*
D25*
X141850000Y-93465000D03*
D10*
X141850000Y-98164000D03*
X141850000Y-102863000D03*
%TD*%
M02*
