%TF.GenerationSoftware,KiCad,Pcbnew,7.0.10-7.0.10~ubuntu22.04.1*%
%TF.CreationDate,2024-03-14T13:40:30-04:00*%
%TF.ProjectId,dioBreakOutBoard,64696f42-7265-4616-9b4f-7574426f6172,rev?*%
%TF.SameCoordinates,Original*%
%TF.FileFunction,Legend,Top*%
%TF.FilePolarity,Positive*%
%FSLAX46Y46*%
G04 Gerber Fmt 4.6, Leading zero omitted, Abs format (unit mm)*
G04 Created by KiCad (PCBNEW 7.0.10-7.0.10~ubuntu22.04.1) date 2024-03-14 13:40:30*
%MOMM*%
%LPD*%
G01*
G04 APERTURE LIST*
%ADD10C,0.150000*%
%ADD11C,0.120000*%
%ADD12C,3.000000*%
G04 APERTURE END LIST*
D10*
X229638095Y-19954819D02*
X229638095Y-18954819D01*
X229638095Y-19431009D02*
X230209523Y-19431009D01*
X230209523Y-19954819D02*
X230209523Y-18954819D01*
X230638095Y-19050057D02*
X230685714Y-19002438D01*
X230685714Y-19002438D02*
X230780952Y-18954819D01*
X230780952Y-18954819D02*
X231019047Y-18954819D01*
X231019047Y-18954819D02*
X231114285Y-19002438D01*
X231114285Y-19002438D02*
X231161904Y-19050057D01*
X231161904Y-19050057D02*
X231209523Y-19145295D01*
X231209523Y-19145295D02*
X231209523Y-19240533D01*
X231209523Y-19240533D02*
X231161904Y-19383390D01*
X231161904Y-19383390D02*
X230590476Y-19954819D01*
X230590476Y-19954819D02*
X231209523Y-19954819D01*
X175038095Y-23904819D02*
X175038095Y-22904819D01*
X175038095Y-23381009D02*
X175609523Y-23381009D01*
X175609523Y-23904819D02*
X175609523Y-22904819D01*
X176609523Y-23904819D02*
X176038095Y-23904819D01*
X176323809Y-23904819D02*
X176323809Y-22904819D01*
X176323809Y-22904819D02*
X176228571Y-23047676D01*
X176228571Y-23047676D02*
X176133333Y-23142914D01*
X176133333Y-23142914D02*
X176038095Y-23190533D01*
X232066666Y-83744819D02*
X232066666Y-84459104D01*
X232066666Y-84459104D02*
X232019047Y-84601961D01*
X232019047Y-84601961D02*
X231923809Y-84697200D01*
X231923809Y-84697200D02*
X231780952Y-84744819D01*
X231780952Y-84744819D02*
X231685714Y-84744819D01*
X232495238Y-83840057D02*
X232542857Y-83792438D01*
X232542857Y-83792438D02*
X232638095Y-83744819D01*
X232638095Y-83744819D02*
X232876190Y-83744819D01*
X232876190Y-83744819D02*
X232971428Y-83792438D01*
X232971428Y-83792438D02*
X233019047Y-83840057D01*
X233019047Y-83840057D02*
X233066666Y-83935295D01*
X233066666Y-83935295D02*
X233066666Y-84030533D01*
X233066666Y-84030533D02*
X233019047Y-84173390D01*
X233019047Y-84173390D02*
X232447619Y-84744819D01*
X232447619Y-84744819D02*
X233066666Y-84744819D01*
X175038095Y-150454819D02*
X175038095Y-149454819D01*
X175038095Y-149931009D02*
X175609523Y-149931009D01*
X175609523Y-150454819D02*
X175609523Y-149454819D01*
X176561904Y-149454819D02*
X176085714Y-149454819D01*
X176085714Y-149454819D02*
X176038095Y-149931009D01*
X176038095Y-149931009D02*
X176085714Y-149883390D01*
X176085714Y-149883390D02*
X176180952Y-149835771D01*
X176180952Y-149835771D02*
X176419047Y-149835771D01*
X176419047Y-149835771D02*
X176514285Y-149883390D01*
X176514285Y-149883390D02*
X176561904Y-149931009D01*
X176561904Y-149931009D02*
X176609523Y-150026247D01*
X176609523Y-150026247D02*
X176609523Y-150264342D01*
X176609523Y-150264342D02*
X176561904Y-150359580D01*
X176561904Y-150359580D02*
X176514285Y-150407200D01*
X176514285Y-150407200D02*
X176419047Y-150454819D01*
X176419047Y-150454819D02*
X176180952Y-150454819D01*
X176180952Y-150454819D02*
X176085714Y-150407200D01*
X176085714Y-150407200D02*
X176038095Y-150359580D01*
X229818095Y-89384819D02*
X229818095Y-88384819D01*
X229818095Y-88861009D02*
X230389523Y-88861009D01*
X230389523Y-89384819D02*
X230389523Y-88384819D01*
X231294285Y-88718152D02*
X231294285Y-89384819D01*
X231056190Y-88337200D02*
X230818095Y-89051485D01*
X230818095Y-89051485D02*
X231437142Y-89051485D01*
X175038095Y-93904819D02*
X175038095Y-92904819D01*
X175038095Y-93381009D02*
X175609523Y-93381009D01*
X175609523Y-93904819D02*
X175609523Y-92904819D01*
X175990476Y-92904819D02*
X176657142Y-92904819D01*
X176657142Y-92904819D02*
X176228571Y-93904819D01*
X226748095Y-158464819D02*
X226748095Y-157464819D01*
X226748095Y-157941009D02*
X227319523Y-157941009D01*
X227319523Y-158464819D02*
X227319523Y-157464819D01*
X228224285Y-157464819D02*
X228033809Y-157464819D01*
X228033809Y-157464819D02*
X227938571Y-157512438D01*
X227938571Y-157512438D02*
X227890952Y-157560057D01*
X227890952Y-157560057D02*
X227795714Y-157702914D01*
X227795714Y-157702914D02*
X227748095Y-157893390D01*
X227748095Y-157893390D02*
X227748095Y-158274342D01*
X227748095Y-158274342D02*
X227795714Y-158369580D01*
X227795714Y-158369580D02*
X227843333Y-158417200D01*
X227843333Y-158417200D02*
X227938571Y-158464819D01*
X227938571Y-158464819D02*
X228129047Y-158464819D01*
X228129047Y-158464819D02*
X228224285Y-158417200D01*
X228224285Y-158417200D02*
X228271904Y-158369580D01*
X228271904Y-158369580D02*
X228319523Y-158274342D01*
X228319523Y-158274342D02*
X228319523Y-158036247D01*
X228319523Y-158036247D02*
X228271904Y-157941009D01*
X228271904Y-157941009D02*
X228224285Y-157893390D01*
X228224285Y-157893390D02*
X228129047Y-157845771D01*
X228129047Y-157845771D02*
X227938571Y-157845771D01*
X227938571Y-157845771D02*
X227843333Y-157893390D01*
X227843333Y-157893390D02*
X227795714Y-157941009D01*
X227795714Y-157941009D02*
X227748095Y-158036247D01*
X231661905Y-154734819D02*
X231661905Y-153734819D01*
X231661905Y-153734819D02*
X232042857Y-153734819D01*
X232042857Y-153734819D02*
X232138095Y-153782438D01*
X232138095Y-153782438D02*
X232185714Y-153830057D01*
X232185714Y-153830057D02*
X232233333Y-153925295D01*
X232233333Y-153925295D02*
X232233333Y-154068152D01*
X232233333Y-154068152D02*
X232185714Y-154163390D01*
X232185714Y-154163390D02*
X232138095Y-154211009D01*
X232138095Y-154211009D02*
X232042857Y-154258628D01*
X232042857Y-154258628D02*
X231661905Y-154258628D01*
X233185714Y-154734819D02*
X232614286Y-154734819D01*
X232900000Y-154734819D02*
X232900000Y-153734819D01*
X232900000Y-153734819D02*
X232804762Y-153877676D01*
X232804762Y-153877676D02*
X232709524Y-153972914D01*
X232709524Y-153972914D02*
X232614286Y-154020533D01*
X220656819Y-69977724D02*
X219656819Y-69977724D01*
X220133009Y-69977724D02*
X220133009Y-69406296D01*
X220656819Y-69406296D02*
X219656819Y-69406296D01*
X219656819Y-69025343D02*
X219656819Y-68406296D01*
X219656819Y-68406296D02*
X220037771Y-68739629D01*
X220037771Y-68739629D02*
X220037771Y-68596772D01*
X220037771Y-68596772D02*
X220085390Y-68501534D01*
X220085390Y-68501534D02*
X220133009Y-68453915D01*
X220133009Y-68453915D02*
X220228247Y-68406296D01*
X220228247Y-68406296D02*
X220466342Y-68406296D01*
X220466342Y-68406296D02*
X220561580Y-68453915D01*
X220561580Y-68453915D02*
X220609200Y-68501534D01*
X220609200Y-68501534D02*
X220656819Y-68596772D01*
X220656819Y-68596772D02*
X220656819Y-68882486D01*
X220656819Y-68882486D02*
X220609200Y-68977724D01*
X220609200Y-68977724D02*
X220561580Y-69025343D01*
%TO.C,TP4*%
X201400000Y-91100000D02*
G75*
G03*
X197400000Y-91100000I-2000000J0D01*
G01*
X197400000Y-91100000D02*
G75*
G03*
X201400000Y-91100000I2000000J0D01*
G01*
%TO.C,TP2*%
X207650000Y-91050000D02*
G75*
G03*
X203650000Y-91050000I-2000000J0D01*
G01*
X203650000Y-91050000D02*
G75*
G03*
X207650000Y-91050000I2000000J0D01*
G01*
D11*
%TO.C,J2*%
X240100000Y-82570000D02*
X239100000Y-82570000D01*
X240100000Y-81570000D02*
X240100000Y-82570000D01*
X239850000Y-82340000D02*
X239850000Y-26340000D01*
X239850000Y-26340000D02*
X224950000Y-26340000D01*
X233270000Y-83230000D02*
X233270000Y-82340000D01*
X233270000Y-82340000D02*
X239850000Y-82340000D01*
X231530000Y-83230000D02*
X233270000Y-83230000D01*
X231530000Y-82340000D02*
X231530000Y-83230000D01*
X224950000Y-82340000D02*
X231530000Y-82340000D01*
X224950000Y-26340000D02*
X224950000Y-82340000D01*
D10*
%TO.C,TP3*%
X220550000Y-91100000D02*
G75*
G03*
X216550000Y-91100000I-2000000J0D01*
G01*
X216550000Y-91100000D02*
G75*
G03*
X220550000Y-91100000I2000000J0D01*
G01*
D11*
%TO.C,P1*%
X240100000Y-152560000D02*
X239100000Y-152560000D01*
X240100000Y-151560000D02*
X240100000Y-152560000D01*
X239850000Y-152330000D02*
X239850000Y-96330000D01*
X239850000Y-96330000D02*
X224950000Y-96330000D01*
X233270000Y-153220000D02*
X233270000Y-152330000D01*
X233270000Y-152330000D02*
X239850000Y-152330000D01*
X231530000Y-153220000D02*
X233270000Y-153220000D01*
X231530000Y-152330000D02*
X231530000Y-153220000D01*
X224950000Y-152330000D02*
X231530000Y-152330000D01*
X224950000Y-96330000D02*
X224950000Y-152330000D01*
D10*
%TO.C,TP1*%
X214300000Y-91100000D02*
G75*
G03*
X210300000Y-91100000I-2000000J0D01*
G01*
X210300000Y-91100000D02*
G75*
G03*
X214300000Y-91100000I2000000J0D01*
G01*
%TD*%
D12*
%TO.C,TP4*%
X199400000Y-91100000D03*
%TD*%
%TO.C,TP2*%
X205650000Y-91050000D03*
%TD*%
%TO.C,TP3*%
X218550000Y-91100000D03*
%TD*%
%TO.C,TP1*%
X212300000Y-91100000D03*
%TD*%
M02*
