%TF.GenerationSoftware,KiCad,Pcbnew,7.0.10-7.0.10~ubuntu22.04.1*%
%TF.CreationDate,2024-03-14T13:40:30-04:00*%
%TF.ProjectId,dioBreakOutBoard,64696f42-7265-4616-9b4f-7574426f6172,rev?*%
%TF.SameCoordinates,Original*%
%TF.FileFunction,Soldermask,Bot*%
%TF.FilePolarity,Negative*%
%FSLAX46Y46*%
G04 Gerber Fmt 4.6, Leading zero omitted, Abs format (unit mm)*
G04 Created by KiCad (PCBNEW 7.0.10-7.0.10~ubuntu22.04.1) date 2024-03-14 13:40:30*
%MOMM*%
%LPD*%
G01*
G04 APERTURE LIST*
G04 Aperture macros list*
%AMRoundRect*
0 Rectangle with rounded corners*
0 $1 Rounding radius*
0 $2 $3 $4 $5 $6 $7 $8 $9 X,Y pos of 4 corners*
0 Add a 4 corners polygon primitive as box body*
4,1,4,$2,$3,$4,$5,$6,$7,$8,$9,$2,$3,0*
0 Add four circle primitives for the rounded corners*
1,1,$1+$1,$2,$3*
1,1,$1+$1,$4,$5*
1,1,$1+$1,$6,$7*
1,1,$1+$1,$8,$9*
0 Add four rect primitives between the rounded corners*
20,1,$1+$1,$2,$3,$4,$5,0*
20,1,$1+$1,$4,$5,$6,$7,0*
20,1,$1+$1,$6,$7,$8,$9,0*
20,1,$1+$1,$8,$9,$2,$3,0*%
G04 Aperture macros list end*
%ADD10C,3.000000*%
%ADD11C,3.100000*%
%ADD12C,4.500000*%
%ADD13C,1.270000*%
%ADD14R,0.600000X1.250000*%
%ADD15RoundRect,0.200000X-0.200000X-0.275000X0.200000X-0.275000X0.200000X0.275000X-0.200000X0.275000X0*%
%ADD16R,2.540000X1.650000*%
%ADD17RoundRect,0.200000X0.275000X-0.200000X0.275000X0.200000X-0.275000X0.200000X-0.275000X-0.200000X0*%
%ADD18RoundRect,0.150000X-0.150000X0.512500X-0.150000X-0.512500X0.150000X-0.512500X0.150000X0.512500X0*%
%ADD19RoundRect,0.200000X0.200000X0.275000X-0.200000X0.275000X-0.200000X-0.275000X0.200000X-0.275000X0*%
%ADD20RoundRect,0.200000X-0.275000X0.200000X-0.275000X-0.200000X0.275000X-0.200000X0.275000X0.200000X0*%
%ADD21R,1.700000X1.700000*%
%ADD22O,1.700000X1.700000*%
%ADD23R,0.400000X0.700000*%
%ADD24RoundRect,0.225000X-0.225000X-0.250000X0.225000X-0.250000X0.225000X0.250000X-0.225000X0.250000X0*%
%ADD25R,1.000000X1.400000*%
%ADD26R,0.800001X0.800001*%
%ADD27C,2.250000*%
%ADD28C,2.550000*%
%ADD29R,1.397000X1.397000*%
%ADD30C,1.397000*%
%ADD31C,1.440000*%
%ADD32RoundRect,0.218750X-0.256250X0.218750X-0.256250X-0.218750X0.256250X-0.218750X0.256250X0.218750X0*%
%ADD33C,2.000000*%
%ADD34RoundRect,0.150000X0.650000X0.150000X-0.650000X0.150000X-0.650000X-0.150000X0.650000X-0.150000X0*%
%ADD35RoundRect,0.250001X0.949999X0.949999X-0.949999X0.949999X-0.949999X-0.949999X0.949999X-0.949999X0*%
%ADD36C,2.400000*%
%ADD37RoundRect,0.250000X-0.337500X-0.475000X0.337500X-0.475000X0.337500X0.475000X-0.337500X0.475000X0*%
%ADD38RoundRect,0.750000X-0.750000X-0.750000X0.750000X-0.750000X0.750000X0.750000X-0.750000X0.750000X0*%
%ADD39RoundRect,0.237500X-0.237500X0.250000X-0.237500X-0.250000X0.237500X-0.250000X0.237500X0.250000X0*%
%ADD40RoundRect,0.225000X-0.250000X0.225000X-0.250000X-0.225000X0.250000X-0.225000X0.250000X0.225000X0*%
%ADD41RoundRect,0.225000X0.225000X0.250000X-0.225000X0.250000X-0.225000X-0.250000X0.225000X-0.250000X0*%
G04 APERTURE END LIST*
D10*
%TO.C,TP4*%
X199400000Y-91100000D03*
%TD*%
D11*
%TO.C,H2*%
X230400000Y-22750000D03*
D12*
X230400000Y-22750000D03*
%TD*%
D11*
%TO.C,H1*%
X175800000Y-26700000D03*
D12*
X175800000Y-26700000D03*
%TD*%
D10*
%TO.C,TP2*%
X205650000Y-91050000D03*
%TD*%
D13*
%TO.C,J2*%
X232400000Y-81460000D03*
X229350000Y-27080000D03*
%TD*%
D11*
%TO.C,H5*%
X175800000Y-153250000D03*
D12*
X175800000Y-153250000D03*
%TD*%
D11*
%TO.C,H4*%
X230400000Y-85750000D03*
D12*
X230400000Y-85750000D03*
%TD*%
D10*
%TO.C,TP3*%
X218550000Y-91100000D03*
%TD*%
D11*
%TO.C,H7*%
X175800000Y-96700000D03*
D12*
X175800000Y-96700000D03*
%TD*%
D11*
%TO.C,H6*%
X230400000Y-155750000D03*
D12*
X230400000Y-155750000D03*
%TD*%
D13*
%TO.C,P1*%
X232400000Y-151450000D03*
X229350000Y-97070000D03*
%TD*%
D11*
%TO.C,H3*%
X175800000Y-83250000D03*
D12*
X175800000Y-83250000D03*
%TD*%
D10*
%TO.C,TP1*%
X212300000Y-91100000D03*
%TD*%
D14*
%TO.C,D12*%
X161249826Y-135532200D03*
X163149826Y-135532200D03*
X162199826Y-137732200D03*
%TD*%
D15*
%TO.C,R21*%
X164995026Y-134962400D03*
X166645026Y-134962400D03*
%TD*%
D16*
%TO.C,TR3*%
X149670000Y-81500000D03*
X149670000Y-78960000D03*
X149670000Y-76420000D03*
X154750000Y-76420000D03*
X154750000Y-78960000D03*
X154750000Y-81500000D03*
%TD*%
D17*
%TO.C,R24*%
X150114000Y-89662000D03*
X150114000Y-88012000D03*
%TD*%
D18*
%TO.C,Q1*%
X139850000Y-114325000D03*
X141750000Y-114325000D03*
X140800000Y-116600000D03*
%TD*%
D19*
%TO.C,R1*%
X138625000Y-156300000D03*
X136975000Y-156300000D03*
%TD*%
D16*
%TO.C,TR5*%
X149670000Y-47080000D03*
X149670000Y-44540000D03*
X149670000Y-42000000D03*
X154750000Y-42000000D03*
X154750000Y-44540000D03*
X154750000Y-47080000D03*
%TD*%
D20*
%TO.C,R9*%
X159390026Y-119977400D03*
X159390026Y-121627400D03*
%TD*%
D21*
%TO.C,J6*%
X171348400Y-143510000D03*
D22*
X171348400Y-146050000D03*
X173888400Y-143510000D03*
X173888400Y-146050000D03*
X176428400Y-143510000D03*
X176428400Y-146050000D03*
X178968400Y-143510000D03*
X178968400Y-146050000D03*
X181508400Y-143510000D03*
X181508400Y-146050000D03*
X184048400Y-143510000D03*
X184048400Y-146050000D03*
X186588400Y-143510000D03*
X186588400Y-146050000D03*
X189128400Y-143510000D03*
X189128400Y-146050000D03*
X191668400Y-143510000D03*
X191668400Y-146050000D03*
X194208400Y-143510000D03*
X194208400Y-146050000D03*
X196748400Y-143510000D03*
X196748400Y-146050000D03*
X199288400Y-143510000D03*
X199288400Y-146050000D03*
X201828400Y-143510000D03*
X201828400Y-146050000D03*
X204368400Y-143510000D03*
X204368400Y-146050000D03*
X206908400Y-143510000D03*
X206908400Y-146050000D03*
X209448400Y-143510000D03*
X209448400Y-146050000D03*
X211988400Y-143510000D03*
X211988400Y-146050000D03*
X214528400Y-143510000D03*
X214528400Y-146050000D03*
X217068400Y-143510000D03*
X217068400Y-146050000D03*
X219608400Y-143510000D03*
X219608400Y-146050000D03*
%TD*%
D17*
%TO.C,R8*%
X137685000Y-109200000D03*
X137685000Y-107550000D03*
%TD*%
D14*
%TO.C,D13*%
X160250000Y-43650000D03*
X162150000Y-43650000D03*
X161200000Y-45850000D03*
%TD*%
D23*
%TO.C,D5*%
X132300000Y-58420000D03*
X133000000Y-58420000D03*
%TD*%
D24*
%TO.C,C3*%
X144025000Y-118480000D03*
X145575000Y-118480000D03*
%TD*%
D15*
%TO.C,R18*%
X165315000Y-122390000D03*
X166965000Y-122390000D03*
%TD*%
%TO.C,R16*%
X164900000Y-64120000D03*
X166550000Y-64120000D03*
%TD*%
D14*
%TO.C,D10*%
X161410000Y-119830000D03*
X163310000Y-119830000D03*
X162360000Y-122030000D03*
%TD*%
D24*
%TO.C,C10*%
X163121402Y-147011600D03*
X164671402Y-147011600D03*
%TD*%
D25*
%TO.C,IC2*%
X156320002Y-152400000D03*
X156320002Y-149860000D03*
X156320002Y-147320000D03*
X160020000Y-147320000D03*
X160020000Y-149860000D03*
X160020000Y-152400000D03*
D26*
X158170001Y-152725001D03*
X158170001Y-146994999D03*
%TD*%
D27*
%TO.C,J12*%
X131267200Y-69850000D03*
D28*
X128727200Y-72390000D03*
X128727200Y-67310000D03*
X133807200Y-67310000D03*
X133807200Y-72390000D03*
%TD*%
D20*
%TO.C,R13*%
X158310000Y-43725000D03*
X158310000Y-45375000D03*
%TD*%
D14*
%TO.C,D9*%
X160970000Y-61320000D03*
X162870000Y-61320000D03*
X161920000Y-63520000D03*
%TD*%
D29*
%TO.C,D2*%
X131591050Y-153820000D03*
D30*
X131591050Y-156360000D03*
%TD*%
D20*
%TO.C,R10*%
X158400000Y-61580000D03*
X158400000Y-63230000D03*
%TD*%
D16*
%TO.C,TR2*%
X150220026Y-123442400D03*
X150220026Y-120902400D03*
X150220026Y-118362400D03*
X155300026Y-118362400D03*
X155300026Y-120902400D03*
X155300026Y-123442400D03*
%TD*%
D27*
%TO.C,J11*%
X131267200Y-50800000D03*
D28*
X128727200Y-53340000D03*
X128727200Y-48260000D03*
X133807200Y-48260000D03*
X133807200Y-53340000D03*
%TD*%
D24*
%TO.C,C5*%
X145084200Y-59944000D03*
X146634200Y-59944000D03*
%TD*%
D27*
%TO.C,J9*%
X131267200Y-127000000D03*
D28*
X128727200Y-129540000D03*
X128727200Y-124460000D03*
X133807200Y-124460000D03*
X133807200Y-129540000D03*
%TD*%
D31*
%TO.C,D4*%
X131340000Y-110000000D03*
X131340000Y-112540000D03*
%TD*%
D21*
%TO.C,J7*%
X171348400Y-124714000D03*
D22*
X171348400Y-127254000D03*
X173888400Y-124714000D03*
X173888400Y-127254000D03*
X176428400Y-124714000D03*
X176428400Y-127254000D03*
X178968400Y-124714000D03*
X178968400Y-127254000D03*
X181508400Y-124714000D03*
X181508400Y-127254000D03*
X184048400Y-124714000D03*
X184048400Y-127254000D03*
X186588400Y-124714000D03*
X186588400Y-127254000D03*
X189128400Y-124714000D03*
X189128400Y-127254000D03*
X191668400Y-124714000D03*
X191668400Y-127254000D03*
X194208400Y-124714000D03*
X194208400Y-127254000D03*
X196748400Y-124714000D03*
X196748400Y-127254000D03*
X199288400Y-124714000D03*
X199288400Y-127254000D03*
X201828400Y-124714000D03*
X201828400Y-127254000D03*
X204368400Y-124714000D03*
X204368400Y-127254000D03*
X206908400Y-124714000D03*
X206908400Y-127254000D03*
X209448400Y-124714000D03*
X209448400Y-127254000D03*
X211988400Y-124714000D03*
X211988400Y-127254000D03*
X214528400Y-124714000D03*
X214528400Y-127254000D03*
X217068400Y-124714000D03*
X217068400Y-127254000D03*
X219608400Y-124714000D03*
X219608400Y-127254000D03*
%TD*%
D27*
%TO.C,J13*%
X131267200Y-31750000D03*
D28*
X128727200Y-34290000D03*
X128727200Y-29210000D03*
X133807200Y-29210000D03*
X133807200Y-34290000D03*
%TD*%
D32*
%TO.C,D3*%
X159250000Y-31450000D03*
X159250000Y-33025000D03*
%TD*%
D24*
%TO.C,C6*%
X145095000Y-76420000D03*
X146645000Y-76420000D03*
%TD*%
D21*
%TO.C,J4*%
X171348400Y-52344400D03*
D22*
X171348400Y-54884400D03*
X173888400Y-52344400D03*
X173888400Y-54884400D03*
X176428400Y-52344400D03*
X176428400Y-54884400D03*
X178968400Y-52344400D03*
X178968400Y-54884400D03*
X181508400Y-52344400D03*
X181508400Y-54884400D03*
X184048400Y-52344400D03*
X184048400Y-54884400D03*
X186588400Y-52344400D03*
X186588400Y-54884400D03*
X189128400Y-52344400D03*
X189128400Y-54884400D03*
X191668400Y-52344400D03*
X191668400Y-54884400D03*
X194208400Y-52344400D03*
X194208400Y-54884400D03*
X196748400Y-52344400D03*
X196748400Y-54884400D03*
X199288400Y-52344400D03*
X199288400Y-54884400D03*
X201828400Y-52344400D03*
X201828400Y-54884400D03*
X204368400Y-52344400D03*
X204368400Y-54884400D03*
X206908400Y-52344400D03*
X206908400Y-54884400D03*
X209448400Y-52344400D03*
X209448400Y-54884400D03*
X211988400Y-52344400D03*
X211988400Y-54884400D03*
X214528400Y-52344400D03*
X214528400Y-54884400D03*
X217068400Y-52344400D03*
X217068400Y-54884400D03*
X219608400Y-52344400D03*
X219608400Y-54884400D03*
%TD*%
D15*
%TO.C,R14*%
X165045026Y-138142400D03*
X166695026Y-138142400D03*
%TD*%
%TO.C,R23*%
X164150000Y-46570000D03*
X165800000Y-46570000D03*
%TD*%
D21*
%TO.C,J3*%
X171348400Y-72847200D03*
D22*
X171348400Y-75387200D03*
X173888400Y-72847200D03*
X173888400Y-75387200D03*
X176428400Y-72847200D03*
X176428400Y-75387200D03*
X178968400Y-72847200D03*
X178968400Y-75387200D03*
X181508400Y-72847200D03*
X181508400Y-75387200D03*
X184048400Y-72847200D03*
X184048400Y-75387200D03*
X186588400Y-72847200D03*
X186588400Y-75387200D03*
X189128400Y-72847200D03*
X189128400Y-75387200D03*
X191668400Y-72847200D03*
X191668400Y-75387200D03*
X194208400Y-72847200D03*
X194208400Y-75387200D03*
X196748400Y-72847200D03*
X196748400Y-75387200D03*
X199288400Y-72847200D03*
X199288400Y-75387200D03*
X201828400Y-72847200D03*
X201828400Y-75387200D03*
X204368400Y-72847200D03*
X204368400Y-75387200D03*
X206908400Y-72847200D03*
X206908400Y-75387200D03*
X209448400Y-72847200D03*
X209448400Y-75387200D03*
X211988400Y-72847200D03*
X211988400Y-75387200D03*
X214528400Y-72847200D03*
X214528400Y-75387200D03*
X217068400Y-72847200D03*
X217068400Y-75387200D03*
X219608400Y-72847200D03*
X219608400Y-75387200D03*
%TD*%
D24*
%TO.C,C4*%
X144395000Y-133960000D03*
X145945000Y-133960000D03*
%TD*%
D21*
%TO.C,J5*%
X171348400Y-32943800D03*
D22*
X171348400Y-35483800D03*
X173888400Y-32943800D03*
X173888400Y-35483800D03*
X176428400Y-32943800D03*
X176428400Y-35483800D03*
X178968400Y-32943800D03*
X178968400Y-35483800D03*
X181508400Y-32943800D03*
X181508400Y-35483800D03*
X184048400Y-32943800D03*
X184048400Y-35483800D03*
X186588400Y-32943800D03*
X186588400Y-35483800D03*
X189128400Y-32943800D03*
X189128400Y-35483800D03*
X191668400Y-32943800D03*
X191668400Y-35483800D03*
X194208400Y-32943800D03*
X194208400Y-35483800D03*
X196748400Y-32943800D03*
X196748400Y-35483800D03*
X199288400Y-32943800D03*
X199288400Y-35483800D03*
X201828400Y-32943800D03*
X201828400Y-35483800D03*
X204368400Y-32943800D03*
X204368400Y-35483800D03*
X206908400Y-32943800D03*
X206908400Y-35483800D03*
X209448400Y-32943800D03*
X209448400Y-35483800D03*
X211988400Y-32943800D03*
X211988400Y-35483800D03*
X214528400Y-32943800D03*
X214528400Y-35483800D03*
X217068400Y-32943800D03*
X217068400Y-35483800D03*
X219608400Y-32943800D03*
X219608400Y-35483800D03*
%TD*%
D20*
%TO.C,R4*%
X198600000Y-25700000D03*
X198600000Y-27350000D03*
%TD*%
%TO.C,R12*%
X159228026Y-135777400D03*
X159228026Y-137427400D03*
%TD*%
D24*
%TO.C,C7*%
X144830200Y-41910000D03*
X146380200Y-41910000D03*
%TD*%
D16*
%TO.C,TR1*%
X149710000Y-65040000D03*
X149710000Y-62500000D03*
X149710000Y-59960000D03*
X154790000Y-59960000D03*
X154790000Y-62500000D03*
X154790000Y-65040000D03*
%TD*%
D15*
%TO.C,R19*%
X165215000Y-77240000D03*
X166865000Y-77240000D03*
%TD*%
D21*
%TO.C,J8*%
X171348400Y-104648000D03*
D22*
X171348400Y-107188000D03*
X173888400Y-104648000D03*
X173888400Y-107188000D03*
X176428400Y-104648000D03*
X176428400Y-107188000D03*
X178968400Y-104648000D03*
X178968400Y-107188000D03*
X181508400Y-104648000D03*
X181508400Y-107188000D03*
X184048400Y-104648000D03*
X184048400Y-107188000D03*
X186588400Y-104648000D03*
X186588400Y-107188000D03*
X189128400Y-104648000D03*
X189128400Y-107188000D03*
X191668400Y-104648000D03*
X191668400Y-107188000D03*
X194208400Y-104648000D03*
X194208400Y-107188000D03*
X196748400Y-104648000D03*
X196748400Y-107188000D03*
X199288400Y-104648000D03*
X199288400Y-107188000D03*
X201828400Y-104648000D03*
X201828400Y-107188000D03*
X204368400Y-104648000D03*
X204368400Y-107188000D03*
X206908400Y-104648000D03*
X206908400Y-107188000D03*
X209448400Y-104648000D03*
X209448400Y-107188000D03*
X211988400Y-104648000D03*
X211988400Y-107188000D03*
X214528400Y-104648000D03*
X214528400Y-107188000D03*
X217068400Y-104648000D03*
X217068400Y-107188000D03*
X219608400Y-104648000D03*
X219608400Y-107188000D03*
%TD*%
D20*
%TO.C,R7*%
X137685000Y-112850000D03*
X137685000Y-114500000D03*
%TD*%
D16*
%TO.C,TR4*%
X150220000Y-139180000D03*
X150220000Y-136640000D03*
X150220000Y-134100000D03*
X155300000Y-134100000D03*
X155300000Y-136640000D03*
X155300000Y-139180000D03*
%TD*%
D32*
%TO.C,D1*%
X147310000Y-31312500D03*
X147310000Y-32887500D03*
%TD*%
D17*
%TO.C,R5*%
X198640000Y-24170000D03*
X198640000Y-22520000D03*
%TD*%
D33*
%TO.C,SW2*%
X135890000Y-81920000D03*
X130810000Y-81920000D03*
X135890000Y-87000000D03*
X130810000Y-87000000D03*
%TD*%
D34*
%TO.C,IC1*%
X195540000Y-23965000D03*
X195540000Y-25235000D03*
X195540000Y-26505000D03*
X195540000Y-27775000D03*
X188340000Y-27775000D03*
X188340000Y-26505000D03*
X188340000Y-25235000D03*
X188340000Y-23965000D03*
%TD*%
D23*
%TO.C,D14*%
X132200000Y-39900000D03*
X132900000Y-39900000D03*
%TD*%
D35*
%TO.C,J1*%
X156700000Y-25940000D03*
D36*
X152740000Y-25940000D03*
X148780000Y-25940000D03*
%TD*%
D23*
%TO.C,D6*%
X132350000Y-120600000D03*
X133050000Y-120600000D03*
%TD*%
%TO.C,D8*%
X133300000Y-139500000D03*
X134000000Y-139500000D03*
%TD*%
D20*
%TO.C,R11*%
X158629200Y-77654600D03*
X158629200Y-79304600D03*
%TD*%
D24*
%TO.C,C9*%
X162990002Y-149930000D03*
X164540002Y-149930000D03*
%TD*%
D37*
%TO.C,C2*%
X182980000Y-24190000D03*
X185055000Y-24190000D03*
%TD*%
D27*
%TO.C,J10*%
X131267200Y-146050000D03*
D28*
X128727200Y-148590000D03*
X128727200Y-143510000D03*
X133807200Y-143510000D03*
X133807200Y-148590000D03*
%TD*%
D10*
%TO.C,SW1*%
X129150000Y-100704000D03*
X129150000Y-95624000D03*
D38*
X141850000Y-93465000D03*
D10*
X141850000Y-98164000D03*
X141850000Y-102863000D03*
%TD*%
D23*
%TO.C,D7*%
X132300000Y-77175000D03*
X133000000Y-77175000D03*
%TD*%
D18*
%TO.C,Q2*%
X139830000Y-107525000D03*
X141730000Y-107525000D03*
X140780000Y-109800000D03*
%TD*%
D19*
%TO.C,R6*%
X150080000Y-91950000D03*
X148430000Y-91950000D03*
%TD*%
D14*
%TO.C,D11*%
X161180000Y-77520000D03*
X163080000Y-77520000D03*
X162130000Y-79720000D03*
%TD*%
D39*
%TO.C,R2*%
X156400000Y-31105000D03*
X156400000Y-32930000D03*
%TD*%
D15*
%TO.C,R20*%
X165210000Y-79900000D03*
X166860000Y-79900000D03*
%TD*%
D40*
%TO.C,C1*%
X187400000Y-20615000D03*
X187400000Y-22165000D03*
%TD*%
D15*
%TO.C,R17*%
X165295000Y-119380000D03*
X166945000Y-119380000D03*
%TD*%
%TO.C,R15*%
X164862500Y-60260000D03*
X166512500Y-60260000D03*
%TD*%
%TO.C,R22*%
X164140000Y-42790000D03*
X165790000Y-42790000D03*
%TD*%
D39*
%TO.C,R3*%
X150640000Y-31077500D03*
X150640000Y-32902500D03*
%TD*%
D41*
%TO.C,C8*%
X164705000Y-154110000D03*
X163155000Y-154110000D03*
%TD*%
M02*
