  0
SECTION
  2
HEADER
  9
$ANGBASE
  50
0.0
  9
$ANGDIR
  70
1
  9
$MEASUREMENT
  70
0
  0
ENDSEC
  0
SECTION
  2
TABLES
  0
TABLE
  2
LTYPE
  70
4
  0
LTYPE
  5
40F
  2
CONTINUOUS
  70
0
  3
Solid line
  72
65
  73
0
  40
0.0
  0
LTYPE
  5
410
  2
DASHDOT
 70
0
  3
Dash Dot ____ _ ____ _
 72
65
 73
4
 40
2.0
 49
1.25
 49
-0.25
 49
0.25
 49
-0.25
  0
LTYPE
  5
411
  2
DASHED
 70
0
  3
Dashed __ __ __ __ __
 72
65
 73
2
 40
0.75
 49
0.5
 49
-0.25
  0
LTYPE
  5
43B
  2
DOTTED
 70
0
  3
Dotted .  .  .  .
 72
65
 73
2
 40
0.2
 49
0.0
 49
-0.2
  0
ENDTAB
  0
TABLE
  2
STYLE
  70
4
  0
STYLE
  2
KICAD
  70
0
  40
0
  41
1
  42
1
  50
0
  71
0
  3
isocp.shx
  0
STYLE
  2
KICADB
  70
0
  40
0
  41
1
  42
1
  50
0
  71
0
  3
isocp.shx
  0
STYLE
  2
KICADI
  70
0
  40
0
  41
1
  42
1
  50
15
  71
0
  3
isocp.shx
  0
STYLE
  2
KICADBI
  70
0
  40
0
  41
1
  42
1
  50
15
  71
0
  3
isocp.shx
  0
ENDTAB
  0
TABLE
  2
LAYER
  70
1
  0
LAYER
  2
BLACK
  70
0
  62
7
  6
CONTINUOUS
  0
ENDTAB
  0
ENDSEC
  0
SECTION
  2
ENTITIES
0
LINE
8
BLACK
6
CONTINUOUS
10
8.9862179921259848
20
-6.1966276377952756
11
8.9877652362204721
21
-6.1979259448818897
0
LINE
8
BLACK
6
CONTINUOUS
10
8.9877652362204721
20
-6.1979259448818897
11
8.9881159842519676
21
-6.1999150787401573
0
LINE
8
BLACK
6
CONTINUOUS
10
8.9881159842519676
20
-6.1999150787401573
11
8.987106062992126
21
-6.2016642519685039
0
LINE
8
BLACK
6
CONTINUOUS
10
8.987106062992126
20
-6.2016642519685039
11
8.9852080708661415
21
-6.2023550787401573
0
LINE
8
BLACK
6
CONTINUOUS
10
8.9852080708661415
20
-6.2023550787401573
11
8.978406062992125
21
-6.2023550787401573
0
LINE
8
BLACK
6
CONTINUOUS
10
8.978406062992125
20
-6.2023550787401573
11
8.9757085826771643
21
-6.2037038188976377
0
LINE
8
BLACK
6
CONTINUOUS
10
8.9757085826771643
20
-6.2037038188976377
11
8.97437937007874
21
-6.2050329921259841
0
LINE
8
BLACK
6
CONTINUOUS
10
8.97437937007874
20
-6.2050329921259841
11
8.9710757480314953
21
-6.209988464566929
0
LINE
8
BLACK
6
CONTINUOUS
10
8.9710757480314953
20
-6.209988464566929
11
8.9703464566929139
21
-6.212905669291338
0
LINE
8
BLACK
6
CONTINUOUS
10
8.9703464566929139
20
-6.212905669291338
11
8.9726389763779526
21
-6.2117594094488187
0
LINE
8
BLACK
6
CONTINUOUS
10
8.9726389763779526
20
-6.2117594094488187
11
8.9736218897637787
21
-6.2114670472440947
0
LINE
8
BLACK
6
CONTINUOUS
10
8.9736218897637787
20
-6.2114670472440947
11
8.9737935826771658
21
-6.2115080314960629
0
LINE
8
BLACK
6
CONTINUOUS
10
8.9737935826771658
20
-6.2115080314960629
11
8.9739594881889762
21
-6.2114476771653546
0
LINE
8
BLACK
6
CONTINUOUS
10
8.9739594881889762
20
-6.2114476771653546
11
8.9814585433070864
21
-6.2114476771653546
0
LINE
8
BLACK
6
CONTINUOUS
10
8.9814585433070864
20
-6.2114476771653546
11
8.9824684645669297
21
-6.211625748031496
0
LINE
8
BLACK
6
CONTINUOUS
10
8.9824684645669297
20
-6.211625748031496
11
8.9826037007874007
21
-6.2117392125984248
0
LINE
8
BLACK
6
CONTINUOUS
10
8.9826037007874007
20
-6.2117392125984248
11
8.9827790551181099
21
-6.2117594094488187
0
LINE
8
BLACK
6
CONTINUOUS
10
8.9827790551181099
20
-6.2117594094488187
11
8.986528582677165
21
-6.2136341732283462
0
LINE
8
BLACK
6
CONTINUOUS
10
8.986528582677165
20
-6.2136341732283462
11
8.9872376377952747
21
-6.2141600787401572
0
LINE
8
BLACK
6
CONTINUOUS
10
8.9872376377952747
20
-6.2141600787401572
11
8.9872959842519684
21
-6.2141872834645664
0
LINE
8
BLACK
6
CONTINUOUS
10
8.9872959842519684
20
-6.2141872834645664
11
8.989170748031496
21
-6.2160620472440939
0
LINE
8
BLACK
6
CONTINUOUS
10
8.989170748031496
20
-6.2160620472440939
11
8.9896770078740147
21
-6.216785118110236
0
LINE
8
BLACK
6
CONTINUOUS
10
8.9896770078740147
20
-6.216785118110236
11
8.9897238582677161
21
-6.2168294488188973
0
LINE
8
BLACK
6
CONTINUOUS
10
8.9897238582677161
20
-6.2168294488188973
11
8.9915986220472437
21
-6.2205789763779524
0
LINE
8
BLACK
6
CONTINUOUS
10
8.9915986220472437
20
-6.2205789763779524
11
8.9918909842519685
21
-6.2215618897637794
0
LINE
8
BLACK
6
CONTINUOUS
10
8.9918909842519685
20
-6.2215618897637794
11
8.9918499606299207
21
-6.2217335826771656
0
LINE
8
BLACK
6
CONTINUOUS
10
8.9918499606299207
20
-6.2217335826771656
11
8.9919103543307077
21
-6.221899488188976
0
LINE
8
BLACK
6
CONTINUOUS
10
8.9919103543307077
20
-6.221899488188976
11
8.9919103543307077
21
-6.2312733070866138
0
LINE
8
BLACK
6
CONTINUOUS
10
8.9919103543307077
20
-6.2312733070866138
11
8.9917322834645663
21
-6.2322832283464562
0
LINE
8
BLACK
6
CONTINUOUS
10
8.9917322834645663
20
-6.2322832283464562
11
8.9916187795275597
21
-6.2324184645669289
0
LINE
8
BLACK
6
CONTINUOUS
10
8.9916187795275597
20
-6.2324184645669289
11
8.9915986220472437
21
-6.2325938188976373
0
LINE
8
BLACK
6
CONTINUOUS
10
8.9915986220472437
20
-6.2325938188976373
11
8.9897238582677161
21
-6.2363433464566924
0
LINE
8
BLACK
6
CONTINUOUS
10
8.9897238582677161
20
-6.2363433464566924
11
8.9891979133858264
21
-6.237052401574803
0
LINE
8
BLACK
6
CONTINUOUS
10
8.9891979133858264
20
-6.237052401574803
11
8.989170748031496
21
-6.2371107480314958
0
LINE
8
BLACK
6
CONTINUOUS
10
8.989170748031496
20
-6.2371107480314958
11
8.9872960236220472
21
-6.2389855118110233
0
LINE
8
BLACK
6
CONTINUOUS
10
8.9872960236220472
20
-6.2389855118110233
11
8.9865728346456688
21
-6.2394918897637792
0
LINE
8
BLACK
6
CONTINUOUS
10
8.9865728346456688
20
-6.2394918897637792
11
8.986528582677165
21
-6.2395386614173223
0
LINE
8
BLACK
6
CONTINUOUS
10
8.986528582677165
20
-6.2395386614173223
11
8.9827790551181099
21
-6.2414134251968498
0
LINE
8
BLACK
6
CONTINUOUS
10
8.9827790551181099
20
-6.2414134251968498
11
8.981796102362205
21
-6.2417057874015747
0
LINE
8
BLACK
6
CONTINUOUS
10
8.981796102362205
20
-6.2417057874015747
11
8.981624409448818
21
-6.2416647637795277
0
LINE
8
BLACK
6
CONTINUOUS
10
8.981624409448818
20
-6.2416647637795277
11
8.9814585433070864
21
-6.2417251574803148
0
LINE
8
BLACK
6
CONTINUOUS
10
8.9814585433070864
20
-6.2417251574803148
11
8.9739594881889762
21
-6.2417251574803148
0
LINE
8
BLACK
6
CONTINUOUS
10
8.9739594881889762
20
-6.2417251574803148
11
8.9729495669291328
21
-6.2415470866141733
0
LINE
8
BLACK
6
CONTINUOUS
10
8.9729495669291328
20
-6.2415470866141733
11
8.9728142913385831
21
-6.241433582677165
0
LINE
8
BLACK
6
CONTINUOUS
10
8.9728142913385831
20
-6.241433582677165
11
8.9726389763779526
21
-6.2414134251968498
0
LINE
8
BLACK
6
CONTINUOUS
10
8.9726389763779526
20
-6.2414134251968498
11
8.9688894488188975
21
-6.2395386614173223
0
LINE
8
BLACK
6
CONTINUOUS
10
8.9688894488188975
20
-6.2395386614173223
11
8.9681803149606303
21
-6.2390126771653538
0
LINE
8
BLACK
6
CONTINUOUS
10
8.9681803149606303
20
-6.2390126771653538
11
8.9681220078740154
21
-6.2389855118110233
0
LINE
8
BLACK
6
CONTINUOUS
10
8.9681220078740154
20
-6.2389855118110233
11
8.9662472440944878
21
-6.237110708661417
0
LINE
8
BLACK
6
CONTINUOUS
10
8.9662472440944878
20
-6.237110708661417
11
8.9657409448818903
21
-6.2363876377952758
0
LINE
8
BLACK
6
CONTINUOUS
10
8.9657409448818903
20
-6.2363876377952758
11
8.9656941732283464
21
-6.2363433464566924
0
LINE
8
BLACK
6
CONTINUOUS
10
8.9656941732283464
20
-6.2363433464566924
11
8.9638194094488188
21
-6.2325938188976373
0
LINE
8
BLACK
6
CONTINUOUS
10
8.9638194094488188
20
-6.2325938188976373
11
8.963527047244094
21
-6.2316108661417324
0
LINE
8
BLACK
6
CONTINUOUS
10
8.963527047244094
20
-6.2316108661417324
11
8.9635680314960631
21
-6.2314391732283463
0
LINE
8
BLACK
6
CONTINUOUS
10
8.9635680314960631
20
-6.2314391732283463
11
8.9635076771653548
21
-6.2312733070866138
0
LINE
8
BLACK
6
CONTINUOUS
10
8.9635076771653548
20
-6.2312733070866138
11
8.9635076771653548
21
-6.2162751968503933
0
LINE
8
BLACK
6
CONTINUOUS
10
8.9635076771653548
20
-6.2162751968503933
11
8.9636099999999992
21
-6.2156948031496064
0
LINE
8
BLACK
6
CONTINUOUS
10
8.9636099999999992
20
-6.2156948031496064
11
8.9635958267716536
21
-6.2155590551181099
0
LINE
8
BLACK
6
CONTINUOUS
10
8.9635958267716536
20
-6.2155590551181099
11
8.9654705905511811
21
-6.2080599999999997
0
LINE
8
BLACK
6
CONTINUOUS
10
8.9654705905511811
20
-6.2080599999999997
11
8.9658742913385829
21
-6.2071548031496064
0
LINE
8
BLACK
6
CONTINUOUS
10
8.9658742913385829
20
-6.2071548031496064
11
8.9658783464566927
21
-6.2071382283464569
0
LINE
8
BLACK
6
CONTINUOUS
10
8.9658783464566927
20
-6.2071382283464569
11
8.9696278740157478
21
-6.2015139370078742
0
LINE
8
BLACK
6
CONTINUOUS
10
8.9696278740157478
20
-6.2015139370078742
11
8.9699386614173218
21
-6.2011885433070866
0
LINE
8
BLACK
6
CONTINUOUS
10
8.9699386614173218
20
-6.2011885433070866
11
8.9699968110236217
21
-6.2010639370078735
0
LINE
8
BLACK
6
CONTINUOUS
10
8.9699968110236217
20
-6.2010639370078735
11
8.9718715748031492
21
-6.199189173228346
0
LINE
8
BLACK
6
CONTINUOUS
10
8.9718715748031492
20
-6.199189173228346
11
8.9725946456692913
21
-6.1986828740157476
0
LINE
8
BLACK
6
CONTINUOUS
10
8.9725946456692913
20
-6.1986828740157476
11
8.9726389763779526
21
-6.1986360629921258
0
LINE
8
BLACK
6
CONTINUOUS
10
8.9726389763779526
20
-6.1986360629921258
11
8.9763885039370077
21
-6.1967612992125982
0
LINE
8
BLACK
6
CONTINUOUS
10
8.9763885039370077
20
-6.1967612992125982
11
8.9773714173228338
21
-6.1964689370078743
0
LINE
8
BLACK
6
CONTINUOUS
10
8.9773714173228338
20
-6.1964689370078743
11
8.9775431102362209
21
-6.1965099212598425
0
LINE
8
BLACK
6
CONTINUOUS
10
8.9775431102362209
20
-6.1965099212598425
11
8.9777090157480313
21
-6.1964495669291333
0
LINE
8
BLACK
6
CONTINUOUS
10
8.9777090157480313
20
-6.1964495669291333
11
8.9852080708661415
21
-6.1964495669291333
0
LINE
8
BLACK
6
CONTINUOUS
10
8.9852080708661415
20
-6.1964495669291333
11
8.9862179921259848
21
-6.1966276377952756
0
LINE
8
BLACK
6
CONTINUOUS
10
8.9719590551181092
20
-6.2187019291338581
11
8.9707619291338574
21
-6.2198990551181099
0
LINE
8
BLACK
6
CONTINUOUS
10
8.9707619291338574
20
-6.2198990551181099
11
8.9694131889763771
21
-6.2225965354330706
0
LINE
8
BLACK
6
CONTINUOUS
10
8.9694131889763771
20
-6.2225965354330706
11
8.9694131889763771
21
-6.2305762598425192
0
LINE
8
BLACK
6
CONTINUOUS
10
8.9694131889763771
20
-6.2305762598425192
11
8.9707619291338574
21
-6.2332737401574798
0
LINE
8
BLACK
6
CONTINUOUS
10
8.9707619291338574
20
-6.2332737401574798
11
8.9719590551181092
21
-6.2344709055118113
0
LINE
8
BLACK
6
CONTINUOUS
10
8.9719590551181092
20
-6.2344709055118113
11
8.9746565354330698
21
-6.2358196456692916
0
LINE
8
BLACK
6
CONTINUOUS
10
8.9746565354330698
20
-6.2358196456692916
11
8.9807614960629927
21
-6.2358196456692916
0
LINE
8
BLACK
6
CONTINUOUS
10
8.9807614960629927
20
-6.2358196456692916
11
8.9834589370078746
21
-6.2344709055118113
0
LINE
8
BLACK
6
CONTINUOUS
10
8.9834589370078746
20
-6.2344709055118113
11
8.9846560629921264
21
-6.2332737401574798
0
LINE
8
BLACK
6
CONTINUOUS
10
8.9846560629921264
20
-6.2332737401574798
11
8.9860048425196855
21
-6.2305762598425192
0
LINE
8
BLACK
6
CONTINUOUS
10
8.9860048425196855
20
-6.2305762598425192
11
8.9860048425196855
21
-6.2225965354330706
0
LINE
8
BLACK
6
CONTINUOUS
10
8.9860048425196855
20
-6.2225965354330706
11
8.9846561023622051
21
-6.2198990551181099
0
LINE
8
BLACK
6
CONTINUOUS
10
8.9846561023622051
20
-6.2198990551181099
11
8.9834589763779533
21
-6.2187019291338581
0
LINE
8
BLACK
6
CONTINUOUS
10
8.9834589763779533
20
-6.2187019291338581
11
8.9807614960629927
21
-6.2173531889763778
0
LINE
8
BLACK
6
CONTINUOUS
10
8.9807614960629927
20
-6.2173531889763778
11
8.9746565354330698
21
-6.2173531889763778
0
LINE
8
BLACK
6
CONTINUOUS
10
8.9746565354330698
20
-6.2173531889763778
11
8.9719590551181092
21
-6.2187019291338581
0
LINE
8
BLACK
6
CONTINUOUS
10
8.9518494488188978
20
-6.1975043307086617
11
8.9525402755905503
21
-6.1994023228346453
0
LINE
8
BLACK
6
CONTINUOUS
10
8.9525402755905503
20
-6.1994023228346453
11
8.9525402755905503
21
-6.2387724015748027
0
LINE
8
BLACK
6
CONTINUOUS
10
8.9525402755905503
20
-6.2387724015748027
11
8.9523622047244089
21
-6.2397823228346452
0
LINE
8
BLACK
6
CONTINUOUS
10
8.9523622047244089
20
-6.2397823228346452
11
8.9510638976377948
21
-6.2413295669291333
0
LINE
8
BLACK
6
CONTINUOUS
10
8.9510638976377948
20
-6.2413295669291333
11
8.949074763779528
21
-6.2416803149606297
0
LINE
8
BLACK
6
CONTINUOUS
10
8.949074763779528
20
-6.2416803149606297
11
8.9473255905511806
21
-6.2406703937007872
0
LINE
8
BLACK
6
CONTINUOUS
10
8.9473255905511806
20
-6.2406703937007872
11
8.946634763779528
21
-6.2387724015748027
0
LINE
8
BLACK
6
CONTINUOUS
10
8.946634763779528
20
-6.2387724015748027
11
8.946634763779528
21
-6.2211027165354329
0
LINE
8
BLACK
6
CONTINUOUS
10
8.946634763779528
20
-6.2211027165354329
11
8.9300431102362197
21
-6.2211027165354329
0
LINE
8
BLACK
6
CONTINUOUS
10
8.9300431102362197
20
-6.2211027165354329
11
8.9300431102362197
21
-6.2387724015748027
0
LINE
8
BLACK
6
CONTINUOUS
10
8.9300431102362197
20
-6.2387724015748027
11
8.9298650393700783
21
-6.2397823228346452
0
LINE
8
BLACK
6
CONTINUOUS
10
8.9298650393700783
20
-6.2397823228346452
11
8.9285667322834641
21
-6.2413295669291333
0
LINE
8
BLACK
6
CONTINUOUS
10
8.9285667322834641
20
-6.2413295669291333
11
8.9265775984251974
21
-6.2416803149606297
0
LINE
8
BLACK
6
CONTINUOUS
10
8.9265775984251974
20
-6.2416803149606297
11
8.9248284251968499
21
-6.2406703937007872
0
LINE
8
BLACK
6
CONTINUOUS
10
8.9248284251968499
20
-6.2406703937007872
11
8.9241375984251974
21
-6.2387724015748027
0
LINE
8
BLACK
6
CONTINUOUS
10
8.9241375984251974
20
-6.2387724015748027
11
8.9241375984251974
21
-6.1994023228346453
0
LINE
8
BLACK
6
CONTINUOUS
10
8.9241375984251974
20
-6.1994023228346453
11
8.9243156692913388
21
-6.1983924015748029
0
LINE
8
BLACK
6
CONTINUOUS
10
8.9243156692913388
20
-6.1983924015748029
11
8.925613976377953
21
-6.1968451574803147
0
LINE
8
BLACK
6
CONTINUOUS
10
8.925613976377953
20
-6.1968451574803147
11
8.9276031102362197
21
-6.1964944094488184
0
LINE
8
BLACK
6
CONTINUOUS
10
8.9276031102362197
20
-6.1964944094488184
11
8.9293522834645671
21
-6.1975043307086617
0
LINE
8
BLACK
6
CONTINUOUS
10
8.9293522834645671
20
-6.1975043307086617
11
8.9300431102362197
21
-6.1994023228346453
0
LINE
8
BLACK
6
CONTINUOUS
10
8.9300431102362197
20
-6.1994023228346453
11
8.9300431102362197
21
-6.2151972047244097
0
LINE
8
BLACK
6
CONTINUOUS
10
8.9300431102362197
20
-6.2151972047244097
11
8.946634763779528
21
-6.2151972047244097
0
LINE
8
BLACK
6
CONTINUOUS
10
8.946634763779528
20
-6.2151972047244097
11
8.946634763779528
21
-6.1994023228346453
0
LINE
8
BLACK
6
CONTINUOUS
10
8.946634763779528
20
-6.1994023228346453
11
8.9468128346456695
21
-6.1983924015748029
0
LINE
8
BLACK
6
CONTINUOUS
10
8.9468128346456695
20
-6.1983924015748029
11
8.9481111417322836
21
-6.1968451574803147
0
LINE
8
BLACK
6
CONTINUOUS
10
8.9481111417322836
20
-6.1968451574803147
11
8.9501002755905503
21
-6.1964944094488184
0
LINE
8
BLACK
6
CONTINUOUS
10
8.9501002755905503
20
-6.1964944094488184
11
8.9518494488188978
21
-6.1975043307086617
0
LINE
8
BLACK
6
CONTINUOUS
10
9.1696368503937009
20
-6.0496734645669292
11
9.1698040944881889
21
-6.0496440157480311
0
LINE
8
BLACK
6
CONTINUOUS
10
9.1698040944881889
20
-6.0496440157480311
11
9.1705461417322827
21
-6.0500724409448816
0
LINE
8
BLACK
6
CONTINUOUS
10
9.1705461417322827
20
-6.0500724409448816
11
9.1713309842519681
21
-6.0504168110236218
0
LINE
8
BLACK
6
CONTINUOUS
10
9.1713309842519681
20
-6.0504168110236218
11
9.1714062204724414
21
-6.0505690551181104
0
LINE
8
BLACK
6
CONTINUOUS
10
9.1714062204724414
20
-6.0505690551181104
11
9.1715532677165346
21
-6.0506539370078736
0
LINE
8
BLACK
6
CONTINUOUS
10
9.1715532677165346
20
-6.0506539370078736
11
9.1718463385826769
21
-6.0514591732283467
0
LINE
8
BLACK
6
CONTINUOUS
10
9.1718463385826769
20
-6.0514591732283467
11
9.1722261811023618
21
-6.052227401574803
0
LINE
8
BLACK
6
CONTINUOUS
10
9.1722261811023618
20
-6.052227401574803
11
9.1721859842519677
21
-6.0523923228346455
0
LINE
8
BLACK
6
CONTINUOUS
10
9.1721859842519677
20
-6.0523923228346455
11
9.1722440944881889
21
-6.0525519291338581
0
LINE
8
BLACK
6
CONTINUOUS
10
9.1722440944881889
20
-6.0525519291338581
11
9.1722440944881889
21
-6.0889692519685035
0
LINE
8
BLACK
6
CONTINUOUS
10
9.1722440944881889
20
-6.0889692519685035
11
9.1805399212598431
21
-6.0889692519685035
0
LINE
8
BLACK
6
CONTINUOUS
10
9.1805399212598431
20
-6.0889692519685035
11
9.1815498425196846
21
-6.0891473228346458
0
LINE
8
BLACK
6
CONTINUOUS
10
9.1815498425196846
20
-6.0891473228346458
11
9.1830970866141737
21
-6.0904456299212599
0
LINE
8
BLACK
6
CONTINUOUS
10
9.1830970866141737
20
-6.0904456299212599
11
9.1834478346456692
21
-6.0924347637795275
0
LINE
8
BLACK
6
CONTINUOUS
10
9.1834478346456692
20
-6.0924347637795275
11
9.1824379133858258
21
-6.0941839370078741
0
LINE
8
BLACK
6
CONTINUOUS
10
9.1824379133858258
20
-6.0941839370078741
11
9.1805399212598431
21
-6.0948747637795275
0
LINE
8
BLACK
6
CONTINUOUS
10
9.1805399212598431
20
-6.0948747637795275
11
9.1580427559055124
21
-6.0948747637795275
0
LINE
8
BLACK
6
CONTINUOUS
10
9.1580427559055124
20
-6.0948747637795275
11
9.1570328346456691
21
-6.0946966929133861
0
LINE
8
BLACK
6
CONTINUOUS
10
9.1570328346456691
20
-6.0946966929133861
11
9.1554855905511801
21
-6.093398385826772
0
LINE
8
BLACK
6
CONTINUOUS
10
9.1554855905511801
20
-6.093398385826772
11
9.1551348425196846
21
-6.0914092519685035
0
LINE
8
BLACK
6
CONTINUOUS
10
9.1551348425196846
20
-6.0914092519685035
11
9.1561447637795279
21
-6.0896600787401569
0
LINE
8
BLACK
6
CONTINUOUS
10
9.1561447637795279
20
-6.0896600787401569
11
9.1580427559055124
21
-6.0889692519685035
0
LINE
8
BLACK
6
CONTINUOUS
10
9.1580427559055124
20
-6.0889692519685035
11
9.1663385826771648
21
-6.0889692519685035
0
LINE
8
BLACK
6
CONTINUOUS
10
9.1663385826771648
20
-6.0889692519685035
11
9.1663385826771648
21
-6.0615552755905506
0
LINE
8
BLACK
6
CONTINUOUS
10
9.1663385826771648
20
-6.0615552755905506
11
9.1638801968503927
21
-6.0640136614173228
0
LINE
8
BLACK
6
CONTINUOUS
10
9.1638801968503927
20
-6.0640136614173228
11
9.1631570866141736
21
-6.0645199212598424
0
LINE
8
BLACK
6
CONTINUOUS
10
9.1631570866141736
20
-6.0645199212598424
11
9.1631127952755911
21
-6.064566771653543
0
LINE
8
BLACK
6
CONTINUOUS
10
9.1631127952755911
20
-6.064566771653543
11
9.159363267716536
21
-6.0664415354330705
0
LINE
8
BLACK
6
CONTINUOUS
10
9.159363267716536
20
-6.0664415354330705
11
9.1583803149606293
21
-6.0667338976377954
0
LINE
8
BLACK
6
CONTINUOUS
10
9.1583803149606293
20
-6.0667338976377954
11
9.1564158267716529
21
-6.066264606299212
0
LINE
8
BLACK
6
CONTINUOUS
10
9.1564158267716529
20
-6.066264606299212
11
9.1552125196850387
21
-6.0646423622047241
0
LINE
8
BLACK
6
CONTINUOUS
10
9.1552125196850387
20
-6.0646423622047241
11
9.1553335826771658
21
-6.0626261811023623
0
LINE
8
BLACK
6
CONTINUOUS
10
9.1553335826771658
20
-6.0626261811023623
11
9.1567222440944871
21
-6.0611594881889763
0
LINE
8
BLACK
6
CONTINUOUS
10
9.1567222440944871
20
-6.0611594881889763
11
9.1600431889763776
21
-6.0594990157480311
0
LINE
8
BLACK
6
CONTINUOUS
10
9.1600431889763776
20
-6.0594990157480311
11
9.1632470866141738
21
-6.0562951181102358
0
LINE
8
BLACK
6
CONTINUOUS
10
9.1632470866141738
20
-6.0562951181102358
11
9.1668344881889769
21
-6.050914015748031
0
LINE
8
BLACK
6
CONTINUOUS
10
9.1668344881889769
20
-6.050914015748031
11
9.1675428740157479
21
-6.0501724803149601
0
LINE
8
BLACK
6
CONTINUOUS
10
9.1675428740157479
20
-6.0501724803149601
11
9.1677058267716536
21
-6.050124763779527
0
LINE
8
BLACK
6
CONTINUOUS
10
9.1677058267716536
20
-6.050124763779527
11
9.1678149606299204
21
-6.0499947637795275
0
LINE
8
BLACK
6
CONTINUOUS
10
9.1678149606299204
20
-6.0499947637795275
11
9.1686587401574808
21
-6.0498459448818895
0
LINE
8
BLACK
6
CONTINUOUS
10
9.1686587401574808
20
-6.0498459448818895
11
9.1694813779527564
21
-6.0496052755905509
0
LINE
8
BLACK
6
CONTINUOUS
10
9.1694813779527564
20
-6.0496052755905509
11
9.1696368503937009
21
-6.0496734645669292
0
LINE
8
BLACK
6
CONTINUOUS
10
9.1365554724409446
20
-6.0497772440944884
11
9.1366907086614173
21
-6.0498907086614171
0
LINE
8
BLACK
6
CONTINUOUS
10
9.1366907086614173
20
-6.0498907086614171
11
9.1368660629921266
21
-6.049910905511811
0
LINE
8
BLACK
6
CONTINUOUS
10
9.1368660629921266
20
-6.049910905511811
11
9.1406155905511817
21
-6.0517856692913385
0
LINE
8
BLACK
6
CONTINUOUS
10
9.1406155905511817
20
-6.0517856692913385
11
9.1413246456692914
21
-6.0523115748031495
0
LINE
8
BLACK
6
CONTINUOUS
10
9.1413246456692914
20
-6.0523115748031495
11
9.1413829921259833
21
-6.0523387795275587
0
LINE
8
BLACK
6
CONTINUOUS
10
9.1413829921259833
20
-6.0523387795275587
11
9.1432577559055108
21
-6.0542135433070863
0
LINE
8
BLACK
6
CONTINUOUS
10
9.1432577559055108
20
-6.0542135433070863
11
9.1437640157480313
21
-6.0549366141732284
0
LINE
8
BLACK
6
CONTINUOUS
10
9.1437640157480313
20
-6.0549366141732284
11
9.1438108661417328
21
-6.0549809448818896
0
LINE
8
BLACK
6
CONTINUOUS
10
9.1438108661417328
20
-6.0549809448818896
11
9.1456856299212603
21
-6.0587304724409448
0
LINE
8
BLACK
6
CONTINUOUS
10
9.1456856299212603
20
-6.0587304724409448
11
9.1459779921259834
21
-6.0597133858267718
0
LINE
8
BLACK
6
CONTINUOUS
10
9.1459779921259834
20
-6.0597133858267718
11
9.1459369685039373
21
-6.059885078740157
0
LINE
8
BLACK
6
CONTINUOUS
10
9.1459369685039373
20
-6.059885078740157
11
9.1459973622047244
21
-6.0600509842519683
0
LINE
8
BLACK
6
CONTINUOUS
10
9.1459973622047244
20
-6.0600509842519683
11
9.1459973622047244
21
-6.065675275590551
0
LINE
8
BLACK
6
CONTINUOUS
10
9.1459973622047244
20
-6.065675275590551
11
9.145819291338583
21
-6.0666851968503934
0
LINE
8
BLACK
6
CONTINUOUS
10
9.145819291338583
20
-6.0666851968503934
11
9.1457057874015746
21
-6.0668204330708662
0
LINE
8
BLACK
6
CONTINUOUS
10
9.1457057874015746
20
-6.0668204330708662
11
9.1456856299212603
21
-6.0669957874015745
0
LINE
8
BLACK
6
CONTINUOUS
10
9.1456856299212603
20
-6.0669957874015745
11
9.1438108661417328
21
-6.0707453149606296
0
LINE
8
BLACK
6
CONTINUOUS
10
9.1438108661417328
20
-6.0707453149606296
11
9.1432849606299218
21
-6.0714543700787402
0
LINE
8
BLACK
6
CONTINUOUS
10
9.1432849606299218
20
-6.0714543700787402
11
9.1432577559055108
21
-6.071512716535433
0
LINE
8
BLACK
6
CONTINUOUS
10
9.1432577559055108
20
-6.071512716535433
11
9.1413829921259833
21
-6.0733874803149606
0
LINE
8
BLACK
6
CONTINUOUS
10
9.1413829921259833
20
-6.0733874803149606
11
9.1406598818897642
21
-6.0738937401574802
0
LINE
8
BLACK
6
CONTINUOUS
10
9.1406598818897642
20
-6.0738937401574802
11
9.1406155905511817
21
-6.0739405905511807
0
LINE
8
BLACK
6
CONTINUOUS
10
9.1406155905511817
20
-6.0739405905511807
11
9.1368660629921266
21
-6.0758153543307083
0
LINE
8
BLACK
6
CONTINUOUS
10
9.1368660629921266
20
-6.0758153543307083
11
9.1358831102362199
21
-6.0761077165354331
0
LINE
8
BLACK
6
CONTINUOUS
10
9.1358831102362199
20
-6.0761077165354331
11
9.1357114173228346
21
-6.0760666929133853
0
LINE
8
BLACK
6
CONTINUOUS
10
9.1357114173228346
20
-6.0760666929133853
11
9.135545551181103
21
-6.0761270866141732
0
LINE
8
BLACK
6
CONTINUOUS
10
9.135545551181103
20
-6.0761270866141732
11
9.1235001968503937
21
-6.0761270866141732
0
LINE
8
BLACK
6
CONTINUOUS
10
9.1235001968503937
20
-6.0761270866141732
11
9.1235001968503937
21
-6.0919220078740155
0
LINE
8
BLACK
6
CONTINUOUS
10
9.1235001968503937
20
-6.0919220078740155
11
9.1233221259842523
21
-6.0929319291338579
0
LINE
8
BLACK
6
CONTINUOUS
10
9.1233221259842523
20
-6.0929319291338579
11
9.1220238188976381
21
-6.0944791732283461
0
LINE
8
BLACK
6
CONTINUOUS
10
9.1220238188976381
20
-6.0944791732283461
11
9.1200346850393696
21
-6.0948299212598425
0
LINE
8
BLACK
6
CONTINUOUS
10
9.1200346850393696
20
-6.0948299212598425
11
9.118285511811024
21
-6.09382
0
LINE
8
BLACK
6
CONTINUOUS
10
9.118285511811024
20
-6.09382
11
9.1175946850393697
21
-6.0919220078740155
0
LINE
8
BLACK
6
CONTINUOUS
10
9.1175946850393697
20
-6.0919220078740155
11
9.1175946850393697
21
-6.0525519291338581
0
LINE
8
BLACK
6
CONTINUOUS
10
9.1175946850393697
20
-6.0525519291338581
11
9.1176622834645666
21
-6.0521683858267714
0
LINE
8
BLACK
6
CONTINUOUS
10
9.1176622834645666
20
-6.0521683858267714
11
9.1176395275590547
21
-6.0520391732283461
0
LINE
8
BLACK
6
CONTINUOUS
10
9.1176395275590547
20
-6.0520391732283461
11
9.1177051181102353
21
-6.0519255511811023
0
LINE
8
BLACK
6
CONTINUOUS
10
9.1177051181102353
20
-6.0519255511811023
11
9.1177727559055111
21
-6.0515420078740156
0
LINE
8
BLACK
6
CONTINUOUS
10
9.1177727559055111
20
-6.0515420078740156
11
9.1182658661417317
21
-6.0509542913385825
0
LINE
8
BLACK
6
CONTINUOUS
10
9.1182658661417317
20
-6.0509542913385825
11
9.1186494488188981
21
-6.0502899999999995
0
LINE
8
BLACK
6
CONTINUOUS
10
9.1186494488188981
20
-6.0502899999999995
11
9.1188997637795275
21
-6.0501988582677164
0
LINE
8
BLACK
6
CONTINUOUS
10
9.1188997637795275
20
-6.0501988582677164
11
9.1190710629921252
21
-6.0499947637795275
0
LINE
8
BLACK
6
CONTINUOUS
10
9.1190710629921252
20
-6.0499947637795275
11
9.1198266141732276
21
-6.0498614960629924
0
LINE
8
BLACK
6
CONTINUOUS
10
9.1198266141732276
20
-6.0498614960629924
11
9.1205474409448826
21
-6.0495991732283461
0
LINE
8
BLACK
6
CONTINUOUS
10
9.1205474409448826
20
-6.0495991732283461
11
9.135545551181103
21
-6.0495991732283461
0
LINE
8
BLACK
6
CONTINUOUS
10
9.135545551181103
20
-6.0495991732283461
11
9.1365554724409446
21
-6.0497772440944884
0
LINE
8
BLACK
6
CONTINUOUS
10
9.1235001968503937
20
-6.0702215748031492
11
9.1348485039370075
21
-6.0702215748031492
0
LINE
8
BLACK
6
CONTINUOUS
10
9.1348485039370075
20
-6.0702215748031492
11
9.1375459842519682
21
-6.0688728346456688
0
LINE
8
BLACK
6
CONTINUOUS
10
9.1375459842519682
20
-6.0688728346456688
11
9.13874311023622
21
-6.067675708661417
0
LINE
8
BLACK
6
CONTINUOUS
10
9.13874311023622
20
-6.067675708661417
11
9.1400918503937003
21
-6.0649782283464564
0
LINE
8
BLACK
6
CONTINUOUS
10
9.1400918503937003
20
-6.0649782283464564
11
9.1400918503937003
21
-6.0607480314960629
0
LINE
8
BLACK
6
CONTINUOUS
10
9.1400918503937003
20
-6.0607480314960629
11
9.13874311023622
21
-6.0580505511811023
0
LINE
8
BLACK
6
CONTINUOUS
10
9.13874311023622
20
-6.0580505511811023
11
9.1375459842519682
21
-6.0568534251968504
0
LINE
8
BLACK
6
CONTINUOUS
10
9.1375459842519682
20
-6.0568534251968504
11
9.1348485039370075
21
-6.0555046850393701
0
LINE
8
BLACK
6
CONTINUOUS
10
9.1348485039370075
20
-6.0555046850393701
11
9.1235001968503937
21
-6.0555046850393701
0
LINE
8
BLACK
6
CONTINUOUS
10
9.1235001968503937
20
-6.0555046850393701
11
9.1235001968503937
21
-6.0702215748031492
0
LINE
8
BLACK
6
CONTINUOUS
10
9.4429133858267722
20
-3.7901574803149605
11
9.4445837007874012
21
-3.7908493700787402
0
LINE
8
BLACK
6
CONTINUOUS
10
9.4445837007874012
20
-3.7908493700787402
11
9.44527559055118
21
-3.7925196850393701
0
LINE
8
BLACK
6
CONTINUOUS
10
9.44527559055118
20
-3.7925196850393701
11
9.44527559055118
21
-5.9972440944881891
0
LINE
8
BLACK
6
CONTINUOUS
10
9.44527559055118
20
-5.9972440944881891
11
9.4445837007874012
21
-5.9989144094488189
0
LINE
8
BLACK
6
CONTINUOUS
10
9.4445837007874012
20
-5.9989144094488189
11
9.4429133858267722
21
-5.9996062992125987
0
LINE
8
BLACK
6
CONTINUOUS
10
9.4429133858267722
20
-5.9996062992125987
11
9.1862204724409455
21
-5.9996062992125987
0
LINE
8
BLACK
6
CONTINUOUS
10
9.1862204724409455
20
-5.9996062992125987
11
9.1862204724409455
21
-6.0322834645669294
0
LINE
8
BLACK
6
CONTINUOUS
10
9.1862204724409455
20
-6.0322834645669294
11
9.1855285826771649
21
-6.0339537795275593
0
LINE
8
BLACK
6
CONTINUOUS
10
9.1855285826771649
20
-6.0339537795275593
11
9.1838582677165359
21
-6.0346456692913382
0
LINE
8
BLACK
6
CONTINUOUS
10
9.1838582677165359
20
-6.0346456692913382
11
9.1153543307086604
21
-6.0346456692913382
0
LINE
8
BLACK
6
CONTINUOUS
10
9.1153543307086604
20
-6.0346456692913382
11
9.1136840157480314
21
-6.0339537795275593
0
LINE
8
BLACK
6
CONTINUOUS
10
9.1136840157480314
20
-6.0339537795275593
11
9.1129921259842526
21
-6.0322834645669294
0
LINE
8
BLACK
6
CONTINUOUS
10
9.1129921259842526
20
-6.0322834645669294
11
9.1129921259842526
21
-5.9996062992125987
0
LINE
8
BLACK
6
CONTINUOUS
10
9.1129921259842526
20
-5.9996062992125987
11
8.8562992125984241
21
-5.9996062992125987
0
LINE
8
BLACK
6
CONTINUOUS
10
8.8562992125984241
20
-5.9996062992125987
11
8.8546288976377951
21
-5.9989144094488189
0
LINE
8
BLACK
6
CONTINUOUS
10
8.8546288976377951
20
-5.9989144094488189
11
8.8539370078740163
21
-5.9972440944881891
0
LINE
8
BLACK
6
CONTINUOUS
10
8.8539370078740163
20
-5.9972440944881891
11
8.8539370078740163
21
-3.7925196850393701
0
LINE
8
BLACK
6
CONTINUOUS
10
8.8539370078740163
20
-3.7925196850393701
11
8.8546288976377951
21
-3.7908493700787402
0
LINE
8
BLACK
6
CONTINUOUS
10
8.8546288976377951
20
-3.7908493700787402
11
8.8562992125984241
21
-3.7901574803149605
0
LINE
8
BLACK
6
CONTINUOUS
10
8.8562992125984241
20
-3.7901574803149605
11
9.4429133858267722
21
-3.7901574803149605
0
LINE
8
BLACK
6
CONTINUOUS
10
8.8586614173228337
20
-3.7948818897637793
11
8.8586614173228337
21
-5.9948818897637794
0
LINE
8
BLACK
6
CONTINUOUS
10
8.8586614173228337
20
-5.9948818897637794
11
9.1153543307086604
21
-5.9948818897637794
0
LINE
8
BLACK
6
CONTINUOUS
10
9.1153543307086604
20
-5.9948818897637794
11
9.1170246456692912
21
-5.9955737795275592
0
LINE
8
BLACK
6
CONTINUOUS
10
9.1170246456692912
20
-5.9955737795275592
11
9.11771653543307
21
-5.9972440944881891
0
LINE
8
BLACK
6
CONTINUOUS
10
9.11771653543307
20
-5.9972440944881891
11
9.11771653543307
21
-6.0299212598425198
0
LINE
8
BLACK
6
CONTINUOUS
10
9.11771653543307
20
-6.0299212598425198
11
9.1814960629921263
21
-6.0299212598425198
0
LINE
8
BLACK
6
CONTINUOUS
10
9.1814960629921263
20
-6.0299212598425198
11
9.1814960629921263
21
-5.9972440944881891
0
LINE
8
BLACK
6
CONTINUOUS
10
9.1814960629921263
20
-5.9972440944881891
11
9.1821879527559052
21
-5.9955737795275592
0
LINE
8
BLACK
6
CONTINUOUS
10
9.1821879527559052
20
-5.9955737795275592
11
9.1838582677165359
21
-5.9948818897637794
0
LINE
8
BLACK
6
CONTINUOUS
10
9.1838582677165359
20
-5.9948818897637794
11
9.4405511811023626
21
-5.9948818897637794
0
LINE
8
BLACK
6
CONTINUOUS
10
9.4405511811023626
20
-5.9948818897637794
11
9.4405511811023626
21
-3.7948818897637793
0
LINE
8
BLACK
6
CONTINUOUS
10
9.4405511811023626
20
-3.7948818897637793
11
8.8586614173228337
21
-3.7948818897637793
0
LINE
8
BLACK
6
CONTINUOUS
10
9.4544262204724401
20
-5.9652588188976381
11
9.4551181102362207
21
-5.966929133858268
0
LINE
8
BLACK
6
CONTINUOUS
10
9.4551181102362207
20
-5.966929133858268
11
9.4551181102362207
21
-6.0062992125984254
0
LINE
8
BLACK
6
CONTINUOUS
10
9.4551181102362207
20
-6.0062992125984254
11
9.4544262204724401
21
-6.0079695275590552
0
LINE
8
BLACK
6
CONTINUOUS
10
9.4544262204724401
20
-6.0079695275590552
11
9.4527559055118111
21
-6.0086614173228341
0
LINE
8
BLACK
6
CONTINUOUS
10
9.4527559055118111
20
-6.0086614173228341
11
9.4133858267716537
21
-6.0086614173228341
0
LINE
8
BLACK
6
CONTINUOUS
10
9.4133858267716537
20
-6.0086614173228341
11
9.4117155118110229
21
-6.0079695275590552
0
LINE
8
BLACK
6
CONTINUOUS
10
9.4117155118110229
20
-6.0079695275590552
11
9.4110236220472441
21
-6.0062992125984254
0
LINE
8
BLACK
6
CONTINUOUS
10
9.4110236220472441
20
-6.0062992125984254
11
9.4117155118110229
21
-6.0046288976377955
0
LINE
8
BLACK
6
CONTINUOUS
10
9.4117155118110229
20
-6.0046288976377955
11
9.4133858267716537
21
-6.0039370078740157
0
LINE
8
BLACK
6
CONTINUOUS
10
9.4133858267716537
20
-6.0039370078740157
11
9.4503937007874015
21
-6.0039370078740157
0
LINE
8
BLACK
6
CONTINUOUS
10
9.4503937007874015
20
-6.0039370078740157
11
9.4503937007874015
21
-5.966929133858268
0
LINE
8
BLACK
6
CONTINUOUS
10
9.4503937007874015
20
-5.966929133858268
11
9.4510855905511804
21
-5.9652588188976381
0
LINE
8
BLACK
6
CONTINUOUS
10
9.4510855905511804
20
-5.9652588188976381
11
9.4527559055118111
21
-5.9645669291338583
0
LINE
8
BLACK
6
CONTINUOUS
10
9.4527559055118111
20
-5.9645669291338583
11
9.4544262204724401
21
-5.9652588188976381
0
LINE
8
BLACK
6
CONTINUOUS
10
6.9522659842519685
20
-5.8812733070866141
11
6.9538132283464567
21
-5.8825716141732283
0
LINE
8
BLACK
6
CONTINUOUS
10
6.9538132283464567
20
-5.8825716141732283
11
6.954163976377953
21
-5.8845607480314959
0
LINE
8
BLACK
6
CONTINUOUS
10
6.954163976377953
20
-5.8845607480314959
11
6.9531540551181097
21
-5.8863099212598424
0
LINE
8
BLACK
6
CONTINUOUS
10
6.9531540551181097
20
-5.8863099212598424
11
6.9512560629921261
21
-5.8870007480314959
0
LINE
8
BLACK
6
CONTINUOUS
10
6.9512560629921261
20
-5.8870007480314959
11
6.9351806299212599
21
-5.8870007480314959
0
LINE
8
BLACK
6
CONTINUOUS
10
6.9351806299212599
20
-5.8870007480314959
11
6.9342035039370078
21
-5.8967720078740156
0
LINE
8
BLACK
6
CONTINUOUS
10
6.9342035039370078
20
-5.8967720078740156
11
6.9349374409448821
21
-5.8964050787401572
0
LINE
8
BLACK
6
CONTINUOUS
10
6.9349374409448821
20
-5.8964050787401572
11
6.9359203543307082
21
-5.8961127165354332
0
LINE
8
BLACK
6
CONTINUOUS
10
6.9359203543307082
20
-5.8961127165354332
11
6.9360920472440943
21
-5.8961537007874014
0
LINE
8
BLACK
6
CONTINUOUS
10
6.9360920472440943
20
-5.8961537007874014
11
6.9362579527559056
21
-5.8960933464566931
0
LINE
8
BLACK
6
CONTINUOUS
10
6.9362579527559056
20
-5.8960933464566931
11
6.9456317716535434
21
-5.8960933464566931
0
LINE
8
BLACK
6
CONTINUOUS
10
6.9456317716535434
20
-5.8960933464566931
11
6.9466416929133858
21
-5.8962714173228346
0
LINE
8
BLACK
6
CONTINUOUS
10
6.9466416929133858
20
-5.8962714173228346
11
6.9467769291338577
21
-5.8963848818897633
0
LINE
8
BLACK
6
CONTINUOUS
10
6.9467769291338577
20
-5.8963848818897633
11
6.9469522834645669
21
-5.8964050787401572
0
LINE
8
BLACK
6
CONTINUOUS
10
6.9469522834645669
20
-5.8964050787401572
11
6.9507018110236221
21
-5.8982798425196847
0
LINE
8
BLACK
6
CONTINUOUS
10
6.9507018110236221
20
-5.8982798425196847
11
6.9514108661417318
21
-5.8988057480314957
0
LINE
8
BLACK
6
CONTINUOUS
10
6.9514108661417318
20
-5.8988057480314957
11
6.9514692125984254
21
-5.8988329527559058
0
LINE
8
BLACK
6
CONTINUOUS
10
6.9514692125984254
20
-5.8988329527559058
11
6.953343976377953
21
-5.9007077165354334
0
LINE
8
BLACK
6
CONTINUOUS
10
6.953343976377953
20
-5.9007077165354334
11
6.9538502362204726
21
-5.9014307874015746
0
LINE
8
BLACK
6
CONTINUOUS
10
6.9538502362204726
20
-5.9014307874015746
11
6.9538970866141732
21
-5.9014751181102358
0
LINE
8
BLACK
6
CONTINUOUS
10
6.9538970866141732
20
-5.9014751181102358
11
6.9557718503937007
21
-5.905224645669291
0
LINE
8
BLACK
6
CONTINUOUS
10
6.9557718503937007
20
-5.905224645669291
11
6.9560642125984247
21
-5.906207559055118
0
LINE
8
BLACK
6
CONTINUOUS
10
6.9560642125984247
20
-5.906207559055118
11
6.9560231889763777
21
-5.9063792519685041
0
LINE
8
BLACK
6
CONTINUOUS
10
6.9560231889763777
20
-5.9063792519685041
11
6.9560835826771648
21
-5.9065451574803145
0
LINE
8
BLACK
6
CONTINUOUS
10
6.9560835826771648
20
-5.9065451574803145
11
6.9560835826771648
21
-5.9159189763779523
0
LINE
8
BLACK
6
CONTINUOUS
10
6.9560835826771648
20
-5.9159189763779523
11
6.9559055118110233
21
-5.9169288976377947
0
LINE
8
BLACK
6
CONTINUOUS
10
6.9559055118110233
20
-5.9169288976377947
11
6.9557920078740159
21
-5.9170641338582675
0
LINE
8
BLACK
6
CONTINUOUS
10
6.9557920078740159
20
-5.9170641338582675
11
6.9557718503937007
21
-5.9172394881889758
0
LINE
8
BLACK
6
CONTINUOUS
10
6.9557718503937007
20
-5.9172394881889758
11
6.9538970866141732
21
-5.9209890157480309
0
LINE
8
BLACK
6
CONTINUOUS
10
6.9538970866141732
20
-5.9209890157480309
11
6.9533711417322834
21
-5.9216980708661415
0
LINE
8
BLACK
6
CONTINUOUS
10
6.9533711417322834
20
-5.9216980708661415
11
6.953343976377953
21
-5.9217564173228343
0
LINE
8
BLACK
6
CONTINUOUS
10
6.953343976377953
20
-5.9217564173228343
11
6.9514692519685042
21
-5.9236311811023619
0
LINE
8
BLACK
6
CONTINUOUS
10
6.9514692519685042
20
-5.9236311811023619
11
6.9507460629921258
21
-5.9241375590551177
0
LINE
8
BLACK
6
CONTINUOUS
10
6.9507460629921258
20
-5.9241375590551177
11
6.9507018110236221
21
-5.9241843307086617
0
LINE
8
BLACK
6
CONTINUOUS
10
6.9507018110236221
20
-5.9241843307086617
11
6.9469522834645669
21
-5.9260590944881892
0
LINE
8
BLACK
6
CONTINUOUS
10
6.9469522834645669
20
-5.9260590944881892
11
6.9459693307086612
21
-5.9263514566929132
0
LINE
8
BLACK
6
CONTINUOUS
10
6.9459693307086612
20
-5.9263514566929132
11
6.945797637795275
21
-5.9263104330708662
0
LINE
8
BLACK
6
CONTINUOUS
10
6.945797637795275
20
-5.9263104330708662
11
6.9456317716535434
21
-5.9263708267716533
0
LINE
8
BLACK
6
CONTINUOUS
10
6.9456317716535434
20
-5.9263708267716533
11
6.9362579527559056
21
-5.9263708267716533
0
LINE
8
BLACK
6
CONTINUOUS
10
6.9362579527559056
20
-5.9263708267716533
11
6.9352480314960632
21
-5.9261927559055119
0
LINE
8
BLACK
6
CONTINUOUS
10
6.9352480314960632
20
-5.9261927559055119
11
6.9351127559055117
21
-5.9260792519685035
0
LINE
8
BLACK
6
CONTINUOUS
10
6.9351127559055117
20
-5.9260792519685035
11
6.9349374409448821
21
-5.9260590944881892
0
LINE
8
BLACK
6
CONTINUOUS
10
6.9349374409448821
20
-5.9260590944881892
11
6.931187913385827
21
-5.9241843307086617
0
LINE
8
BLACK
6
CONTINUOUS
10
6.931187913385827
20
-5.9241843307086617
11
6.9304787795275589
21
-5.9236583464566932
0
LINE
8
BLACK
6
CONTINUOUS
10
6.9304787795275589
20
-5.9236583464566932
11
6.9304204724409448
21
-5.9236311811023619
0
LINE
8
BLACK
6
CONTINUOUS
10
6.9304204724409448
20
-5.9236311811023619
11
6.9285457086614173
21
-5.9217563779527556
0
LINE
8
BLACK
6
CONTINUOUS
10
6.9285457086614173
20
-5.9217563779527556
11
6.9279575196850391
21
-5.9209163385826766
0
LINE
8
BLACK
6
CONTINUOUS
10
6.9279575196850391
20
-5.9209163385826766
11
6.9277815354330707
21
-5.9189042519685042
0
LINE
8
BLACK
6
CONTINUOUS
10
6.9277815354330707
20
-5.9189042519685042
11
6.9289400393700786
21
-5.9172497244094489
0
LINE
8
BLACK
6
CONTINUOUS
10
6.9289400393700786
20
-5.9172497244094489
11
6.9308910236220473
21
-5.916727007874016
0
LINE
8
BLACK
6
CONTINUOUS
10
6.9308910236220473
20
-5.916727007874016
11
6.9327216141732286
21
-5.9175806299212601
0
LINE
8
BLACK
6
CONTINUOUS
10
6.9327216141732286
20
-5.9175806299212601
11
6.9342575196850396
21
-5.9191165748031498
0
LINE
8
BLACK
6
CONTINUOUS
10
6.9342575196850396
20
-5.9191165748031498
11
6.9369550000000002
21
-5.9204653149606301
0
LINE
8
BLACK
6
CONTINUOUS
10
6.9369550000000002
20
-5.9204653149606301
11
6.9449347244094488
21
-5.9204653149606301
0
LINE
8
BLACK
6
CONTINUOUS
10
6.9449347244094488
20
-5.9204653149606301
11
6.9476321653543307
21
-5.9191165748031498
0
LINE
8
BLACK
6
CONTINUOUS
10
6.9476321653543307
20
-5.9191165748031498
11
6.9488292913385825
21
-5.9179194094488183
0
LINE
8
BLACK
6
CONTINUOUS
10
6.9488292913385825
20
-5.9179194094488183
11
6.9501780708661416
21
-5.9152219291338577
0
LINE
8
BLACK
6
CONTINUOUS
10
6.9501780708661416
20
-5.9152219291338577
11
6.9501780708661416
21
-5.9072422047244091
0
LINE
8
BLACK
6
CONTINUOUS
10
6.9501780708661416
20
-5.9072422047244091
11
6.9488293307086613
21
-5.9045447244094484
0
LINE
8
BLACK
6
CONTINUOUS
10
6.9488293307086613
20
-5.9045447244094484
11
6.9476322047244095
21
-5.9033475984251966
0
LINE
8
BLACK
6
CONTINUOUS
10
6.9476322047244095
20
-5.9033475984251966
11
6.9449347244094488
21
-5.9019988582677163
0
LINE
8
BLACK
6
CONTINUOUS
10
6.9449347244094488
20
-5.9019988582677163
11
6.9369550000000002
21
-5.9019988582677163
0
LINE
8
BLACK
6
CONTINUOUS
10
6.9369550000000002
20
-5.9019988582677163
11
6.9342575196850396
21
-5.9033475984251966
0
LINE
8
BLACK
6
CONTINUOUS
10
6.9342575196850396
20
-5.9033475984251966
11
6.9327215748031499
21
-5.9048835433070863
0
LINE
8
BLACK
6
CONTINUOUS
10
6.9327215748031499
20
-5.9048835433070863
11
6.931881535433071
21
-5.9054717322834644
0
LINE
8
BLACK
6
CONTINUOUS
10
6.931881535433071
20
-5.9054717322834644
11
6.9318621653543309
21
-5.9054733858267712
0
LINE
8
BLACK
6
CONTINUOUS
10
6.9318621653543309
20
-5.9054733858267712
11
6.9318482677165356
21
-5.905487007874016
0
LINE
8
BLACK
6
CONTINUOUS
10
6.9318482677165356
20
-5.905487007874016
11
6.930857755905512
21
-5.9055612992125983
0
LINE
8
BLACK
6
CONTINUOUS
10
6.930857755905512
20
-5.9055612992125983
11
6.9298694488188977
21
-5.9056477952755904
0
LINE
8
BLACK
6
CONTINUOUS
10
6.9298694488188977
20
-5.9056477952755904
11
6.9298535039370073
21
-5.9056366141732282
0
LINE
8
BLACK
6
CONTINUOUS
10
6.9298535039370073
20
-5.9056366141732282
11
6.9298340944881884
21
-5.9056381102362208
0
LINE
8
BLACK
6
CONTINUOUS
10
6.9298340944881884
20
-5.9056381102362208
11
6.9290272440944882
21
-5.9050580708661418
0
LINE
8
BLACK
6
CONTINUOUS
10
6.9290272440944882
20
-5.9050580708661418
11
6.9282148818897635
21
-5.9044892519685037
0
LINE
8
BLACK
6
CONTINUOUS
10
6.9282148818897635
20
-5.9044892519685037
11
6.928209842519685
21
-5.9044704330708662
0
LINE
8
BLACK
6
CONTINUOUS
10
6.928209842519685
20
-5.9044704330708662
11
6.9281940944881892
21
-5.9044591338582677
0
LINE
8
BLACK
6
CONTINUOUS
10
6.9281940944881892
20
-5.9044591338582677
11
6.9279490944881887
21
-5.9034973228346459
0
LINE
8
BLACK
6
CONTINUOUS
10
6.9279490944881887
20
-5.9034973228346459
11
6.9276921653543306
21
-5.9025383070866138
0
LINE
8
BLACK
6
CONTINUOUS
10
6.9276921653543306
20
-5.9025383070866138
11
6.9277003543307085
21
-5.9025207086614175
0
LINE
8
BLACK
6
CONTINUOUS
10
6.9277003543307085
20
-5.9025207086614175
11
6.9276955511811025
21
-5.9025018110236216
0
LINE
8
BLACK
6
CONTINUOUS
10
6.9276955511811025
20
-5.9025018110236216
11
6.92957031496063
21
-5.883754173228346
0
LINE
8
BLACK
6
CONTINUOUS
10
6.92957031496063
20
-5.883754173228346
11
6.9296125984251971
21
-5.8836038188976376
0
LINE
8
BLACK
6
CONTINUOUS
10
6.9296125984251971
20
-5.8836038188976376
11
6.9296005118110235
21
-5.8835352362204727
0
LINE
8
BLACK
6
CONTINUOUS
10
6.9296005118110235
20
-5.8835352362204727
11
6.9296616929133856
21
-5.8834292125984247
0
LINE
8
BLACK
6
CONTINUOUS
10
6.9296616929133856
20
-5.8834292125984247
11
6.9298479921259837
21
-5.8827670078740155
0
LINE
8
BLACK
6
CONTINUOUS
10
6.9298479921259837
20
-5.8827670078740155
11
6.9302968897637793
21
-5.8823290944881892
0
LINE
8
BLACK
6
CONTINUOUS
10
6.9302968897637793
20
-5.8823290944881892
11
6.930610433070866
21
-5.8817860629921261
0
LINE
8
BLACK
6
CONTINUOUS
10
6.930610433070866
20
-5.8817860629921261
11
6.9309982677165349
21
-5.8816448818897635
0
LINE
8
BLACK
6
CONTINUOUS
10
6.9309982677165349
20
-5.8816448818897635
11
6.9312938188976378
21
-5.8813566141732281
0
LINE
8
BLACK
6
CONTINUOUS
10
6.9312938188976378
20
-5.8813566141732281
11
6.9319191338582673
21
-5.88130968503937
0
LINE
8
BLACK
6
CONTINUOUS
10
6.9319191338582673
20
-5.88130968503937
11
6.9325084251968505
21
-5.8810952362204727
0
LINE
8
BLACK
6
CONTINUOUS
10
6.9325084251968505
20
-5.8810952362204727
11
6.9512560629921261
21
-5.8810952362204727
0
LINE
8
BLACK
6
CONTINUOUS
10
6.9512560629921261
20
-5.8810952362204727
11
6.9522659842519685
21
-5.8812733070866141
0
LINE
8
BLACK
6
CONTINUOUS
10
6.9160226771653539
20
-5.8821500000000002
11
6.9167135039370073
21
-5.8840479921259838
0
LINE
8
BLACK
6
CONTINUOUS
10
6.9167135039370073
20
-5.8840479921259838
11
6.9167135039370073
21
-5.9234180708661412
0
LINE
8
BLACK
6
CONTINUOUS
10
6.9167135039370073
20
-5.9234180708661412
11
6.9165354330708659
21
-5.9244279921259837
0
LINE
8
BLACK
6
CONTINUOUS
10
6.9165354330708659
20
-5.9244279921259837
11
6.9152371259842518
21
-5.9259752362204727
0
LINE
8
BLACK
6
CONTINUOUS
10
6.9152371259842518
20
-5.9259752362204727
11
6.9132479921259842
21
-5.9263259842519682
0
LINE
8
BLACK
6
CONTINUOUS
10
6.9132479921259842
20
-5.9263259842519682
11
6.9114988188976376
21
-5.9253160629921258
0
LINE
8
BLACK
6
CONTINUOUS
10
6.9114988188976376
20
-5.9253160629921258
11
6.9108079921259842
21
-5.9234180708661412
0
LINE
8
BLACK
6
CONTINUOUS
10
6.9108079921259842
20
-5.9234180708661412
11
6.9108079921259842
21
-5.9057483858267714
0
LINE
8
BLACK
6
CONTINUOUS
10
6.9108079921259842
20
-5.9057483858267714
11
6.8942163385826767
21
-5.9057483858267714
0
LINE
8
BLACK
6
CONTINUOUS
10
6.8942163385826767
20
-5.9057483858267714
11
6.8942163385826767
21
-5.9234180708661412
0
LINE
8
BLACK
6
CONTINUOUS
10
6.8942163385826767
20
-5.9234180708661412
11
6.8940382677165353
21
-5.9244279921259837
0
LINE
8
BLACK
6
CONTINUOUS
10
6.8940382677165353
20
-5.9244279921259837
11
6.8927399606299211
21
-5.9259752362204727
0
LINE
8
BLACK
6
CONTINUOUS
10
6.8927399606299211
20
-5.9259752362204727
11
6.8907508267716535
21
-5.9263259842519682
0
LINE
8
BLACK
6
CONTINUOUS
10
6.8907508267716535
20
-5.9263259842519682
11
6.889001653543307
21
-5.9253160629921258
0
LINE
8
BLACK
6
CONTINUOUS
10
6.889001653543307
20
-5.9253160629921258
11
6.8883108267716535
21
-5.9234180708661412
0
LINE
8
BLACK
6
CONTINUOUS
10
6.8883108267716535
20
-5.9234180708661412
11
6.8883108267716535
21
-5.8840479921259838
0
LINE
8
BLACK
6
CONTINUOUS
10
6.8883108267716535
20
-5.8840479921259838
11
6.8884888976377949
21
-5.8830380708661414
0
LINE
8
BLACK
6
CONTINUOUS
10
6.8884888976377949
20
-5.8830380708661414
11
6.8897872047244091
21
-5.8814908267716532
0
LINE
8
BLACK
6
CONTINUOUS
10
6.8897872047244091
20
-5.8814908267716532
11
6.8917763385826767
21
-5.8811400787401578
0
LINE
8
BLACK
6
CONTINUOUS
10
6.8917763385826767
20
-5.8811400787401578
11
6.8935255118110232
21
-5.8821500000000002
0
LINE
8
BLACK
6
CONTINUOUS
10
6.8935255118110232
20
-5.8821500000000002
11
6.8942163385826767
21
-5.8840479921259838
0
LINE
8
BLACK
6
CONTINUOUS
10
6.8942163385826767
20
-5.8840479921259838
11
6.8942163385826767
21
-5.8998428740157483
0
LINE
8
BLACK
6
CONTINUOUS
10
6.8942163385826767
20
-5.8998428740157483
11
6.9108079921259842
21
-5.8998428740157483
0
LINE
8
BLACK
6
CONTINUOUS
10
6.9108079921259842
20
-5.8998428740157483
11
6.9108079921259842
21
-5.8840479921259838
0
LINE
8
BLACK
6
CONTINUOUS
10
6.9108079921259842
20
-5.8840479921259838
11
6.9109860629921256
21
-5.8830380708661414
0
LINE
8
BLACK
6
CONTINUOUS
10
6.9109860629921256
20
-5.8830380708661414
11
6.9122843700787397
21
-5.8814908267716532
0
LINE
8
BLACK
6
CONTINUOUS
10
6.9122843700787397
20
-5.8814908267716532
11
6.9142735039370073
21
-5.8811400787401578
0
LINE
8
BLACK
6
CONTINUOUS
10
6.9142735039370073
20
-5.8811400787401578
11
6.9160226771653539
21
-5.8821500000000002
0
LINE
8
BLACK
6
CONTINUOUS
10
6.9560155118110236
20
-3.6548953543307086
11
6.9562827559055114
21
-3.6551196062992126
0
LINE
8
BLACK
6
CONTINUOUS
10
6.9562827559055114
20
-3.6551196062992126
11
6.9566223622047243
21
-3.6551992519685039
0
LINE
8
BLACK
6
CONTINUOUS
10
6.9566223622047243
20
-3.6551992519685039
11
6.9570349606299207
21
-3.6557507874015749
0
LINE
8
BLACK
6
CONTINUOUS
10
6.9570349606299207
20
-3.6557507874015749
11
6.9575627559055118
21
-3.6561936614173227
0
LINE
8
BLACK
6
CONTINUOUS
10
6.9575627559055118
20
-3.6561936614173227
11
6.9576233070866138
21
-3.6565372440944883
0
LINE
8
BLACK
6
CONTINUOUS
10
6.9576233070866138
20
-3.6565372440944883
11
6.9578322834645672
21
-3.6568165354330708
0
LINE
8
BLACK
6
CONTINUOUS
10
6.9578322834645672
20
-3.6568165354330708
11
6.9577938188976374
21
-3.6575042519685037
0
LINE
8
BLACK
6
CONTINUOUS
10
6.9577938188976374
20
-3.6575042519685037
11
6.9579135039370081
21
-3.6581827952755903
0
LINE
8
BLACK
6
CONTINUOUS
10
6.9579135039370081
20
-3.6581827952755903
11
6.9577390551181102
21
-3.6584849212598423
0
LINE
8
BLACK
6
CONTINUOUS
10
6.9577390551181102
20
-3.6584849212598423
11
6.9577196062992126
21
-3.6588331889763777
0
LINE
8
BLACK
6
CONTINUOUS
10
6.9577196062992126
20
-3.6588331889763777
11
6.9408467322834646
21
-3.6982032677165355
0
LINE
8
BLACK
6
CONTINUOUS
10
6.9408467322834646
20
-3.6982032677165355
11
6.9402852362204719
21
-3.6990613779527557
0
LINE
8
BLACK
6
CONTINUOUS
10
6.9402852362204719
20
-3.6990613779527557
11
6.9384824015748032
21
-3.699972086614173
0
LINE
8
BLACK
6
CONTINUOUS
10
6.9384824015748032
20
-3.699972086614173
11
6.9365159448818892
21
-3.6995109448818897
0
LINE
8
BLACK
6
CONTINUOUS
10
6.9365159448818892
20
-3.6995109448818897
11
6.9353060236220472
21
-3.697893622047244
0
LINE
8
BLACK
6
CONTINUOUS
10
6.9353060236220472
20
-3.697893622047244
11
6.9354187007874017
21
-3.6958769685039368
0
LINE
8
BLACK
6
CONTINUOUS
10
6.9354187007874017
20
-3.6958769685039368
11
6.9505275984251966
21
-3.6606227952755903
0
LINE
8
BLACK
6
CONTINUOUS
10
6.9505275984251966
20
-3.6606227952755903
11
6.9287588976377954
21
-3.6606227952755903
0
LINE
8
BLACK
6
CONTINUOUS
10
6.9287588976377954
20
-3.6606227952755903
11
6.9277489763779529
21
-3.6604447244094489
0
LINE
8
BLACK
6
CONTINUOUS
10
6.9277489763779529
20
-3.6604447244094489
11
6.9262017322834648
21
-3.6591464173228347
0
LINE
8
BLACK
6
CONTINUOUS
10
6.9262017322834648
20
-3.6591464173228347
11
6.9258509842519684
21
-3.6571572834645667
0
LINE
8
BLACK
6
CONTINUOUS
10
6.9258509842519684
20
-3.6571572834645667
11
6.9268609055118109
21
-3.6554081102362206
0
LINE
8
BLACK
6
CONTINUOUS
10
6.9268609055118109
20
-3.6554081102362206
11
6.9287588976377954
21
-3.6547172834645667
0
LINE
8
BLACK
6
CONTINUOUS
10
6.9287588976377954
20
-3.6547172834645667
11
6.9550055905511812
21
-3.6547172834645667
0
LINE
8
BLACK
6
CONTINUOUS
10
6.9550055905511812
20
-3.6547172834645667
11
6.9560155118110236
21
-3.6548953543307086
0
LINE
8
BLACK
6
CONTINUOUS
10
6.9160226771653539
20
-3.6557720472440942
11
6.9167135039370073
21
-3.6576700393700787
0
LINE
8
BLACK
6
CONTINUOUS
10
6.9167135039370073
20
-3.6576700393700787
11
6.9167135039370073
21
-3.6970401181102361
0
LINE
8
BLACK
6
CONTINUOUS
10
6.9167135039370073
20
-3.6970401181102361
11
6.9165354330708659
21
-3.6980500393700786
0
LINE
8
BLACK
6
CONTINUOUS
10
6.9165354330708659
20
-3.6980500393700786
11
6.9152371259842518
21
-3.6995972834645667
0
LINE
8
BLACK
6
CONTINUOUS
10
6.9152371259842518
20
-3.6995972834645667
11
6.9132479921259842
21
-3.6999480314960631
0
LINE
8
BLACK
6
CONTINUOUS
10
6.9132479921259842
20
-3.6999480314960631
11
6.9114988188976376
21
-3.6989381102362202
0
LINE
8
BLACK
6
CONTINUOUS
10
6.9114988188976376
20
-3.6989381102362202
11
6.9108079921259842
21
-3.6970401181102361
0
LINE
8
BLACK
6
CONTINUOUS
10
6.9108079921259842
20
-3.6970401181102361
11
6.9108079921259842
21
-3.6793704330708659
0
LINE
8
BLACK
6
CONTINUOUS
10
6.9108079921259842
20
-3.6793704330708659
11
6.8942163385826767
21
-3.6793704330708659
0
LINE
8
BLACK
6
CONTINUOUS
10
6.8942163385826767
20
-3.6793704330708659
11
6.8942163385826767
21
-3.6970401181102361
0
LINE
8
BLACK
6
CONTINUOUS
10
6.8942163385826767
20
-3.6970401181102361
11
6.8940382677165353
21
-3.6980500393700786
0
LINE
8
BLACK
6
CONTINUOUS
10
6.8940382677165353
20
-3.6980500393700786
11
6.8927399606299211
21
-3.6995972834645667
0
LINE
8
BLACK
6
CONTINUOUS
10
6.8927399606299211
20
-3.6995972834645667
11
6.8907508267716535
21
-3.6999480314960631
0
LINE
8
BLACK
6
CONTINUOUS
10
6.8907508267716535
20
-3.6999480314960631
11
6.889001653543307
21
-3.6989381102362202
0
LINE
8
BLACK
6
CONTINUOUS
10
6.889001653543307
20
-3.6989381102362202
11
6.8883108267716535
21
-3.6970401181102361
0
LINE
8
BLACK
6
CONTINUOUS
10
6.8883108267716535
20
-3.6970401181102361
11
6.8883108267716535
21
-3.6576700393700787
0
LINE
8
BLACK
6
CONTINUOUS
10
6.8883108267716535
20
-3.6576700393700787
11
6.8884888976377949
21
-3.6566601181102363
0
LINE
8
BLACK
6
CONTINUOUS
10
6.8884888976377949
20
-3.6566601181102363
11
6.8897872047244091
21
-3.6551128740157481
0
LINE
8
BLACK
6
CONTINUOUS
10
6.8897872047244091
20
-3.6551128740157481
11
6.8917763385826767
21
-3.6547621259842518
0
LINE
8
BLACK
6
CONTINUOUS
10
6.8917763385826767
20
-3.6547621259842518
11
6.8935255118110232
21
-3.6557720472440942
0
LINE
8
BLACK
6
CONTINUOUS
10
6.8935255118110232
20
-3.6557720472440942
11
6.8942163385826767
21
-3.6576700393700787
0
LINE
8
BLACK
6
CONTINUOUS
10
6.8942163385826767
20
-3.6576700393700787
11
6.8942163385826767
21
-3.6734649212598423
0
LINE
8
BLACK
6
CONTINUOUS
10
6.8942163385826767
20
-3.6734649212598423
11
6.9108079921259842
21
-3.6734649212598423
0
LINE
8
BLACK
6
CONTINUOUS
10
6.9108079921259842
20
-3.6734649212598423
11
6.9108079921259842
21
-3.6576700393700787
0
LINE
8
BLACK
6
CONTINUOUS
10
6.9108079921259842
20
-3.6576700393700787
11
6.9109860629921256
21
-3.6566601181102363
0
LINE
8
BLACK
6
CONTINUOUS
10
6.9109860629921256
20
-3.6566601181102363
11
6.9122843700787397
21
-3.6551128740157481
0
LINE
8
BLACK
6
CONTINUOUS
10
6.9122843700787397
20
-3.6551128740157481
11
6.9142735039370073
21
-3.6547621259842518
0
LINE
8
BLACK
6
CONTINUOUS
10
6.9142735039370073
20
-3.6547621259842518
11
6.9160226771653539
21
-3.6557720472440942
0
LINE
8
BLACK
6
CONTINUOUS
10
7.8648908661417325
20
-3.5293661417322832
11
7.8741158661417323
21
-3.5325330708661418
0
LINE
8
BLACK
6
CONTINUOUS
10
7.8741158661417323
20
-3.5325330708661418
11
7.8826937795275587
21
-3.5371751968503937
0
LINE
8
BLACK
6
CONTINUOUS
10
7.8826937795275587
20
-3.5371751968503937
11
7.8903906299212601
21
-3.543165905511811
0
LINE
8
BLACK
6
CONTINUOUS
10
7.8903906299212601
20
-3.543165905511811
11
7.8969964960629921
21
-3.5503417716535433
0
LINE
8
BLACK
6
CONTINUOUS
10
7.8969964960629921
20
-3.5503417716535433
11
7.902331141732283
21
-3.5585070472440945
0
LINE
8
BLACK
6
CONTINUOUS
10
7.902331141732283
20
-3.5585070472440945
11
7.9062490551181099
21
-3.5674390157480316
0
LINE
8
BLACK
6
CONTINUOUS
10
7.9062490551181099
20
-3.5674390157480316
11
7.9086433858267711
21
-3.5768940157480316
0
LINE
8
BLACK
6
CONTINUOUS
10
7.9086433858267711
20
-3.5768940157480316
11
7.909448818897638
21
-3.5866141732283463
0
LINE
8
BLACK
6
CONTINUOUS
10
7.909448818897638
20
-3.5866141732283463
11
7.9086433858267711
21
-3.5963343307086615
0
LINE
8
BLACK
6
CONTINUOUS
10
7.9086433858267711
20
-3.5963343307086615
11
7.9062490551181099
21
-3.6057893307086615
0
LINE
8
BLACK
6
CONTINUOUS
10
7.9062490551181099
20
-3.6057893307086615
11
7.902331141732283
21
-3.6147212992125985
0
LINE
8
BLACK
6
CONTINUOUS
10
7.902331141732283
20
-3.6147212992125985
11
7.8969964960629921
21
-3.6228865748031494
0
LINE
8
BLACK
6
CONTINUOUS
10
7.8969964960629921
20
-3.6228865748031494
11
7.8903906299212601
21
-3.6300624409448816
0
LINE
8
BLACK
6
CONTINUOUS
10
7.8903906299212601
20
-3.6300624409448816
11
7.8826937795275587
21
-3.6360531496062993
0
LINE
8
BLACK
6
CONTINUOUS
10
7.8826937795275587
20
-3.6360531496062993
11
7.8741158661417323
21
-3.6406952755905513
0
LINE
8
BLACK
6
CONTINUOUS
10
7.8741158661417323
20
-3.6406952755905513
11
7.8648908661417325
21
-3.6438622047244094
0
LINE
8
BLACK
6
CONTINUOUS
10
7.8648908661417325
20
-3.6438622047244094
11
7.8552704330708663
21
-3.645467598425197
0
LINE
8
BLACK
6
CONTINUOUS
10
7.8552704330708663
20
-3.645467598425197
11
7.8455169685039365
21
-3.645467598425197
0
LINE
8
BLACK
6
CONTINUOUS
10
7.8455169685039365
20
-3.645467598425197
11
7.8358965354330703
21
-3.6438622047244094
0
LINE
8
BLACK
6
CONTINUOUS
10
7.8358965354330703
20
-3.6438622047244094
11
7.8266715354330705
21
-3.6406952755905513
0
LINE
8
BLACK
6
CONTINUOUS
10
7.8266715354330705
20
-3.6406952755905513
11
7.8180936220472441
21
-3.6360531496062993
0
LINE
8
BLACK
6
CONTINUOUS
10
7.8180936220472441
20
-3.6360531496062993
11
7.8103967716535427
21
-3.6300624409448816
0
LINE
8
BLACK
6
CONTINUOUS
10
7.8103967716535427
20
-3.6300624409448816
11
7.8037909055118106
21
-3.6228865748031494
0
LINE
8
BLACK
6
CONTINUOUS
10
7.8037909055118106
20
-3.6228865748031494
11
7.7984562598425198
21
-3.6147212992125985
0
LINE
8
BLACK
6
CONTINUOUS
10
7.7984562598425198
20
-3.6147212992125985
11
7.7945383464566929
21
-3.6057893307086615
0
LINE
8
BLACK
6
CONTINUOUS
10
7.7945383464566929
20
-3.6057893307086615
11
7.7921440157480317
21
-3.5963343307086615
0
LINE
8
BLACK
6
CONTINUOUS
10
7.7921440157480317
20
-3.5963343307086615
11
7.7913385826771648
21
-3.5866141732283463
0
LINE
8
BLACK
6
CONTINUOUS
10
7.7913385826771648
20
-3.5866141732283463
11
7.7921440157480317
21
-3.5768940157480316
0
LINE
8
BLACK
6
CONTINUOUS
10
7.7921440157480317
20
-3.5768940157480316
11
7.7945383464566929
21
-3.5674390157480316
0
LINE
8
BLACK
6
CONTINUOUS
10
7.7945383464566929
20
-3.5674390157480316
11
7.7984562598425198
21
-3.5585070472440945
0
LINE
8
BLACK
6
CONTINUOUS
10
7.7984562598425198
20
-3.5585070472440945
11
7.8037909055118106
21
-3.5503417716535433
0
LINE
8
BLACK
6
CONTINUOUS
10
7.8037909055118106
20
-3.5503417716535433
11
7.8103967716535427
21
-3.543165905511811
0
LINE
8
BLACK
6
CONTINUOUS
10
7.8103967716535427
20
-3.543165905511811
11
7.8180936220472441
21
-3.5371751968503937
0
LINE
8
BLACK
6
CONTINUOUS
10
7.8180936220472441
20
-3.5371751968503937
11
7.8266715354330705
21
-3.5325330708661418
0
LINE
8
BLACK
6
CONTINUOUS
10
7.8266715354330705
20
-3.5325330708661418
11
7.8358965354330703
21
-3.5293661417322832
0
LINE
8
BLACK
6
CONTINUOUS
10
7.8358965354330703
20
-3.5293661417322832
11
7.8455169685039365
21
-3.5277607480314961
0
LINE
8
BLACK
6
CONTINUOUS
10
7.8455169685039365
20
-3.5277607480314961
11
7.8552704330708663
21
-3.5277607480314961
0
LINE
8
BLACK
6
CONTINUOUS
10
7.8552704330708663
20
-3.5277607480314961
11
7.8648908661417325
21
-3.5293661417322832
0
LINE
8
BLACK
6
CONTINUOUS
10
7.8670146062992128
20
-3.5066299606299212
11
7.8777509842519686
21
-3.5096381496062992
0
LINE
8
BLACK
6
CONTINUOUS
10
7.8777509842519686
20
-3.5096381496062992
11
7.8879777559055118
21
-3.5140802362204724
0
LINE
8
BLACK
6
CONTINUOUS
10
7.8879777559055118
20
-3.5140802362204724
11
7.8975044094488185
21
-3.5198735039370077
0
LINE
8
BLACK
6
CONTINUOUS
10
7.8975044094488185
20
-3.5198735039370077
11
7.9061534645669287
21
-3.5269100393700787
0
LINE
8
BLACK
6
CONTINUOUS
10
7.9061534645669287
20
-3.5269100393700787
11
7.913763818897638
21
-3.5350587795275588
0
LINE
8
BLACK
6
CONTINUOUS
10
7.913763818897638
20
-3.5350587795275588
11
7.9201937007874017
21
-3.5441678346456693
0
LINE
8
BLACK
6
CONTINUOUS
10
7.9201937007874017
20
-3.5441678346456693
11
7.9253233464566923
21
-3.5540676377952756
0
LINE
8
BLACK
6
CONTINUOUS
10
7.9253233464566923
20
-3.5540676377952756
11
7.9290572047244092
21
-3.5645737007874017
0
LINE
8
BLACK
6
CONTINUOUS
10
7.9290572047244092
20
-3.5645737007874017
11
7.9313257086614168
21
-3.5754903149606299
0
LINE
8
BLACK
6
CONTINUOUS
10
7.9313257086614168
20
-3.5754903149606299
11
7.9320866141732278
21
-3.5866141732283463
0
LINE
8
BLACK
6
CONTINUOUS
10
7.9320866141732278
20
-3.5866141732283463
11
7.9313257086614168
21
-3.5977380314960627
0
LINE
8
BLACK
6
CONTINUOUS
10
7.9313257086614168
20
-3.5977380314960627
11
7.9290572047244092
21
-3.6086546456692914
0
LINE
8
BLACK
6
CONTINUOUS
10
7.9290572047244092
20
-3.6086546456692914
11
7.9253233464566923
21
-3.619160708661417
0
LINE
8
BLACK
6
CONTINUOUS
10
7.9253233464566923
20
-3.619160708661417
11
7.9201937007874017
21
-3.6290605118110237
0
LINE
8
BLACK
6
CONTINUOUS
10
7.9201937007874017
20
-3.6290605118110237
11
7.913763818897638
21
-3.6381695669291338
0
LINE
8
BLACK
6
CONTINUOUS
10
7.913763818897638
20
-3.6381695669291338
11
7.9061534645669287
21
-3.6463183070866143
0
LINE
8
BLACK
6
CONTINUOUS
10
7.9061534645669287
20
-3.6463183070866143
11
7.8975044094488185
21
-3.6533548425196849
0
LINE
8
BLACK
6
CONTINUOUS
10
7.8975044094488185
20
-3.6533548425196849
11
7.8879777559055118
21
-3.6591481102362202
0
LINE
8
BLACK
6
CONTINUOUS
10
7.8879777559055118
20
-3.6591481102362202
11
7.8777509842519686
21
-3.6635901968503934
0
LINE
8
BLACK
6
CONTINUOUS
10
7.8777509842519686
20
-3.6635901968503934
11
7.8670146062992128
21
-3.6665983858267714
0
LINE
8
BLACK
6
CONTINUOUS
10
7.8670146062992128
20
-3.6665983858267714
11
7.8559686220472438
21
-3.668116653543307
0
LINE
8
BLACK
6
CONTINUOUS
10
7.8559686220472438
20
-3.668116653543307
11
7.844818779527559
21
-3.668116653543307
0
LINE
8
BLACK
6
CONTINUOUS
10
7.844818779527559
20
-3.668116653543307
11
7.83377279527559
21
-3.6665983858267714
0
LINE
8
BLACK
6
CONTINUOUS
10
7.83377279527559
20
-3.6665983858267714
11
7.8230364173228342
21
-3.6635901968503934
0
LINE
8
BLACK
6
CONTINUOUS
10
7.8230364173228342
20
-3.6635901968503934
11
7.812809645669291
21
-3.6591481102362202
0
LINE
8
BLACK
6
CONTINUOUS
10
7.812809645669291
20
-3.6591481102362202
11
7.8032829921259843
21
-3.6533548425196849
0
LINE
8
BLACK
6
CONTINUOUS
10
7.8032829921259843
20
-3.6533548425196849
11
7.7946339370078741
21
-3.6463183070866143
0
LINE
8
BLACK
6
CONTINUOUS
10
7.7946339370078741
20
-3.6463183070866143
11
7.7870235826771648
21
-3.6381695669291338
0
LINE
8
BLACK
6
CONTINUOUS
10
7.7870235826771648
20
-3.6381695669291338
11
7.7805937007874011
21
-3.6290605118110237
0
LINE
8
BLACK
6
CONTINUOUS
10
7.7805937007874011
20
-3.6290605118110237
11
7.7754640551181105
21
-3.619160708661417
0
LINE
8
BLACK
6
CONTINUOUS
10
7.7754640551181105
20
-3.619160708661417
11
7.7717301968503936
21
-3.6086546456692914
0
LINE
8
BLACK
6
CONTINUOUS
10
7.7717301968503936
20
-3.6086546456692914
11
7.769461692913386
21
-3.5977380314960627
0
LINE
8
BLACK
6
CONTINUOUS
10
7.769461692913386
20
-3.5977380314960627
11
7.768700787401575
21
-3.5866141732283463
0
LINE
8
BLACK
6
CONTINUOUS
10
7.768700787401575
20
-3.5866141732283463
11
7.769461692913386
21
-3.5754903149606299
0
LINE
8
BLACK
6
CONTINUOUS
10
7.769461692913386
20
-3.5754903149606299
11
7.7717301968503936
21
-3.5645737007874017
0
LINE
8
BLACK
6
CONTINUOUS
10
7.7717301968503936
20
-3.5645737007874017
11
7.7754640551181105
21
-3.5540676377952756
0
LINE
8
BLACK
6
CONTINUOUS
10
7.7754640551181105
20
-3.5540676377952756
11
7.7805937007874011
21
-3.5441678346456693
0
LINE
8
BLACK
6
CONTINUOUS
10
7.7805937007874011
20
-3.5441678346456693
11
7.7870235826771648
21
-3.5350587795275588
0
LINE
8
BLACK
6
CONTINUOUS
10
7.7870235826771648
20
-3.5350587795275588
11
7.7946339370078741
21
-3.5269100393700787
0
LINE
8
BLACK
6
CONTINUOUS
10
7.7946339370078741
20
-3.5269100393700787
11
7.8032829921259843
21
-3.5198735039370077
0
LINE
8
BLACK
6
CONTINUOUS
10
7.8032829921259843
20
-3.5198735039370077
11
7.812809645669291
21
-3.5140802362204724
0
LINE
8
BLACK
6
CONTINUOUS
10
7.812809645669291
20
-3.5140802362204724
11
7.8230364173228342
21
-3.5096381496062992
0
LINE
8
BLACK
6
CONTINUOUS
10
7.8230364173228342
20
-3.5096381496062992
11
7.83377279527559
21
-3.5066299606299212
0
LINE
8
BLACK
6
CONTINUOUS
10
7.83377279527559
20
-3.5066299606299212
11
7.844818779527559
21
-3.5051116929133856
0
LINE
8
BLACK
6
CONTINUOUS
10
7.844818779527559
20
-3.5051116929133856
11
7.8559686220472438
21
-3.5051116929133856
0
LINE
8
BLACK
6
CONTINUOUS
10
7.8559686220472438
20
-3.5051116929133856
11
7.8670146062992128
21
-3.5066299606299212
0
LINE
8
BLACK
6
CONTINUOUS
10
7.7751861023622046
20
-3.5974274015748029
11
7.7774904724409444
21
-3.6080204724409448
0
LINE
8
BLACK
6
CONTINUOUS
10
7.7774904724409444
20
-3.6080204724409448
11
7.7812789763779522
21
-3.6181777952755905
0
LINE
8
BLACK
6
CONTINUOUS
10
7.7812789763779522
20
-3.6181777952755905
11
7.7864744488188977
21
-3.6276925984251966
0
LINE
8
BLACK
6
CONTINUOUS
10
7.7864744488188977
20
-3.6276925984251966
11
7.7929711023622046
21
-3.6363711417322833
0
LINE
8
BLACK
6
CONTINUOUS
10
7.7929711023622046
20
-3.6363711417322833
11
7.800636732283464
21
-3.6440367716535431
0
LINE
8
BLACK
6
CONTINUOUS
10
7.800636732283464
20
-3.6440367716535431
11
7.8093152755905511
21
-3.6505334251968504
0
LINE
8
BLACK
6
CONTINUOUS
10
7.8093152755905511
20
-3.6505334251968504
11
7.8188300787401577
21
-3.6557288976377951
0
LINE
8
BLACK
6
CONTINUOUS
10
7.8188300787401577
20
-3.6557288976377951
11
7.8289874015748033
21
-3.6595174015748029
0
LINE
8
BLACK
6
CONTINUOUS
10
7.8289874015748033
20
-3.6595174015748029
11
7.8395804724409448
21
-3.6618217716535431
0
LINE
8
BLACK
6
CONTINUOUS
10
7.8395804724409448
20
-3.6618217716535431
11
7.850393700787401
21
-3.6625951574803151
0
LINE
8
BLACK
6
CONTINUOUS
10
7.850393700787401
20
-3.6625951574803151
11
7.861206929133858
21
-3.6618217716535431
0
LINE
8
BLACK
6
CONTINUOUS
10
7.861206929133858
20
-3.6618217716535431
11
7.8717999999999995
21
-3.6595174015748029
0
LINE
8
BLACK
6
CONTINUOUS
10
7.8717999999999995
20
-3.6595174015748029
11
7.8819573228346451
21
-3.6557288976377951
0
LINE
8
BLACK
6
CONTINUOUS
10
7.8819573228346451
20
-3.6557288976377951
11
7.8914721259842517
21
-3.6505334251968504
0
LINE
8
BLACK
6
CONTINUOUS
10
7.8914721259842517
20
-3.6505334251968504
11
7.9001506692913388
21
-3.6440367716535431
0
LINE
8
BLACK
6
CONTINUOUS
10
7.9001506692913388
20
-3.6440367716535431
11
7.9078162992125982
21
-3.6363711417322833
0
LINE
8
BLACK
6
CONTINUOUS
10
7.9078162992125982
20
-3.6363711417322833
11
7.9143129527559051
21
-3.6276925984251966
0
LINE
8
BLACK
6
CONTINUOUS
10
7.9143129527559051
20
-3.6276925984251966
11
7.9195084251968506
21
-3.6181777952755905
0
LINE
8
BLACK
6
CONTINUOUS
10
7.9195084251968506
20
-3.6181777952755905
11
7.9232969291338584
21
-3.6080204724409448
0
LINE
8
BLACK
6
CONTINUOUS
10
7.9232969291338584
20
-3.6080204724409448
11
7.9256012992125981
21
-3.5974274015748029
0
LINE
8
BLACK
6
CONTINUOUS
10
7.9256012992125981
20
-3.5974274015748029
11
7.9263746850393701
21
-3.5866141732283463
0
LINE
8
BLACK
6
CONTINUOUS
10
7.9263746850393701
20
-3.5866141732283463
11
7.9256012992125981
21
-3.5758009448818897
0
LINE
8
BLACK
6
CONTINUOUS
10
7.9256012992125981
20
-3.5758009448818897
11
7.9232969291338584
21
-3.5652078740157478
0
LINE
8
BLACK
6
CONTINUOUS
10
7.9232969291338584
20
-3.5652078740157478
11
7.9195084251968506
21
-3.5550505511811021
0
LINE
8
BLACK
6
CONTINUOUS
10
7.9195084251968506
20
-3.5550505511811021
11
7.9143129527559051
21
-3.545535748031496
0
LINE
8
BLACK
6
CONTINUOUS
10
7.9143129527559051
20
-3.545535748031496
11
7.9078162992125982
21
-3.5368572047244093
0
LINE
8
BLACK
6
CONTINUOUS
10
7.9078162992125982
20
-3.5368572047244093
11
7.9001506692913388
21
-3.5291915748031495
0
LINE
8
BLACK
6
CONTINUOUS
10
7.9001506692913388
20
-3.5291915748031495
11
7.8914721259842517
21
-3.5226949212598426
0
LINE
8
BLACK
6
CONTINUOUS
10
7.8914721259842517
20
-3.5226949212598426
11
7.8819573228346451
21
-3.5174994488188975
0
LINE
8
BLACK
6
CONTINUOUS
10
7.8819573228346451
20
-3.5174994488188975
11
7.8717999999999995
21
-3.5137109448818897
0
LINE
8
BLACK
6
CONTINUOUS
10
7.8717999999999995
20
-3.5137109448818897
11
7.861206929133858
21
-3.5114065748031495
0
LINE
8
BLACK
6
CONTINUOUS
10
7.861206929133858
20
-3.5114065748031495
11
7.850393700787401
21
-3.510633188976378
0
LINE
8
BLACK
6
CONTINUOUS
10
7.850393700787401
20
-3.510633188976378
11
7.8395804724409448
21
-3.5114065748031495
0
LINE
8
BLACK
6
CONTINUOUS
10
7.8395804724409448
20
-3.5114065748031495
11
7.8289874015748033
21
-3.5137109448818897
0
LINE
8
BLACK
6
CONTINUOUS
10
7.8289874015748033
20
-3.5137109448818897
11
7.8188300787401577
21
-3.5174994488188975
0
LINE
8
BLACK
6
CONTINUOUS
10
7.8188300787401577
20
-3.5174994488188975
11
7.8093152755905511
21
-3.5226949212598426
0
LINE
8
BLACK
6
CONTINUOUS
10
7.8093152755905511
20
-3.5226949212598426
11
7.800636732283464
21
-3.5291915748031495
0
LINE
8
BLACK
6
CONTINUOUS
10
7.800636732283464
20
-3.5291915748031495
11
7.7929711023622046
21
-3.5368572047244093
0
LINE
8
BLACK
6
CONTINUOUS
10
7.7929711023622046
20
-3.5368572047244093
11
7.7864744488188977
21
-3.545535748031496
0
LINE
8
BLACK
6
CONTINUOUS
10
7.7864744488188977
20
-3.545535748031496
11
7.7812789763779522
21
-3.5550505511811021
0
LINE
8
BLACK
6
CONTINUOUS
10
7.7812789763779522
20
-3.5550505511811021
11
7.7774904724409444
21
-3.5652078740157478
0
LINE
8
BLACK
6
CONTINUOUS
10
7.7774904724409444
20
-3.5652078740157478
11
7.7751861023622046
21
-3.5758009448818897
0
LINE
8
BLACK
6
CONTINUOUS
10
7.7751861023622046
20
-3.5758009448818897
11
7.7744127165354326
21
-3.5866141732283463
0
LINE
8
BLACK
6
CONTINUOUS
10
7.7744127165354326
20
-3.5866141732283463
11
7.7751861023622046
21
-3.5974274015748029
0
LINE
8
BLACK
6
CONTINUOUS
10
8.3727648818897631
20
-3.5293661417322832
11
8.3819898818897638
21
-3.5325330708661418
0
LINE
8
BLACK
6
CONTINUOUS
10
8.3819898818897638
20
-3.5325330708661418
11
8.3905677952755902
21
-3.5371751968503937
0
LINE
8
BLACK
6
CONTINUOUS
10
8.3905677952755902
20
-3.5371751968503937
11
8.3982646456692915
21
-3.543165905511811
0
LINE
8
BLACK
6
CONTINUOUS
10
8.3982646456692915
20
-3.543165905511811
11
8.4048705118110227
21
-3.5503417716535433
0
LINE
8
BLACK
6
CONTINUOUS
10
8.4048705118110227
20
-3.5503417716535433
11
8.4102051574803145
21
-3.5585070472440945
0
LINE
8
BLACK
6
CONTINUOUS
10
8.4102051574803145
20
-3.5585070472440945
11
8.4141230708661414
21
-3.5674390157480316
0
LINE
8
BLACK
6
CONTINUOUS
10
8.4141230708661414
20
-3.5674390157480316
11
8.4165174015748025
21
-3.5768940157480316
0
LINE
8
BLACK
6
CONTINUOUS
10
8.4165174015748025
20
-3.5768940157480316
11
8.4173228346456686
21
-3.5866141732283463
0
LINE
8
BLACK
6
CONTINUOUS
10
8.4173228346456686
20
-3.5866141732283463
11
8.4165174015748025
21
-3.5963343307086615
0
LINE
8
BLACK
6
CONTINUOUS
10
8.4165174015748025
20
-3.5963343307086615
11
8.4141230708661414
21
-3.6057893307086615
0
LINE
8
BLACK
6
CONTINUOUS
10
8.4141230708661414
20
-3.6057893307086615
11
8.4102051574803145
21
-3.6147212992125985
0
LINE
8
BLACK
6
CONTINUOUS
10
8.4102051574803145
20
-3.6147212992125985
11
8.4048705118110227
21
-3.6228865748031494
0
LINE
8
BLACK
6
CONTINUOUS
10
8.4048705118110227
20
-3.6228865748031494
11
8.3982646456692915
21
-3.6300624409448816
0
LINE
8
BLACK
6
CONTINUOUS
10
8.3982646456692915
20
-3.6300624409448816
11
8.3905677952755902
21
-3.6360531496062993
0
LINE
8
BLACK
6
CONTINUOUS
10
8.3905677952755902
20
-3.6360531496062993
11
8.3819898818897638
21
-3.6406952755905513
0
LINE
8
BLACK
6
CONTINUOUS
10
8.3819898818897638
20
-3.6406952755905513
11
8.3727648818897631
21
-3.6438622047244094
0
LINE
8
BLACK
6
CONTINUOUS
10
8.3727648818897631
20
-3.6438622047244094
11
8.3631444488188968
21
-3.645467598425197
0
LINE
8
BLACK
6
CONTINUOUS
10
8.3631444488188968
20
-3.645467598425197
11
8.353390984251968
21
-3.645467598425197
0
LINE
8
BLACK
6
CONTINUOUS
10
8.353390984251968
20
-3.645467598425197
11
8.3437705511811018
21
-3.6438622047244094
0
LINE
8
BLACK
6
CONTINUOUS
10
8.3437705511811018
20
-3.6438622047244094
11
8.3345455511811029
21
-3.6406952755905513
0
LINE
8
BLACK
6
CONTINUOUS
10
8.3345455511811029
20
-3.6406952755905513
11
8.3259676377952747
21
-3.6360531496062993
0
LINE
8
BLACK
6
CONTINUOUS
10
8.3259676377952747
20
-3.6360531496062993
11
8.3182707874015751
21
-3.6300624409448816
0
LINE
8
BLACK
6
CONTINUOUS
10
8.3182707874015751
20
-3.6300624409448816
11
8.3116649212598421
21
-3.6228865748031494
0
LINE
8
BLACK
6
CONTINUOUS
10
8.3116649212598421
20
-3.6228865748031494
11
8.3063302755905504
21
-3.6147212992125985
0
LINE
8
BLACK
6
CONTINUOUS
10
8.3063302755905504
20
-3.6147212992125985
11
8.3024123622047235
21
-3.6057893307086615
0
LINE
8
BLACK
6
CONTINUOUS
10
8.3024123622047235
20
-3.6057893307086615
11
8.3000180314960623
21
-3.5963343307086615
0
LINE
8
BLACK
6
CONTINUOUS
10
8.3000180314960623
20
-3.5963343307086615
11
8.2992125984251963
21
-3.5866141732283463
0
LINE
8
BLACK
6
CONTINUOUS
10
8.2992125984251963
20
-3.5866141732283463
11
8.3000180314960623
21
-3.5768940157480316
0
LINE
8
BLACK
6
CONTINUOUS
10
8.3000180314960623
20
-3.5768940157480316
11
8.3024123622047235
21
-3.5674390157480316
0
LINE
8
BLACK
6
CONTINUOUS
10
8.3024123622047235
20
-3.5674390157480316
11
8.3063302755905504
21
-3.5585070472440945
0
LINE
8
BLACK
6
CONTINUOUS
10
8.3063302755905504
20
-3.5585070472440945
11
8.3116649212598421
21
-3.5503417716535433
0
LINE
8
BLACK
6
CONTINUOUS
10
8.3116649212598421
20
-3.5503417716535433
11
8.3182707874015751
21
-3.543165905511811
0
LINE
8
BLACK
6
CONTINUOUS
10
8.3182707874015751
20
-3.543165905511811
11
8.3259676377952747
21
-3.5371751968503937
0
LINE
8
BLACK
6
CONTINUOUS
10
8.3259676377952747
20
-3.5371751968503937
11
8.3345455511811029
21
-3.5325330708661418
0
LINE
8
BLACK
6
CONTINUOUS
10
8.3345455511811029
20
-3.5325330708661418
11
8.3437705511811018
21
-3.5293661417322832
0
LINE
8
BLACK
6
CONTINUOUS
10
8.3437705511811018
20
-3.5293661417322832
11
8.353390984251968
21
-3.5277607480314961
0
LINE
8
BLACK
6
CONTINUOUS
10
8.353390984251968
20
-3.5277607480314961
11
8.3631444488188968
21
-3.5277607480314961
0
LINE
8
BLACK
6
CONTINUOUS
10
8.3631444488188968
20
-3.5277607480314961
11
8.3727648818897631
21
-3.5293661417322832
0
LINE
8
BLACK
6
CONTINUOUS
10
8.3748886220472443
20
-3.5066299606299212
11
8.3856249999999992
21
-3.5096381496062992
0
LINE
8
BLACK
6
CONTINUOUS
10
8.3856249999999992
20
-3.5096381496062992
11
8.3958517716535432
21
-3.5140802362204724
0
LINE
8
BLACK
6
CONTINUOUS
10
8.3958517716535432
20
-3.5140802362204724
11
8.4053784251968509
21
-3.5198735039370077
0
LINE
8
BLACK
6
CONTINUOUS
10
8.4053784251968509
20
-3.5198735039370077
11
8.4140274803149602
21
-3.5269100393700787
0
LINE
8
BLACK
6
CONTINUOUS
10
8.4140274803149602
20
-3.5269100393700787
11
8.4216378346456686
21
-3.5350587795275588
0
LINE
8
BLACK
6
CONTINUOUS
10
8.4216378346456686
20
-3.5350587795275588
11
8.4280677165354323
21
-3.5441678346456693
0
LINE
8
BLACK
6
CONTINUOUS
10
8.4280677165354323
20
-3.5441678346456693
11
8.4331973622047247
21
-3.5540676377952756
0
LINE
8
BLACK
6
CONTINUOUS
10
8.4331973622047247
20
-3.5540676377952756
11
8.4369312204724416
21
-3.5645737007874017
0
LINE
8
BLACK
6
CONTINUOUS
10
8.4369312204724416
20
-3.5645737007874017
11
8.4391997244094483
21
-3.5754903149606299
0
LINE
8
BLACK
6
CONTINUOUS
10
8.4391997244094483
20
-3.5754903149606299
11
8.4399606299212593
21
-3.5866141732283463
0
LINE
8
BLACK
6
CONTINUOUS
10
8.4399606299212593
20
-3.5866141732283463
11
8.4391997244094483
21
-3.5977380314960627
0
LINE
8
BLACK
6
CONTINUOUS
10
8.4391997244094483
20
-3.5977380314960627
11
8.4369312204724416
21
-3.6086546456692914
0
LINE
8
BLACK
6
CONTINUOUS
10
8.4369312204724416
20
-3.6086546456692914
11
8.4331973622047247
21
-3.619160708661417
0
LINE
8
BLACK
6
CONTINUOUS
10
8.4331973622047247
20
-3.619160708661417
11
8.4280677165354323
21
-3.6290605118110237
0
LINE
8
BLACK
6
CONTINUOUS
10
8.4280677165354323
20
-3.6290605118110237
11
8.4216378346456686
21
-3.6381695669291338
0
LINE
8
BLACK
6
CONTINUOUS
10
8.4216378346456686
20
-3.6381695669291338
11
8.4140274803149602
21
-3.6463183070866143
0
LINE
8
BLACK
6
CONTINUOUS
10
8.4140274803149602
20
-3.6463183070866143
11
8.4053784251968509
21
-3.6533548425196849
0
LINE
8
BLACK
6
CONTINUOUS
10
8.4053784251968509
20
-3.6533548425196849
11
8.3958517716535432
21
-3.6591481102362202
0
LINE
8
BLACK
6
CONTINUOUS
10
8.3958517716535432
20
-3.6591481102362202
11
8.3856249999999992
21
-3.6635901968503934
0
LINE
8
BLACK
6
CONTINUOUS
10
8.3856249999999992
20
-3.6635901968503934
11
8.3748886220472443
21
-3.6665983858267714
0
LINE
8
BLACK
6
CONTINUOUS
10
8.3748886220472443
20
-3.6665983858267714
11
8.3638426377952761
21
-3.668116653543307
0
LINE
8
BLACK
6
CONTINUOUS
10
8.3638426377952761
20
-3.668116653543307
11
8.3526927952755905
21
-3.668116653543307
0
LINE
8
BLACK
6
CONTINUOUS
10
8.3526927952755905
20
-3.668116653543307
11
8.3416468110236224
21
-3.6665983858267714
0
LINE
8
BLACK
6
CONTINUOUS
10
8.3416468110236224
20
-3.6665983858267714
11
8.3309104330708657
21
-3.6635901968503934
0
LINE
8
BLACK
6
CONTINUOUS
10
8.3309104330708657
20
-3.6635901968503934
11
8.3206836614173234
21
-3.6591481102362202
0
LINE
8
BLACK
6
CONTINUOUS
10
8.3206836614173234
20
-3.6591481102362202
11
8.3111570078740158
21
-3.6533548425196849
0
LINE
8
BLACK
6
CONTINUOUS
10
8.3111570078740158
20
-3.6533548425196849
11
8.3025079527559047
21
-3.6463183070866143
0
LINE
8
BLACK
6
CONTINUOUS
10
8.3025079527559047
20
-3.6463183070866143
11
8.2948975984251963
21
-3.6381695669291338
0
LINE
8
BLACK
6
CONTINUOUS
10
8.2948975984251963
20
-3.6381695669291338
11
8.2884677165354326
21
-3.6290605118110237
0
LINE
8
BLACK
6
CONTINUOUS
10
8.2884677165354326
20
-3.6290605118110237
11
8.2833380708661419
21
-3.619160708661417
0
LINE
8
BLACK
6
CONTINUOUS
10
8.2833380708661419
20
-3.619160708661417
11
8.2796042125984251
21
-3.6086546456692914
0
LINE
8
BLACK
6
CONTINUOUS
10
8.2796042125984251
20
-3.6086546456692914
11
8.2773357086614165
21
-3.5977380314960627
0
LINE
8
BLACK
6
CONTINUOUS
10
8.2773357086614165
20
-3.5977380314960627
11
8.2765748031496056
21
-3.5866141732283463
0
LINE
8
BLACK
6
CONTINUOUS
10
8.2765748031496056
20
-3.5866141732283463
11
8.2773357086614165
21
-3.5754903149606299
0
LINE
8
BLACK
6
CONTINUOUS
10
8.2773357086614165
20
-3.5754903149606299
11
8.2796042125984251
21
-3.5645737007874017
0
LINE
8
BLACK
6
CONTINUOUS
10
8.2796042125984251
20
-3.5645737007874017
11
8.2833380708661419
21
-3.5540676377952756
0
LINE
8
BLACK
6
CONTINUOUS
10
8.2833380708661419
20
-3.5540676377952756
11
8.2884677165354326
21
-3.5441678346456693
0
LINE
8
BLACK
6
CONTINUOUS
10
8.2884677165354326
20
-3.5441678346456693
11
8.2948975984251963
21
-3.5350587795275588
0
LINE
8
BLACK
6
CONTINUOUS
10
8.2948975984251963
20
-3.5350587795275588
11
8.3025079527559047
21
-3.5269100393700787
0
LINE
8
BLACK
6
CONTINUOUS
10
8.3025079527559047
20
-3.5269100393700787
11
8.3111570078740158
21
-3.5198735039370077
0
LINE
8
BLACK
6
CONTINUOUS
10
8.3111570078740158
20
-3.5198735039370077
11
8.3206836614173234
21
-3.5140802362204724
0
LINE
8
BLACK
6
CONTINUOUS
10
8.3206836614173234
20
-3.5140802362204724
11
8.3309104330708657
21
-3.5096381496062992
0
LINE
8
BLACK
6
CONTINUOUS
10
8.3309104330708657
20
-3.5096381496062992
11
8.3416468110236224
21
-3.5066299606299212
0
LINE
8
BLACK
6
CONTINUOUS
10
8.3416468110236224
20
-3.5066299606299212
11
8.3526927952755905
21
-3.5051116929133856
0
LINE
8
BLACK
6
CONTINUOUS
10
8.3526927952755905
20
-3.5051116929133856
11
8.3638426377952761
21
-3.5051116929133856
0
LINE
8
BLACK
6
CONTINUOUS
10
8.3638426377952761
20
-3.5051116929133856
11
8.3748886220472443
21
-3.5066299606299212
0
LINE
8
BLACK
6
CONTINUOUS
10
8.2830601181102352
20
-3.5974274015748029
11
8.2853644881889768
21
-3.6080204724409448
0
LINE
8
BLACK
6
CONTINUOUS
10
8.2853644881889768
20
-3.6080204724409448
11
8.2891529921259846
21
-3.6181777952755905
0
LINE
8
BLACK
6
CONTINUOUS
10
8.2891529921259846
20
-3.6181777952755905
11
8.2943484645669283
21
-3.6276925984251966
0
LINE
8
BLACK
6
CONTINUOUS
10
8.2943484645669283
20
-3.6276925984251966
11
8.3008451181102352
21
-3.6363711417322833
0
LINE
8
BLACK
6
CONTINUOUS
10
8.3008451181102352
20
-3.6363711417322833
11
8.3085107480314964
21
-3.6440367716535431
0
LINE
8
BLACK
6
CONTINUOUS
10
8.3085107480314964
20
-3.6440367716535431
11
8.3171892913385825
21
-3.6505334251968504
0
LINE
8
BLACK
6
CONTINUOUS
10
8.3171892913385825
20
-3.6505334251968504
11
8.3267040944881892
21
-3.6557288976377951
0
LINE
8
BLACK
6
CONTINUOUS
10
8.3267040944881892
20
-3.6557288976377951
11
8.3368614173228348
21
-3.6595174015748029
0
LINE
8
BLACK
6
CONTINUOUS
10
8.3368614173228348
20
-3.6595174015748029
11
8.3474544881889763
21
-3.6618217716535431
0
LINE
8
BLACK
6
CONTINUOUS
10
8.3474544881889763
20
-3.6618217716535431
11
8.3582677165354333
21
-3.6625951574803151
0
LINE
8
BLACK
6
CONTINUOUS
10
8.3582677165354333
20
-3.6625951574803151
11
8.3690809448818904
21
-3.6618217716535431
0
LINE
8
BLACK
6
CONTINUOUS
10
8.3690809448818904
20
-3.6618217716535431
11
8.3796740157480318
21
-3.6595174015748029
0
LINE
8
BLACK
6
CONTINUOUS
10
8.3796740157480318
20
-3.6595174015748029
11
8.3898313385826775
21
-3.6557288976377951
0
LINE
8
BLACK
6
CONTINUOUS
10
8.3898313385826775
20
-3.6557288976377951
11
8.3993461417322841
21
-3.6505334251968504
0
LINE
8
BLACK
6
CONTINUOUS
10
8.3993461417322841
20
-3.6505334251968504
11
8.4080246850393703
21
-3.6440367716535431
0
LINE
8
BLACK
6
CONTINUOUS
10
8.4080246850393703
20
-3.6440367716535431
11
8.4156903149606297
21
-3.6363711417322833
0
LINE
8
BLACK
6
CONTINUOUS
10
8.4156903149606297
20
-3.6363711417322833
11
8.4221869685039366
21
-3.6276925984251966
0
LINE
8
BLACK
6
CONTINUOUS
10
8.4221869685039366
20
-3.6276925984251966
11
8.4273824409448821
21
-3.6181777952755905
0
LINE
8
BLACK
6
CONTINUOUS
10
8.4273824409448821
20
-3.6181777952755905
11
8.4311709448818899
21
-3.6080204724409448
0
LINE
8
BLACK
6
CONTINUOUS
10
8.4311709448818899
20
-3.6080204724409448
11
8.4334753149606296
21
-3.5974274015748029
0
LINE
8
BLACK
6
CONTINUOUS
10
8.4334753149606296
20
-3.5974274015748029
11
8.4342487007874016
21
-3.5866141732283463
0
LINE
8
BLACK
6
CONTINUOUS
10
8.4342487007874016
20
-3.5866141732283463
11
8.4334753149606296
21
-3.5758009448818897
0
LINE
8
BLACK
6
CONTINUOUS
10
8.4334753149606296
20
-3.5758009448818897
11
8.4311709448818899
21
-3.5652078740157478
0
LINE
8
BLACK
6
CONTINUOUS
10
8.4311709448818899
20
-3.5652078740157478
11
8.4273824409448821
21
-3.5550505511811021
0
LINE
8
BLACK
6
CONTINUOUS
10
8.4273824409448821
20
-3.5550505511811021
11
8.4221869685039366
21
-3.545535748031496
0
LINE
8
BLACK
6
CONTINUOUS
10
8.4221869685039366
20
-3.545535748031496
11
8.4156903149606297
21
-3.5368572047244093
0
LINE
8
BLACK
6
CONTINUOUS
10
8.4156903149606297
20
-3.5368572047244093
11
8.4080246850393703
21
-3.5291915748031495
0
LINE
8
BLACK
6
CONTINUOUS
10
8.4080246850393703
20
-3.5291915748031495
11
8.3993461417322841
21
-3.5226949212598426
0
LINE
8
BLACK
6
CONTINUOUS
10
8.3993461417322841
20
-3.5226949212598426
11
8.3898313385826775
21
-3.5174994488188975
0
LINE
8
BLACK
6
CONTINUOUS
10
8.3898313385826775
20
-3.5174994488188975
11
8.3796740157480318
21
-3.5137109448818897
0
LINE
8
BLACK
6
CONTINUOUS
10
8.3796740157480318
20
-3.5137109448818897
11
8.3690809448818904
21
-3.5114065748031495
0
LINE
8
BLACK
6
CONTINUOUS
10
8.3690809448818904
20
-3.5114065748031495
11
8.3582677165354333
21
-3.510633188976378
0
LINE
8
BLACK
6
CONTINUOUS
10
8.3582677165354333
20
-3.510633188976378
11
8.3474544881889763
21
-3.5114065748031495
0
LINE
8
BLACK
6
CONTINUOUS
10
8.3474544881889763
20
-3.5114065748031495
11
8.3368614173228348
21
-3.5137109448818897
0
LINE
8
BLACK
6
CONTINUOUS
10
8.3368614173228348
20
-3.5137109448818897
11
8.3267040944881892
21
-3.5174994488188975
0
LINE
8
BLACK
6
CONTINUOUS
10
8.3267040944881892
20
-3.5174994488188975
11
8.3171892913385825
21
-3.5226949212598426
0
LINE
8
BLACK
6
CONTINUOUS
10
8.3171892913385825
20
-3.5226949212598426
11
8.3085107480314964
21
-3.5291915748031495
0
LINE
8
BLACK
6
CONTINUOUS
10
8.3085107480314964
20
-3.5291915748031495
11
8.3008451181102352
21
-3.5368572047244093
0
LINE
8
BLACK
6
CONTINUOUS
10
8.3008451181102352
20
-3.5368572047244093
11
8.2943484645669283
21
-3.545535748031496
0
LINE
8
BLACK
6
CONTINUOUS
10
8.2943484645669283
20
-3.545535748031496
11
8.2891529921259846
21
-3.5550505511811021
0
LINE
8
BLACK
6
CONTINUOUS
10
8.2891529921259846
20
-3.5550505511811021
11
8.2853644881889768
21
-3.5652078740157478
0
LINE
8
BLACK
6
CONTINUOUS
10
8.2853644881889768
20
-3.5652078740157478
11
8.2830601181102352
21
-3.5758009448818897
0
LINE
8
BLACK
6
CONTINUOUS
10
8.2830601181102352
20
-3.5758009448818897
11
8.282286732283465
21
-3.5866141732283463
0
LINE
8
BLACK
6
CONTINUOUS
10
8.282286732283465
20
-3.5866141732283463
11
8.2830601181102352
21
-3.5974274015748029
0
LINE
8
BLACK
6
CONTINUOUS
10
8.6188278740157482
20
-3.5293661417322832
11
8.6280528740157472
21
-3.5325330708661418
0
LINE
8
BLACK
6
CONTINUOUS
10
8.6280528740157472
20
-3.5325330708661418
11
8.6366307874015753
21
-3.5371751968503937
0
LINE
8
BLACK
6
CONTINUOUS
10
8.6366307874015753
20
-3.5371751968503937
11
8.6443276377952749
21
-3.543165905511811
0
LINE
8
BLACK
6
CONTINUOUS
10
8.6443276377952749
20
-3.543165905511811
11
8.6509335039370079
21
-3.5503417716535433
0
LINE
8
BLACK
6
CONTINUOUS
10
8.6509335039370079
20
-3.5503417716535433
11
8.6562681496062996
21
-3.5585070472440945
0
LINE
8
BLACK
6
CONTINUOUS
10
8.6562681496062996
20
-3.5585070472440945
11
8.6601860629921266
21
-3.5674390157480316
0
LINE
8
BLACK
6
CONTINUOUS
10
8.6601860629921266
20
-3.5674390157480316
11
8.6625803937007877
21
-3.5768940157480316
0
LINE
8
BLACK
6
CONTINUOUS
10
8.6625803937007877
20
-3.5768940157480316
11
8.6633858267716537
21
-3.5866141732283463
0
LINE
8
BLACK
6
CONTINUOUS
10
8.6633858267716537
20
-3.5866141732283463
11
8.6625803937007877
21
-3.5963343307086615
0
LINE
8
BLACK
6
CONTINUOUS
10
8.6625803937007877
20
-3.5963343307086615
11
8.6601860629921266
21
-3.6057893307086615
0
LINE
8
BLACK
6
CONTINUOUS
10
8.6601860629921266
20
-3.6057893307086615
11
8.6562681496062996
21
-3.6147212992125985
0
LINE
8
BLACK
6
CONTINUOUS
10
8.6562681496062996
20
-3.6147212992125985
11
8.6509335039370079
21
-3.6228865748031494
0
LINE
8
BLACK
6
CONTINUOUS
10
8.6509335039370079
20
-3.6228865748031494
11
8.6443276377952749
21
-3.6300624409448816
0
LINE
8
BLACK
6
CONTINUOUS
10
8.6443276377952749
20
-3.6300624409448816
11
8.6366307874015753
21
-3.6360531496062993
0
LINE
8
BLACK
6
CONTINUOUS
10
8.6366307874015753
20
-3.6360531496062993
11
8.6280528740157472
21
-3.6406952755905513
0
LINE
8
BLACK
6
CONTINUOUS
10
8.6280528740157472
20
-3.6406952755905513
11
8.6188278740157482
21
-3.6438622047244094
0
LINE
8
BLACK
6
CONTINUOUS
10
8.6188278740157482
20
-3.6438622047244094
11
8.609207440944882
21
-3.645467598425197
0
LINE
8
BLACK
6
CONTINUOUS
10
8.609207440944882
20
-3.645467598425197
11
8.5994539763779532
21
-3.645467598425197
0
LINE
8
BLACK
6
CONTINUOUS
10
8.5994539763779532
20
-3.645467598425197
11
8.5898335433070869
21
-3.6438622047244094
0
LINE
8
BLACK
6
CONTINUOUS
10
8.5898335433070869
20
-3.6438622047244094
11
8.5806085433070862
21
-3.6406952755905513
0
LINE
8
BLACK
6
CONTINUOUS
10
8.5806085433070862
20
-3.6406952755905513
11
8.5720306299212599
21
-3.6360531496062993
0
LINE
8
BLACK
6
CONTINUOUS
10
8.5720306299212599
20
-3.6360531496062993
11
8.5643337795275585
21
-3.6300624409448816
0
LINE
8
BLACK
6
CONTINUOUS
10
8.5643337795275585
20
-3.6300624409448816
11
8.5577279133858273
21
-3.6228865748031494
0
LINE
8
BLACK
6
CONTINUOUS
10
8.5577279133858273
20
-3.6228865748031494
11
8.5523932677165355
21
-3.6147212992125985
0
LINE
8
BLACK
6
CONTINUOUS
10
8.5523932677165355
20
-3.6147212992125985
11
8.5484753543307086
21
-3.6057893307086615
0
LINE
8
BLACK
6
CONTINUOUS
10
8.5484753543307086
20
-3.6057893307086615
11
8.5460810236220475
21
-3.5963343307086615
0
LINE
8
BLACK
6
CONTINUOUS
10
8.5460810236220475
20
-3.5963343307086615
11
8.5452755905511815
21
-3.5866141732283463
0
LINE
8
BLACK
6
CONTINUOUS
10
8.5452755905511815
20
-3.5866141732283463
11
8.5460810236220475
21
-3.5768940157480316
0
LINE
8
BLACK
6
CONTINUOUS
10
8.5460810236220475
20
-3.5768940157480316
11
8.5484753543307086
21
-3.5674390157480316
0
LINE
8
BLACK
6
CONTINUOUS
10
8.5484753543307086
20
-3.5674390157480316
11
8.5523932677165355
21
-3.5585070472440945
0
LINE
8
BLACK
6
CONTINUOUS
10
8.5523932677165355
20
-3.5585070472440945
11
8.5577279133858273
21
-3.5503417716535433
0
LINE
8
BLACK
6
CONTINUOUS
10
8.5577279133858273
20
-3.5503417716535433
11
8.5643337795275585
21
-3.543165905511811
0
LINE
8
BLACK
6
CONTINUOUS
10
8.5643337795275585
20
-3.543165905511811
11
8.5720306299212599
21
-3.5371751968503937
0
LINE
8
BLACK
6
CONTINUOUS
10
8.5720306299212599
20
-3.5371751968503937
11
8.5806085433070862
21
-3.5325330708661418
0
LINE
8
BLACK
6
CONTINUOUS
10
8.5806085433070862
20
-3.5325330708661418
11
8.5898335433070869
21
-3.5293661417322832
0
LINE
8
BLACK
6
CONTINUOUS
10
8.5898335433070869
20
-3.5293661417322832
11
8.5994539763779532
21
-3.5277607480314961
0
LINE
8
BLACK
6
CONTINUOUS
10
8.5994539763779532
20
-3.5277607480314961
11
8.609207440944882
21
-3.5277607480314961
0
LINE
8
BLACK
6
CONTINUOUS
10
8.609207440944882
20
-3.5277607480314961
11
8.6188278740157482
21
-3.5293661417322832
0
LINE
8
BLACK
6
CONTINUOUS
10
8.6209516141732276
20
-3.5066299606299212
11
8.6316879921259844
21
-3.5096381496062992
0
LINE
8
BLACK
6
CONTINUOUS
10
8.6316879921259844
20
-3.5096381496062992
11
8.6419147637795266
21
-3.5140802362204724
0
LINE
8
BLACK
6
CONTINUOUS
10
8.6419147637795266
20
-3.5140802362204724
11
8.6514414173228342
21
-3.5198735039370077
0
LINE
8
BLACK
6
CONTINUOUS
10
8.6514414173228342
20
-3.5198735039370077
11
8.6600904724409453
21
-3.5269100393700787
0
LINE
8
BLACK
6
CONTINUOUS
10
8.6600904724409453
20
-3.5269100393700787
11
8.6677008267716538
21
-3.5350587795275588
0
LINE
8
BLACK
6
CONTINUOUS
10
8.6677008267716538
20
-3.5350587795275588
11
8.6741307086614174
21
-3.5441678346456693
0
LINE
8
BLACK
6
CONTINUOUS
10
8.6741307086614174
20
-3.5441678346456693
11
8.6792603543307081
21
-3.5540676377952756
0
LINE
8
BLACK
6
CONTINUOUS
10
8.6792603543307081
20
-3.5540676377952756
11
8.682994212598425
21
-3.5645737007874017
0
LINE
8
BLACK
6
CONTINUOUS
10
8.682994212598425
20
-3.5645737007874017
11
8.6852627165354335
21
-3.5754903149606299
0
LINE
8
BLACK
6
CONTINUOUS
10
8.6852627165354335
20
-3.5754903149606299
11
8.6860236220472444
21
-3.5866141732283463
0
LINE
8
BLACK
6
CONTINUOUS
10
8.6860236220472444
20
-3.5866141732283463
11
8.6852627165354335
21
-3.5977380314960627
0
LINE
8
BLACK
6
CONTINUOUS
10
8.6852627165354335
20
-3.5977380314960627
11
8.682994212598425
21
-3.6086546456692914
0
LINE
8
BLACK
6
CONTINUOUS
10
8.682994212598425
20
-3.6086546456692914
11
8.6792603543307081
21
-3.619160708661417
0
LINE
8
BLACK
6
CONTINUOUS
10
8.6792603543307081
20
-3.619160708661417
11
8.6741307086614174
21
-3.6290605118110237
0
LINE
8
BLACK
6
CONTINUOUS
10
8.6741307086614174
20
-3.6290605118110237
11
8.6677008267716538
21
-3.6381695669291338
0
LINE
8
BLACK
6
CONTINUOUS
10
8.6677008267716538
20
-3.6381695669291338
11
8.6600904724409453
21
-3.6463183070866143
0
LINE
8
BLACK
6
CONTINUOUS
10
8.6600904724409453
20
-3.6463183070866143
11
8.6514414173228342
21
-3.6533548425196849
0
LINE
8
BLACK
6
CONTINUOUS
10
8.6514414173228342
20
-3.6533548425196849
11
8.6419147637795266
21
-3.6591481102362202
0
LINE
8
BLACK
6
CONTINUOUS
10
8.6419147637795266
20
-3.6591481102362202
11
8.6316879921259844
21
-3.6635901968503934
0
LINE
8
BLACK
6
CONTINUOUS
10
8.6316879921259844
20
-3.6635901968503934
11
8.6209516141732276
21
-3.6665983858267714
0
LINE
8
BLACK
6
CONTINUOUS
10
8.6209516141732276
20
-3.6665983858267714
11
8.6099056299212595
21
-3.668116653543307
0
LINE
8
BLACK
6
CONTINUOUS
10
8.6099056299212595
20
-3.668116653543307
11
8.5987557874015739
21
-3.668116653543307
0
LINE
8
BLACK
6
CONTINUOUS
10
8.5987557874015739
20
-3.668116653543307
11
8.5877098031496057
21
-3.6665983858267714
0
LINE
8
BLACK
6
CONTINUOUS
10
8.5877098031496057
20
-3.6665983858267714
11
8.5769734251968508
21
-3.6635901968503934
0
LINE
8
BLACK
6
CONTINUOUS
10
8.5769734251968508
20
-3.6635901968503934
11
8.5667466535433068
21
-3.6591481102362202
0
LINE
8
BLACK
6
CONTINUOUS
10
8.5667466535433068
20
-3.6591481102362202
11
8.5572199999999992
21
-3.6533548425196849
0
LINE
8
BLACK
6
CONTINUOUS
10
8.5572199999999992
20
-3.6533548425196849
11
8.5485709448818898
21
-3.6463183070866143
0
LINE
8
BLACK
6
CONTINUOUS
10
8.5485709448818898
20
-3.6463183070866143
11
8.5409605905511814
21
-3.6381695669291338
0
LINE
8
BLACK
6
CONTINUOUS
10
8.5409605905511814
20
-3.6381695669291338
11
8.5345307086614177
21
-3.6290605118110237
0
LINE
8
BLACK
6
CONTINUOUS
10
8.5345307086614177
20
-3.6290605118110237
11
8.5294010629921253
21
-3.619160708661417
0
LINE
8
BLACK
6
CONTINUOUS
10
8.5294010629921253
20
-3.619160708661417
11
8.5256672047244084
21
-3.6086546456692914
0
LINE
8
BLACK
6
CONTINUOUS
10
8.5256672047244084
20
-3.6086546456692914
11
8.5233987007874017
21
-3.5977380314960627
0
LINE
8
BLACK
6
CONTINUOUS
10
8.5233987007874017
20
-3.5977380314960627
11
8.5226377952755907
21
-3.5866141732283463
0
LINE
8
BLACK
6
CONTINUOUS
10
8.5226377952755907
20
-3.5866141732283463
11
8.5233987007874017
21
-3.5754903149606299
0
LINE
8
BLACK
6
CONTINUOUS
10
8.5233987007874017
20
-3.5754903149606299
11
8.5256672047244084
21
-3.5645737007874017
0
LINE
8
BLACK
6
CONTINUOUS
10
8.5256672047244084
20
-3.5645737007874017
11
8.5294010629921253
21
-3.5540676377952756
0
LINE
8
BLACK
6
CONTINUOUS
10
8.5294010629921253
20
-3.5540676377952756
11
8.5345307086614177
21
-3.5441678346456693
0
LINE
8
BLACK
6
CONTINUOUS
10
8.5345307086614177
20
-3.5441678346456693
11
8.5409605905511814
21
-3.5350587795275588
0
LINE
8
BLACK
6
CONTINUOUS
10
8.5409605905511814
20
-3.5350587795275588
11
8.5485709448818898
21
-3.5269100393700787
0
LINE
8
BLACK
6
CONTINUOUS
10
8.5485709448818898
20
-3.5269100393700787
11
8.5572199999999992
21
-3.5198735039370077
0
LINE
8
BLACK
6
CONTINUOUS
10
8.5572199999999992
20
-3.5198735039370077
11
8.5667466535433068
21
-3.5140802362204724
0
LINE
8
BLACK
6
CONTINUOUS
10
8.5667466535433068
20
-3.5140802362204724
11
8.5769734251968508
21
-3.5096381496062992
0
LINE
8
BLACK
6
CONTINUOUS
10
8.5769734251968508
20
-3.5096381496062992
11
8.5877098031496057
21
-3.5066299606299212
0
LINE
8
BLACK
6
CONTINUOUS
10
8.5877098031496057
20
-3.5066299606299212
11
8.5987557874015739
21
-3.5051116929133856
0
LINE
8
BLACK
6
CONTINUOUS
10
8.5987557874015739
20
-3.5051116929133856
11
8.6099056299212595
21
-3.5051116929133856
0
LINE
8
BLACK
6
CONTINUOUS
10
8.6099056299212595
20
-3.5051116929133856
11
8.6209516141732276
21
-3.5066299606299212
0
LINE
8
BLACK
6
CONTINUOUS
10
8.5291231102362204
20
-3.5974274015748029
11
8.5314274803149601
21
-3.6080204724409448
0
LINE
8
BLACK
6
CONTINUOUS
10
8.5314274803149601
20
-3.6080204724409448
11
8.5352159842519679
21
-3.6181777952755905
0
LINE
8
BLACK
6
CONTINUOUS
10
8.5352159842519679
20
-3.6181777952755905
11
8.5404114566929135
21
-3.6276925984251966
0
LINE
8
BLACK
6
CONTINUOUS
10
8.5404114566929135
20
-3.6276925984251966
11
8.5469081102362203
21
-3.6363711417322833
0
LINE
8
BLACK
6
CONTINUOUS
10
8.5469081102362203
20
-3.6363711417322833
11
8.5545737401574797
21
-3.6440367716535431
0
LINE
8
BLACK
6
CONTINUOUS
10
8.5545737401574797
20
-3.6440367716535431
11
8.5632522834645659
21
-3.6505334251968504
0
LINE
8
BLACK
6
CONTINUOUS
10
8.5632522834645659
20
-3.6505334251968504
11
8.5727670866141725
21
-3.6557288976377951
0
LINE
8
BLACK
6
CONTINUOUS
10
8.5727670866141725
20
-3.6557288976377951
11
8.5829244094488182
21
-3.6595174015748029
0
LINE
8
BLACK
6
CONTINUOUS
10
8.5829244094488182
20
-3.6595174015748029
11
8.5935174803149597
21
-3.6618217716535431
0
LINE
8
BLACK
6
CONTINUOUS
10
8.5935174803149597
20
-3.6618217716535431
11
8.6043307086614167
21
-3.6625951574803151
0
LINE
8
BLACK
6
CONTINUOUS
10
8.6043307086614167
20
-3.6625951574803151
11
8.6151439370078737
21
-3.6618217716535431
0
LINE
8
BLACK
6
CONTINUOUS
10
8.6151439370078737
20
-3.6618217716535431
11
8.6257370078740152
21
-3.6595174015748029
0
LINE
8
BLACK
6
CONTINUOUS
10
8.6257370078740152
20
-3.6595174015748029
11
8.6358943307086609
21
-3.6557288976377951
0
LINE
8
BLACK
6
CONTINUOUS
10
8.6358943307086609
20
-3.6557288976377951
11
8.6454091338582675
21
-3.6505334251968504
0
LINE
8
BLACK
6
CONTINUOUS
10
8.6454091338582675
20
-3.6505334251968504
11
8.6540876771653537
21
-3.6440367716535431
0
LINE
8
BLACK
6
CONTINUOUS
10
8.6540876771653537
20
-3.6440367716535431
11
8.6617533070866148
21
-3.6363711417322833
0
LINE
8
BLACK
6
CONTINUOUS
10
8.6617533070866148
20
-3.6363711417322833
11
8.6682499606299217
21
-3.6276925984251966
0
LINE
8
BLACK
6
CONTINUOUS
10
8.6682499606299217
20
-3.6276925984251966
11
8.6734454330708655
21
-3.6181777952755905
0
LINE
8
BLACK
6
CONTINUOUS
10
8.6734454330708655
20
-3.6181777952755905
11
8.6772339370078733
21
-3.6080204724409448
0
LINE
8
BLACK
6
CONTINUOUS
10
8.6772339370078733
20
-3.6080204724409448
11
8.6795383070866148
21
-3.5974274015748029
0
LINE
8
BLACK
6
CONTINUOUS
10
8.6795383070866148
20
-3.5974274015748029
11
8.680311692913385
21
-3.5866141732283463
0
LINE
8
BLACK
6
CONTINUOUS
10
8.680311692913385
20
-3.5866141732283463
11
8.6795383070866148
21
-3.5758009448818897
0
LINE
8
BLACK
6
CONTINUOUS
10
8.6795383070866148
20
-3.5758009448818897
11
8.6772339370078733
21
-3.5652078740157478
0
LINE
8
BLACK
6
CONTINUOUS
10
8.6772339370078733
20
-3.5652078740157478
11
8.6734454330708655
21
-3.5550505511811021
0
LINE
8
BLACK
6
CONTINUOUS
10
8.6734454330708655
20
-3.5550505511811021
11
8.6682499606299217
21
-3.545535748031496
0
LINE
8
BLACK
6
CONTINUOUS
10
8.6682499606299217
20
-3.545535748031496
11
8.6617533070866148
21
-3.5368572047244093
0
LINE
8
BLACK
6
CONTINUOUS
10
8.6617533070866148
20
-3.5368572047244093
11
8.6540876771653537
21
-3.5291915748031495
0
LINE
8
BLACK
6
CONTINUOUS
10
8.6540876771653537
20
-3.5291915748031495
11
8.6454091338582675
21
-3.5226949212598426
0
LINE
8
BLACK
6
CONTINUOUS
10
8.6454091338582675
20
-3.5226949212598426
11
8.6358943307086609
21
-3.5174994488188975
0
LINE
8
BLACK
6
CONTINUOUS
10
8.6358943307086609
20
-3.5174994488188975
11
8.6257370078740152
21
-3.5137109448818897
0
LINE
8
BLACK
6
CONTINUOUS
10
8.6257370078740152
20
-3.5137109448818897
11
8.6151439370078737
21
-3.5114065748031495
0
LINE
8
BLACK
6
CONTINUOUS
10
8.6151439370078737
20
-3.5114065748031495
11
8.6043307086614167
21
-3.510633188976378
0
LINE
8
BLACK
6
CONTINUOUS
10
8.6043307086614167
20
-3.510633188976378
11
8.5935174803149597
21
-3.5114065748031495
0
LINE
8
BLACK
6
CONTINUOUS
10
8.5935174803149597
20
-3.5114065748031495
11
8.5829244094488182
21
-3.5137109448818897
0
LINE
8
BLACK
6
CONTINUOUS
10
8.5829244094488182
20
-3.5137109448818897
11
8.5727670866141725
21
-3.5174994488188975
0
LINE
8
BLACK
6
CONTINUOUS
10
8.5727670866141725
20
-3.5174994488188975
11
8.5632522834645659
21
-3.5226949212598426
0
LINE
8
BLACK
6
CONTINUOUS
10
8.5632522834645659
20
-3.5226949212598426
11
8.5545737401574797
21
-3.5291915748031495
0
LINE
8
BLACK
6
CONTINUOUS
10
8.5545737401574797
20
-3.5291915748031495
11
8.5469081102362203
21
-3.5368572047244093
0
LINE
8
BLACK
6
CONTINUOUS
10
8.5469081102362203
20
-3.5368572047244093
11
8.5404114566929135
21
-3.545535748031496
0
LINE
8
BLACK
6
CONTINUOUS
10
8.5404114566929135
20
-3.545535748031496
11
8.5352159842519679
21
-3.5550505511811021
0
LINE
8
BLACK
6
CONTINUOUS
10
8.5352159842519679
20
-3.5550505511811021
11
8.5314274803149601
21
-3.5652078740157478
0
LINE
8
BLACK
6
CONTINUOUS
10
8.5314274803149601
20
-3.5652078740157478
11
8.5291231102362204
21
-3.5758009448818897
0
LINE
8
BLACK
6
CONTINUOUS
10
8.5291231102362204
20
-3.5758009448818897
11
8.5283497244094484
21
-3.5866141732283463
0
LINE
8
BLACK
6
CONTINUOUS
10
8.5283497244094484
20
-3.5866141732283463
11
8.5291231102362204
21
-3.5974274015748029
0
LINE
8
BLACK
6
CONTINUOUS
10
8.1109538582677168
20
-3.5273976377952754
11
8.1201788582677157
21
-3.5305645669291339
0
LINE
8
BLACK
6
CONTINUOUS
10
8.1201788582677157
20
-3.5305645669291339
11
8.1287567716535438
21
-3.5352066929133859
0
LINE
8
BLACK
6
CONTINUOUS
10
8.1287567716535438
20
-3.5352066929133859
11
8.1364536220472434
21
-3.5411974015748031
0
LINE
8
BLACK
6
CONTINUOUS
10
8.1364536220472434
20
-3.5411974015748031
11
8.1430594881889764
21
-3.5483732677165354
0
LINE
8
BLACK
6
CONTINUOUS
10
8.1430594881889764
20
-3.5483732677165354
11
8.1483941338582682
21
-3.5565385433070866
0
LINE
8
BLACK
6
CONTINUOUS
10
8.1483941338582682
20
-3.5565385433070866
11
8.1523120472440951
21
-3.5654705118110237
0
LINE
8
BLACK
6
CONTINUOUS
10
8.1523120472440951
20
-3.5654705118110237
11
8.1547063779527562
21
-3.5749255118110237
0
LINE
8
BLACK
6
CONTINUOUS
10
8.1547063779527562
20
-3.5749255118110237
11
8.1555118110236222
21
-3.5846456692913384
0
LINE
8
BLACK
6
CONTINUOUS
10
8.1555118110236222
20
-3.5846456692913384
11
8.1547063779527562
21
-3.5943658267716536
0
LINE
8
BLACK
6
CONTINUOUS
10
8.1547063779527562
20
-3.5943658267716536
11
8.1523120472440951
21
-3.6038208267716536
0
LINE
8
BLACK
6
CONTINUOUS
10
8.1523120472440951
20
-3.6038208267716536
11
8.1483941338582682
21
-3.6127527952755907
0
LINE
8
BLACK
6
CONTINUOUS
10
8.1483941338582682
20
-3.6127527952755907
11
8.1430594881889764
21
-3.6209180708661415
0
LINE
8
BLACK
6
CONTINUOUS
10
8.1430594881889764
20
-3.6209180708661415
11
8.1364536220472434
21
-3.6280939370078737
0
LINE
8
BLACK
6
CONTINUOUS
10
8.1364536220472434
20
-3.6280939370078737
11
8.1287567716535438
21
-3.6340846456692915
0
LINE
8
BLACK
6
CONTINUOUS
10
8.1287567716535438
20
-3.6340846456692915
11
8.1201788582677157
21
-3.6387267716535434
0
LINE
8
BLACK
6
CONTINUOUS
10
8.1201788582677157
20
-3.6387267716535434
11
8.1109538582677168
21
-3.6418937007874015
0
LINE
8
BLACK
6
CONTINUOUS
10
8.1109538582677168
20
-3.6418937007874015
11
8.1013334251968505
21
-3.6434990944881891
0
LINE
8
BLACK
6
CONTINUOUS
10
8.1013334251968505
20
-3.6434990944881891
11
8.0915799606299217
21
-3.6434990944881891
0
LINE
8
BLACK
6
CONTINUOUS
10
8.0915799606299217
20
-3.6434990944881891
11
8.0819595275590554
21
-3.6418937007874015
0
LINE
8
BLACK
6
CONTINUOUS
10
8.0819595275590554
20
-3.6418937007874015
11
8.0727345275590547
21
-3.6387267716535434
0
LINE
8
BLACK
6
CONTINUOUS
10
8.0727345275590547
20
-3.6387267716535434
11
8.0641566141732284
21
-3.6340846456692915
0
LINE
8
BLACK
6
CONTINUOUS
10
8.0641566141732284
20
-3.6340846456692915
11
8.056459763779527
21
-3.6280939370078737
0
LINE
8
BLACK
6
CONTINUOUS
10
8.056459763779527
20
-3.6280939370078737
11
8.0498538976377958
21
-3.6209180708661415
0
LINE
8
BLACK
6
CONTINUOUS
10
8.0498538976377958
20
-3.6209180708661415
11
8.044519251968504
21
-3.6127527952755907
0
LINE
8
BLACK
6
CONTINUOUS
10
8.044519251968504
20
-3.6127527952755907
11
8.0406013385826771
21
-3.6038208267716536
0
LINE
8
BLACK
6
CONTINUOUS
10
8.0406013385826771
20
-3.6038208267716536
11
8.038207007874016
21
-3.5943658267716536
0
LINE
8
BLACK
6
CONTINUOUS
10
8.038207007874016
20
-3.5943658267716536
11
8.03740157480315
21
-3.5846456692913384
0
LINE
8
BLACK
6
CONTINUOUS
10
8.03740157480315
20
-3.5846456692913384
11
8.038207007874016
21
-3.5749255118110237
0
LINE
8
BLACK
6
CONTINUOUS
10
8.038207007874016
20
-3.5749255118110237
11
8.0406013385826771
21
-3.5654705118110237
0
LINE
8
BLACK
6
CONTINUOUS
10
8.0406013385826771
20
-3.5654705118110237
11
8.044519251968504
21
-3.5565385433070866
0
LINE
8
BLACK
6
CONTINUOUS
10
8.044519251968504
20
-3.5565385433070866
11
8.0498538976377958
21
-3.5483732677165354
0
LINE
8
BLACK
6
CONTINUOUS
10
8.0498538976377958
20
-3.5483732677165354
11
8.056459763779527
21
-3.5411974015748031
0
LINE
8
BLACK
6
CONTINUOUS
10
8.056459763779527
20
-3.5411974015748031
11
8.0641566141732284
21
-3.5352066929133859
0
LINE
8
BLACK
6
CONTINUOUS
10
8.0641566141732284
20
-3.5352066929133859
11
8.0727345275590547
21
-3.5305645669291339
0
LINE
8
BLACK
6
CONTINUOUS
10
8.0727345275590547
20
-3.5305645669291339
11
8.0819595275590554
21
-3.5273976377952754
0
LINE
8
BLACK
6
CONTINUOUS
10
8.0819595275590554
20
-3.5273976377952754
11
8.0915799606299217
21
-3.5257922440944882
0
LINE
8
BLACK
6
CONTINUOUS
10
8.0915799606299217
20
-3.5257922440944882
11
8.1013334251968505
21
-3.5257922440944882
0
LINE
8
BLACK
6
CONTINUOUS
10
8.1013334251968505
20
-3.5257922440944882
11
8.1109538582677168
21
-3.5273976377952754
0
LINE
8
BLACK
6
CONTINUOUS
10
8.1130775984251962
20
-3.5046614566929133
11
8.1238139763779529
21
-3.5076696456692913
0
LINE
8
BLACK
6
CONTINUOUS
10
8.1238139763779529
20
-3.5076696456692913
11
8.1340407480314951
21
-3.5121117322834645
0
LINE
8
BLACK
6
CONTINUOUS
10
8.1340407480314951
20
-3.5121117322834645
11
8.1435674015748027
21
-3.5179049999999998
0
LINE
8
BLACK
6
CONTINUOUS
10
8.1435674015748027
20
-3.5179049999999998
11
8.1522164566929138
21
-3.5249415354330709
0
LINE
8
BLACK
6
CONTINUOUS
10
8.1522164566929138
20
-3.5249415354330709
11
8.1598268110236223
21
-3.5330902755905509
0
LINE
8
BLACK
6
CONTINUOUS
10
8.1598268110236223
20
-3.5330902755905509
11
8.166256692913386
21
-3.5421993307086614
0
LINE
8
BLACK
6
CONTINUOUS
10
8.166256692913386
20
-3.5421993307086614
11
8.1713863385826766
21
-3.5520991338582677
0
LINE
8
BLACK
6
CONTINUOUS
10
8.1713863385826766
20
-3.5520991338582677
11
8.1751201968503935
21
-3.5626051968503938
0
LINE
8
BLACK
6
CONTINUOUS
10
8.1751201968503935
20
-3.5626051968503938
11
8.177388700787402
21
-3.573521811023622
0
LINE
8
BLACK
6
CONTINUOUS
10
8.177388700787402
20
-3.573521811023622
11
8.1781496062992129
21
-3.5846456692913384
0
LINE
8
BLACK
6
CONTINUOUS
10
8.1781496062992129
20
-3.5846456692913384
11
8.177388700787402
21
-3.5957695275590549
0
LINE
8
BLACK
6
CONTINUOUS
10
8.177388700787402
20
-3.5957695275590549
11
8.1751201968503935
21
-3.6066861417322835
0
LINE
8
BLACK
6
CONTINUOUS
10
8.1751201968503935
20
-3.6066861417322835
11
8.1713863385826766
21
-3.6171922047244092
0
LINE
8
BLACK
6
CONTINUOUS
10
8.1713863385826766
20
-3.6171922047244092
11
8.166256692913386
21
-3.6270920078740159
0
LINE
8
BLACK
6
CONTINUOUS
10
8.166256692913386
20
-3.6270920078740159
11
8.1598268110236223
21
-3.636201062992126
0
LINE
8
BLACK
6
CONTINUOUS
10
8.1598268110236223
20
-3.636201062992126
11
8.1522164566929138
21
-3.6443498031496064
0
LINE
8
BLACK
6
CONTINUOUS
10
8.1522164566929138
20
-3.6443498031496064
11
8.1435674015748027
21
-3.651386338582677
0
LINE
8
BLACK
6
CONTINUOUS
10
8.1435674015748027
20
-3.651386338582677
11
8.1340407480314951
21
-3.6571796062992123
0
LINE
8
BLACK
6
CONTINUOUS
10
8.1340407480314951
20
-3.6571796062992123
11
8.1238139763779529
21
-3.6616216929133856
0
LINE
8
BLACK
6
CONTINUOUS
10
8.1238139763779529
20
-3.6616216929133856
11
8.1130775984251962
21
-3.6646298818897636
0
LINE
8
BLACK
6
CONTINUOUS
10
8.1130775984251962
20
-3.6646298818897636
11
8.102031614173228
21
-3.6661481496062991
0
LINE
8
BLACK
6
CONTINUOUS
10
8.102031614173228
20
-3.6661481496062991
11
8.0908817716535424
21
-3.6661481496062991
0
LINE
8
BLACK
6
CONTINUOUS
10
8.0908817716535424
20
-3.6661481496062991
11
8.0798357874015743
21
-3.6646298818897636
0
LINE
8
BLACK
6
CONTINUOUS
10
8.0798357874015743
20
-3.6646298818897636
11
8.0690994094488193
21
-3.6616216929133856
0
LINE
8
BLACK
6
CONTINUOUS
10
8.0690994094488193
20
-3.6616216929133856
11
8.0588726377952753
21
-3.6571796062992123
0
LINE
8
BLACK
6
CONTINUOUS
10
8.0588726377952753
20
-3.6571796062992123
11
8.0493459842519677
21
-3.651386338582677
0
LINE
8
BLACK
6
CONTINUOUS
10
8.0493459842519677
20
-3.651386338582677
11
8.0406969291338584
21
-3.6443498031496064
0
LINE
8
BLACK
6
CONTINUOUS
10
8.0406969291338584
20
-3.6443498031496064
11
8.0330865748031499
21
-3.636201062992126
0
LINE
8
BLACK
6
CONTINUOUS
10
8.0330865748031499
20
-3.636201062992126
11
8.0266566929133862
21
-3.6270920078740159
0
LINE
8
BLACK
6
CONTINUOUS
10
8.0266566929133862
20
-3.6270920078740159
11
8.0215270472440938
21
-3.6171922047244092
0
LINE
8
BLACK
6
CONTINUOUS
10
8.0215270472440938
20
-3.6171922047244092
11
8.0177931889763769
21
-3.6066861417322835
0
LINE
8
BLACK
6
CONTINUOUS
10
8.0177931889763769
20
-3.6066861417322835
11
8.0155246850393702
21
-3.5957695275590549
0
LINE
8
BLACK
6
CONTINUOUS
10
8.0155246850393702
20
-3.5957695275590549
11
8.0147637795275593
21
-3.5846456692913384
0
LINE
8
BLACK
6
CONTINUOUS
10
8.0147637795275593
20
-3.5846456692913384
11
8.0155246850393702
21
-3.573521811023622
0
LINE
8
BLACK
6
CONTINUOUS
10
8.0155246850393702
20
-3.573521811023622
11
8.0177931889763769
21
-3.5626051968503938
0
LINE
8
BLACK
6
CONTINUOUS
10
8.0177931889763769
20
-3.5626051968503938
11
8.0215270472440938
21
-3.5520991338582677
0
LINE
8
BLACK
6
CONTINUOUS
10
8.0215270472440938
20
-3.5520991338582677
11
8.0266566929133862
21
-3.5421993307086614
0
LINE
8
BLACK
6
CONTINUOUS
10
8.0266566929133862
20
-3.5421993307086614
11
8.0330865748031499
21
-3.5330902755905509
0
LINE
8
BLACK
6
CONTINUOUS
10
8.0330865748031499
20
-3.5330902755905509
11
8.0406969291338584
21
-3.5249415354330709
0
LINE
8
BLACK
6
CONTINUOUS
10
8.0406969291338584
20
-3.5249415354330709
11
8.0493459842519677
21
-3.5179049999999998
0
LINE
8
BLACK
6
CONTINUOUS
10
8.0493459842519677
20
-3.5179049999999998
11
8.0588726377952753
21
-3.5121117322834645
0
LINE
8
BLACK
6
CONTINUOUS
10
8.0588726377952753
20
-3.5121117322834645
11
8.0690994094488193
21
-3.5076696456692913
0
LINE
8
BLACK
6
CONTINUOUS
10
8.0690994094488193
20
-3.5076696456692913
11
8.0798357874015743
21
-3.5046614566929133
0
LINE
8
BLACK
6
CONTINUOUS
10
8.0798357874015743
20
-3.5046614566929133
11
8.0908817716535424
21
-3.5031431889763778
0
LINE
8
BLACK
6
CONTINUOUS
10
8.0908817716535424
20
-3.5031431889763778
11
8.102031614173228
21
-3.5031431889763778
0
LINE
8
BLACK
6
CONTINUOUS
10
8.102031614173228
20
-3.5031431889763778
11
8.1130775984251962
21
-3.5046614566929133
0
LINE
8
BLACK
6
CONTINUOUS
10
8.0212490944881889
20
-3.595458897637795
11
8.0235534645669286
21
-3.6060519685039369
0
LINE
8
BLACK
6
CONTINUOUS
10
8.0235534645669286
20
-3.6060519685039369
11
8.0273419685039364
21
-3.6162092913385826
0
LINE
8
BLACK
6
CONTINUOUS
10
8.0273419685039364
20
-3.6162092913385826
11
8.032537440944882
21
-3.6257240944881888
0
LINE
8
BLACK
6
CONTINUOUS
10
8.032537440944882
20
-3.6257240944881888
11
8.0390340944881888
21
-3.6344026377952754
0
LINE
8
BLACK
6
CONTINUOUS
10
8.0390340944881888
20
-3.6344026377952754
11
8.0466997244094483
21
-3.6420682677165352
0
LINE
8
BLACK
6
CONTINUOUS
10
8.0466997244094483
20
-3.6420682677165352
11
8.0553782677165344
21
-3.6485649212598426
0
LINE
8
BLACK
6
CONTINUOUS
10
8.0553782677165344
20
-3.6485649212598426
11
8.064893070866141
21
-3.6537603937007872
0
LINE
8
BLACK
6
CONTINUOUS
10
8.064893070866141
20
-3.6537603937007872
11
8.0750503937007867
21
-3.657548897637795
0
LINE
8
BLACK
6
CONTINUOUS
10
8.0750503937007867
20
-3.657548897637795
11
8.0856434645669282
21
-3.6598532677165352
0
LINE
8
BLACK
6
CONTINUOUS
10
8.0856434645669282
20
-3.6598532677165352
11
8.0964566929133852
21
-3.6606266535433072
0
LINE
8
BLACK
6
CONTINUOUS
10
8.0964566929133852
20
-3.6606266535433072
11
8.1072699212598422
21
-3.6598532677165352
0
LINE
8
BLACK
6
CONTINUOUS
10
8.1072699212598422
20
-3.6598532677165352
11
8.1178629921259837
21
-3.657548897637795
0
LINE
8
BLACK
6
CONTINUOUS
10
8.1178629921259837
20
-3.657548897637795
11
8.1280203149606294
21
-3.6537603937007872
0
LINE
8
BLACK
6
CONTINUOUS
10
8.1280203149606294
20
-3.6537603937007872
11
8.137535118110236
21
-3.6485649212598426
0
LINE
8
BLACK
6
CONTINUOUS
10
8.137535118110236
20
-3.6485649212598426
11
8.1462136614173222
21
-3.6420682677165352
0
LINE
8
BLACK
6
CONTINUOUS
10
8.1462136614173222
20
-3.6420682677165352
11
8.1538792913385834
21
-3.6344026377952754
0
LINE
8
BLACK
6
CONTINUOUS
10
8.1538792913385834
20
-3.6344026377952754
11
8.1603759448818902
21
-3.6257240944881888
0
LINE
8
BLACK
6
CONTINUOUS
10
8.1603759448818902
20
-3.6257240944881888
11
8.165571417322834
21
-3.6162092913385826
0
LINE
8
BLACK
6
CONTINUOUS
10
8.165571417322834
20
-3.6162092913385826
11
8.1693599212598418
21
-3.6060519685039369
0
LINE
8
BLACK
6
CONTINUOUS
10
8.1693599212598418
20
-3.6060519685039369
11
8.1716642913385833
21
-3.595458897637795
0
LINE
8
BLACK
6
CONTINUOUS
10
8.1716642913385833
20
-3.595458897637795
11
8.1724376771653535
21
-3.5846456692913384
0
LINE
8
BLACK
6
CONTINUOUS
10
8.1724376771653535
20
-3.5846456692913384
11
8.1716642913385833
21
-3.5738324409448818
0
LINE
8
BLACK
6
CONTINUOUS
10
8.1716642913385833
20
-3.5738324409448818
11
8.1693599212598418
21
-3.5632393700787399
0
LINE
8
BLACK
6
CONTINUOUS
10
8.1693599212598418
20
-3.5632393700787399
11
8.165571417322834
21
-3.5530820472440943
0
LINE
8
BLACK
6
CONTINUOUS
10
8.165571417322834
20
-3.5530820472440943
11
8.1603759448818902
21
-3.5435672440944881
0
LINE
8
BLACK
6
CONTINUOUS
10
8.1603759448818902
20
-3.5435672440944881
11
8.1538792913385834
21
-3.5348887007874015
0
LINE
8
BLACK
6
CONTINUOUS
10
8.1538792913385834
20
-3.5348887007874015
11
8.1462136614173222
21
-3.5272230708661416
0
LINE
8
BLACK
6
CONTINUOUS
10
8.1462136614173222
20
-3.5272230708661416
11
8.137535118110236
21
-3.5207264173228348
0
LINE
8
BLACK
6
CONTINUOUS
10
8.137535118110236
20
-3.5207264173228348
11
8.1280203149606294
21
-3.5155309448818897
0
LINE
8
BLACK
6
CONTINUOUS
10
8.1280203149606294
20
-3.5155309448818897
11
8.1178629921259837
21
-3.5117424409448819
0
LINE
8
BLACK
6
CONTINUOUS
10
8.1178629921259837
20
-3.5117424409448819
11
8.1072699212598422
21
-3.5094380708661417
0
LINE
8
BLACK
6
CONTINUOUS
10
8.1072699212598422
20
-3.5094380708661417
11
8.0964566929133852
21
-3.5086646850393701
0
LINE
8
BLACK
6
CONTINUOUS
10
8.0964566929133852
20
-3.5086646850393701
11
8.0856434645669282
21
-3.5094380708661417
0
LINE
8
BLACK
6
CONTINUOUS
10
8.0856434645669282
20
-3.5094380708661417
11
8.0750503937007867
21
-3.5117424409448819
0
LINE
8
BLACK
6
CONTINUOUS
10
8.0750503937007867
20
-3.5117424409448819
11
8.064893070866141
21
-3.5155309448818897
0
LINE
8
BLACK
6
CONTINUOUS
10
8.064893070866141
20
-3.5155309448818897
11
8.0553782677165344
21
-3.5207264173228348
0
LINE
8
BLACK
6
CONTINUOUS
10
8.0553782677165344
20
-3.5207264173228348
11
8.0466997244094483
21
-3.5272230708661416
0
LINE
8
BLACK
6
CONTINUOUS
10
8.0466997244094483
20
-3.5272230708661416
11
8.0390340944881888
21
-3.5348887007874015
0
LINE
8
BLACK
6
CONTINUOUS
10
8.0390340944881888
20
-3.5348887007874015
11
8.032537440944882
21
-3.5435672440944881
0
LINE
8
BLACK
6
CONTINUOUS
10
8.032537440944882
20
-3.5435672440944881
11
8.0273419685039364
21
-3.5530820472440943
0
LINE
8
BLACK
6
CONTINUOUS
10
8.0273419685039364
20
-3.5530820472440943
11
8.0235534645669286
21
-3.5632393700787399
0
LINE
8
BLACK
6
CONTINUOUS
10
8.0235534645669286
20
-3.5632393700787399
11
8.0212490944881889
21
-3.5738324409448818
0
LINE
8
BLACK
6
CONTINUOUS
10
8.0212490944881889
20
-3.5738324409448818
11
8.0204757086614169
21
-3.5846456692913384
0
LINE
8
BLACK
6
CONTINUOUS
10
8.0204757086614169
20
-3.5846456692913384
11
8.0212490944881889
21
-3.595458897637795
0
LINE
8
BLACK
6
CONTINUOUS
10
9.07271559055118
20
-3.4778192913385828
11
9.0734064173228344
21
-3.4797172834645669
0
LINE
8
BLACK
6
CONTINUOUS
10
9.0734064173228344
20
-3.4797172834645669
11
9.0734064173228344
21
-3.5190873622047243
0
LINE
8
BLACK
6
CONTINUOUS
10
9.0734064173228344
20
-3.5190873622047243
11
9.073228346456693
21
-3.5200972834645667
0
LINE
8
BLACK
6
CONTINUOUS
10
9.073228346456693
20
-3.5200972834645667
11
9.0719300393700788
21
-3.5216445275590549
0
LINE
8
BLACK
6
CONTINUOUS
10
9.0719300393700788
20
-3.5216445275590549
11
9.0699409055118103
21
-3.5219952755905513
0
LINE
8
BLACK
6
CONTINUOUS
10
9.0699409055118103
20
-3.5219952755905513
11
9.0681917322834646
21
-3.5209853543307084
0
LINE
8
BLACK
6
CONTINUOUS
10
9.0681917322834646
20
-3.5209853543307084
11
9.0675009055118103
21
-3.5190873622047243
0
LINE
8
BLACK
6
CONTINUOUS
10
9.0675009055118103
20
-3.5190873622047243
11
9.0675009055118103
21
-3.5014176771653545
0
LINE
8
BLACK
6
CONTINUOUS
10
9.0675009055118103
20
-3.5014176771653545
11
9.0509092519685037
21
-3.5014176771653545
0
LINE
8
BLACK
6
CONTINUOUS
10
9.0509092519685037
20
-3.5014176771653545
11
9.0509092519685037
21
-3.5190873622047243
0
LINE
8
BLACK
6
CONTINUOUS
10
9.0509092519685037
20
-3.5190873622047243
11
9.0507311811023623
21
-3.5200972834645667
0
LINE
8
BLACK
6
CONTINUOUS
10
9.0507311811023623
20
-3.5200972834645667
11
9.0494328740157481
21
-3.5216445275590549
0
LINE
8
BLACK
6
CONTINUOUS
10
9.0494328740157481
20
-3.5216445275590549
11
9.0474437401574797
21
-3.5219952755905513
0
LINE
8
BLACK
6
CONTINUOUS
10
9.0474437401574797
20
-3.5219952755905513
11
9.045694566929134
21
-3.5209853543307084
0
LINE
8
BLACK
6
CONTINUOUS
10
9.045694566929134
20
-3.5209853543307084
11
9.0450037401574797
21
-3.5190873622047243
0
LINE
8
BLACK
6
CONTINUOUS
10
9.0450037401574797
20
-3.5190873622047243
11
9.0450037401574797
21
-3.4797172834645669
0
LINE
8
BLACK
6
CONTINUOUS
10
9.0450037401574797
20
-3.4797172834645669
11
9.0451818110236211
21
-3.4787073622047244
0
LINE
8
BLACK
6
CONTINUOUS
10
9.0451818110236211
20
-3.4787073622047244
11
9.0464801181102352
21
-3.4771601181102363
0
LINE
8
BLACK
6
CONTINUOUS
10
9.0464801181102352
20
-3.4771601181102363
11
9.0484692519685037
21
-3.4768093700787399
0
LINE
8
BLACK
6
CONTINUOUS
10
9.0484692519685037
20
-3.4768093700787399
11
9.0502184251968494
21
-3.4778192913385828
0
LINE
8
BLACK
6
CONTINUOUS
10
9.0502184251968494
20
-3.4778192913385828
11
9.0509092519685037
21
-3.4797172834645669
0
LINE
8
BLACK
6
CONTINUOUS
10
9.0509092519685037
20
-3.4797172834645669
11
9.0509092519685037
21
-3.4955121653543308
0
LINE
8
BLACK
6
CONTINUOUS
10
9.0509092519685037
20
-3.4955121653543308
11
9.0675009055118103
21
-3.4955121653543308
0
LINE
8
BLACK
6
CONTINUOUS
10
9.0675009055118103
20
-3.4955121653543308
11
9.0675009055118103
21
-3.4797172834645669
0
LINE
8
BLACK
6
CONTINUOUS
10
9.0675009055118103
20
-3.4797172834645669
11
9.0676789763779517
21
-3.4787073622047244
0
LINE
8
BLACK
6
CONTINUOUS
10
9.0676789763779517
20
-3.4787073622047244
11
9.0689772834645659
21
-3.4771601181102363
0
LINE
8
BLACK
6
CONTINUOUS
10
9.0689772834645659
20
-3.4771601181102363
11
9.0709664173228344
21
-3.4768093700787399
0
LINE
8
BLACK
6
CONTINUOUS
10
9.0709664173228344
20
-3.4768093700787399
11
9.07271559055118
21
-3.4778192913385828
0
LINE
8
BLACK
6
CONTINUOUS
10
9.0981063779527549
20
-3.4752459842519685
11
9.0994464566929132
21
-3.4767572440944883
0
LINE
8
BLACK
6
CONTINUOUS
10
9.0994464566929132
20
-3.4767572440944883
11
9.0995016141732279
21
-3.4787762992125986
0
LINE
8
BLACK
6
CONTINUOUS
10
9.0995016141732279
20
-3.4787762992125986
11
9.0914233070866146
21
-3.5030112204724411
0
LINE
8
BLACK
6
CONTINUOUS
10
9.0914233070866146
20
-3.5030112204724411
11
9.1031214566929126
21
-3.5030112204724411
0
LINE
8
BLACK
6
CONTINUOUS
10
9.1031214566929126
20
-3.5030112204724411
11
9.1031214566929126
21
-3.4928406299212598
0
LINE
8
BLACK
6
CONTINUOUS
10
9.1031214566929126
20
-3.4928406299212598
11
9.103299527559054
21
-3.4918307086614173
0
LINE
8
BLACK
6
CONTINUOUS
10
9.103299527559054
20
-3.4918307086614173
11
9.10459783464567
21
-3.4902834645669292
0
LINE
8
BLACK
6
CONTINUOUS
10
9.10459783464567
20
-3.4902834645669292
11
9.1065869685039367
21
-3.4899327165354328
0
LINE
8
BLACK
6
CONTINUOUS
10
9.1065869685039367
20
-3.4899327165354328
11
9.1083361417322841
21
-3.4909426377952757
0
LINE
8
BLACK
6
CONTINUOUS
10
9.1083361417322841
20
-3.4909426377952757
11
9.1090269685039367
21
-3.4928406299212598
0
LINE
8
BLACK
6
CONTINUOUS
10
9.1090269685039367
20
-3.4928406299212598
11
9.1090269685039367
21
-3.5030112204724411
0
LINE
8
BLACK
6
CONTINUOUS
10
9.1090269685039367
20
-3.5030112204724411
11
9.1116985039370082
21
-3.5030112204724411
0
LINE
8
BLACK
6
CONTINUOUS
10
9.1116985039370082
20
-3.5030112204724411
11
9.1127084251968498
21
-3.5031892913385825
0
LINE
8
BLACK
6
CONTINUOUS
10
9.1127084251968498
20
-3.5031892913385825
11
9.1142556692913388
21
-3.5044875984251966
0
LINE
8
BLACK
6
CONTINUOUS
10
9.1142556692913388
20
-3.5044875984251966
11
9.1146064173228343
21
-3.5064767322834647
0
LINE
8
BLACK
6
CONTINUOUS
10
9.1146064173228343
20
-3.5064767322834647
11
9.1135964960629927
21
-3.5082259055118108
0
LINE
8
BLACK
6
CONTINUOUS
10
9.1135964960629927
20
-3.5082259055118108
11
9.1116985039370082
21
-3.5089167322834647
0
LINE
8
BLACK
6
CONTINUOUS
10
9.1116985039370082
20
-3.5089167322834647
11
9.1090269685039367
21
-3.5089167322834647
0
LINE
8
BLACK
6
CONTINUOUS
10
9.1090269685039367
20
-3.5089167322834647
11
9.1090269685039367
21
-3.5190873622047243
0
LINE
8
BLACK
6
CONTINUOUS
10
9.1090269685039367
20
-3.5190873622047243
11
9.1088488976377953
21
-3.5200972834645667
0
LINE
8
BLACK
6
CONTINUOUS
10
9.1088488976377953
20
-3.5200972834645667
11
9.1075505905511811
21
-3.5216445275590549
0
LINE
8
BLACK
6
CONTINUOUS
10
9.1075505905511811
20
-3.5216445275590549
11
9.1055614566929126
21
-3.5219952755905513
0
LINE
8
BLACK
6
CONTINUOUS
10
9.1055614566929126
20
-3.5219952755905513
11
9.1038122834645669
21
-3.5209853543307084
0
LINE
8
BLACK
6
CONTINUOUS
10
9.1038122834645669
20
-3.5209853543307084
11
9.1031214566929126
21
-3.5190873622047243
0
LINE
8
BLACK
6
CONTINUOUS
10
9.1031214566929126
20
-3.5190873622047243
11
9.1031214566929126
21
-3.5089167322834647
0
LINE
8
BLACK
6
CONTINUOUS
10
9.1031214566929126
20
-3.5089167322834647
11
9.08732657480315
21
-3.5089167322834647
0
LINE
8
BLACK
6
CONTINUOUS
10
9.08732657480315
20
-3.5089167322834647
11
9.0863166535433066
21
-3.5087386614173228
0
LINE
8
BLACK
6
CONTINUOUS
10
9.0863166535433066
20
-3.5087386614173228
11
9.0861437795275588
21
-3.5085935826771655
0
LINE
8
BLACK
6
CONTINUOUS
10
9.0861437795275588
20
-3.5085935826771655
11
9.0859205511811023
21
-3.5085605118110235
0
LINE
8
BLACK
6
CONTINUOUS
10
9.0859205511811023
20
-3.5085605118110235
11
9.08538622047244
21
-3.5079579133858267
0
LINE
8
BLACK
6
CONTINUOUS
10
9.08538622047244
20
-3.5079579133858267
11
9.0847694094488194
21
-3.5074403543307087
0
LINE
8
BLACK
6
CONTINUOUS
10
9.0847694094488194
20
-3.5074403543307087
11
9.0847301968503942
21
-3.5072181102362205
0
LINE
8
BLACK
6
CONTINUOUS
10
9.0847301968503942
20
-3.5072181102362205
11
9.0845805118110228
21
-3.5070492913385825
0
LINE
8
BLACK
6
CONTINUOUS
10
9.0845805118110228
20
-3.5070492913385825
11
9.0845585039370071
21
-3.5062443700787402
0
LINE
8
BLACK
6
CONTINUOUS
10
9.0845585039370071
20
-3.5062443700787402
11
9.0844186614173221
21
-3.5054512204724411
0
LINE
8
BLACK
6
CONTINUOUS
10
9.0844186614173221
20
-3.5054512204724411
11
9.0845314960629917
21
-3.5052557480314959
0
LINE
8
BLACK
6
CONTINUOUS
10
9.0845314960629917
20
-3.5052557480314959
11
9.0845253543307081
21
-3.5050302362204722
0
LINE
8
BLACK
6
CONTINUOUS
10
9.0845253543307081
20
-3.5050302362204722
11
9.0938991732283458
21
-3.4769087795275588
0
LINE
8
BLACK
6
CONTINUOUS
10
9.0938991732283458
20
-3.4769087795275588
11
9.0943874409448817
21
-3.4760070078740157
0
LINE
8
BLACK
6
CONTINUOUS
10
9.0943874409448817
20
-3.4760070078740157
11
9.0961084251968494
21
-3.4749497244094489
0
LINE
8
BLACK
6
CONTINUOUS
10
9.0961084251968494
20
-3.4749497244094489
11
9.0981063779527549
21
-3.4752459842519685
0
LINE
8
BLACK
6
CONTINUOUS
10
9.1387448425196851
20
-3.2951421259842517
11
9.1394356692913377
21
-3.2970401181102362
0
LINE
8
BLACK
6
CONTINUOUS
10
9.1394356692913377
20
-3.2970401181102362
11
9.1394356692913377
21
-3.3251615748031496
0
LINE
8
BLACK
6
CONTINUOUS
10
9.1394356692913377
20
-3.3251615748031496
11
9.1392823622047246
21
-3.3260309448818899
0
LINE
8
BLACK
6
CONTINUOUS
10
9.1392823622047246
20
-3.3260309448818899
11
9.1392841338582667
21
-3.3260953543307088
0
LINE
8
BLACK
6
CONTINUOUS
10
9.1392841338582667
20
-3.3260953543307088
11
9.1374093700787391
21
-3.3317196062992127
0
LINE
8
BLACK
6
CONTINUOUS
10
9.1374093700787391
20
-3.3317196062992127
11
9.1369210629921263
21
-3.3326213779527558
0
LINE
8
BLACK
6
CONTINUOUS
10
9.1369210629921263
20
-3.3326213779527558
11
9.1367706692913391
21
-3.3327137401574802
0
LINE
8
BLACK
6
CONTINUOUS
10
9.1367706692913391
20
-3.3327137401574802
11
9.1366961023622046
21
-3.3328737401574804
0
LINE
8
BLACK
6
CONTINUOUS
10
9.1366961023622046
20
-3.3328737401574804
11
9.1329465354330708
21
-3.336623346456693
0
LINE
8
BLACK
6
CONTINUOUS
10
9.1329465354330708
20
-3.336623346456693
11
9.1321064960629919
21
-3.3372115354330707
0
LINE
8
BLACK
6
CONTINUOUS
10
9.1321064960629919
20
-3.3372115354330707
11
9.1319306299212588
21
-3.3372268897637793
0
LINE
8
BLACK
6
CONTINUOUS
10
9.1319306299212588
20
-3.3372268897637793
11
9.1317923622047239
21
-3.3373366535433071
0
LINE
8
BLACK
6
CONTINUOUS
10
9.1317923622047239
20
-3.3373366535433071
11
9.1261680708661412
21
-3.3392114173228347
0
LINE
8
BLACK
6
CONTINUOUS
10
9.1261680708661412
20
-3.3392114173228347
11
9.1252948818897632
21
-3.3393408661417321
0
LINE
8
BLACK
6
CONTINUOUS
10
9.1252948818897632
20
-3.3393408661417321
11
9.1252343307086612
21
-3.3393629527559052
0
LINE
8
BLACK
6
CONTINUOUS
10
9.1252343307086612
20
-3.3393629527559052
11
9.1214848031496061
21
-3.3393629527559052
0
LINE
8
BLACK
6
CONTINUOUS
10
9.1214848031496061
20
-3.3393629527559052
11
9.1204748818897627
21
-3.3391848818897638
0
LINE
8
BLACK
6
CONTINUOUS
10
9.1204748818897627
20
-3.3391848818897638
11
9.1189276377952755
21
-3.3378865748031497
0
LINE
8
BLACK
6
CONTINUOUS
10
9.1189276377952755
20
-3.3378865748031497
11
9.11857688976378
21
-3.3358974409448816
0
LINE
8
BLACK
6
CONTINUOUS
10
9.11857688976378
20
-3.3358974409448816
11
9.1195868110236216
21
-3.3341482677165355
0
LINE
8
BLACK
6
CONTINUOUS
10
9.1195868110236216
20
-3.3341482677165355
11
9.1214848031496061
21
-3.3334574409448816
0
LINE
8
BLACK
6
CONTINUOUS
10
9.1214848031496061
20
-3.3334574409448816
11
9.1247551968503942
21
-3.3334574409448816
0
LINE
8
BLACK
6
CONTINUOUS
10
9.1247551968503942
20
-3.3334574409448816
11
9.1292635826771651
21
-3.3319546062992127
0
LINE
8
BLACK
6
CONTINUOUS
10
9.1292635826771651
20
-3.3319546062992127
11
9.1320273228346451
21
-3.3291908267716535
0
LINE
8
BLACK
6
CONTINUOUS
10
9.1320273228346451
20
-3.3291908267716535
11
9.1335301574803154
21
-3.3246824409448816
0
LINE
8
BLACK
6
CONTINUOUS
10
9.1335301574803154
20
-3.3246824409448816
11
9.1335301574803154
21
-3.2970401181102362
0
LINE
8
BLACK
6
CONTINUOUS
10
9.1335301574803154
20
-3.2970401181102362
11
9.1337082283464568
21
-3.2960301968503938
0
LINE
8
BLACK
6
CONTINUOUS
10
9.1337082283464568
20
-3.2960301968503938
11
9.135006535433071
21
-3.2944829527559056
0
LINE
8
BLACK
6
CONTINUOUS
10
9.135006535433071
20
-3.2944829527559056
11
9.1369956692913377
21
-3.2941322047244093
0
LINE
8
BLACK
6
CONTINUOUS
10
9.1369956692913377
20
-3.2941322047244093
11
9.1387448425196851
21
-3.2951421259842517
0
LINE
8
BLACK
6
CONTINUOUS
10
9.169363858267717
20
-3.2942654330708661
11
9.169499094488188
21
-3.2943788976377952
0
LINE
8
BLACK
6
CONTINUOUS
10
9.169499094488188
20
-3.2943788976377952
11
9.1696744488188973
21
-3.2943990944881887
0
LINE
8
BLACK
6
CONTINUOUS
10
9.1696744488188973
20
-3.2943990944881887
11
9.1734239763779524
21
-3.2962738582677162
0
LINE
8
BLACK
6
CONTINUOUS
10
9.1734239763779524
20
-3.2962738582677162
11
9.1741330314960621
21
-3.2967997637795277
0
LINE
8
BLACK
6
CONTINUOUS
10
9.1741330314960621
20
-3.2967997637795277
11
9.1741913779527557
21
-3.2968269685039369
0
LINE
8
BLACK
6
CONTINUOUS
10
9.1741913779527557
20
-3.2968269685039369
11
9.1760661417322833
21
-3.2987017322834644
0
LINE
8
BLACK
6
CONTINUOUS
10
9.1760661417322833
20
-3.2987017322834644
11
9.1765724015748038
21
-3.2994248031496061
0
LINE
8
BLACK
6
CONTINUOUS
10
9.1765724015748038
20
-3.2994248031496061
11
9.1766192519685035
21
-3.2994691338582678
0
LINE
8
BLACK
6
CONTINUOUS
10
9.1766192519685035
20
-3.2994691338582678
11
9.178494015748031
21
-3.3032186614173229
0
LINE
8
BLACK
6
CONTINUOUS
10
9.178494015748031
20
-3.3032186614173229
11
9.1787863779527559
21
-3.3042015748031495
0
LINE
8
BLACK
6
CONTINUOUS
10
9.1787863779527559
20
-3.3042015748031495
11
9.178745354330708
21
-3.3043732677165352
0
LINE
8
BLACK
6
CONTINUOUS
10
9.178745354330708
20
-3.3043732677165352
11
9.1788057480314951
21
-3.3045391732283464
0
LINE
8
BLACK
6
CONTINUOUS
10
9.1788057480314951
20
-3.3045391732283464
11
9.1788057480314951
21
-3.3082887007874016
0
LINE
8
BLACK
6
CONTINUOUS
10
9.1788057480314951
20
-3.3082887007874016
11
9.178652440944882
21
-3.3091580708661414
0
LINE
8
BLACK
6
CONTINUOUS
10
9.178652440944882
20
-3.3091580708661414
11
9.1786542125984258
21
-3.3092224803149604
0
LINE
8
BLACK
6
CONTINUOUS
10
9.1786542125984258
20
-3.3092224803149604
11
9.1767794488188983
21
-3.3148467322834643
0
LINE
8
BLACK
6
CONTINUOUS
10
9.1767794488188983
20
-3.3148467322834643
11
9.1762911417322837
21
-3.3157485039370078
0
LINE
8
BLACK
6
CONTINUOUS
10
9.1762911417322837
20
-3.3157485039370078
11
9.1761407480314965
21
-3.3158408661417322
0
LINE
8
BLACK
6
CONTINUOUS
10
9.1761407480314965
20
-3.3158408661417322
11
9.1760661417322833
21
-3.3160009055118111
0
LINE
8
BLACK
6
CONTINUOUS
10
9.1760661417322833
20
-3.3160009055118111
11
9.1586096456692907
21
-3.3334574409448816
0
LINE
8
BLACK
6
CONTINUOUS
10
9.1586096456692907
20
-3.3334574409448816
11
9.1758529921259839
21
-3.3334574409448816
0
LINE
8
BLACK
6
CONTINUOUS
10
9.1758529921259839
20
-3.3334574409448816
11
9.1768629133858273
21
-3.3336355118110235
0
LINE
8
BLACK
6
CONTINUOUS
10
9.1768629133858273
20
-3.3336355118110235
11
9.1784101574803145
21
-3.3349338188976376
0
LINE
8
BLACK
6
CONTINUOUS
10
9.1784101574803145
20
-3.3349338188976376
11
9.17876090551181
21
-3.3369229527559052
0
LINE
8
BLACK
6
CONTINUOUS
10
9.17876090551181
20
-3.3369229527559052
11
9.1777509842519684
21
-3.3386721259842518
0
LINE
8
BLACK
6
CONTINUOUS
10
9.1777509842519684
20
-3.3386721259842518
11
9.1758529921259839
21
-3.3393629527559052
0
LINE
8
BLACK
6
CONTINUOUS
10
9.1758529921259839
20
-3.3393629527559052
11
9.1514810629921257
21
-3.3393629527559052
0
LINE
8
BLACK
6
CONTINUOUS
10
9.1514810629921257
20
-3.3393629527559052
11
9.1508462992125974
21
-3.339251023622047
0
LINE
8
BLACK
6
CONTINUOUS
10
9.1508462992125974
20
-3.339251023622047
11
9.1507168503937013
21
-3.3392623622047242
0
LINE
8
BLACK
6
CONTINUOUS
10
9.1507168503937013
20
-3.3392623622047242
11
9.1506516141732277
21
-3.3392166929133857
0
LINE
8
BLACK
6
CONTINUOUS
10
9.1506516141732277
20
-3.3392166929133857
11
9.1504711417322824
21
-3.3391848818897638
0
LINE
8
BLACK
6
CONTINUOUS
10
9.1504711417322824
20
-3.3391848818897638
11
9.1497902755905507
21
-3.3386135826771652
0
LINE
8
BLACK
6
CONTINUOUS
10
9.1497902755905507
20
-3.3386135826771652
11
9.1490622834645663
21
-3.3381038188976375
0
LINE
8
BLACK
6
CONTINUOUS
10
9.1490622834645663
20
-3.3381038188976375
11
9.1490273228346446
21
-3.337973346456693
0
LINE
8
BLACK
6
CONTINUOUS
10
9.1490273228346446
20
-3.337973346456693
11
9.1489238976377951
21
-3.3378865748031497
0
LINE
8
BLACK
6
CONTINUOUS
10
9.1489238976377951
20
-3.3378865748031497
11
9.1487695275590557
21
-3.3370112204724407
0
LINE
8
BLACK
6
CONTINUOUS
10
9.1487695275590557
20
-3.3370112204724407
11
9.1485395669291343
21
-3.336152874015748
0
LINE
8
BLACK
6
CONTINUOUS
10
9.1485395669291343
20
-3.336152874015748
11
9.1485966141732273
21
-3.3360305118110234
0
LINE
8
BLACK
6
CONTINUOUS
10
9.1485966141732273
20
-3.3360305118110234
11
9.1485731496062996
21
-3.3358974409448816
0
LINE
8
BLACK
6
CONTINUOUS
10
9.1485731496062996
20
-3.3358974409448816
11
9.149017637795275
21
-3.3351275196850394
0
LINE
8
BLACK
6
CONTINUOUS
10
9.149017637795275
20
-3.3351275196850394
11
9.1493931496062988
21
-3.3343222834645667
0
LINE
8
BLACK
6
CONTINUOUS
10
9.1493931496062988
20
-3.3343222834645667
11
9.1713974015748025
21
-3.3123179527559055
0
LINE
8
BLACK
6
CONTINUOUS
10
9.1713974015748025
20
-3.3123179527559055
11
9.1729002362204728
21
-3.3078095669291336
0
LINE
8
BLACK
6
CONTINUOUS
10
9.1729002362204728
20
-3.3078095669291336
11
9.1729002362204728
21
-3.305236220472441
0
LINE
8
BLACK
6
CONTINUOUS
10
9.1729002362204728
20
-3.305236220472441
11
9.1715514960629925
21
-3.3025387401574804
0
LINE
8
BLACK
6
CONTINUOUS
10
9.1715514960629925
20
-3.3025387401574804
11
9.1703543700787407
21
-3.3013416141732281
0
LINE
8
BLACK
6
CONTINUOUS
10
9.1703543700787407
20
-3.3013416141732281
11
9.16765688976378
21
-3.2999928740157478
0
LINE
8
BLACK
6
CONTINUOUS
10
9.16765688976378
20
-3.2999928740157478
11
9.1596771653543296
21
-3.2999928740157478
0
LINE
8
BLACK
6
CONTINUOUS
10
9.1596771653543296
20
-3.2999928740157478
11
9.156979685039369
21
-3.3013416141732281
0
LINE
8
BLACK
6
CONTINUOUS
10
9.156979685039369
20
-3.3013416141732281
11
9.1554437401574802
21
-3.3028775590551178
0
LINE
8
BLACK
6
CONTINUOUS
10
9.1554437401574802
20
-3.3028775590551178
11
9.1546037007874013
21
-3.303465748031496
0
LINE
8
BLACK
6
CONTINUOUS
10
9.1546037007874013
20
-3.303465748031496
11
9.1525916141732289
21
-3.3036418110236219
0
LINE
8
BLACK
6
CONTINUOUS
10
9.1525916141732289
20
-3.3036418110236219
11
9.1509370472440938
21
-3.3024832677165352
0
LINE
8
BLACK
6
CONTINUOUS
10
9.1509370472440938
20
-3.3024832677165352
11
9.1504143307086618
21
-3.3005323228346457
0
LINE
8
BLACK
6
CONTINUOUS
10
9.1504143307086618
20
-3.3005323228346457
11
9.1512679133858263
21
-3.2987017322834644
0
LINE
8
BLACK
6
CONTINUOUS
10
9.1512679133858263
20
-3.2987017322834644
11
9.1531426771653539
21
-3.2968269685039369
0
LINE
8
BLACK
6
CONTINUOUS
10
9.1531426771653539
20
-3.2968269685039369
11
9.153865748031496
21
-3.2963206692913385
0
LINE
8
BLACK
6
CONTINUOUS
10
9.153865748031496
20
-3.2963206692913385
11
9.1539100787401573
21
-3.2962738582677162
0
LINE
8
BLACK
6
CONTINUOUS
10
9.1539100787401573
20
-3.2962738582677162
11
9.1576596062992124
21
-3.2943990944881887
0
LINE
8
BLACK
6
CONTINUOUS
10
9.1576596062992124
20
-3.2943990944881887
11
9.1586425196850385
21
-3.2941067322834643
0
LINE
8
BLACK
6
CONTINUOUS
10
9.1586425196850385
20
-3.2941067322834643
11
9.1588142125984255
21
-3.2941477165354329
0
LINE
8
BLACK
6
CONTINUOUS
10
9.1588142125984255
20
-3.2941477165354329
11
9.1589801181102359
21
-3.2940873622047242
0
LINE
8
BLACK
6
CONTINUOUS
10
9.1589801181102359
20
-3.2940873622047242
11
9.1683539370078737
21
-3.2940873622047242
0
LINE
8
BLACK
6
CONTINUOUS
10
9.1683539370078737
20
-3.2940873622047242
11
9.169363858267717
21
-3.2942654330708661
0
LINE
8
BLACK
6
CONTINUOUS
10
9.4429133858267722
20
-1.0346456692913386
11
9.4445837007874012
21
-1.0353375590551182
0
LINE
8
BLACK
6
CONTINUOUS
10
9.4445837007874012
20
-1.0353375590551182
11
9.44527559055118
21
-1.037007874015748
0
LINE
8
BLACK
6
CONTINUOUS
10
9.44527559055118
20
-1.037007874015748
11
9.44527559055118
21
-3.2417322834645668
0
LINE
8
BLACK
6
CONTINUOUS
10
9.44527559055118
20
-3.2417322834645668
11
9.4445837007874012
21
-3.2434025984251966
0
LINE
8
BLACK
6
CONTINUOUS
10
9.4445837007874012
20
-3.2434025984251966
11
9.4429133858267722
21
-3.2440944881889764
0
LINE
8
BLACK
6
CONTINUOUS
10
9.4429133858267722
20
-3.2440944881889764
11
9.1862204724409455
21
-3.2440944881889764
0
LINE
8
BLACK
6
CONTINUOUS
10
9.1862204724409455
20
-3.2440944881889764
11
9.1862204724409455
21
-3.2767716535433071
0
LINE
8
BLACK
6
CONTINUOUS
10
9.1862204724409455
20
-3.2767716535433071
11
9.1855285826771649
21
-3.278441968503937
0
LINE
8
BLACK
6
CONTINUOUS
10
9.1855285826771649
20
-3.278441968503937
11
9.1838582677165359
21
-3.2791338582677163
0
LINE
8
BLACK
6
CONTINUOUS
10
9.1838582677165359
20
-3.2791338582677163
11
9.1153543307086604
21
-3.2791338582677163
0
LINE
8
BLACK
6
CONTINUOUS
10
9.1153543307086604
20
-3.2791338582677163
11
9.1136840157480314
21
-3.278441968503937
0
LINE
8
BLACK
6
CONTINUOUS
10
9.1136840157480314
20
-3.278441968503937
11
9.1129921259842526
21
-3.2767716535433071
0
LINE
8
BLACK
6
CONTINUOUS
10
9.1129921259842526
20
-3.2767716535433071
11
9.1129921259842526
21
-3.2440944881889764
0
LINE
8
BLACK
6
CONTINUOUS
10
9.1129921259842526
20
-3.2440944881889764
11
8.8562992125984241
21
-3.2440944881889764
0
LINE
8
BLACK
6
CONTINUOUS
10
8.8562992125984241
20
-3.2440944881889764
11
8.8546288976377951
21
-3.2434025984251966
0
LINE
8
BLACK
6
CONTINUOUS
10
8.8546288976377951
20
-3.2434025984251966
11
8.8539370078740163
21
-3.2417322834645668
0
LINE
8
BLACK
6
CONTINUOUS
10
8.8539370078740163
20
-3.2417322834645668
11
8.8539370078740163
21
-1.037007874015748
0
LINE
8
BLACK
6
CONTINUOUS
10
8.8539370078740163
20
-1.037007874015748
11
8.8546288976377951
21
-1.0353375590551182
0
LINE
8
BLACK
6
CONTINUOUS
10
8.8546288976377951
20
-1.0353375590551182
11
8.8562992125984241
21
-1.0346456692913386
0
LINE
8
BLACK
6
CONTINUOUS
10
8.8562992125984241
20
-1.0346456692913386
11
9.4429133858267722
21
-1.0346456692913386
0
LINE
8
BLACK
6
CONTINUOUS
10
8.8586614173228337
20
-1.0393700787401574
11
8.8586614173228337
21
-3.2393700787401576
0
LINE
8
BLACK
6
CONTINUOUS
10
8.8586614173228337
20
-3.2393700787401576
11
9.1153543307086604
21
-3.2393700787401576
0
LINE
8
BLACK
6
CONTINUOUS
10
9.1153543307086604
20
-3.2393700787401576
11
9.1170246456692912
21
-3.2400619685039369
0
LINE
8
BLACK
6
CONTINUOUS
10
9.1170246456692912
20
-3.2400619685039369
11
9.11771653543307
21
-3.2417322834645668
0
LINE
8
BLACK
6
CONTINUOUS
10
9.11771653543307
20
-3.2417322834645668
11
9.11771653543307
21
-3.2744094488188975
0
LINE
8
BLACK
6
CONTINUOUS
10
9.11771653543307
20
-3.2744094488188975
11
9.1814960629921263
21
-3.2744094488188975
0
LINE
8
BLACK
6
CONTINUOUS
10
9.1814960629921263
20
-3.2744094488188975
11
9.1814960629921263
21
-3.2417322834645668
0
LINE
8
BLACK
6
CONTINUOUS
10
9.1814960629921263
20
-3.2417322834645668
11
9.1821879527559052
21
-3.2400619685039369
0
LINE
8
BLACK
6
CONTINUOUS
10
9.1821879527559052
20
-3.2400619685039369
11
9.1838582677165359
21
-3.2393700787401576
0
LINE
8
BLACK
6
CONTINUOUS
10
9.1838582677165359
20
-3.2393700787401576
11
9.4405511811023626
21
-3.2393700787401576
0
LINE
8
BLACK
6
CONTINUOUS
10
9.4405511811023626
20
-3.2393700787401576
11
9.4405511811023626
21
-1.0393700787401574
0
LINE
8
BLACK
6
CONTINUOUS
10
9.4405511811023626
20
-1.0393700787401574
11
8.8586614173228337
21
-1.0393700787401574
0
LINE
8
BLACK
6
CONTINUOUS
10
9.4544262204724401
20
-3.2097470078740158
11
9.4551181102362207
21
-3.2114173228346456
0
LINE
8
BLACK
6
CONTINUOUS
10
9.4551181102362207
20
-3.2114173228346456
11
9.4551181102362207
21
-3.2507874015748031
0
LINE
8
BLACK
6
CONTINUOUS
10
9.4551181102362207
20
-3.2507874015748031
11
9.4544262204724401
21
-3.2524577165354329
0
LINE
8
BLACK
6
CONTINUOUS
10
9.4544262204724401
20
-3.2524577165354329
11
9.4527559055118111
21
-3.2531496062992127
0
LINE
8
BLACK
6
CONTINUOUS
10
9.4527559055118111
20
-3.2531496062992127
11
9.4133858267716537
21
-3.2531496062992127
0
LINE
8
BLACK
6
CONTINUOUS
10
9.4133858267716537
20
-3.2531496062992127
11
9.4117155118110229
21
-3.2524577165354329
0
LINE
8
BLACK
6
CONTINUOUS
10
9.4117155118110229
20
-3.2524577165354329
11
9.4110236220472441
21
-3.2507874015748031
0
LINE
8
BLACK
6
CONTINUOUS
10
9.4110236220472441
20
-3.2507874015748031
11
9.4117155118110229
21
-3.2491170866141732
0
LINE
8
BLACK
6
CONTINUOUS
10
9.4117155118110229
20
-3.2491170866141732
11
9.4133858267716537
21
-3.2484251968503934
0
LINE
8
BLACK
6
CONTINUOUS
10
9.4133858267716537
20
-3.2484251968503934
11
9.4503937007874015
21
-3.2484251968503934
0
LINE
8
BLACK
6
CONTINUOUS
10
9.4503937007874015
20
-3.2484251968503934
11
9.4503937007874015
21
-3.2114173228346456
0
LINE
8
BLACK
6
CONTINUOUS
10
9.4503937007874015
20
-3.2114173228346456
11
9.4510855905511804
21
-3.2097470078740158
0
LINE
8
BLACK
6
CONTINUOUS
10
9.4510855905511804
20
-3.2097470078740158
11
9.4527559055118111
21
-3.209055118110236
0
LINE
8
BLACK
6
CONTINUOUS
10
9.4527559055118111
20
-3.209055118110236
11
9.4544262204724401
21
-3.2097470078740158
0
LINE
8
BLACK
6
CONTINUOUS
10
8.6882862598425188
20
-2.7297566535433071
11
8.6898335039370078
21
-2.7310549606299213
0
LINE
8
BLACK
6
CONTINUOUS
10
8.6898335039370078
20
-2.7310549606299213
11
8.6901842519685033
21
-2.7330440944881889
0
LINE
8
BLACK
6
CONTINUOUS
10
8.6901842519685033
20
-2.7330440944881889
11
8.6891743307086617
21
-2.7347932677165354
0
LINE
8
BLACK
6
CONTINUOUS
10
8.6891743307086617
20
-2.7347932677165354
11
8.6872763385826772
21
-2.7354840944881889
0
LINE
8
BLACK
6
CONTINUOUS
10
8.6872763385826772
20
-2.7354840944881889
11
8.6696066535433065
21
-2.7354840944881889
0
LINE
8
BLACK
6
CONTINUOUS
10
8.6696066535433065
20
-2.7354840944881889
11
8.6696066535433065
21
-2.7520757480314959
0
LINE
8
BLACK
6
CONTINUOUS
10
8.6696066535433065
20
-2.7520757480314959
11
8.6872763385826772
21
-2.7520757480314959
0
LINE
8
BLACK
6
CONTINUOUS
10
8.6872763385826772
20
-2.7520757480314959
11
8.6882862598425188
21
-2.7522538188976378
0
LINE
8
BLACK
6
CONTINUOUS
10
8.6882862598425188
20
-2.7522538188976378
11
8.6898335039370078
21
-2.7535521259842519
0
LINE
8
BLACK
6
CONTINUOUS
10
8.6898335039370078
20
-2.7535521259842519
11
8.6901842519685033
21
-2.7555412598425195
0
LINE
8
BLACK
6
CONTINUOUS
10
8.6901842519685033
20
-2.7555412598425195
11
8.6891743307086617
21
-2.7572904330708661
0
LINE
8
BLACK
6
CONTINUOUS
10
8.6891743307086617
20
-2.7572904330708661
11
8.6872763385826772
21
-2.7579812598425195
0
LINE
8
BLACK
6
CONTINUOUS
10
8.6872763385826772
20
-2.7579812598425195
11
8.6479062598425198
21
-2.7579812598425195
0
LINE
8
BLACK
6
CONTINUOUS
10
8.6479062598425198
20
-2.7579812598425195
11
8.6468963385826765
21
-2.7578031889763781
0
LINE
8
BLACK
6
CONTINUOUS
10
8.6468963385826765
20
-2.7578031889763781
11
8.6453490944881892
21
-2.7565048818897635
0
LINE
8
BLACK
6
CONTINUOUS
10
8.6453490944881892
20
-2.7565048818897635
11
8.644998346456692
21
-2.7545157480314959
0
LINE
8
BLACK
6
CONTINUOUS
10
8.644998346456692
20
-2.7545157480314959
11
8.6460082677165353
21
-2.7527665748031493
0
LINE
8
BLACK
6
CONTINUOUS
10
8.6460082677165353
20
-2.7527665748031493
11
8.6479062598425198
21
-2.7520757480314959
0
LINE
8
BLACK
6
CONTINUOUS
10
8.6479062598425198
20
-2.7520757480314959
11
8.6637011417322825
21
-2.7520757480314959
0
LINE
8
BLACK
6
CONTINUOUS
10
8.6637011417322825
20
-2.7520757480314959
11
8.6637011417322825
21
-2.7354840944881889
0
LINE
8
BLACK
6
CONTINUOUS
10
8.6637011417322825
20
-2.7354840944881889
11
8.6479062598425198
21
-2.7354840944881889
0
LINE
8
BLACK
6
CONTINUOUS
10
8.6479062598425198
20
-2.7354840944881889
11
8.6468963385826765
21
-2.735306023622047
0
LINE
8
BLACK
6
CONTINUOUS
10
8.6468963385826765
20
-2.735306023622047
11
8.6453490944881892
21
-2.7340077165354328
0
LINE
8
BLACK
6
CONTINUOUS
10
8.6453490944881892
20
-2.7340077165354328
11
8.644998346456692
21
-2.7320185826771652
0
LINE
8
BLACK
6
CONTINUOUS
10
8.644998346456692
20
-2.7320185826771652
11
8.6460082677165353
21
-2.7302694094488187
0
LINE
8
BLACK
6
CONTINUOUS
10
8.6460082677165353
20
-2.7302694094488187
11
8.6479062598425198
21
-2.7295785826771652
0
LINE
8
BLACK
6
CONTINUOUS
10
8.6479062598425198
20
-2.7295785826771652
11
8.6872763385826772
21
-2.7295785826771652
0
LINE
8
BLACK
6
CONTINUOUS
10
8.6872763385826772
20
-2.7295785826771652
11
8.6882862598425188
21
-2.7297566535433071
0
LINE
8
BLACK
6
CONTINUOUS
10
8.6807871653543298
20
-2.6903865748031497
11
8.6809224015748025
21
-2.6905000393700789
0
LINE
8
BLACK
6
CONTINUOUS
10
8.6809224015748025
20
-2.6905000393700789
11
8.6810977559055118
21
-2.6905202362204723
0
LINE
8
BLACK
6
CONTINUOUS
10
8.6810977559055118
20
-2.6905202362204723
11
8.6848472834645669
21
-2.6923949999999999
0
LINE
8
BLACK
6
CONTINUOUS
10
8.6848472834645669
20
-2.6923949999999999
11
8.6855562598425191
21
-2.6929208267716533
0
LINE
8
BLACK
6
CONTINUOUS
10
8.6855562598425191
20
-2.6929208267716533
11
8.6856146456692915
21
-2.6929480708661417
0
LINE
8
BLACK
6
CONTINUOUS
10
8.6856146456692915
20
-2.6929480708661417
11
8.6874894488188978
21
-2.6948228346456693
0
LINE
8
BLACK
6
CONTINUOUS
10
8.6874894488188978
20
-2.6948228346456693
11
8.6879958267716528
21
-2.6955459842519685
0
LINE
8
BLACK
6
CONTINUOUS
10
8.6879958267716528
20
-2.6955459842519685
11
8.6880425984251968
21
-2.695590275590551
0
LINE
8
BLACK
6
CONTINUOUS
10
8.6880425984251968
20
-2.695590275590551
11
8.6899173622047243
21
-2.6993398031496061
0
LINE
8
BLACK
6
CONTINUOUS
10
8.6899173622047243
20
-2.6993398031496061
11
8.6902097244094492
21
-2.7003227165354331
0
LINE
8
BLACK
6
CONTINUOUS
10
8.6902097244094492
20
-2.7003227165354331
11
8.6901687007874013
21
-2.7004944094488188
0
LINE
8
BLACK
6
CONTINUOUS
10
8.6901687007874013
20
-2.7004944094488188
11
8.6902290944881884
21
-2.7006603149606301
0
LINE
8
BLACK
6
CONTINUOUS
10
8.6902290944881884
20
-2.7006603149606301
11
8.6902290944881884
21
-2.7119088976377954
0
LINE
8
BLACK
6
CONTINUOUS
10
8.6902290944881884
20
-2.7119088976377954
11
8.690051023622047
21
-2.7129188188976379
0
LINE
8
BLACK
6
CONTINUOUS
10
8.690051023622047
20
-2.7129188188976379
11
8.6899375196850386
21
-2.7130540551181102
0
LINE
8
BLACK
6
CONTINUOUS
10
8.6899375196850386
20
-2.7130540551181102
11
8.6899173622047243
21
-2.713229409448819
0
LINE
8
BLACK
6
CONTINUOUS
10
8.6899173622047243
20
-2.713229409448819
11
8.6880425984251968
21
-2.7169789370078741
0
LINE
8
BLACK
6
CONTINUOUS
10
8.6880425984251968
20
-2.7169789370078741
11
8.6875166141732283
21
-2.717688031496063
0
LINE
8
BLACK
6
CONTINUOUS
10
8.6875166141732283
20
-2.717688031496063
11
8.6874894488188978
21
-2.7177463779527558
0
LINE
8
BLACK
6
CONTINUOUS
10
8.6874894488188978
20
-2.7177463779527558
11
8.6856146456692915
21
-2.7196211417322833
0
LINE
8
BLACK
6
CONTINUOUS
10
8.6856146456692915
20
-2.7196211417322833
11
8.6847746062992126
21
-2.7202093307086614
0
LINE
8
BLACK
6
CONTINUOUS
10
8.6847746062992126
20
-2.7202093307086614
11
8.6827625196850384
21
-2.7203853149606299
0
LINE
8
BLACK
6
CONTINUOUS
10
8.6827625196850384
20
-2.7203853149606299
11
8.6811079921259839
21
-2.719226811023622
0
LINE
8
BLACK
6
CONTINUOUS
10
8.6811079921259839
20
-2.719226811023622
11
8.6805852755905502
21
-2.7172758267716537
0
LINE
8
BLACK
6
CONTINUOUS
10
8.6805852755905502
20
-2.7172758267716537
11
8.6814388976377952
21
-2.7154452362204724
0
LINE
8
BLACK
6
CONTINUOUS
10
8.6814388976377952
20
-2.7154452362204724
11
8.682974842519684
21
-2.7139092913385827
0
LINE
8
BLACK
6
CONTINUOUS
10
8.682974842519684
20
-2.7139092913385827
11
8.6843235826771643
21
-2.7112118503937008
0
LINE
8
BLACK
6
CONTINUOUS
10
8.6843235826771643
20
-2.7112118503937008
11
8.6843235826771643
21
-2.7013573622047242
0
LINE
8
BLACK
6
CONTINUOUS
10
8.6843235826771643
20
-2.7013573622047242
11
8.682974842519684
21
-2.6986598818897636
0
LINE
8
BLACK
6
CONTINUOUS
10
8.682974842519684
20
-2.6986598818897636
11
8.6817776771653534
21
-2.6974627559055118
0
LINE
8
BLACK
6
CONTINUOUS
10
8.6817776771653534
20
-2.6974627559055118
11
8.6790801968503928
21
-2.6961140157480314
0
LINE
8
BLACK
6
CONTINUOUS
10
8.6790801968503928
20
-2.6961140157480314
11
8.6711004724409442
21
-2.6961140157480314
0
LINE
8
BLACK
6
CONTINUOUS
10
8.6711004724409442
20
-2.6961140157480314
11
8.6684029921259835
21
-2.6974627559055118
0
LINE
8
BLACK
6
CONTINUOUS
10
8.6684029921259835
20
-2.6974627559055118
11
8.6672058661417317
21
-2.6986598818897636
0
LINE
8
BLACK
6
CONTINUOUS
10
8.6672058661417317
20
-2.6986598818897636
11
8.6658571259842514
21
-2.7013573622047242
0
LINE
8
BLACK
6
CONTINUOUS
10
8.6658571259842514
20
-2.7013573622047242
11
8.6658571259842514
21
-2.7062846062992127
0
LINE
8
BLACK
6
CONTINUOUS
10
8.6658571259842514
20
-2.7062846062992127
11
8.6657799999999998
21
-2.7067219291338582
0
LINE
8
BLACK
6
CONTINUOUS
10
8.6657799999999998
20
-2.7067219291338582
11
8.6658010236220466
21
-2.7068574409448818
0
LINE
8
BLACK
6
CONTINUOUS
10
8.6658010236220466
20
-2.7068574409448818
11
8.6657376377952762
21
-2.706962086614173
0
LINE
8
BLACK
6
CONTINUOUS
10
8.6657376377952762
20
-2.706962086614173
11
8.66567905511811
21
-2.7072945275590552
0
LINE
8
BLACK
6
CONTINUOUS
10
8.66567905511811
20
-2.7072945275590552
11
8.6651673622047234
21
-2.7079042913385827
0
LINE
8
BLACK
6
CONTINUOUS
10
8.6651673622047234
20
-2.7079042913385827
11
8.6647551574803146
21
-2.7085853543307086
0
LINE
8
BLACK
6
CONTINUOUS
10
8.6647551574803146
20
-2.7085853543307086
11
8.6645321259842518
21
-2.7086612992125985
0
LINE
8
BLACK
6
CONTINUOUS
10
8.6645321259842518
20
-2.7086612992125985
11
8.6643807480314958
21
-2.7088417716535433
0
LINE
8
BLACK
6
CONTINUOUS
10
8.6643807480314958
20
-2.7088417716535433
11
8.6635967716535429
21
-2.7089799999999999
0
LINE
8
BLACK
6
CONTINUOUS
10
8.6635967716535429
20
-2.7089799999999999
11
8.6628432677165357
21
-2.7092367322834643
0
LINE
8
BLACK
6
CONTINUOUS
10
8.6628432677165357
20
-2.7092367322834643
11
8.6626236220472439
21
-2.7091515748031494
0
LINE
8
BLACK
6
CONTINUOUS
10
8.6626236220472439
20
-2.7091515748031494
11
8.6623916141732273
21
-2.7091925196850393
0
LINE
8
BLACK
6
CONTINUOUS
10
8.6623916141732273
20
-2.7091925196850393
11
8.6617021259842524
21
-2.708794409448819
0
LINE
8
BLACK
6
CONTINUOUS
10
8.6617021259842524
20
-2.708794409448819
11
8.6609599606299206
21
-2.7085067716535431
0
LINE
8
BLACK
6
CONTINUOUS
10
8.6609599606299206
20
-2.7085067716535431
11
8.650859015748031
21
-2.6996684251968501
0
LINE
8
BLACK
6
CONTINUOUS
10
8.650859015748031
20
-2.6996684251968501
11
8.650859015748031
21
-2.7175331889763781
0
LINE
8
BLACK
6
CONTINUOUS
10
8.650859015748031
20
-2.7175331889763781
11
8.6506809448818895
21
-2.7185431102362205
0
LINE
8
BLACK
6
CONTINUOUS
10
8.6506809448818895
20
-2.7185431102362205
11
8.6493826377952754
21
-2.7200903543307087
0
LINE
8
BLACK
6
CONTINUOUS
10
8.6493826377952754
20
-2.7200903543307087
11
8.6473935039370069
21
-2.7204411023622046
0
LINE
8
BLACK
6
CONTINUOUS
10
8.6473935039370069
20
-2.7204411023622046
11
8.6456443307086612
21
-2.7194311811023621
0
LINE
8
BLACK
6
CONTINUOUS
10
8.6456443307086612
20
-2.7194311811023621
11
8.6449535039370069
21
-2.7175331889763781
0
LINE
8
BLACK
6
CONTINUOUS
10
8.6449535039370069
20
-2.7175331889763781
11
8.6449535039370069
21
-2.6931612598425194
0
LINE
8
BLACK
6
CONTINUOUS
10
8.6449535039370069
20
-2.6931612598425194
11
8.6450305905511815
21
-2.6927238976377952
0
LINE
8
BLACK
6
CONTINUOUS
10
8.6450305905511815
20
-2.6927238976377952
11
8.6450096062992117
21
-2.6925884251968504
0
LINE
8
BLACK
6
CONTINUOUS
10
8.6450096062992117
20
-2.6925884251968504
11
8.6450729527559051
21
-2.6924837401574804
0
LINE
8
BLACK
6
CONTINUOUS
10
8.6450729527559051
20
-2.6924837401574804
11
8.6451315748031501
21
-2.692151338582677
0
LINE
8
BLACK
6
CONTINUOUS
10
8.6451315748031501
20
-2.692151338582677
11
8.6456432283464562
21
-2.6915415354330707
0
LINE
8
BLACK
6
CONTINUOUS
10
8.6456432283464562
20
-2.6915415354330707
11
8.6460554724409455
21
-2.6908605118110236
0
LINE
8
BLACK
6
CONTINUOUS
10
8.6460554724409455
20
-2.6908605118110236
11
8.6462784645669295
21
-2.690784527559055
0
LINE
8
BLACK
6
CONTINUOUS
10
8.6462784645669295
20
-2.690784527559055
11
8.6464298818897642
21
-2.6906040944881888
0
LINE
8
BLACK
6
CONTINUOUS
10
8.6464298818897642
20
-2.6906040944881888
11
8.6472138188976384
21
-2.6904658267716535
0
LINE
8
BLACK
6
CONTINUOUS
10
8.6472138188976384
20
-2.6904658267716535
11
8.6479673622047244
21
-2.6902091338582679
0
LINE
8
BLACK
6
CONTINUOUS
10
8.6479673622047244
20
-2.6902091338582679
11
8.6481869685039374
21
-2.690294251968504
0
LINE
8
BLACK
6
CONTINUOUS
10
8.6481869685039374
20
-2.690294251968504
11
8.648419015748031
21
-2.6902533464566929
0
LINE
8
BLACK
6
CONTINUOUS
10
8.648419015748031
20
-2.6902533464566929
11
8.6491084645669289
21
-2.6906514173228344
0
LINE
8
BLACK
6
CONTINUOUS
10
8.6491084645669289
20
-2.6906514173228344
11
8.6498506692913377
21
-2.690939094488189
0
LINE
8
BLACK
6
CONTINUOUS
10
8.6498506692913377
20
-2.690939094488189
11
8.6600864566929125
21
-2.6998953937007872
0
LINE
8
BLACK
6
CONTINUOUS
10
8.6600864566929125
20
-2.6998953937007872
11
8.6601296850393705
21
-2.6996503937007872
0
LINE
8
BLACK
6
CONTINUOUS
10
8.6601296850393705
20
-2.6996503937007872
11
8.6602431496062984
21
-2.6995151181102361
0
LINE
8
BLACK
6
CONTINUOUS
10
8.6602431496062984
20
-2.6995151181102361
11
8.6602633464566932
21
-2.6993398031496061
0
LINE
8
BLACK
6
CONTINUOUS
10
8.6602633464566932
20
-2.6993398031496061
11
8.6621381102362207
21
-2.695590275590551
0
LINE
8
BLACK
6
CONTINUOUS
10
8.6621381102362207
20
-2.695590275590551
11
8.6626640157480317
21
-2.6948811811023621
0
LINE
8
BLACK
6
CONTINUOUS
10
8.6626640157480317
20
-2.6948811811023621
11
8.6626912204724409
21
-2.694822874015748
0
LINE
8
BLACK
6
CONTINUOUS
10
8.6626912204724409
20
-2.694822874015748
11
8.6645659842519684
21
-2.6929481102362205
0
LINE
8
BLACK
6
CONTINUOUS
10
8.6645659842519684
20
-2.6929481102362205
11
8.6652890551181105
21
-2.6924418110236221
0
LINE
8
BLACK
6
CONTINUOUS
10
8.6652890551181105
20
-2.6924418110236221
11
8.6653333858267718
21
-2.6923949999999999
0
LINE
8
BLACK
6
CONTINUOUS
10
8.6653333858267718
20
-2.6923949999999999
11
8.6690829133858269
21
-2.6905202362204723
0
LINE
8
BLACK
6
CONTINUOUS
10
8.6690829133858269
20
-2.6905202362204723
11
8.6700658267716531
21
-2.6902278740157479
0
LINE
8
BLACK
6
CONTINUOUS
10
8.6700658267716531
20
-2.6902278740157479
11
8.6702375196850383
21
-2.6902688582677166
0
LINE
8
BLACK
6
CONTINUOUS
10
8.6702375196850383
20
-2.6902688582677166
11
8.6704034251968505
21
-2.6902085039370078
0
LINE
8
BLACK
6
CONTINUOUS
10
8.6704034251968505
20
-2.6902085039370078
11
8.6797772440944883
21
-2.6902085039370078
0
LINE
8
BLACK
6
CONTINUOUS
10
8.6797772440944883
20
-2.6902085039370078
11
8.6807871653543298
21
-2.6903865748031497
0
LINE
8
BLACK
6
CONTINUOUS
10
6.9422277559055114
20
-0.8988860629921259
11
6.9423949999999994
21
-0.8988566141732284
0
LINE
8
BLACK
6
CONTINUOUS
10
6.9423949999999994
20
-0.8988566141732284
11
6.9431370472440941
21
-0.8992850393700788
0
LINE
8
BLACK
6
CONTINUOUS
10
6.9431370472440941
20
-0.8992850393700788
11
6.9439218897637796
21
-0.8996294094488189
0
LINE
8
BLACK
6
CONTINUOUS
10
6.9439218897637796
20
-0.8996294094488189
11
6.9439971259842519
21
-0.8997816535433071
0
LINE
8
BLACK
6
CONTINUOUS
10
6.9439971259842519
20
-0.8997816535433071
11
6.944144173228346
21
-0.8998665354330708
0
LINE
8
BLACK
6
CONTINUOUS
10
6.944144173228346
20
-0.8998665354330708
11
6.9444372440944884
21
-0.9006717716535433
0
LINE
8
BLACK
6
CONTINUOUS
10
6.9444372440944884
20
-0.9006717716535433
11
6.9448170866141732
21
-0.90144
0
LINE
8
BLACK
6
CONTINUOUS
10
6.9448170866141732
20
-0.90144
11
6.9447768897637792
21
-0.9016049212598425
0
LINE
8
BLACK
6
CONTINUOUS
10
6.9447768897637792
20
-0.9016049212598425
11
6.9448349999999994
21
-0.9017645275590551
0
LINE
8
BLACK
6
CONTINUOUS
10
6.9448349999999994
20
-0.9017645275590551
11
6.9448349999999994
21
-0.9381818503937007
0
LINE
8
BLACK
6
CONTINUOUS
10
6.9448349999999994
20
-0.9381818503937007
11
6.9531308267716536
21
-0.9381818503937007
0
LINE
8
BLACK
6
CONTINUOUS
10
6.9531308267716536
20
-0.9381818503937007
11
6.9541407480314961
21
-0.9383599212598425
0
LINE
8
BLACK
6
CONTINUOUS
10
6.9541407480314961
20
-0.9383599212598425
11
6.9556879921259842
21
-0.9396582283464566
0
LINE
8
BLACK
6
CONTINUOUS
10
6.9556879921259842
20
-0.9396582283464566
11
6.9560387401574806
21
-0.9416473622047243
0
LINE
8
BLACK
6
CONTINUOUS
10
6.9560387401574806
20
-0.9416473622047243
11
6.9550288188976372
21
-0.9433965354330709
0
LINE
8
BLACK
6
CONTINUOUS
10
6.9550288188976372
20
-0.9433965354330709
11
6.9531308267716536
21
-0.9440873622047243
0
LINE
8
BLACK
6
CONTINUOUS
10
6.9531308267716536
20
-0.9440873622047243
11
6.930633661417323
21
-0.9440873622047243
0
LINE
8
BLACK
6
CONTINUOUS
10
6.930633661417323
20
-0.9440873622047243
11
6.9296237401574805
21
-0.9439092913385827
0
LINE
8
BLACK
6
CONTINUOUS
10
6.9296237401574805
20
-0.9439092913385827
11
6.9280764960629924
21
-0.9426109842519684
0
LINE
8
BLACK
6
CONTINUOUS
10
6.9280764960629924
20
-0.9426109842519684
11
6.927725748031496
21
-0.9406218503937007
0
LINE
8
BLACK
6
CONTINUOUS
10
6.927725748031496
20
-0.9406218503937007
11
6.9287356692913384
21
-0.9388726771653543
0
LINE
8
BLACK
6
CONTINUOUS
10
6.9287356692913384
20
-0.9388726771653543
11
6.930633661417323
21
-0.9381818503937007
0
LINE
8
BLACK
6
CONTINUOUS
10
6.930633661417323
20
-0.9381818503937007
11
6.9389294881889763
21
-0.9381818503937007
0
LINE
8
BLACK
6
CONTINUOUS
10
6.9389294881889763
20
-0.9381818503937007
11
6.9389294881889763
21
-0.910767874015748
0
LINE
8
BLACK
6
CONTINUOUS
10
6.9389294881889763
20
-0.910767874015748
11
6.936471102362205
21
-0.9132262598425197
0
LINE
8
BLACK
6
CONTINUOUS
10
6.936471102362205
20
-0.9132262598425197
11
6.9357479921259841
21
-0.9137325196850393
0
LINE
8
BLACK
6
CONTINUOUS
10
6.9357479921259841
20
-0.9137325196850393
11
6.9357037007874016
21
-0.9137793700787401
0
LINE
8
BLACK
6
CONTINUOUS
10
6.9357037007874016
20
-0.9137793700787401
11
6.9319541732283465
21
-0.9156541338582677
0
LINE
8
BLACK
6
CONTINUOUS
10
6.9319541732283465
20
-0.9156541338582677
11
6.9309712204724407
21
-0.9159464960629921
0
LINE
8
BLACK
6
CONTINUOUS
10
6.9309712204724407
20
-0.9159464960629921
11
6.9290067322834643
21
-0.9154772047244094
0
LINE
8
BLACK
6
CONTINUOUS
10
6.9290067322834643
20
-0.9154772047244094
11
6.9278034251968501
21
-0.9138549606299212
0
LINE
8
BLACK
6
CONTINUOUS
10
6.9278034251968501
20
-0.9138549606299212
11
6.9279244881889763
21
-0.911838779527559
0
LINE
8
BLACK
6
CONTINUOUS
10
6.9279244881889763
20
-0.911838779527559
11
6.9293131496062994
21
-0.9103720866141732
0
LINE
8
BLACK
6
CONTINUOUS
10
6.9293131496062994
20
-0.9103720866141732
11
6.932634094488189
21
-0.9087116141732283
0
LINE
8
BLACK
6
CONTINUOUS
10
6.932634094488189
20
-0.9087116141732283
11
6.9358379921259843
21
-0.905507716535433
0
LINE
8
BLACK
6
CONTINUOUS
10
6.9358379921259843
20
-0.905507716535433
11
6.9394253937007875
21
-0.9001266141732284
0
LINE
8
BLACK
6
CONTINUOUS
10
6.9394253937007875
20
-0.9001266141732284
11
6.9401337795275593
21
-0.8993850787401575
0
LINE
8
BLACK
6
CONTINUOUS
10
6.9401337795275593
20
-0.8993850787401575
11
6.9402967322834641
21
-0.8993373622047244
0
LINE
8
BLACK
6
CONTINUOUS
10
6.9402967322834641
20
-0.8993373622047244
11
6.9404058661417318
21
-0.8992073622047244
0
LINE
8
BLACK
6
CONTINUOUS
10
6.9404058661417318
20
-0.8992073622047244
11
6.9412496456692914
21
-0.8990585433070866
0
LINE
8
BLACK
6
CONTINUOUS
10
6.9412496456692914
20
-0.8990585433070866
11
6.942072283464567
21
-0.898817874015748
0
LINE
8
BLACK
6
CONTINUOUS
10
6.942072283464567
20
-0.898817874015748
11
6.9422277559055114
21
-0.8988860629921259
0
LINE
8
BLACK
6
CONTINUOUS
10
6.9160226771653539
20
-0.8998665354330708
11
6.9167135039370073
21
-0.9017645275590551
0
LINE
8
BLACK
6
CONTINUOUS
10
6.9167135039370073
20
-0.9017645275590551
11
6.9167135039370073
21
-0.9411346062992125
0
LINE
8
BLACK
6
CONTINUOUS
10
6.9167135039370073
20
-0.9411346062992125
11
6.9165354330708659
21
-0.9421445275590551
0
LINE
8
BLACK
6
CONTINUOUS
10
6.9165354330708659
20
-0.9421445275590551
11
6.9152371259842518
21
-0.9436917716535432
0
LINE
8
BLACK
6
CONTINUOUS
10
6.9152371259842518
20
-0.9436917716535432
11
6.9132479921259842
21
-0.9440425196850394
0
LINE
8
BLACK
6
CONTINUOUS
10
6.9132479921259842
20
-0.9440425196850394
11
6.9114988188976376
21
-0.9430325984251968
0
LINE
8
BLACK
6
CONTINUOUS
10
6.9114988188976376
20
-0.9430325984251968
11
6.9108079921259842
21
-0.9411346062992125
0
LINE
8
BLACK
6
CONTINUOUS
10
6.9108079921259842
20
-0.9411346062992125
11
6.9108079921259842
21
-0.9234649212598425
0
LINE
8
BLACK
6
CONTINUOUS
10
6.9108079921259842
20
-0.9234649212598425
11
6.8942163385826767
21
-0.9234649212598425
0
LINE
8
BLACK
6
CONTINUOUS
10
6.8942163385826767
20
-0.9234649212598425
11
6.8942163385826767
21
-0.9411346062992125
0
LINE
8
BLACK
6
CONTINUOUS
10
6.8942163385826767
20
-0.9411346062992125
11
6.8940382677165353
21
-0.9421445275590551
0
LINE
8
BLACK
6
CONTINUOUS
10
6.8940382677165353
20
-0.9421445275590551
11
6.8927399606299211
21
-0.9436917716535432
0
LINE
8
BLACK
6
CONTINUOUS
10
6.8927399606299211
20
-0.9436917716535432
11
6.8907508267716535
21
-0.9440425196850394
0
LINE
8
BLACK
6
CONTINUOUS
10
6.8907508267716535
20
-0.9440425196850394
11
6.889001653543307
21
-0.9430325984251968
0
LINE
8
BLACK
6
CONTINUOUS
10
6.889001653543307
20
-0.9430325984251968
11
6.8883108267716535
21
-0.9411346062992125
0
LINE
8
BLACK
6
CONTINUOUS
10
6.8883108267716535
20
-0.9411346062992125
11
6.8883108267716535
21
-0.9017645275590551
0
LINE
8
BLACK
6
CONTINUOUS
10
6.8883108267716535
20
-0.9017645275590551
11
6.8884888976377949
21
-0.9007546062992126
0
LINE
8
BLACK
6
CONTINUOUS
10
6.8884888976377949
20
-0.9007546062992126
11
6.8897872047244091
21
-0.8992073622047244
0
LINE
8
BLACK
6
CONTINUOUS
10
6.8897872047244091
20
-0.8992073622047244
11
6.8917763385826767
21
-0.8988566141732284
0
LINE
8
BLACK
6
CONTINUOUS
10
6.8917763385826767
20
-0.8988566141732284
11
6.8935255118110232
21
-0.8998665354330708
0
LINE
8
BLACK
6
CONTINUOUS
10
6.8935255118110232
20
-0.8998665354330708
11
6.8942163385826767
21
-0.9017645275590551
0
LINE
8
BLACK
6
CONTINUOUS
10
6.8942163385826767
20
-0.9017645275590551
11
6.8942163385826767
21
-0.9175594094488189
0
LINE
8
BLACK
6
CONTINUOUS
10
6.8942163385826767
20
-0.9175594094488189
11
6.9108079921259842
21
-0.9175594094488189
0
LINE
8
BLACK
6
CONTINUOUS
10
6.9108079921259842
20
-0.9175594094488189
11
6.9108079921259842
21
-0.9017645275590551
0
LINE
8
BLACK
6
CONTINUOUS
10
6.9108079921259842
20
-0.9017645275590551
11
6.9109860629921256
21
-0.9007546062992126
0
LINE
8
BLACK
6
CONTINUOUS
10
6.9109860629921256
20
-0.9007546062992126
11
6.9122843700787397
21
-0.8992073622047244
0
LINE
8
BLACK
6
CONTINUOUS
10
6.9122843700787397
20
-0.8992073622047244
11
6.9142735039370073
21
-0.8988566141732284
0
LINE
8
BLACK
6
CONTINUOUS
10
6.9142735039370073
20
-0.8988566141732284
11
6.9160226771653539
21
-0.8998665354330708
0
LINE
8
BLACK
6
CONTINUOUS
10
9.0962479921259849
20
-0.743478031496063
11
9.0963832283464559
21
-0.7435914960629921
0
LINE
8
BLACK
6
CONTINUOUS
10
9.0963832283464559
20
-0.7435914960629921
11
9.0965585826771651
21
-0.7436116929133858
0
LINE
8
BLACK
6
CONTINUOUS
10
9.0965585826771651
20
-0.7436116929133858
11
9.1003081102362202
21
-0.7454864566929134
0
LINE
8
BLACK
6
CONTINUOUS
10
9.1003081102362202
20
-0.7454864566929134
11
9.1010171653543299
21
-0.7460123622047244
0
LINE
8
BLACK
6
CONTINUOUS
10
9.1010171653543299
20
-0.7460123622047244
11
9.1010755118110236
21
-0.7460395669291339
0
LINE
8
BLACK
6
CONTINUOUS
10
9.1010755118110236
20
-0.7460395669291339
11
9.1029502755905511
21
-0.7479143307086614
0
LINE
8
BLACK
6
CONTINUOUS
10
9.1029502755905511
20
-0.7479143307086614
11
9.1034565354330699
21
-0.7486374015748032
0
LINE
8
BLACK
6
CONTINUOUS
10
9.1034565354330699
20
-0.7486374015748032
11
9.1035033858267713
21
-0.7486817322834646
0
LINE
8
BLACK
6
CONTINUOUS
10
9.1035033858267713
20
-0.7486817322834646
11
9.1053781496062989
21
-0.7524312598425197
0
LINE
8
BLACK
6
CONTINUOUS
10
9.1053781496062989
20
-0.7524312598425197
11
9.1056705118110237
21
-0.7534141732283465
0
LINE
8
BLACK
6
CONTINUOUS
10
9.1056705118110237
20
-0.7534141732283465
11
9.1056294881889759
21
-0.7535858661417323
0
LINE
8
BLACK
6
CONTINUOUS
10
9.1056294881889759
20
-0.7535858661417323
11
9.1056898818897629
21
-0.7537517716535433
0
LINE
8
BLACK
6
CONTINUOUS
10
9.1056898818897629
20
-0.7537517716535433
11
9.1056898818897629
21
-0.7575012992125985
0
LINE
8
BLACK
6
CONTINUOUS
10
9.1056898818897629
20
-0.7575012992125985
11
9.1055365748031498
21
-0.7583706692913386
0
LINE
8
BLACK
6
CONTINUOUS
10
9.1055365748031498
20
-0.7583706692913386
11
9.1055383464566919
21
-0.7584350787401575
0
LINE
8
BLACK
6
CONTINUOUS
10
9.1055383464566919
20
-0.7584350787401575
11
9.1036635826771644
21
-0.7640593307086614
0
LINE
8
BLACK
6
CONTINUOUS
10
9.1036635826771644
20
-0.7640593307086614
11
9.1031752755905515
21
-0.7649611023622047
0
LINE
8
BLACK
6
CONTINUOUS
10
9.1031752755905515
20
-0.7649611023622047
11
9.1030248818897643
21
-0.7650534645669291
0
LINE
8
BLACK
6
CONTINUOUS
10
9.1030248818897643
20
-0.7650534645669291
11
9.1029502755905511
21
-0.7652135039370078
0
LINE
8
BLACK
6
CONTINUOUS
10
9.1029502755905511
20
-0.7652135039370078
11
9.0854937795275585
21
-0.7826700393700787
0
LINE
8
BLACK
6
CONTINUOUS
10
9.0854937795275585
20
-0.7826700393700787
11
9.1027371259842518
21
-0.7826700393700787
0
LINE
8
BLACK
6
CONTINUOUS
10
9.1027371259842518
20
-0.7826700393700787
11
9.1037470472440951
21
-0.7828481102362205
0
LINE
8
BLACK
6
CONTINUOUS
10
9.1037470472440951
20
-0.7828481102362205
11
9.1052942913385824
21
-0.7841464173228346
0
LINE
8
BLACK
6
CONTINUOUS
10
9.1052942913385824
20
-0.7841464173228346
11
9.1056450393700779
21
-0.7861355511811023
0
LINE
8
BLACK
6
CONTINUOUS
10
9.1056450393700779
20
-0.7861355511811023
11
9.1046351181102363
21
-0.7878847244094488
0
LINE
8
BLACK
6
CONTINUOUS
10
9.1046351181102363
20
-0.7878847244094488
11
9.1027371259842518
21
-0.7885755511811023
0
LINE
8
BLACK
6
CONTINUOUS
10
9.1027371259842518
20
-0.7885755511811023
11
9.0783651968503936
21
-0.7885755511811023
0
LINE
8
BLACK
6
CONTINUOUS
10
9.0783651968503936
20
-0.7885755511811023
11
9.0777304330708652
21
-0.7884636220472441
0
LINE
8
BLACK
6
CONTINUOUS
10
9.0777304330708652
20
-0.7884636220472441
11
9.0776009842519692
21
-0.7884749606299213
0
LINE
8
BLACK
6
CONTINUOUS
10
9.0776009842519692
20
-0.7884749606299213
11
9.0775357480314955
21
-0.7884292913385826
0
LINE
8
BLACK
6
CONTINUOUS
10
9.0775357480314955
20
-0.7884292913385826
11
9.0773552755905502
21
-0.7883974803149606
0
LINE
8
BLACK
6
CONTINUOUS
10
9.0773552755905502
20
-0.7883974803149606
11
9.0766744094488185
21
-0.7878261811023621
0
LINE
8
BLACK
6
CONTINUOUS
10
9.0766744094488185
20
-0.7878261811023621
11
9.0759464173228341
21
-0.7873164173228346
0
LINE
8
BLACK
6
CONTINUOUS
10
9.0759464173228341
20
-0.7873164173228346
11
9.0759114566929124
21
-0.7871859448818898
0
LINE
8
BLACK
6
CONTINUOUS
10
9.0759114566929124
20
-0.7871859448818898
11
9.075808031496063
21
-0.7870991732283464
0
LINE
8
BLACK
6
CONTINUOUS
10
9.075808031496063
20
-0.7870991732283464
11
9.0756536614173218
21
-0.7862238188976378
0
LINE
8
BLACK
6
CONTINUOUS
10
9.0756536614173218
20
-0.7862238188976378
11
9.0754237007874021
21
-0.7853654724409449
0
LINE
8
BLACK
6
CONTINUOUS
10
9.0754237007874021
20
-0.7853654724409449
11
9.0754807480314952
21
-0.7852431102362205
0
LINE
8
BLACK
6
CONTINUOUS
10
9.0754807480314952
20
-0.7852431102362205
11
9.0754572834645675
21
-0.7851100393700787
0
LINE
8
BLACK
6
CONTINUOUS
10
9.0754572834645675
20
-0.7851100393700787
11
9.0759017716535428
21
-0.7843401181102362
0
LINE
8
BLACK
6
CONTINUOUS
10
9.0759017716535428
20
-0.7843401181102362
11
9.0762772834645666
21
-0.7835348818897637
0
LINE
8
BLACK
6
CONTINUOUS
10
9.0762772834645666
20
-0.7835348818897637
11
9.0982815354330704
21
-0.7615305511811024
0
LINE
8
BLACK
6
CONTINUOUS
10
9.0982815354330704
20
-0.7615305511811024
11
9.0997843700787406
21
-0.7570221653543306
0
LINE
8
BLACK
6
CONTINUOUS
10
9.0997843700787406
20
-0.7570221653543306
11
9.0997843700787406
21
-0.7544488188976378
0
LINE
8
BLACK
6
CONTINUOUS
10
9.0997843700787406
20
-0.7544488188976378
11
9.0984356299212603
21
-0.7517513385826772
0
LINE
8
BLACK
6
CONTINUOUS
10
9.0984356299212603
20
-0.7517513385826772
11
9.0972385039370085
21
-0.7505542125984251
0
LINE
8
BLACK
6
CONTINUOUS
10
9.0972385039370085
20
-0.7505542125984251
11
9.0945410236220479
21
-0.7492054724409448
0
LINE
8
BLACK
6
CONTINUOUS
10
9.0945410236220479
20
-0.7492054724409448
11
9.0865612992125975
21
-0.7492054724409448
0
LINE
8
BLACK
6
CONTINUOUS
10
9.0865612992125975
20
-0.7492054724409448
11
9.0838638188976368
21
-0.7505542125984251
0
LINE
8
BLACK
6
CONTINUOUS
10
9.0838638188976368
20
-0.7505542125984251
11
9.082327874015748
21
-0.7520901574803149
0
LINE
8
BLACK
6
CONTINUOUS
10
9.082327874015748
20
-0.7520901574803149
11
9.0814878346456691
21
-0.7526783464566928
0
LINE
8
BLACK
6
CONTINUOUS
10
9.0814878346456691
20
-0.7526783464566928
11
9.0794757480314967
21
-0.7528544094488189
0
LINE
8
BLACK
6
CONTINUOUS
10
9.0794757480314967
20
-0.7528544094488189
11
9.0778211811023617
21
-0.7516958661417322
0
LINE
8
BLACK
6
CONTINUOUS
10
9.0778211811023617
20
-0.7516958661417322
11
9.0772984645669297
21
-0.7497449212598425
0
LINE
8
BLACK
6
CONTINUOUS
10
9.0772984645669297
20
-0.7497449212598425
11
9.0781520472440942
21
-0.7479143307086614
0
LINE
8
BLACK
6
CONTINUOUS
10
9.0781520472440942
20
-0.7479143307086614
11
9.0800268110236217
21
-0.7460395669291339
0
LINE
8
BLACK
6
CONTINUOUS
10
9.0800268110236217
20
-0.7460395669291339
11
9.0807498818897638
21
-0.7455332677165354
0
LINE
8
BLACK
6
CONTINUOUS
10
9.0807498818897638
20
-0.7455332677165354
11
9.0807942125984251
21
-0.7454864566929134
0
LINE
8
BLACK
6
CONTINUOUS
10
9.0807942125984251
20
-0.7454864566929134
11
9.0845437401574802
21
-0.7436116929133858
0
LINE
8
BLACK
6
CONTINUOUS
10
9.0845437401574802
20
-0.7436116929133858
11
9.0855266535433064
21
-0.7433193307086614
0
LINE
8
BLACK
6
CONTINUOUS
10
9.0855266535433064
20
-0.7433193307086614
11
9.0856983464566934
21
-0.7433603149606299
0
LINE
8
BLACK
6
CONTINUOUS
10
9.0856983464566934
20
-0.7433603149606299
11
9.0858642519685038
21
-0.7432999606299212
0
LINE
8
BLACK
6
CONTINUOUS
10
9.0858642519685038
20
-0.7432999606299212
11
9.0952380708661416
21
-0.7432999606299212
0
LINE
8
BLACK
6
CONTINUOUS
10
9.0952380708661416
20
-0.7432999606299212
11
9.0962479921259849
21
-0.743478031496063
0
LINE
8
BLACK
6
CONTINUOUS
10
9.065628976377953
20
-0.7443547244094488
11
9.0663198031496055
21
-0.746252716535433
0
LINE
8
BLACK
6
CONTINUOUS
10
9.0663198031496055
20
-0.746252716535433
11
9.0663198031496055
21
-0.7856227952755905
0
LINE
8
BLACK
6
CONTINUOUS
10
9.0663198031496055
20
-0.7856227952755905
11
9.0661417322834641
21
-0.7866327165354331
0
LINE
8
BLACK
6
CONTINUOUS
10
9.0661417322834641
20
-0.7866327165354331
11
9.0648434251968499
21
-0.7881799606299212
0
LINE
8
BLACK
6
CONTINUOUS
10
9.0648434251968499
20
-0.7881799606299212
11
9.0628542913385832
21
-0.7885307086614173
0
LINE
8
BLACK
6
CONTINUOUS
10
9.0628542913385832
20
-0.7885307086614173
11
9.0611051181102358
21
-0.7875207874015748
0
LINE
8
BLACK
6
CONTINUOUS
10
9.0611051181102358
20
-0.7875207874015748
11
9.0604142913385832
21
-0.7856227952755905
0
LINE
8
BLACK
6
CONTINUOUS
10
9.0604142913385832
20
-0.7856227952755905
11
9.0604142913385832
21
-0.7679531102362205
0
LINE
8
BLACK
6
CONTINUOUS
10
9.0604142913385832
20
-0.7679531102362205
11
9.0438226377952748
21
-0.7679531102362205
0
LINE
8
BLACK
6
CONTINUOUS
10
9.0438226377952748
20
-0.7679531102362205
11
9.0438226377952748
21
-0.7856227952755905
0
LINE
8
BLACK
6
CONTINUOUS
10
9.0438226377952748
20
-0.7856227952755905
11
9.0436445669291334
21
-0.7866327165354331
0
LINE
8
BLACK
6
CONTINUOUS
10
9.0436445669291334
20
-0.7866327165354331
11
9.0423462598425193
21
-0.7881799606299212
0
LINE
8
BLACK
6
CONTINUOUS
10
9.0423462598425193
20
-0.7881799606299212
11
9.0403571259842526
21
-0.7885307086614173
0
LINE
8
BLACK
6
CONTINUOUS
10
9.0403571259842526
20
-0.7885307086614173
11
9.0386079527559051
21
-0.7875207874015748
0
LINE
8
BLACK
6
CONTINUOUS
10
9.0386079527559051
20
-0.7875207874015748
11
9.0379171259842526
21
-0.7856227952755905
0
LINE
8
BLACK
6
CONTINUOUS
10
9.0379171259842526
20
-0.7856227952755905
11
9.0379171259842526
21
-0.746252716535433
0
LINE
8
BLACK
6
CONTINUOUS
10
9.0379171259842526
20
-0.746252716535433
11
9.038095196850394
21
-0.7452427952755906
0
LINE
8
BLACK
6
CONTINUOUS
10
9.038095196850394
20
-0.7452427952755906
11
9.0393935039370081
21
-0.7436955511811023
0
LINE
8
BLACK
6
CONTINUOUS
10
9.0393935039370081
20
-0.7436955511811023
11
9.0413826377952748
21
-0.7433448031496063
0
LINE
8
BLACK
6
CONTINUOUS
10
9.0413826377952748
20
-0.7433448031496063
11
9.0431318110236223
21
-0.7443547244094488
0
LINE
8
BLACK
6
CONTINUOUS
10
9.0431318110236223
20
-0.7443547244094488
11
9.0438226377952748
21
-0.746252716535433
0
LINE
8
BLACK
6
CONTINUOUS
10
9.0438226377952748
20
-0.746252716535433
11
9.0438226377952748
21
-0.7620475984251969
0
LINE
8
BLACK
6
CONTINUOUS
10
9.0438226377952748
20
-0.7620475984251969
11
9.0604142913385832
21
-0.7620475984251969
0
LINE
8
BLACK
6
CONTINUOUS
10
9.0604142913385832
20
-0.7620475984251969
11
9.0604142913385832
21
-0.746252716535433
0
LINE
8
BLACK
6
CONTINUOUS
10
9.0604142913385832
20
-0.746252716535433
11
9.0605923622047246
21
-0.7452427952755906
0
LINE
8
BLACK
6
CONTINUOUS
10
9.0605923622047246
20
-0.7452427952755906
11
9.0618906692913388
21
-0.7436955511811023
0
LINE
8
BLACK
6
CONTINUOUS
10
9.0618906692913388
20
-0.7436955511811023
11
9.0638798031496055
21
-0.7433448031496063
0
LINE
8
BLACK
6
CONTINUOUS
10
9.0638798031496055
20
-0.7433448031496063
11
9.065628976377953
21
-0.7443547244094488
  0
ENDSEC
  0
EOF
