%TF.GenerationSoftware,KiCad,Pcbnew,8.0.6*%
%TF.CreationDate,2025-01-13T11:37:24-05:00*%
%TF.ProjectId,kmh_RTx,6b6d685f-5254-4782-9e6b-696361645f70,rev?*%
%TF.SameCoordinates,Original*%
%TF.FileFunction,Soldermask,Top*%
%TF.FilePolarity,Negative*%
%FSLAX46Y46*%
G04 Gerber Fmt 4.6, Leading zero omitted, Abs format (unit mm)*
G04 Created by KiCad (PCBNEW 8.0.6) date 2025-01-13 11:37:24*
%MOMM*%
%LPD*%
G01*
G04 APERTURE LIST*
G04 Aperture macros list*
%AMRoundRect*
0 Rectangle with rounded corners*
0 $1 Rounding radius*
0 $2 $3 $4 $5 $6 $7 $8 $9 X,Y pos of 4 corners*
0 Add a 4 corners polygon primitive as box body*
4,1,4,$2,$3,$4,$5,$6,$7,$8,$9,$2,$3,0*
0 Add four circle primitives for the rounded corners*
1,1,$1+$1,$2,$3*
1,1,$1+$1,$4,$5*
1,1,$1+$1,$6,$7*
1,1,$1+$1,$8,$9*
0 Add four rect primitives between the rounded corners*
20,1,$1+$1,$2,$3,$4,$5,0*
20,1,$1+$1,$4,$5,$6,$7,0*
20,1,$1+$1,$6,$7,$8,$9,0*
20,1,$1+$1,$8,$9,$2,$3,0*%
G04 Aperture macros list end*
%ADD10C,1.600000*%
%ADD11R,1.800000X1.200000*%
%ADD12R,1.200000X1.800000*%
%ADD13RoundRect,0.200000X0.200000X0.275000X-0.200000X0.275000X-0.200000X-0.275000X0.200000X-0.275000X0*%
%ADD14R,1.700000X1.700000*%
%ADD15O,1.700000X1.700000*%
%ADD16R,3.050000X1.520000*%
%ADD17R,1.400000X0.760000*%
%ADD18R,0.760000X1.400000*%
%ADD19R,8.204200X8.991600*%
%ADD20R,1.752600X0.889000*%
%ADD21RoundRect,0.200000X-0.275000X0.200000X-0.275000X-0.200000X0.275000X-0.200000X0.275000X0.200000X0*%
%ADD22RoundRect,0.200000X-0.200000X-0.275000X0.200000X-0.275000X0.200000X0.275000X-0.200000X0.275000X0*%
%ADD23RoundRect,0.250000X0.650000X-0.325000X0.650000X0.325000X-0.650000X0.325000X-0.650000X-0.325000X0*%
%ADD24RoundRect,0.225000X-0.250000X0.225000X-0.250000X-0.225000X0.250000X-0.225000X0.250000X0.225000X0*%
%ADD25C,1.362000*%
%ADD26R,0.950000X1.750000*%
%ADD27R,3.200000X1.750000*%
%ADD28C,5.000000*%
%ADD29RoundRect,0.225000X-0.225000X-0.250000X0.225000X-0.250000X0.225000X0.250000X-0.225000X0.250000X0*%
%ADD30RoundRect,0.225000X0.225000X0.250000X-0.225000X0.250000X-0.225000X-0.250000X0.225000X-0.250000X0*%
%ADD31C,1.400000*%
%ADD32RoundRect,0.250000X0.475000X-0.250000X0.475000X0.250000X-0.475000X0.250000X-0.475000X-0.250000X0*%
%ADD33RoundRect,0.200000X0.275000X-0.200000X0.275000X0.200000X-0.275000X0.200000X-0.275000X-0.200000X0*%
%ADD34RoundRect,0.243750X-0.456250X0.243750X-0.456250X-0.243750X0.456250X-0.243750X0.456250X0.243750X0*%
%ADD35RoundRect,0.250000X-0.650000X0.325000X-0.650000X-0.325000X0.650000X-0.325000X0.650000X0.325000X0*%
%ADD36RoundRect,0.225000X0.250000X-0.225000X0.250000X0.225000X-0.250000X0.225000X-0.250000X-0.225000X0*%
G04 APERTURE END LIST*
D10*
%TO.C,TP7*%
X126250000Y-51250000D03*
%TD*%
D11*
%TO.C,X4*%
X102750000Y-30200000D03*
X106750000Y-30200000D03*
X106750000Y-27800000D03*
X102750000Y-27800000D03*
%TD*%
%TO.C,X3*%
X102750000Y-35025000D03*
X106750000Y-35025000D03*
X106750000Y-32625000D03*
X102750000Y-32625000D03*
%TD*%
D12*
%TO.C,X2*%
X112400000Y-45750000D03*
X112400000Y-41750000D03*
X110000000Y-41750000D03*
X110000000Y-45750000D03*
%TD*%
%TO.C,X1*%
X117950000Y-45750000D03*
X117950000Y-41750000D03*
X115550000Y-41750000D03*
X115550000Y-45750000D03*
%TD*%
D13*
%TO.C,R12*%
X131325000Y-56750000D03*
X129675000Y-56750000D03*
%TD*%
D14*
%TO.C,J1*%
X126500000Y-56225000D03*
D15*
X126500000Y-58765000D03*
X126500000Y-61305000D03*
%TD*%
D16*
%TO.C,U1*%
X118190000Y-34910000D03*
X118190000Y-32370000D03*
X118190000Y-29830000D03*
X118190000Y-27290000D03*
X125810000Y-27290000D03*
X125810000Y-29830000D03*
X125810000Y-32370000D03*
X125810000Y-34910000D03*
%TD*%
D17*
%TO.C,T1*%
X133250000Y-32210000D03*
X133250000Y-33480000D03*
X133250000Y-34750000D03*
X129820000Y-34750000D03*
X129820000Y-32210000D03*
%TD*%
D18*
%TO.C,T2*%
X134770000Y-42430000D03*
X133500000Y-42430000D03*
X132230000Y-42430000D03*
X132230000Y-39000000D03*
X134770000Y-39000000D03*
%TD*%
D19*
%TO.C,U2*%
X117000000Y-55000000D03*
D20*
X110421400Y-58439998D03*
X110421400Y-56719999D03*
X110421400Y-55000000D03*
X110421400Y-53279998D03*
X110421400Y-51559999D03*
%TD*%
D10*
%TO.C,TP6*%
X130250000Y-29250000D03*
%TD*%
%TO.C,TP5*%
X113750000Y-27750000D03*
%TD*%
%TO.C,TP4*%
X113750000Y-32000000D03*
%TD*%
%TO.C,TP3*%
X113750000Y-35750000D03*
%TD*%
%TO.C,TP1*%
X121250000Y-39000000D03*
%TD*%
D21*
%TO.C,R11*%
X133500000Y-44675000D03*
X133500000Y-46325000D03*
%TD*%
D13*
%TO.C,R10*%
X131075000Y-37250000D03*
X129425000Y-37250000D03*
%TD*%
D21*
%TO.C,R9*%
X136750000Y-40175000D03*
X136750000Y-41825000D03*
%TD*%
%TO.C,R8*%
X129750000Y-40175000D03*
X129750000Y-41825000D03*
%TD*%
%TO.C,R7*%
X108000000Y-58175000D03*
X108000000Y-59825000D03*
%TD*%
D22*
%TO.C,R6*%
X107850000Y-61500000D03*
X109500000Y-61500000D03*
%TD*%
D23*
%TO.C,C13*%
X103500000Y-55025000D03*
X103500000Y-57975000D03*
%TD*%
%TO.C,C12*%
X107000000Y-52975000D03*
X107000000Y-50025000D03*
%TD*%
D24*
%TO.C,C4*%
X110000000Y-37725000D03*
X110000000Y-39275000D03*
%TD*%
D25*
%TO.C,H7*%
X96850000Y-54000000D03*
%TD*%
D26*
%TO.C,IC2*%
X93700000Y-38150000D03*
X96000000Y-38150000D03*
X98300000Y-38150000D03*
D27*
X96000000Y-31850000D03*
%TD*%
D28*
%TO.C,H4*%
X135500000Y-61500000D03*
%TD*%
D29*
%TO.C,C5*%
X103975000Y-37250000D03*
X105525000Y-37250000D03*
%TD*%
D30*
%TO.C,C16*%
X91275000Y-38000000D03*
X89725000Y-38000000D03*
%TD*%
D31*
%TO.C,TP2*%
X103000000Y-41000000D03*
%TD*%
D30*
%TO.C,C6*%
X111285000Y-32900000D03*
X109735000Y-32900000D03*
%TD*%
D22*
%TO.C,R4*%
X130175000Y-46250000D03*
X131825000Y-46250000D03*
%TD*%
D25*
%TO.C,H10*%
X91475000Y-49950000D03*
%TD*%
D30*
%TO.C,C1*%
X117025000Y-38750000D03*
X115475000Y-38750000D03*
%TD*%
D32*
%TO.C,C14*%
X106000000Y-55050000D03*
X106000000Y-56950000D03*
%TD*%
D33*
%TO.C,R3*%
X96850000Y-61675000D03*
X96850000Y-60025000D03*
%TD*%
D30*
%TO.C,C8*%
X109475000Y-27750000D03*
X111025000Y-27750000D03*
%TD*%
D25*
%TO.C,H6*%
X96800000Y-50725000D03*
%TD*%
D29*
%TO.C,C2*%
X120225000Y-46000000D03*
X121775000Y-46000000D03*
%TD*%
D28*
%TO.C,H3*%
X135500000Y-27500000D03*
%TD*%
D25*
%TO.C,H9*%
X91425000Y-46575000D03*
%TD*%
D22*
%TO.C,R1*%
X104075000Y-52250000D03*
X102425000Y-52250000D03*
%TD*%
D21*
%TO.C,R2*%
X135500000Y-44675000D03*
X135500000Y-46325000D03*
%TD*%
D34*
%TO.C,C17*%
X99800000Y-40562500D03*
X99800000Y-42437500D03*
%TD*%
D25*
%TO.C,H5*%
X96800000Y-47725000D03*
%TD*%
%TO.C,H14*%
X135500000Y-49500000D03*
%TD*%
D28*
%TO.C,H2*%
X91500000Y-27500000D03*
%TD*%
D35*
%TO.C,C15*%
X92250000Y-40525000D03*
X92250000Y-43475000D03*
%TD*%
D36*
%TO.C,C3*%
X107750000Y-45000000D03*
X107750000Y-43450000D03*
%TD*%
%TO.C,C7*%
X100500000Y-28050000D03*
X100500000Y-26500000D03*
%TD*%
D25*
%TO.C,H15*%
X131000000Y-49500000D03*
%TD*%
%TO.C,H8*%
X96850000Y-57000000D03*
%TD*%
D13*
%TO.C,R5*%
X131325000Y-59000000D03*
X129675000Y-59000000D03*
%TD*%
D25*
%TO.C,H11*%
X91500000Y-53500000D03*
%TD*%
D28*
%TO.C,H1*%
X91500000Y-61500000D03*
%TD*%
M02*
