M48
; DRILL file {KiCad 8.0.6} date 2025-01-13T11:37:07-0500
; FORMAT={-:-/ absolute / inch / decimal}
; #@! TF.CreationDate,2025-01-13T11:37:07-05:00
; #@! TF.GenerationSoftware,Kicad,Pcbnew,8.0.6
; #@! TF.FileFunction,Plated,1,2,PTH
FMAT,2
INCH
; #@! TA.AperFunction,Plated,PTH,ViaDrill
T1C0.0118
; #@! TA.AperFunction,Plated,PTH,ComponentDrill
T2C0.0276
; #@! TA.AperFunction,Plated,PTH,ComponentDrill
T3C0.0330
; #@! TA.AperFunction,Plated,PTH,ComponentDrill
T4C0.0394
; #@! TA.AperFunction,Plated,PTH,ComponentDrill
T5C0.0402
; #@! TA.AperFunction,Plated,PTH,ComponentDrill
T6C0.0984
%
G90
G05
T1
X3.5335Y-1.565
X3.563Y-1.7126
X3.5827Y-1.2598
X3.5827Y-1.3386
X3.6614Y-1.2598
X3.7402Y-1.0433
X3.7402Y-1.1417
X3.7795Y-2.4803
X3.7894Y-1.5846
X3.7894Y-1.6437
X3.7894Y-1.7028
X3.8189Y-1.0433
X3.8189Y-1.1417
X3.8878Y-1.2106
X3.8878Y-1.2697
X3.8976Y-1.0433
X3.8976Y-2.4409
X3.9272Y-1.7224
X3.9961Y-2.1654
X4.2224Y-1.4665
X4.2323Y-2.1654
X4.2421Y-1.6535
X4.2815Y-2.1654
X4.2913Y-1.1909
X4.2913Y-1.3681
X4.2913Y-1.9685
X4.3602Y-2.4213
X4.4291Y-1.5748
X4.4587Y-2.0079
X4.4587Y-2.1063
X4.4587Y-2.2047
X4.4587Y-2.3031
X4.5128Y-2.4035
X4.5276Y-2.0079
X4.5276Y-2.1063
X4.5276Y-2.2047
X4.5276Y-2.3031
X4.6063Y-2.0079
X4.6063Y-2.1063
X4.6063Y-2.2047
X4.6063Y-2.3031
X4.6112Y-2.4035
X4.685Y-2.0079
X4.685Y-2.1063
X4.685Y-2.2047
X4.685Y-2.3031
X4.7053Y-1.6447
X4.7539Y-2.0079
X4.7539Y-2.1063
X4.7539Y-2.2047
X4.7539Y-2.3031
X4.8425Y-1.811
X4.8425Y-1.9783
X4.8425Y-2.0571
X4.8425Y-2.1358
X4.8425Y-2.2047
X4.8425Y-2.2835
X4.8425Y-2.3622
X4.9016Y-1.4862
X4.9016Y-1.5748
X4.9016Y-1.6732
X4.9016Y-1.7717
X4.9606Y-1.4862
X4.9606Y-1.6732
X4.9606Y-1.7717
X4.9606Y-1.8504
X4.9612Y-1.5748
X5.0787Y-1.8209
X5.1181Y-1.4173
X5.1772Y-2.0669
X5.2165Y-2.2343
X5.2165Y-2.3228
X5.2461Y-2.1654
X5.2559Y-2.0669
X5.3248Y-2.1654
X5.3248Y-2.2638
X5.3346Y-2.0669
X5.4035Y-2.1654
X5.4035Y-2.2638
T2
X4.0551Y-1.6142
T3
X3.5994Y-1.8337
X3.6014Y-1.9665
X3.6024Y-2.1063
X3.811Y-1.8789
X3.811Y-1.997
X3.813Y-2.126
X3.813Y-2.2441
X5.1575Y-1.9488
X5.3346Y-1.9488
T4
X4.9803Y-2.2136
X4.9803Y-2.3136
X4.9803Y-2.4136
T5
X4.4783Y-1.0925
X4.4783Y-1.2598
X4.4783Y-1.4075
X4.7736Y-1.5354
X4.9705Y-2.0177
X5.128Y-1.1516
T6
X3.6024Y-1.0827
X3.6024Y-2.4213
X5.3346Y-1.0827
X5.3346Y-2.4213
M30
