%TF.GenerationSoftware,KiCad,Pcbnew,8.0.6*%
%TF.CreationDate,2025-01-13T11:37:24-05:00*%
%TF.ProjectId,kmh_RTx,6b6d685f-5254-4782-9e6b-696361645f70,rev?*%
%TF.SameCoordinates,Original*%
%TF.FileFunction,Copper,L2,Bot*%
%TF.FilePolarity,Positive*%
%FSLAX46Y46*%
G04 Gerber Fmt 4.6, Leading zero omitted, Abs format (unit mm)*
G04 Created by KiCad (PCBNEW 8.0.6) date 2025-01-13 11:37:24*
%MOMM*%
%LPD*%
G01*
G04 APERTURE LIST*
%TA.AperFunction,ComponentPad*%
%ADD10C,1.600000*%
%TD*%
%TA.AperFunction,ComponentPad*%
%ADD11R,1.700000X1.700000*%
%TD*%
%TA.AperFunction,ComponentPad*%
%ADD12O,1.700000X1.700000*%
%TD*%
%TA.AperFunction,ComponentPad*%
%ADD13C,1.362000*%
%TD*%
%TA.AperFunction,ComponentPad*%
%ADD14C,5.000000*%
%TD*%
%TA.AperFunction,ComponentPad*%
%ADD15C,1.400000*%
%TD*%
%TA.AperFunction,ViaPad*%
%ADD16C,0.600000*%
%TD*%
G04 APERTURE END LIST*
D10*
%TO.P,TP7,1,1*%
%TO.N,GND*%
X126250000Y-51250000D03*
%TD*%
D11*
%TO.P,J1,1,Pin_1*%
%TO.N,Net-(J1-Pin_1)*%
X126500000Y-56225000D03*
D12*
%TO.P,J1,2,Pin_2*%
%TO.N,Net-(J1-Pin_2)*%
X126500000Y-58765000D03*
%TO.P,J1,3,Pin_3*%
%TO.N,Net-(J1-Pin_3)*%
X126500000Y-61305000D03*
%TD*%
D10*
%TO.P,TP6,1,1*%
%TO.N,Net-(U1-SUM_PORT)*%
X130250000Y-29250000D03*
%TD*%
%TO.P,TP5,1,1*%
%TO.N,Net-(U1-PORT_4)*%
X113750000Y-27750000D03*
%TD*%
%TO.P,TP4,1,1*%
%TO.N,Net-(U1-PORT_3)*%
X113750000Y-32000000D03*
%TD*%
%TO.P,TP3,1,1*%
%TO.N,Net-(U1-PORT_2)*%
X113750000Y-35750000D03*
%TD*%
%TO.P,TP1,1,1*%
%TO.N,Net-(U1-PORT_1)*%
X121250000Y-39000000D03*
%TD*%
D13*
%TO.P,H7,1,1*%
%TO.N,ReleaseAntenna*%
X96850000Y-54000000D03*
%TD*%
D14*
%TO.P,H4,1*%
%TO.N,N/C*%
X135500000Y-61500000D03*
%TD*%
D15*
%TO.P,TP2,1,1*%
%TO.N,+3.3V*%
X103000000Y-41000000D03*
%TD*%
D13*
%TO.P,H10,1,1*%
%TO.N,Net-(H10-Pad1)*%
X91475000Y-49950000D03*
%TD*%
%TO.P,H6,1,1*%
%TO.N,+15V*%
X96800000Y-50725000D03*
%TD*%
D14*
%TO.P,H3,1*%
%TO.N,N/C*%
X135500000Y-27500000D03*
%TD*%
D13*
%TO.P,H9,1,1*%
%TO.N,Net-(H10-Pad1)*%
X91425000Y-46575000D03*
%TD*%
%TO.P,H5,1,1*%
%TO.N,+15V*%
X96800000Y-47725000D03*
%TD*%
%TO.P,H14,1,1*%
%TO.N,Net-(H14-Pad1)*%
X135500000Y-49500000D03*
%TD*%
D14*
%TO.P,H2,1*%
%TO.N,N/C*%
X91500000Y-27500000D03*
%TD*%
D13*
%TO.P,H15,1,1*%
%TO.N,GNDPWR*%
X131000000Y-49500000D03*
%TD*%
%TO.P,H8,1,1*%
%TO.N,Net-(H10-Pad1)*%
X96850000Y-57000000D03*
%TD*%
%TO.P,H11,1,1*%
%TO.N,Net-(H10-Pad1)*%
X91500000Y-53500000D03*
%TD*%
D14*
%TO.P,H1,1*%
%TO.N,N/C*%
X91500000Y-61500000D03*
%TD*%
D16*
%TO.N,GND*%
X107750000Y-42000000D03*
X129000000Y-46250000D03*
X132500000Y-56750000D03*
X110750000Y-61500000D03*
X108750000Y-55000000D03*
X107500000Y-55000000D03*
X120750000Y-58500000D03*
X119000000Y-53500000D03*
X119000000Y-51000000D03*
X117000000Y-58500000D03*
X115000000Y-58500000D03*
X113250000Y-58500000D03*
X115000000Y-51000000D03*
X113250000Y-56000000D03*
X115000000Y-53500000D03*
X113250000Y-53500000D03*
X117000000Y-51000000D03*
X113250000Y-51000000D03*
X117000000Y-53500000D03*
X117000000Y-56000000D03*
X115000000Y-56000000D03*
X96250000Y-40250000D03*
X137250000Y-57500000D03*
X123000000Y-60000000D03*
X135250000Y-55000000D03*
X109000000Y-30250000D03*
X89750000Y-39750000D03*
X131500000Y-52500000D03*
X135500000Y-52500000D03*
X124500000Y-45000000D03*
X93000000Y-32000000D03*
X119000000Y-56000000D03*
X137250000Y-55000000D03*
X135250000Y-57500000D03*
X98750000Y-30750000D03*
X99750000Y-43750000D03*
X120750000Y-56000000D03*
X123000000Y-56000000D03*
X114625000Y-61050000D03*
X96250000Y-43250000D03*
X96000000Y-63000000D03*
X123000000Y-52250000D03*
X132500000Y-59000000D03*
X124500000Y-37750000D03*
X101500000Y-55000000D03*
X126000000Y-45000000D03*
X123000000Y-46000000D03*
X120750000Y-53500000D03*
X98750000Y-32250000D03*
X107250000Y-37250000D03*
X91000000Y-34000000D03*
X130000000Y-36000000D03*
X124500000Y-42500000D03*
X120750000Y-51000000D03*
X123000000Y-50250000D03*
X112500000Y-40000000D03*
X119000000Y-58500000D03*
X123000000Y-58000000D03*
X133250000Y-55000000D03*
X95000000Y-26500000D03*
X119515000Y-41775000D03*
X99000000Y-62000000D03*
X109000000Y-50000000D03*
X123000000Y-54250000D03*
X96250000Y-41750000D03*
X99000000Y-26500000D03*
X109000000Y-34750000D03*
X133500000Y-52500000D03*
X97000000Y-26500000D03*
X97000000Y-29000000D03*
X126000000Y-47000000D03*
X117125000Y-61050000D03*
X90500000Y-43500000D03*
X91000000Y-32000000D03*
X124500000Y-40000000D03*
X95000000Y-29000000D03*
X126000000Y-42500000D03*
X126015000Y-40000000D03*
X126000000Y-37750000D03*
%TD*%
%TA.AperFunction,Conductor*%
%TO.N,GND*%
G36*
X133557927Y-25002785D02*
G01*
X133603682Y-25055589D01*
X133613626Y-25124747D01*
X133584601Y-25188303D01*
X133570594Y-25202089D01*
X133437442Y-25313817D01*
X133437440Y-25313819D01*
X133197589Y-25568044D01*
X133197584Y-25568050D01*
X132988870Y-25848402D01*
X132814113Y-26151091D01*
X132814107Y-26151104D01*
X132675674Y-26472027D01*
X132575430Y-26806865D01*
X132575428Y-26806872D01*
X132514739Y-27151061D01*
X132514738Y-27151072D01*
X132494415Y-27499996D01*
X132494415Y-27500003D01*
X132514738Y-27848927D01*
X132514739Y-27848938D01*
X132575428Y-28193127D01*
X132575430Y-28193134D01*
X132675674Y-28527972D01*
X132814107Y-28848895D01*
X132814113Y-28848908D01*
X132988870Y-29151597D01*
X133197584Y-29431949D01*
X133197589Y-29431955D01*
X133321463Y-29563253D01*
X133437442Y-29686183D01*
X133613903Y-29834251D01*
X133705186Y-29910847D01*
X133705194Y-29910853D01*
X133997203Y-30102911D01*
X133997207Y-30102913D01*
X134309549Y-30259777D01*
X134637989Y-30379319D01*
X134978086Y-30459923D01*
X135325241Y-30500500D01*
X135325248Y-30500500D01*
X135674752Y-30500500D01*
X135674759Y-30500500D01*
X136021914Y-30459923D01*
X136362011Y-30379319D01*
X136690451Y-30259777D01*
X137002793Y-30102913D01*
X137294811Y-29910849D01*
X137562558Y-29686183D01*
X137802412Y-29431953D01*
X137802415Y-29431949D01*
X137802706Y-29431641D01*
X137863029Y-29396387D01*
X137932836Y-29399342D01*
X137989964Y-29439569D01*
X138016274Y-29504295D01*
X138016900Y-29516735D01*
X138016900Y-59483264D01*
X137997215Y-59550303D01*
X137944411Y-59596058D01*
X137875253Y-59606002D01*
X137811697Y-59576977D01*
X137802706Y-59568358D01*
X137684276Y-59442830D01*
X137562558Y-59313817D01*
X137414488Y-59189572D01*
X137294813Y-59089152D01*
X137294805Y-59089146D01*
X137002796Y-58897088D01*
X136690458Y-58740226D01*
X136690452Y-58740223D01*
X136362012Y-58620681D01*
X136362009Y-58620680D01*
X136021915Y-58540077D01*
X135978519Y-58535004D01*
X135674759Y-58499500D01*
X135325241Y-58499500D01*
X135021480Y-58535004D01*
X134978085Y-58540077D01*
X134978083Y-58540077D01*
X134637990Y-58620680D01*
X134637987Y-58620681D01*
X134309547Y-58740223D01*
X134309541Y-58740226D01*
X133997203Y-58897088D01*
X133705194Y-59089146D01*
X133705186Y-59089152D01*
X133437442Y-59313817D01*
X133437440Y-59313819D01*
X133197589Y-59568044D01*
X133197584Y-59568050D01*
X132988870Y-59848402D01*
X132814113Y-60151091D01*
X132814107Y-60151104D01*
X132675674Y-60472027D01*
X132575430Y-60806865D01*
X132575428Y-60806872D01*
X132514739Y-61151061D01*
X132514738Y-61151072D01*
X132494415Y-61499996D01*
X132494415Y-61500003D01*
X132514738Y-61848927D01*
X132514739Y-61848938D01*
X132575428Y-62193127D01*
X132575430Y-62193134D01*
X132675674Y-62527972D01*
X132814107Y-62848895D01*
X132814113Y-62848908D01*
X132988870Y-63151597D01*
X133197584Y-63431949D01*
X133197589Y-63431955D01*
X133321463Y-63563253D01*
X133437442Y-63686183D01*
X133531924Y-63765462D01*
X133570594Y-63797911D01*
X133609296Y-63856082D01*
X133610404Y-63925943D01*
X133573567Y-63985313D01*
X133510480Y-64015342D01*
X133490888Y-64016900D01*
X93509112Y-64016900D01*
X93442073Y-63997215D01*
X93396318Y-63944411D01*
X93386374Y-63875253D01*
X93415399Y-63811697D01*
X93429406Y-63797911D01*
X93453644Y-63777572D01*
X93562558Y-63686183D01*
X93802412Y-63431953D01*
X94011130Y-63151596D01*
X94185889Y-62848904D01*
X94324326Y-62527971D01*
X94424569Y-62193136D01*
X94461652Y-61982830D01*
X94485260Y-61848938D01*
X94485259Y-61848938D01*
X94485262Y-61848927D01*
X94503231Y-61540413D01*
X94505585Y-61500003D01*
X94505585Y-61499996D01*
X94494227Y-61304999D01*
X94485262Y-61151073D01*
X94485260Y-61151061D01*
X94424571Y-60806872D01*
X94424569Y-60806865D01*
X94324325Y-60472027D01*
X94235672Y-60266506D01*
X94185889Y-60151096D01*
X94060217Y-59933425D01*
X94011129Y-59848402D01*
X93802415Y-59568050D01*
X93802410Y-59568044D01*
X93684276Y-59442830D01*
X93562558Y-59313817D01*
X93414488Y-59189572D01*
X93294813Y-59089152D01*
X93294805Y-59089146D01*
X93002796Y-58897088D01*
X92739785Y-58764999D01*
X125144341Y-58764999D01*
X125144341Y-58765000D01*
X125164936Y-59000403D01*
X125164938Y-59000413D01*
X125226094Y-59228655D01*
X125226096Y-59228659D01*
X125226097Y-59228663D01*
X125265805Y-59313817D01*
X125325965Y-59442830D01*
X125325967Y-59442834D01*
X125461501Y-59636395D01*
X125461506Y-59636402D01*
X125628597Y-59803493D01*
X125628603Y-59803498D01*
X125814158Y-59933425D01*
X125857783Y-59988002D01*
X125864977Y-60057500D01*
X125833454Y-60119855D01*
X125814158Y-60136575D01*
X125628597Y-60266505D01*
X125461505Y-60433597D01*
X125325965Y-60627169D01*
X125325964Y-60627171D01*
X125226098Y-60841335D01*
X125226094Y-60841344D01*
X125164938Y-61069586D01*
X125164936Y-61069596D01*
X125144341Y-61304999D01*
X125144341Y-61305000D01*
X125164936Y-61540403D01*
X125164938Y-61540413D01*
X125226094Y-61768655D01*
X125226096Y-61768659D01*
X125226097Y-61768663D01*
X125263525Y-61848927D01*
X125325965Y-61982830D01*
X125325967Y-61982834D01*
X125434281Y-62137521D01*
X125461505Y-62176401D01*
X125628599Y-62343495D01*
X125725384Y-62411265D01*
X125822165Y-62479032D01*
X125822167Y-62479033D01*
X125822170Y-62479035D01*
X126036337Y-62578903D01*
X126264592Y-62640063D01*
X126452918Y-62656539D01*
X126499999Y-62660659D01*
X126500000Y-62660659D01*
X126500001Y-62660659D01*
X126539234Y-62657226D01*
X126735408Y-62640063D01*
X126963663Y-62578903D01*
X127177830Y-62479035D01*
X127371401Y-62343495D01*
X127538495Y-62176401D01*
X127674035Y-61982830D01*
X127773903Y-61768663D01*
X127835063Y-61540408D01*
X127855659Y-61305000D01*
X127835063Y-61069592D01*
X127773903Y-60841337D01*
X127674035Y-60627171D01*
X127565403Y-60472027D01*
X127538494Y-60433597D01*
X127371402Y-60266506D01*
X127371396Y-60266501D01*
X127185842Y-60136575D01*
X127142217Y-60081998D01*
X127135023Y-60012500D01*
X127166546Y-59950145D01*
X127185842Y-59933425D01*
X127307267Y-59848402D01*
X127371401Y-59803495D01*
X127538495Y-59636401D01*
X127674035Y-59442830D01*
X127773903Y-59228663D01*
X127835063Y-59000408D01*
X127855659Y-58765000D01*
X127835063Y-58529592D01*
X127773903Y-58301337D01*
X127674035Y-58087171D01*
X127538495Y-57893599D01*
X127416567Y-57771671D01*
X127383084Y-57710351D01*
X127388068Y-57640659D01*
X127429939Y-57584725D01*
X127460915Y-57567810D01*
X127592331Y-57518796D01*
X127707546Y-57432546D01*
X127793796Y-57317331D01*
X127844091Y-57182483D01*
X127850500Y-57122873D01*
X127850499Y-55327128D01*
X127844091Y-55267517D01*
X127797002Y-55141266D01*
X127793797Y-55132671D01*
X127793793Y-55132664D01*
X127707547Y-55017455D01*
X127707544Y-55017452D01*
X127592335Y-54931206D01*
X127592328Y-54931202D01*
X127457482Y-54880908D01*
X127457483Y-54880908D01*
X127397883Y-54874501D01*
X127397881Y-54874500D01*
X127397873Y-54874500D01*
X127397864Y-54874500D01*
X125602129Y-54874500D01*
X125602123Y-54874501D01*
X125542516Y-54880908D01*
X125407671Y-54931202D01*
X125407664Y-54931206D01*
X125292455Y-55017452D01*
X125292452Y-55017455D01*
X125206206Y-55132664D01*
X125206202Y-55132671D01*
X125155908Y-55267517D01*
X125149501Y-55327116D01*
X125149501Y-55327123D01*
X125149500Y-55327135D01*
X125149500Y-57122870D01*
X125149501Y-57122876D01*
X125155908Y-57182483D01*
X125206202Y-57317328D01*
X125206206Y-57317335D01*
X125292452Y-57432544D01*
X125292455Y-57432547D01*
X125407664Y-57518793D01*
X125407671Y-57518797D01*
X125539081Y-57567810D01*
X125595015Y-57609681D01*
X125619432Y-57675145D01*
X125604580Y-57743418D01*
X125583430Y-57771673D01*
X125461503Y-57893600D01*
X125325965Y-58087169D01*
X125325964Y-58087171D01*
X125226098Y-58301335D01*
X125226094Y-58301344D01*
X125164938Y-58529586D01*
X125164936Y-58529596D01*
X125144341Y-58764999D01*
X92739785Y-58764999D01*
X92690458Y-58740226D01*
X92690452Y-58740223D01*
X92362012Y-58620681D01*
X92362009Y-58620680D01*
X92021915Y-58540077D01*
X91978519Y-58535004D01*
X91674759Y-58499500D01*
X91325241Y-58499500D01*
X91021480Y-58535004D01*
X90978085Y-58540077D01*
X90978083Y-58540077D01*
X90637990Y-58620680D01*
X90637987Y-58620681D01*
X90309547Y-58740223D01*
X90309541Y-58740226D01*
X89997203Y-58897088D01*
X89705194Y-59089146D01*
X89705186Y-59089152D01*
X89437442Y-59313817D01*
X89437440Y-59313819D01*
X89197294Y-59568358D01*
X89136971Y-59603612D01*
X89067164Y-59600657D01*
X89010036Y-59560430D01*
X88983726Y-59495703D01*
X88983100Y-59483264D01*
X88983100Y-56999999D01*
X95663438Y-56999999D01*
X95663438Y-57000000D01*
X95683640Y-57218029D01*
X95743563Y-57428633D01*
X95743567Y-57428642D01*
X95841159Y-57624634D01*
X95841166Y-57624646D01*
X95853259Y-57640659D01*
X95973120Y-57799382D01*
X96134937Y-57946897D01*
X96321104Y-58062167D01*
X96321105Y-58062167D01*
X96321106Y-58062168D01*
X96364360Y-58078924D01*
X96525282Y-58141266D01*
X96740518Y-58181500D01*
X96740521Y-58181500D01*
X96959479Y-58181500D01*
X96959482Y-58181500D01*
X97174718Y-58141266D01*
X97378896Y-58062167D01*
X97565063Y-57946897D01*
X97726880Y-57799382D01*
X97858835Y-57624644D01*
X97956436Y-57428636D01*
X98016359Y-57218030D01*
X98036562Y-57000000D01*
X98016359Y-56781970D01*
X97956436Y-56571364D01*
X97907830Y-56473751D01*
X97858840Y-56375365D01*
X97858833Y-56375353D01*
X97835638Y-56344638D01*
X97726880Y-56200618D01*
X97565063Y-56053103D01*
X97378896Y-55937833D01*
X97378894Y-55937832D01*
X97378893Y-55937831D01*
X97217974Y-55875491D01*
X97174718Y-55858734D01*
X96959482Y-55818500D01*
X96740518Y-55818500D01*
X96525282Y-55858734D01*
X96525279Y-55858734D01*
X96525279Y-55858735D01*
X96321106Y-55937831D01*
X96321105Y-55937832D01*
X96134941Y-56053100D01*
X96134939Y-56053101D01*
X96134937Y-56053103D01*
X95992583Y-56182874D01*
X95973121Y-56200617D01*
X95841166Y-56375353D01*
X95841159Y-56375365D01*
X95743567Y-56571357D01*
X95743563Y-56571366D01*
X95683640Y-56781970D01*
X95663438Y-56999999D01*
X88983100Y-56999999D01*
X88983100Y-53499999D01*
X90313438Y-53499999D01*
X90313438Y-53500000D01*
X90333640Y-53718029D01*
X90393563Y-53928633D01*
X90393567Y-53928642D01*
X90491159Y-54124634D01*
X90491166Y-54124646D01*
X90535752Y-54183687D01*
X90623120Y-54299382D01*
X90784937Y-54446897D01*
X90971104Y-54562167D01*
X90971105Y-54562167D01*
X90971106Y-54562168D01*
X91014360Y-54578924D01*
X91175282Y-54641266D01*
X91390518Y-54681500D01*
X91390521Y-54681500D01*
X91609479Y-54681500D01*
X91609482Y-54681500D01*
X91824718Y-54641266D01*
X92028896Y-54562167D01*
X92215063Y-54446897D01*
X92376880Y-54299382D01*
X92508835Y-54124644D01*
X92570901Y-53999999D01*
X95663438Y-53999999D01*
X95663438Y-54000000D01*
X95683640Y-54218029D01*
X95743563Y-54428633D01*
X95743567Y-54428642D01*
X95841159Y-54624634D01*
X95841166Y-54624646D01*
X95853717Y-54641266D01*
X95973120Y-54799382D01*
X96134937Y-54946897D01*
X96321104Y-55062167D01*
X96321105Y-55062167D01*
X96321106Y-55062168D01*
X96364360Y-55078924D01*
X96525282Y-55141266D01*
X96740518Y-55181500D01*
X96740521Y-55181500D01*
X96959479Y-55181500D01*
X96959482Y-55181500D01*
X97174718Y-55141266D01*
X97378896Y-55062167D01*
X97565063Y-54946897D01*
X97726880Y-54799382D01*
X97858835Y-54624644D01*
X97956436Y-54428636D01*
X98016359Y-54218030D01*
X98036562Y-54000000D01*
X98016359Y-53781970D01*
X97956436Y-53571364D01*
X97907830Y-53473751D01*
X97858840Y-53375365D01*
X97858833Y-53375353D01*
X97835638Y-53344638D01*
X97726880Y-53200618D01*
X97565063Y-53053103D01*
X97378896Y-52937833D01*
X97378894Y-52937832D01*
X97378893Y-52937831D01*
X97217617Y-52875353D01*
X97174718Y-52858734D01*
X96959482Y-52818500D01*
X96740518Y-52818500D01*
X96525282Y-52858734D01*
X96525279Y-52858734D01*
X96525279Y-52858735D01*
X96321106Y-52937831D01*
X96321105Y-52937832D01*
X96134941Y-53053100D01*
X96134939Y-53053101D01*
X96134937Y-53053103D01*
X95992583Y-53182874D01*
X95973121Y-53200617D01*
X95841166Y-53375353D01*
X95841159Y-53375365D01*
X95743567Y-53571357D01*
X95743563Y-53571366D01*
X95683640Y-53781970D01*
X95663438Y-53999999D01*
X92570901Y-53999999D01*
X92606436Y-53928636D01*
X92666359Y-53718030D01*
X92686562Y-53500000D01*
X92666359Y-53281970D01*
X92606436Y-53071364D01*
X92539944Y-52937831D01*
X92508840Y-52875365D01*
X92508833Y-52875353D01*
X92485638Y-52844638D01*
X92376880Y-52700618D01*
X92215063Y-52553103D01*
X92028896Y-52437833D01*
X92028894Y-52437832D01*
X92028893Y-52437831D01*
X91867974Y-52375491D01*
X91824718Y-52358734D01*
X91609482Y-52318500D01*
X91390518Y-52318500D01*
X91175282Y-52358734D01*
X91175279Y-52358734D01*
X91175279Y-52358735D01*
X90971106Y-52437831D01*
X90971105Y-52437832D01*
X90784941Y-52553100D01*
X90784939Y-52553101D01*
X90784937Y-52553103D01*
X90642583Y-52682874D01*
X90623121Y-52700617D01*
X90491166Y-52875353D01*
X90491159Y-52875365D01*
X90393567Y-53071357D01*
X90393563Y-53071366D01*
X90333640Y-53281970D01*
X90313438Y-53499999D01*
X88983100Y-53499999D01*
X88983100Y-49949999D01*
X90288438Y-49949999D01*
X90288438Y-49950000D01*
X90308640Y-50168029D01*
X90368563Y-50378633D01*
X90368567Y-50378642D01*
X90466159Y-50574634D01*
X90466166Y-50574646D01*
X90510752Y-50633687D01*
X90598120Y-50749382D01*
X90759937Y-50896897D01*
X90946104Y-51012167D01*
X90946105Y-51012167D01*
X90946106Y-51012168D01*
X90988419Y-51028560D01*
X91150282Y-51091266D01*
X91365518Y-51131500D01*
X91365521Y-51131500D01*
X91584479Y-51131500D01*
X91584482Y-51131500D01*
X91799718Y-51091266D01*
X92003896Y-51012167D01*
X92190063Y-50896897D01*
X92351880Y-50749382D01*
X92370293Y-50724999D01*
X95613438Y-50724999D01*
X95613438Y-50725000D01*
X95633640Y-50943029D01*
X95693563Y-51153633D01*
X95693567Y-51153642D01*
X95791159Y-51349634D01*
X95791166Y-51349646D01*
X95835752Y-51408687D01*
X95923120Y-51524382D01*
X96084937Y-51671897D01*
X96271104Y-51787167D01*
X96271105Y-51787167D01*
X96271106Y-51787168D01*
X96314360Y-51803924D01*
X96475282Y-51866266D01*
X96690518Y-51906500D01*
X96690521Y-51906500D01*
X96909479Y-51906500D01*
X96909482Y-51906500D01*
X97124718Y-51866266D01*
X97328896Y-51787167D01*
X97515063Y-51671897D01*
X97676880Y-51524382D01*
X97808835Y-51349644D01*
X97858453Y-51249999D01*
X125044859Y-51249999D01*
X125044859Y-51250000D01*
X125065378Y-51471439D01*
X125126238Y-51685345D01*
X125126242Y-51685355D01*
X125214046Y-51861689D01*
X125743929Y-51331806D01*
X125774755Y-51446853D01*
X125841898Y-51563147D01*
X125936853Y-51658102D01*
X126053147Y-51725245D01*
X126168192Y-51756070D01*
X125640343Y-52283919D01*
X125640343Y-52283920D01*
X125712813Y-52328792D01*
X125712831Y-52328801D01*
X125920190Y-52409133D01*
X126138807Y-52450000D01*
X126361193Y-52450000D01*
X126579809Y-52409133D01*
X126787174Y-52328799D01*
X126787180Y-52328796D01*
X126859656Y-52283920D01*
X126859656Y-52283919D01*
X126331807Y-51756070D01*
X126446853Y-51725245D01*
X126563147Y-51658102D01*
X126658102Y-51563147D01*
X126725245Y-51446853D01*
X126756070Y-51331806D01*
X127285953Y-51861689D01*
X127373759Y-51685350D01*
X127434621Y-51471439D01*
X127455141Y-51250000D01*
X127455141Y-51249999D01*
X127434621Y-51028560D01*
X127373761Y-50814654D01*
X127373757Y-50814644D01*
X127285952Y-50638309D01*
X126756070Y-51168192D01*
X126725245Y-51053147D01*
X126658102Y-50936853D01*
X126563147Y-50841898D01*
X126446853Y-50774755D01*
X126331807Y-50743929D01*
X126859656Y-50216079D01*
X126859655Y-50216078D01*
X126787178Y-50171202D01*
X126787177Y-50171201D01*
X126579804Y-50090865D01*
X126361193Y-50050000D01*
X126138807Y-50050000D01*
X125920195Y-50090865D01*
X125712824Y-50171200D01*
X125712823Y-50171201D01*
X125640342Y-50216079D01*
X126168192Y-50743929D01*
X126053147Y-50774755D01*
X125936853Y-50841898D01*
X125841898Y-50936853D01*
X125774755Y-51053147D01*
X125743929Y-51168192D01*
X125214046Y-50638309D01*
X125126239Y-50814653D01*
X125126238Y-50814654D01*
X125065378Y-51028560D01*
X125044859Y-51249999D01*
X97858453Y-51249999D01*
X97906436Y-51153636D01*
X97966359Y-50943030D01*
X97986562Y-50725000D01*
X97966359Y-50506970D01*
X97906436Y-50296364D01*
X97842533Y-50168030D01*
X97808840Y-50100365D01*
X97808833Y-50100353D01*
X97770808Y-50050000D01*
X97676880Y-49925618D01*
X97515063Y-49778103D01*
X97328896Y-49662833D01*
X97328894Y-49662832D01*
X97328893Y-49662831D01*
X97167974Y-49600491D01*
X97124718Y-49583734D01*
X96909482Y-49543500D01*
X96690518Y-49543500D01*
X96475282Y-49583734D01*
X96475279Y-49583734D01*
X96475279Y-49583735D01*
X96271106Y-49662831D01*
X96271105Y-49662832D01*
X96084941Y-49778100D01*
X96084939Y-49778101D01*
X96084937Y-49778103D01*
X95923120Y-49925618D01*
X95904708Y-49949999D01*
X95791166Y-50100353D01*
X95791159Y-50100365D01*
X95693567Y-50296357D01*
X95693563Y-50296366D01*
X95633640Y-50506970D01*
X95613438Y-50724999D01*
X92370293Y-50724999D01*
X92483835Y-50574644D01*
X92581436Y-50378636D01*
X92641359Y-50168030D01*
X92661562Y-49950000D01*
X92641359Y-49731970D01*
X92581436Y-49521364D01*
X92570797Y-49499999D01*
X129813438Y-49499999D01*
X129813438Y-49500000D01*
X129833640Y-49718029D01*
X129893563Y-49928633D01*
X129893567Y-49928642D01*
X129991159Y-50124634D01*
X129991166Y-50124646D01*
X130023928Y-50168030D01*
X130123120Y-50299382D01*
X130284937Y-50446897D01*
X130471104Y-50562167D01*
X130471105Y-50562167D01*
X130471106Y-50562168D01*
X130503285Y-50574634D01*
X130675282Y-50641266D01*
X130890518Y-50681500D01*
X130890521Y-50681500D01*
X131109479Y-50681500D01*
X131109482Y-50681500D01*
X131324718Y-50641266D01*
X131528896Y-50562167D01*
X131715063Y-50446897D01*
X131876880Y-50299382D01*
X132008835Y-50124644D01*
X132106436Y-49928636D01*
X132166359Y-49718030D01*
X132186562Y-49500000D01*
X132186562Y-49499999D01*
X134313438Y-49499999D01*
X134313438Y-49500000D01*
X134333640Y-49718029D01*
X134393563Y-49928633D01*
X134393567Y-49928642D01*
X134491159Y-50124634D01*
X134491166Y-50124646D01*
X134523928Y-50168030D01*
X134623120Y-50299382D01*
X134784937Y-50446897D01*
X134971104Y-50562167D01*
X134971105Y-50562167D01*
X134971106Y-50562168D01*
X135003285Y-50574634D01*
X135175282Y-50641266D01*
X135390518Y-50681500D01*
X135390521Y-50681500D01*
X135609479Y-50681500D01*
X135609482Y-50681500D01*
X135824718Y-50641266D01*
X136028896Y-50562167D01*
X136215063Y-50446897D01*
X136376880Y-50299382D01*
X136508835Y-50124644D01*
X136606436Y-49928636D01*
X136666359Y-49718030D01*
X136686562Y-49500000D01*
X136666359Y-49281970D01*
X136606436Y-49071364D01*
X136515048Y-48887833D01*
X136508840Y-48875365D01*
X136508833Y-48875353D01*
X136485638Y-48844638D01*
X136376880Y-48700618D01*
X136215063Y-48553103D01*
X136028896Y-48437833D01*
X136028894Y-48437832D01*
X136028893Y-48437831D01*
X135867974Y-48375491D01*
X135824718Y-48358734D01*
X135609482Y-48318500D01*
X135390518Y-48318500D01*
X135175282Y-48358734D01*
X135175279Y-48358734D01*
X135175279Y-48358735D01*
X134971106Y-48437831D01*
X134971105Y-48437832D01*
X134784941Y-48553100D01*
X134784939Y-48553101D01*
X134784937Y-48553103D01*
X134654626Y-48671897D01*
X134623121Y-48700617D01*
X134491166Y-48875353D01*
X134491159Y-48875365D01*
X134393567Y-49071357D01*
X134393563Y-49071366D01*
X134333640Y-49281970D01*
X134313438Y-49499999D01*
X132186562Y-49499999D01*
X132166359Y-49281970D01*
X132106436Y-49071364D01*
X132015048Y-48887833D01*
X132008840Y-48875365D01*
X132008833Y-48875353D01*
X131985638Y-48844638D01*
X131876880Y-48700618D01*
X131715063Y-48553103D01*
X131528896Y-48437833D01*
X131528894Y-48437832D01*
X131528893Y-48437831D01*
X131367974Y-48375491D01*
X131324718Y-48358734D01*
X131109482Y-48318500D01*
X130890518Y-48318500D01*
X130675282Y-48358734D01*
X130675279Y-48358734D01*
X130675279Y-48358735D01*
X130471106Y-48437831D01*
X130471105Y-48437832D01*
X130284941Y-48553100D01*
X130284939Y-48553101D01*
X130284937Y-48553103D01*
X130154626Y-48671897D01*
X130123121Y-48700617D01*
X129991166Y-48875353D01*
X129991159Y-48875365D01*
X129893567Y-49071357D01*
X129893563Y-49071366D01*
X129833640Y-49281970D01*
X129813438Y-49499999D01*
X92570797Y-49499999D01*
X92532830Y-49423751D01*
X92483840Y-49325365D01*
X92483833Y-49325353D01*
X92451072Y-49281970D01*
X92351880Y-49150618D01*
X92190063Y-49003103D01*
X92003896Y-48887833D01*
X92003894Y-48887832D01*
X92003893Y-48887831D01*
X91842974Y-48825491D01*
X91799718Y-48808734D01*
X91584482Y-48768500D01*
X91365518Y-48768500D01*
X91150282Y-48808734D01*
X91150279Y-48808734D01*
X91150279Y-48808735D01*
X90946106Y-48887831D01*
X90946105Y-48887832D01*
X90759941Y-49003100D01*
X90759939Y-49003101D01*
X90759937Y-49003103D01*
X90685066Y-49071357D01*
X90598121Y-49150617D01*
X90466166Y-49325353D01*
X90466159Y-49325365D01*
X90368567Y-49521357D01*
X90368563Y-49521366D01*
X90308640Y-49731970D01*
X90288438Y-49949999D01*
X88983100Y-49949999D01*
X88983100Y-46574999D01*
X90238438Y-46574999D01*
X90238438Y-46575000D01*
X90258640Y-46793029D01*
X90318563Y-47003633D01*
X90318567Y-47003642D01*
X90416159Y-47199634D01*
X90416166Y-47199646D01*
X90460752Y-47258687D01*
X90548120Y-47374382D01*
X90709937Y-47521897D01*
X90896104Y-47637167D01*
X90896105Y-47637167D01*
X90896106Y-47637168D01*
X90939360Y-47653924D01*
X91100282Y-47716266D01*
X91315518Y-47756500D01*
X91315521Y-47756500D01*
X91534479Y-47756500D01*
X91534482Y-47756500D01*
X91703000Y-47724999D01*
X95613438Y-47724999D01*
X95613438Y-47725000D01*
X95633640Y-47943029D01*
X95693563Y-48153633D01*
X95693567Y-48153642D01*
X95791159Y-48349634D01*
X95791166Y-48349646D01*
X95798029Y-48358734D01*
X95923120Y-48524382D01*
X96084937Y-48671897D01*
X96271104Y-48787167D01*
X96271105Y-48787167D01*
X96271106Y-48787168D01*
X96314360Y-48803924D01*
X96475282Y-48866266D01*
X96690518Y-48906500D01*
X96690521Y-48906500D01*
X96909479Y-48906500D01*
X96909482Y-48906500D01*
X97124718Y-48866266D01*
X97328896Y-48787167D01*
X97515063Y-48671897D01*
X97676880Y-48524382D01*
X97808835Y-48349644D01*
X97906436Y-48153636D01*
X97966359Y-47943030D01*
X97986562Y-47725000D01*
X97966359Y-47506970D01*
X97906436Y-47296364D01*
X97857830Y-47198751D01*
X97808840Y-47100365D01*
X97808833Y-47100353D01*
X97785638Y-47069638D01*
X97676880Y-46925618D01*
X97515063Y-46778103D01*
X97328896Y-46662833D01*
X97328894Y-46662832D01*
X97328893Y-46662831D01*
X97167974Y-46600491D01*
X97124718Y-46583734D01*
X96909482Y-46543500D01*
X96690518Y-46543500D01*
X96475282Y-46583734D01*
X96475279Y-46583734D01*
X96475279Y-46583735D01*
X96271106Y-46662831D01*
X96271105Y-46662832D01*
X96084941Y-46778100D01*
X96084939Y-46778101D01*
X96084937Y-46778103D01*
X96068563Y-46793030D01*
X95923121Y-46925617D01*
X95791166Y-47100353D01*
X95791159Y-47100365D01*
X95693567Y-47296357D01*
X95693563Y-47296366D01*
X95633640Y-47506970D01*
X95613438Y-47724999D01*
X91703000Y-47724999D01*
X91749718Y-47716266D01*
X91953896Y-47637167D01*
X92140063Y-47521897D01*
X92301880Y-47374382D01*
X92433835Y-47199644D01*
X92531436Y-47003636D01*
X92591359Y-46793030D01*
X92611562Y-46575000D01*
X92591359Y-46356970D01*
X92531436Y-46146364D01*
X92482830Y-46048751D01*
X92433840Y-45950365D01*
X92433833Y-45950353D01*
X92410638Y-45919638D01*
X92301880Y-45775618D01*
X92140063Y-45628103D01*
X91953896Y-45512833D01*
X91953894Y-45512832D01*
X91953893Y-45512831D01*
X91792974Y-45450491D01*
X91749718Y-45433734D01*
X91534482Y-45393500D01*
X91315518Y-45393500D01*
X91100282Y-45433734D01*
X91100279Y-45433734D01*
X91100279Y-45433735D01*
X90896106Y-45512831D01*
X90896105Y-45512832D01*
X90709941Y-45628100D01*
X90709939Y-45628101D01*
X90709937Y-45628103D01*
X90567583Y-45757874D01*
X90548121Y-45775617D01*
X90416166Y-45950353D01*
X90416159Y-45950365D01*
X90318567Y-46146357D01*
X90318563Y-46146366D01*
X90258640Y-46356970D01*
X90238438Y-46574999D01*
X88983100Y-46574999D01*
X88983100Y-40999999D01*
X101794357Y-40999999D01*
X101794357Y-41000000D01*
X101814884Y-41221535D01*
X101814885Y-41221537D01*
X101875769Y-41435523D01*
X101875775Y-41435538D01*
X101974938Y-41634683D01*
X101974943Y-41634691D01*
X102109020Y-41812238D01*
X102273437Y-41962123D01*
X102273439Y-41962125D01*
X102462595Y-42079245D01*
X102462596Y-42079245D01*
X102462599Y-42079247D01*
X102670060Y-42159618D01*
X102888757Y-42200500D01*
X102888759Y-42200500D01*
X103111241Y-42200500D01*
X103111243Y-42200500D01*
X103329940Y-42159618D01*
X103537401Y-42079247D01*
X103726562Y-41962124D01*
X103890981Y-41812236D01*
X104025058Y-41634689D01*
X104124229Y-41435528D01*
X104185115Y-41221536D01*
X104205643Y-41000000D01*
X104185115Y-40778464D01*
X104124229Y-40564472D01*
X104124224Y-40564461D01*
X104025061Y-40365316D01*
X104025056Y-40365308D01*
X103890979Y-40187761D01*
X103726562Y-40037876D01*
X103726560Y-40037874D01*
X103537404Y-39920754D01*
X103537398Y-39920752D01*
X103329940Y-39840382D01*
X103111243Y-39799500D01*
X102888757Y-39799500D01*
X102670060Y-39840382D01*
X102538864Y-39891207D01*
X102462601Y-39920752D01*
X102462595Y-39920754D01*
X102273439Y-40037874D01*
X102273437Y-40037876D01*
X102109020Y-40187761D01*
X101974943Y-40365308D01*
X101974938Y-40365316D01*
X101875775Y-40564461D01*
X101875769Y-40564476D01*
X101814885Y-40778462D01*
X101814884Y-40778464D01*
X101794357Y-40999999D01*
X88983100Y-40999999D01*
X88983100Y-38999998D01*
X119944532Y-38999998D01*
X119944532Y-39000001D01*
X119964364Y-39226686D01*
X119964366Y-39226697D01*
X120023258Y-39446488D01*
X120023261Y-39446497D01*
X120119431Y-39652732D01*
X120119432Y-39652734D01*
X120249954Y-39839141D01*
X120410858Y-40000045D01*
X120410861Y-40000047D01*
X120597266Y-40130568D01*
X120803504Y-40226739D01*
X121023308Y-40285635D01*
X121185230Y-40299801D01*
X121249998Y-40305468D01*
X121250000Y-40305468D01*
X121250002Y-40305468D01*
X121306673Y-40300509D01*
X121476692Y-40285635D01*
X121696496Y-40226739D01*
X121902734Y-40130568D01*
X122089139Y-40000047D01*
X122250047Y-39839139D01*
X122380568Y-39652734D01*
X122476739Y-39446496D01*
X122535635Y-39226692D01*
X122555468Y-39000000D01*
X122535635Y-38773308D01*
X122476739Y-38553504D01*
X122380568Y-38347266D01*
X122250047Y-38160861D01*
X122250045Y-38160858D01*
X122089141Y-37999954D01*
X121902734Y-37869432D01*
X121902732Y-37869431D01*
X121696497Y-37773261D01*
X121696488Y-37773258D01*
X121476697Y-37714366D01*
X121476693Y-37714365D01*
X121476692Y-37714365D01*
X121476691Y-37714364D01*
X121476686Y-37714364D01*
X121250002Y-37694532D01*
X121249998Y-37694532D01*
X121023313Y-37714364D01*
X121023302Y-37714366D01*
X120803511Y-37773258D01*
X120803502Y-37773261D01*
X120597267Y-37869431D01*
X120597265Y-37869432D01*
X120410858Y-37999954D01*
X120249954Y-38160858D01*
X120119432Y-38347265D01*
X120119431Y-38347267D01*
X120023261Y-38553502D01*
X120023258Y-38553511D01*
X119964366Y-38773302D01*
X119964364Y-38773313D01*
X119944532Y-38999998D01*
X88983100Y-38999998D01*
X88983100Y-35749998D01*
X112444532Y-35749998D01*
X112444532Y-35750001D01*
X112464364Y-35976686D01*
X112464366Y-35976697D01*
X112523258Y-36196488D01*
X112523261Y-36196497D01*
X112619431Y-36402732D01*
X112619432Y-36402734D01*
X112749954Y-36589141D01*
X112910858Y-36750045D01*
X112910861Y-36750047D01*
X113097266Y-36880568D01*
X113303504Y-36976739D01*
X113523308Y-37035635D01*
X113685230Y-37049801D01*
X113749998Y-37055468D01*
X113750000Y-37055468D01*
X113750002Y-37055468D01*
X113806673Y-37050509D01*
X113976692Y-37035635D01*
X114196496Y-36976739D01*
X114402734Y-36880568D01*
X114589139Y-36750047D01*
X114750047Y-36589139D01*
X114880568Y-36402734D01*
X114976739Y-36196496D01*
X115035635Y-35976692D01*
X115055468Y-35750000D01*
X115035635Y-35523308D01*
X114976739Y-35303504D01*
X114880568Y-35097266D01*
X114750047Y-34910861D01*
X114750045Y-34910858D01*
X114589141Y-34749954D01*
X114402734Y-34619432D01*
X114402732Y-34619431D01*
X114196497Y-34523261D01*
X114196488Y-34523258D01*
X113976697Y-34464366D01*
X113976693Y-34464365D01*
X113976692Y-34464365D01*
X113976691Y-34464364D01*
X113976686Y-34464364D01*
X113750002Y-34444532D01*
X113749998Y-34444532D01*
X113523313Y-34464364D01*
X113523302Y-34464366D01*
X113303511Y-34523258D01*
X113303502Y-34523261D01*
X113097267Y-34619431D01*
X113097265Y-34619432D01*
X112910858Y-34749954D01*
X112749954Y-34910858D01*
X112619432Y-35097265D01*
X112619431Y-35097267D01*
X112523261Y-35303502D01*
X112523258Y-35303511D01*
X112464366Y-35523302D01*
X112464364Y-35523313D01*
X112444532Y-35749998D01*
X88983100Y-35749998D01*
X88983100Y-31999998D01*
X112444532Y-31999998D01*
X112444532Y-32000001D01*
X112464364Y-32226686D01*
X112464366Y-32226697D01*
X112523258Y-32446488D01*
X112523261Y-32446497D01*
X112619431Y-32652732D01*
X112619432Y-32652734D01*
X112749954Y-32839141D01*
X112910858Y-33000045D01*
X112910861Y-33000047D01*
X113097266Y-33130568D01*
X113303504Y-33226739D01*
X113523308Y-33285635D01*
X113685230Y-33299801D01*
X113749998Y-33305468D01*
X113750000Y-33305468D01*
X113750002Y-33305468D01*
X113806673Y-33300509D01*
X113976692Y-33285635D01*
X114196496Y-33226739D01*
X114402734Y-33130568D01*
X114589139Y-33000047D01*
X114750047Y-32839139D01*
X114880568Y-32652734D01*
X114976739Y-32446496D01*
X115035635Y-32226692D01*
X115055468Y-32000000D01*
X115035635Y-31773308D01*
X114976739Y-31553504D01*
X114880568Y-31347266D01*
X114750047Y-31160861D01*
X114750045Y-31160858D01*
X114589141Y-30999954D01*
X114402734Y-30869432D01*
X114402732Y-30869431D01*
X114196497Y-30773261D01*
X114196488Y-30773258D01*
X113976697Y-30714366D01*
X113976693Y-30714365D01*
X113976692Y-30714365D01*
X113976691Y-30714364D01*
X113976686Y-30714364D01*
X113750002Y-30694532D01*
X113749998Y-30694532D01*
X113523313Y-30714364D01*
X113523302Y-30714366D01*
X113303511Y-30773258D01*
X113303502Y-30773261D01*
X113097267Y-30869431D01*
X113097265Y-30869432D01*
X112910858Y-30999954D01*
X112749954Y-31160858D01*
X112619432Y-31347265D01*
X112619431Y-31347267D01*
X112523261Y-31553502D01*
X112523258Y-31553511D01*
X112464366Y-31773302D01*
X112464364Y-31773313D01*
X112444532Y-31999998D01*
X88983100Y-31999998D01*
X88983100Y-29516735D01*
X89002785Y-29449696D01*
X89055589Y-29403941D01*
X89124747Y-29393997D01*
X89188303Y-29423022D01*
X89197294Y-29431641D01*
X89197585Y-29431949D01*
X89197588Y-29431953D01*
X89437442Y-29686183D01*
X89613903Y-29834251D01*
X89705186Y-29910847D01*
X89705194Y-29910853D01*
X89997203Y-30102911D01*
X89997207Y-30102913D01*
X90309549Y-30259777D01*
X90637989Y-30379319D01*
X90978086Y-30459923D01*
X91325241Y-30500500D01*
X91325248Y-30500500D01*
X91674752Y-30500500D01*
X91674759Y-30500500D01*
X92021914Y-30459923D01*
X92362011Y-30379319D01*
X92690451Y-30259777D01*
X93002793Y-30102913D01*
X93294811Y-29910849D01*
X93562558Y-29686183D01*
X93802412Y-29431953D01*
X93937872Y-29249998D01*
X128944532Y-29249998D01*
X128944532Y-29250001D01*
X128964364Y-29476686D01*
X128964366Y-29476697D01*
X129023258Y-29696488D01*
X129023261Y-29696497D01*
X129119431Y-29902732D01*
X129119432Y-29902734D01*
X129249954Y-30089141D01*
X129410858Y-30250045D01*
X129424757Y-30259777D01*
X129597266Y-30380568D01*
X129803504Y-30476739D01*
X130023308Y-30535635D01*
X130185230Y-30549801D01*
X130249998Y-30555468D01*
X130250000Y-30555468D01*
X130250002Y-30555468D01*
X130306673Y-30550509D01*
X130476692Y-30535635D01*
X130696496Y-30476739D01*
X130902734Y-30380568D01*
X131089139Y-30250047D01*
X131250047Y-30089139D01*
X131380568Y-29902734D01*
X131476739Y-29696496D01*
X131535635Y-29476692D01*
X131555468Y-29250000D01*
X131535635Y-29023308D01*
X131476739Y-28803504D01*
X131380568Y-28597266D01*
X131250047Y-28410861D01*
X131250045Y-28410858D01*
X131089141Y-28249954D01*
X130902734Y-28119432D01*
X130902732Y-28119431D01*
X130696497Y-28023261D01*
X130696488Y-28023258D01*
X130476697Y-27964366D01*
X130476693Y-27964365D01*
X130476692Y-27964365D01*
X130476691Y-27964364D01*
X130476686Y-27964364D01*
X130250002Y-27944532D01*
X130249998Y-27944532D01*
X130023313Y-27964364D01*
X130023302Y-27964366D01*
X129803511Y-28023258D01*
X129803502Y-28023261D01*
X129597267Y-28119431D01*
X129597265Y-28119432D01*
X129410858Y-28249954D01*
X129249954Y-28410858D01*
X129119432Y-28597265D01*
X129119431Y-28597267D01*
X129023261Y-28803502D01*
X129023258Y-28803511D01*
X128964366Y-29023302D01*
X128964364Y-29023313D01*
X128944532Y-29249998D01*
X93937872Y-29249998D01*
X94011130Y-29151596D01*
X94185889Y-28848904D01*
X94324326Y-28527971D01*
X94424569Y-28193136D01*
X94454523Y-28023261D01*
X94485260Y-27848938D01*
X94485259Y-27848938D01*
X94485262Y-27848927D01*
X94491024Y-27749998D01*
X112444532Y-27749998D01*
X112444532Y-27750001D01*
X112464364Y-27976686D01*
X112464366Y-27976697D01*
X112523258Y-28196488D01*
X112523261Y-28196497D01*
X112619431Y-28402732D01*
X112619432Y-28402734D01*
X112749954Y-28589141D01*
X112910858Y-28750045D01*
X112910861Y-28750047D01*
X113097266Y-28880568D01*
X113303504Y-28976739D01*
X113523308Y-29035635D01*
X113685230Y-29049801D01*
X113749998Y-29055468D01*
X113750000Y-29055468D01*
X113750002Y-29055468D01*
X113806673Y-29050509D01*
X113976692Y-29035635D01*
X114196496Y-28976739D01*
X114402734Y-28880568D01*
X114589139Y-28750047D01*
X114750047Y-28589139D01*
X114880568Y-28402734D01*
X114976739Y-28196496D01*
X115035635Y-27976692D01*
X115055468Y-27750000D01*
X115035635Y-27523308D01*
X114976739Y-27303504D01*
X114880568Y-27097266D01*
X114750047Y-26910861D01*
X114750045Y-26910858D01*
X114589141Y-26749954D01*
X114402734Y-26619432D01*
X114402732Y-26619431D01*
X114196497Y-26523261D01*
X114196488Y-26523258D01*
X113976697Y-26464366D01*
X113976693Y-26464365D01*
X113976692Y-26464365D01*
X113976691Y-26464364D01*
X113976686Y-26464364D01*
X113750002Y-26444532D01*
X113749998Y-26444532D01*
X113523313Y-26464364D01*
X113523302Y-26464366D01*
X113303511Y-26523258D01*
X113303502Y-26523261D01*
X113097267Y-26619431D01*
X113097265Y-26619432D01*
X112910858Y-26749954D01*
X112749954Y-26910858D01*
X112619432Y-27097265D01*
X112619431Y-27097267D01*
X112523261Y-27303502D01*
X112523258Y-27303511D01*
X112464366Y-27523302D01*
X112464364Y-27523313D01*
X112444532Y-27749998D01*
X94491024Y-27749998D01*
X94504227Y-27523313D01*
X94505585Y-27500003D01*
X94505585Y-27499996D01*
X94501554Y-27430796D01*
X94485262Y-27151073D01*
X94475775Y-27097267D01*
X94424571Y-26806872D01*
X94424569Y-26806865D01*
X94407531Y-26749953D01*
X94324326Y-26472029D01*
X94185889Y-26151096D01*
X94112022Y-26023155D01*
X94011129Y-25848402D01*
X93802415Y-25568050D01*
X93802410Y-25568044D01*
X93686433Y-25445117D01*
X93562558Y-25313817D01*
X93429406Y-25202089D01*
X93390704Y-25143918D01*
X93389596Y-25074057D01*
X93426433Y-25014687D01*
X93489520Y-24984658D01*
X93509112Y-24983100D01*
X133490888Y-24983100D01*
X133557927Y-25002785D01*
G37*
%TD.AperFunction*%
%TD*%
M02*
